<svg width="16" height="16" viewBox="0 0 16 16" fill="none" xmlns="http://www.w3.org/2000/svg">
<path d="M15.7702 7.26602C15.6503 7.06602 12.6642 2.66602 7.99852 2.66602C3.33281 2.66602 0.346766 7.06602 0.22679 7.26602C-0.0664822 7.71935 -0.0664822 8.29268 0.22679 8.74601C0.346766 8.93268 3.34615 13.3327 7.99852 13.3327C12.6509 13.3327 15.6503 8.93268 15.7702 8.73268C16.0768 8.29268 16.0768 7.70602 15.7702 7.26602ZM7.99852 11.3327C6.1589 11.3327 4.66587 9.83935 4.66587 7.99935C4.66587 6.15935 6.1589 4.66602 7.99852 4.66602C9.83814 4.66602 11.3312 6.15935 11.3312 7.99935C11.3312 9.83935 9.83814 11.3327 7.99852 11.3327Z" fill="#EF3340"/>
<path d="M7.99854 9.99941C9.10288 9.99941 9.99813 9.10398 9.99813 7.99941C9.99813 6.89484 9.10288 5.99941 7.99854 5.99941C6.8942 5.99941 5.99896 6.89484 5.99896 7.99941C5.99896 9.10398 6.8942 9.99941 7.99854 9.99941Z" fill="#EF3340"/>
</svg>