<svg width="246" height="245" viewBox="0 0 246 245" fill="none" xmlns="http://www.w3.org/2000/svg">
<path d="M231.572 44.1195L49.9616 11.3075C40.6315 9.58053 31.6287 15.9127 29.9918 25.2875L0.282691 191.321C-1.43602 200.696 4.86592 209.742 14.1961 211.387L195.807 244.199C205.137 245.926 214.139 239.594 215.776 230.219L245.485 64.185C247.122 54.8102 240.902 45.8465 231.572 44.1195Z" fill="#EDEFF5"/>
<path d="M26.1471 66.9439L30.8323 73.007C31.1611 73.4112 31.6542 73.6537 32.1474 73.5729L39.8739 73.1687C41.1068 73.0878 41.9288 74.4621 41.189 75.513L36.8326 81.8186C36.586 82.2229 36.5038 82.7079 36.6682 83.1929L39.4629 90.3069C39.9561 91.4387 38.8053 92.6513 37.5724 92.328L30.1747 90.1453C29.6815 89.9836 29.1883 90.1452 28.7774 90.3878L22.777 95.1574C21.7907 95.9658 20.3111 95.2382 20.3111 94.0256L20.1467 86.4265C20.1467 85.9415 19.9002 85.4564 19.4892 85.2139L12.9957 81.0911C11.9271 80.4443 12.0915 78.8275 13.3245 78.4233L20.6399 75.9172C21.1331 75.7555 21.4619 75.3513 21.6263 74.8663L23.599 67.5098C23.7634 66.2163 25.4073 65.893 26.1471 66.9439Z" fill="#FFB75E"/>
<path d="M233.81 69.0908L232.986 74.8494C232.904 75.2493 233.068 75.5693 233.316 75.8892L237.684 79.8083C238.426 80.4481 238.014 81.6478 237.107 81.8078L231.255 82.7676C230.843 82.8475 230.514 83.0875 230.349 83.4074L227.876 88.6862C227.464 89.566 226.228 89.5659 225.733 88.7661L222.931 83.6473C222.766 83.3274 222.437 83.0875 222.025 83.0075L216.091 82.3677C215.102 82.2877 214.69 81.0879 215.349 80.4481L219.47 76.2891C219.717 76.0492 219.882 75.6492 219.799 75.2493L218.646 69.5707C218.481 68.6109 219.47 67.8911 220.294 68.291L225.651 70.8504C225.981 71.0103 226.393 71.0103 226.722 70.8504L231.915 68.051C232.904 67.4912 233.975 68.211 233.81 69.0908Z" fill="#FFB75E"/>
<path d="M49.3539 147.294L50.0201 153.657C50.1034 154.087 50.2699 154.431 50.6863 154.603L56.182 157.612C57.098 158.128 57.0148 159.418 56.0988 159.848L50.4365 162.514C50.1034 162.686 49.7703 163.03 49.7703 163.46L48.6878 169.737C48.5212 170.768 47.2722 171.112 46.606 170.339L42.4426 165.609C42.1928 165.265 41.7764 165.179 41.3601 165.179L35.1981 166.039C34.1989 166.211 33.4494 165.093 33.9491 164.147L37.03 158.558C37.1966 158.214 37.2799 157.784 37.03 157.354L34.2822 151.851C33.8658 150.905 34.6152 149.873 35.6145 150.045L41.6932 151.335C42.1095 151.421 42.5259 151.335 42.7757 150.991L47.2722 146.52C48.0216 145.832 49.2707 146.262 49.3539 147.294Z" fill="#FFB75E"/>
<mask id="mask0" mask-type="alpha" maskUnits="userSpaceOnUse" x="0" y="11" width="246" height="234">
<path d="M231.572 44.1195L49.9616 11.3075C40.6315 9.58053 31.6287 15.9127 29.9918 25.2875L0.282691 191.321C-1.43602 200.696 4.86592 209.742 14.1961 211.387L195.807 244.199C205.137 245.926 214.139 239.594 215.776 230.219L245.485 64.185C247.122 54.8102 240.902 45.8465 231.572 44.1195Z" fill="#EDEFF5"/>
</mask>
<g mask="url(#mask0)">
<path d="M116.474 159.064L119.096 179.965L114.588 181.359C114.588 181.359 123.604 196.522 136.637 195.456C144.505 194.964 143.849 181.113 143.849 181.113L137.948 178.818L137.62 161.441L116.474 159.064Z" fill="#BD7A66"/>
<path d="M199.748 203.734C199.748 203.734 198.601 207.75 191.224 209.225C180.733 211.275 180.159 197.914 180.159 197.914C180.159 197.914 180.241 195.947 188.11 196.111C199.912 196.275 199.748 203.734 199.748 203.734Z" fill="#31374C"/>
<path d="M199.502 200.457C199.502 200.457 199.83 196.768 191.224 194.227C182.618 191.686 181.306 194.637 181.306 194.637L181.224 197.916L194.83 203.243L199.502 200.457Z" fill="#A39079"/>
<path d="M190.896 174.31C190.732 172.424 190.159 158.818 190.568 156.442C191.306 151.934 194.667 146.196 189.503 140.623C188.355 139.311 187.454 138.655 186.47 140.295C185.569 141.77 182.7 168.08 180.651 168.162C178.684 168.244 191.06 176.195 190.896 174.31Z" fill="#E09E7D"/>
<path d="M183.437 184.391C185.569 169.392 197.207 186.194 197.207 186.194L195.65 206.603L181.634 201.603C182.618 196.194 182.618 190.292 183.437 184.391Z" fill="#E09E7D"/>
<path d="M181.716 169.719C181.716 169.719 182.864 163.572 183.601 163.162C184.257 162.753 185.568 161.031 187.453 161.523C189.339 162.015 189.748 164.146 189.748 164.146C189.748 164.146 189.421 163.654 191.388 163.326C193.355 162.998 194.666 164.228 194.666 164.228C194.666 164.228 196.797 163.162 197.945 163.572C199.092 163.9 200.404 165.785 200.404 165.785C200.404 165.785 202.699 164.966 204.092 166.195C205.076 167.097 207.862 174.637 207.207 177.424C206.879 178.981 205.24 179.965 203.764 181.03C203.027 184.227 204.502 189.882 194.83 195.128C193.191 196.03 182.864 195.21 181.798 190.046C180.733 184.883 181.716 169.719 181.716 169.719Z" fill="#E09E7D"/>
<path d="M200.403 165.949C201.387 167.588 202.207 169.31 202.862 171.113C203.19 172.015 203.518 172.916 203.682 173.9C203.764 174.391 203.846 174.883 203.764 175.375C203.764 175.621 203.682 175.867 203.6 176.195C203.518 176.523 203.354 176.768 203.19 177.014C202.043 178.654 200.649 179.965 199.338 181.276C199.174 181.44 199.01 181.604 198.764 181.768C198.518 182.014 198.19 182.096 197.944 182.178C197.371 182.26 196.797 182.178 196.305 181.932C195.322 181.522 194.584 180.539 194.584 179.555C194.994 180.457 195.731 181.03 196.551 181.194C196.961 181.276 197.371 181.358 197.699 181.276C197.863 181.194 198.026 181.112 198.108 181.031L198.518 180.539C199.748 179.145 201.141 177.834 202.207 176.359C202.289 176.195 202.452 176.031 202.452 175.867C202.452 175.703 202.534 175.457 202.534 175.293C202.534 174.883 202.534 174.391 202.452 173.982C202.37 173.08 202.207 172.178 201.961 171.277C201.715 169.474 201.059 167.67 200.403 165.949Z" fill="#BD7A66"/>
<path d="M203.027 182.834C202.781 183.244 202.453 183.572 202.125 183.818C201.716 184.063 201.306 184.227 200.814 184.391C200.322 184.473 199.83 184.473 199.339 184.227C198.847 184.063 198.519 183.654 198.437 183.162C198.847 183.408 199.257 183.49 199.584 183.49C199.912 183.49 200.322 183.49 200.65 183.408C201.388 183.244 202.125 182.998 203.027 182.834Z" fill="#BD7A66"/>
<path d="M194.83 165.539C195.978 167.506 196.961 169.555 197.617 171.768C197.945 172.916 198.191 173.981 198.109 175.293C198.109 175.621 198.027 175.948 197.863 176.276C197.781 176.604 197.617 176.85 197.453 177.096C197.125 177.588 196.715 178.079 196.388 178.489C195.65 179.391 194.748 180.129 193.929 180.866C193.355 181.358 192.617 181.44 192.044 181.358C191.388 181.276 190.814 181.03 190.322 180.62C189.339 179.801 189.093 178.407 189.257 177.26C189.421 176.112 189.749 175.047 190.24 173.981C189.913 175.047 189.667 176.194 189.667 177.26C189.667 178.325 189.994 179.473 190.814 180.047C191.224 180.374 191.716 180.456 192.207 180.538C192.699 180.538 193.191 180.456 193.437 180.129C194.257 179.391 194.994 178.571 195.732 177.752C196.06 177.342 196.388 176.932 196.715 176.44C196.879 176.194 196.961 176.03 197.043 175.785C197.125 175.621 197.207 175.375 197.207 175.129C197.289 174.145 197.125 172.998 196.879 171.932C196.306 169.883 195.568 167.67 194.83 165.539Z" fill="#BD7A66"/>
<path d="M189.338 168.818C189.994 169.966 190.404 171.113 190.814 172.343C190.978 172.917 191.224 173.49 191.388 174.064C191.552 174.638 191.715 175.212 192.125 175.785C191.47 175.539 191.06 174.966 190.65 174.392C190.322 173.818 190.076 173.244 189.83 172.589C189.666 171.933 189.502 171.359 189.42 170.704C189.257 170.13 189.257 169.556 189.338 168.818Z" fill="#BD7A66"/>
<path d="M182.536 193.078C182.536 193.078 175.323 182.259 174.831 179.062C174.421 176.522 178.273 167.997 180.568 167.751C182.863 167.506 184.831 169.309 186.06 169.801C187.207 170.292 192.781 172.669 192.535 173.981C192.289 175.292 189.912 178.079 182.863 176.03C182.863 176.03 183.437 177.833 182.945 178.325C182.945 178.325 186.962 178.489 188.765 181.767C190.568 185.046 195.076 194.062 182.536 193.078Z" fill="#E09E7D"/>
<path d="M180.568 167.753C181.552 167.343 182.699 167.507 183.601 167.917C184.585 168.327 185.404 168.9 186.224 169.31C188.027 170.048 189.83 170.868 191.551 172.015C191.961 172.343 192.371 172.589 192.781 173.081C192.863 173.245 192.945 173.327 193.027 173.572C193.027 173.654 193.109 173.818 193.109 173.9C193.109 174.064 193.109 174.146 193.109 174.228C193.027 174.556 192.863 174.802 192.699 175.048C192.043 176.031 191.06 176.605 190.076 176.933C188.027 177.589 185.896 177.343 184.011 176.769L184.503 176.523C184.339 176.851 184.175 177.261 184.011 177.589C183.847 177.916 183.683 178.326 183.355 178.654L183.027 177.916C184.421 177.834 185.732 178.08 186.962 178.572C188.191 179.064 189.338 179.966 190.24 180.949C191.06 182.015 191.715 183.244 192.043 184.556C192.371 185.867 192.125 187.342 191.387 188.408C191.797 187.178 191.715 185.949 191.306 184.801C190.896 183.654 190.24 182.588 189.42 181.687C188.601 180.785 187.617 180.129 186.552 179.638C185.486 179.146 184.257 178.818 183.027 178.736H182.126L182.699 177.998C182.863 177.753 183.109 177.425 183.273 177.097C183.437 176.769 183.601 176.441 183.765 176.031L183.929 175.703L184.339 175.785C186.142 176.277 188.109 176.359 189.83 175.703C190.65 175.376 191.469 174.884 191.879 174.228C191.961 174.064 192.043 173.9 192.125 173.736C192.125 173.654 192.125 173.736 192.125 173.736C192.125 173.736 192.043 173.654 192.043 173.572C191.797 173.327 191.469 172.999 191.06 172.753C189.502 171.687 187.699 170.95 185.978 170.13C183.847 169.228 182.535 168.081 180.568 167.753Z" fill="#BD7A66"/>
<path d="M190.404 195.129C189.748 195.457 188.929 195.703 188.191 195.785C187.453 195.867 186.634 195.867 185.814 195.703C185.076 195.539 184.257 195.211 183.683 194.719C183.027 194.227 182.536 193.572 182.372 192.834C182.945 193.326 183.519 193.736 184.175 194.063C184.83 194.391 185.486 194.555 186.142 194.719C186.798 194.883 187.535 194.965 188.273 195.047C188.847 195.047 189.584 195.047 190.404 195.129Z" fill="#BD7A66"/>
<path d="M197.043 210.702L199.502 200.538C199.502 200.538 196.633 202.915 188.765 200.128C181.224 197.424 181.306 194.719 181.306 194.719L180.568 199.145L182.208 203.079L197.043 210.702Z" fill="#EDE9D9"/>
<path d="M180.159 197.916L177.864 213.981C177.864 213.981 177.29 213.899 176.798 213.899C175.487 213.899 175.323 214.964 175.323 214.964C174.175 212.013 166.061 201.932 163.602 196.604C159.422 187.342 157.619 184.966 152.865 183.408C130.325 195.457 166.389 245.209 181.634 242.012C197.125 238.816 199.748 203.653 199.748 203.653C197.699 206.686 183.027 203.489 180.159 197.916Z" fill="#57617F"/>
<path d="M177.536 214.717C177.536 214.717 176.388 217.831 176.47 219.471C176.552 221.11 171.962 217.749 177.536 214.717Z" fill="#31374C"/>
<path d="M119.506 179.474C122.129 182.097 130.325 191.113 134.833 190.703C138.849 190.375 138.194 180.375 138.603 178.572C140.325 178.982 152.865 183.982 152.865 183.982C152.865 183.982 153.685 189.064 155.652 201.358C156.062 204.145 158.193 224.554 157.373 244.717C157.291 246.274 162.619 283.977 160.57 284.223C146.554 285.617 109.67 288.239 97.8675 284.059C97.8675 284.059 95.6545 247.586 95.4906 243.569C95.1627 233.488 95.2447 224.718 93.4415 210.456C91.2285 192.588 101.474 186.523 101.474 186.523L119.506 179.474Z" fill="#EDE9D9"/>
<path d="M137.231 209.239C137.728 209.201 138.094 208.695 138.05 208.109C138.006 207.522 137.568 207.076 137.071 207.114C136.574 207.151 136.208 207.657 136.252 208.244C136.296 208.831 136.735 209.276 137.231 209.239Z" fill="#D8CEB8"/>
<path d="M140.593 235.966C141.09 235.928 141.456 235.422 141.412 234.835C141.368 234.248 140.929 233.803 140.433 233.84C139.936 233.878 139.57 234.384 139.614 234.971C139.658 235.558 140.096 236.003 140.593 235.966Z" fill="#D8CEB8"/>
<path d="M146.964 285.452C143.767 235.045 136.226 192.916 136.145 192.506L137.046 192.342C137.128 192.752 144.669 234.963 147.865 285.37L146.964 285.452Z" fill="#D8CEB8"/>
<path d="M144.259 185.374C144.259 185.374 147.865 201.767 149.504 234.47C150.98 263.321 159.094 297.5 160.979 309.385C161.635 313.729 165.979 316.597 170.241 315.45L175.487 314.139C162.209 252.174 162.782 253.404 161.881 234.552C161.225 219.635 156.143 189.554 152.947 183.489L141.8 179.309L144.259 185.374Z" fill="#57617F"/>
<path d="M156.963 186.195C158.52 190.703 159.668 195.457 160.323 200.211C160.487 201.441 160.569 202.67 160.651 203.817L160.979 207.424L161.553 214.555C161.881 219.309 162.127 224.144 162.373 228.898C162.536 233.652 162.7 238.488 162.7 243.242C161.963 238.488 161.471 233.734 161.061 228.98C160.569 224.226 160.241 219.391 159.914 214.637C159.586 209.883 159.258 205.047 159.176 200.293C158.52 195.621 157.783 190.949 156.963 186.195Z" fill="#31374C"/>
<path d="M139.586 178.654L141.144 184.638C141.144 184.638 146.963 196.932 149.504 234.471C149.504 234.471 153.192 216.276 152.783 205.538L148.684 201.85L152.455 198.407L145.898 180.949L139.586 178.654Z" fill="#31374C"/>
<path d="M110.326 179.309C110.326 179.309 126.964 196.685 126.882 237.912C126.882 267.501 129.177 294.303 129.095 305.532C129.013 312.581 123.194 318.155 116.227 317.991C108.113 317.745 97.7853 316.843 90.8184 313.893C92.7035 267.419 93.1133 263.485 93.1953 252.912C93.1953 249.387 91.3101 227.995 90.2446 210.045C89.5069 196.521 93.6051 187.177 93.6051 187.177C104.26 181.522 110.326 179.309 110.326 179.309Z" fill="#57617F"/>
<path d="M113.522 177.26L104.998 181.03C104.998 181.03 114.916 194.144 115.489 203.078L120.161 205.947L115.08 209.799C115.08 209.799 126.309 230.618 126.8 237.913C126.8 237.913 129.915 215.783 124.751 197.997C121.145 185.21 113.522 177.26 113.522 177.26Z" fill="#31374C"/>
<path d="M137.702 183.49C139.587 186.441 141.8 188.818 143.029 190.785C143.439 191.522 144.669 191.358 144.341 189.719C143.849 187.096 142.947 181.933 142.292 179.556C141.062 178.326 137.948 176.031 137.948 176.031L138.03 178.736C137.948 180.047 137.702 182.261 137.702 183.49Z" fill="#D8CEB8"/>
<path d="M138.112 182.752L135.243 188.408L118.277 180.621L117.047 185.703L136.473 194.063L140.325 186.604L138.112 182.752Z" fill="#D8CEB8"/>
<path d="M136.651 191.784C137.148 191.747 137.517 191.278 137.477 190.736C137.436 190.194 137 189.785 136.504 189.823C136.007 189.86 135.638 190.33 135.678 190.871C135.719 191.413 136.155 191.822 136.651 191.784Z" fill="#D8CEB8"/>
<path d="M117.621 173.736C117.621 173.736 122.948 179.884 128.276 185.211C126.965 186.523 125.162 190.539 124.014 193.162C123.522 194.309 121.965 194.555 121.145 193.653L109.67 179.064L117.621 173.736Z" fill="#D8CEB8"/>
<path d="M90.5725 273.239C90.5725 273.239 92.8675 277.665 96.0641 276.846C99.9164 275.862 100.326 274.223 103.851 275.37C107.949 276.682 107.703 278.157 109.998 279.551C112.375 280.944 116.801 282.255 114.506 283.977C111.883 285.862 107.867 282.911 107.867 282.911C107.867 282.911 104.588 280.534 104.916 281.6C105.08 282.01 108.687 285.37 107.867 287.829C107.047 290.288 101.146 297.091 99.2607 296.599C97.3755 296.107 95.0805 294.632 95.0805 294.632C95.0805 294.632 91.5561 292.337 86.3105 285.206C74.8356 270.699 60.9018 250.863 62.705 244.224L79.7534 243.896L90.5725 273.239Z" fill="#E09E7D"/>
<path d="M95.9001 270.37C92.6216 266.108 82.2123 246.519 82.2123 246.519C82.2123 246.519 83.8515 245.289 84.0154 244.715C84.3433 242.994 83.1138 241.929 83.1138 241.929C82.8679 238.486 97.6214 224.307 99.7524 217.094C105.49 197.341 94.7527 186.439 94.7527 186.439C85.7367 189.8 65.2458 225.946 61.5574 241.027C59.2625 250.371 71.557 274.468 80.6549 284.222C85.8186 281.271 92.7035 274.632 95.9001 270.37Z" fill="#57617F"/>
<path d="M88.2778 233.814C89.5073 231.929 90.9007 230.29 92.2121 228.487C93.5235 226.766 94.8349 224.962 95.9824 223.159C96.5562 222.258 97.0479 221.274 97.5397 220.372C97.7856 219.881 98.0315 219.389 98.1954 218.897L98.5233 218.159L98.7691 217.422C99.3429 215.373 99.9167 213.242 100.245 211.193C100.9 206.93 100.9 202.586 99.9986 198.406C99.5888 196.275 98.9331 194.226 98.1135 192.259C97.2119 190.292 96.2283 188.325 94.8349 186.604C96.4742 188.161 97.7036 189.964 98.7691 191.931C99.8347 193.898 100.654 196.029 101.228 198.16C102.376 202.504 102.539 207.094 101.966 211.52C101.638 213.733 101.146 215.946 100.49 218.077C99.7527 220.29 98.6872 222.258 97.3758 224.143C94.753 227.749 91.4744 230.7 88.2778 233.814Z" fill="#31374C"/>
</g>
<path d="M169.423 27.5143C181.39 27.6782 183.931 47.9232 183.931 47.9232C183.931 47.9232 188.357 86.7739 180.406 101.363C180.406 101.363 149.998 27.2684 169.423 27.5143Z" fill="#2B2E3A"/>
<path d="M171.308 101.117C171.308 101.117 172.62 85.1336 183.029 90.6252C193.439 96.1168 192.209 131.935 168.194 122.509C168.194 122.427 162.62 116.772 171.308 101.117Z" fill="#E08B6E"/>
<path d="M76.3945 121.199C76.3945 121.199 80.0829 141.28 95.2461 151.772C110.409 162.263 91.5578 124.888 91.5578 124.888L76.3945 121.199Z" fill="#2B2E3A"/>
<path d="M173.767 32.6787C173.767 32.6787 184.094 135.297 181.144 143.084C178.111 150.87 156.145 169.394 142.703 172.59C129.261 175.869 99.9999 156.853 95.2461 151.69C92.7052 148.903 85.5744 123.658 79.8369 97.8397C74.9191 75.7096 62.5426 55.7105 63.6082 46.6125C63.5262 46.6125 120.655 8.7454 173.767 32.6787Z" fill="#E09E7D"/>
<path d="M121.72 128.656C120.819 129.968 119.999 131.115 119.343 132.345C119.016 132.918 118.688 133.574 118.442 134.23C118.114 134.885 117.868 135.541 117.54 136.279C116.966 134.722 117.212 133 118.032 131.525C118.442 130.787 118.934 130.132 119.589 129.64C120.163 129.148 120.819 128.738 121.72 128.656Z" fill="#BD7A66"/>
<path d="M161.718 131.854C161.718 131.854 158.111 142.427 146.227 144.968C137.866 146.771 128.277 141.525 123.769 136.853L142.456 135.624L161.718 131.854Z" fill="#2B2E3A"/>
<path d="M161.717 131.854L159.177 136.771C149.751 138.82 132.784 139.23 124.506 138.083C122.293 135.87 119.342 132.919 119.342 132.919C143.931 133.821 161.717 131.854 161.717 131.854Z" fill="white"/>
<path d="M119.179 131.607C122.048 134.886 125.326 137.836 129.015 140.131C132.703 142.426 136.801 144.229 141.063 144.639C145.325 145.049 149.751 143.902 153.358 141.607C156.964 139.312 159.751 135.623 161.144 131.689L161.8 132.427C158.194 133 154.751 133.246 151.145 133.41C147.62 133.574 144.096 133.738 140.49 133.82C136.965 133.902 133.441 133.902 129.834 133.902C128.031 133.902 126.31 133.82 124.507 133.82L121.884 133.738C120.982 133.738 120.081 133.656 119.261 133.41L119.343 132.591C120.245 132.427 121.146 132.427 121.966 132.509L124.589 132.591L129.916 132.673C133.441 132.755 136.965 132.755 140.49 132.673C144.014 132.591 147.538 132.509 151.063 132.345C154.587 132.099 158.112 131.853 161.554 131.361L162.538 131.197L162.292 132.099C160.735 136.443 157.784 140.131 153.932 142.59C150.161 145.049 145.489 146.197 140.981 145.787C136.473 145.377 132.211 143.492 128.441 141.115C124.671 138.656 121.31 135.705 118.441 132.345L119.179 131.607Z" fill="#BD7A66"/>
<path d="M163.797 84.2275C163.869 82.6901 162.645 81.3835 161.062 81.3093C159.48 81.235 158.138 82.4211 158.066 83.9585C157.994 85.4959 159.219 86.8024 160.801 86.8767C162.384 86.951 163.725 85.7649 163.797 84.2275Z" fill="#31374C"/>
<path d="M160.282 84.5654C160.316 84.0686 159.978 83.6406 159.526 83.6093C159.075 83.578 158.681 83.9554 158.646 84.4521C158.612 84.9488 158.95 85.3769 159.402 85.4082C159.853 85.4395 160.247 85.0621 160.282 84.5654Z" fill="white"/>
<path d="M122.863 87.4579C122.935 85.9205 121.71 84.614 120.128 84.5397C118.545 84.4654 117.204 85.6516 117.132 87.1889C117.059 88.7263 118.284 90.0329 119.867 90.1071C121.449 90.1814 122.791 88.9953 122.863 87.4579Z" fill="#31374C"/>
<path d="M119.347 87.7958C119.381 87.2991 119.043 86.8711 118.591 86.8398C118.14 86.8085 117.746 87.1858 117.711 87.6826C117.677 88.1793 118.015 88.6074 118.467 88.6387C118.918 88.6699 119.312 88.2926 119.347 87.7958Z" fill="white"/>
<path d="M89.0167 112.757C89.0167 112.757 84.0989 90.6265 90.574 75.7092C95.3279 64.808 85.7382 50.3824 80.4106 45.4646C80.4106 45.4646 59.7557 44.481 58.7722 45.5466C52.8708 51.6119 47.4612 68.5783 68.9357 108.658L89.0167 112.757Z" fill="#2B2E3A"/>
<path d="M175.243 18.2523C173.931 17.5147 172.702 16.695 171.473 15.9574C162.457 10.138 153.195 4.6464 142.621 2.10554C113.852 -4.94333 82.5422 6.03979 63.1988 30.0551C61.5595 32.1042 57.8711 37.104 57.0515 39.6448C56.4778 41.3661 57.2974 47.6772 56.3958 48.9886C54.0189 52.4311 55.2483 54.89 55.3303 55.9555C55.6581 61.2832 91.3122 76.9382 87.4599 64.3158C83.7716 53.6606 82.6241 52.5131 86.4764 48.9886C93.3613 42.5955 106.394 40.3005 137.458 44.8905C152.949 47.1854 174.997 45.874 188.275 37.1039C191.144 35.2188 195.078 31.0386 193.931 27.2683C192.455 22.5964 186.39 22.7603 182.62 21.6128C179.915 20.7932 177.538 19.5637 175.243 18.2523Z" fill="#2B2E3A"/>
<path d="M104.016 71.3655C105.327 62.2676 120.901 56.2843 126.228 61.448C129.343 64.8085 125.736 64.8085 122.376 64.6446C115.819 65.0544 110.409 66.8576 107.704 70.0541C106.065 72.4311 102.951 75.2998 104.016 71.3655Z" fill="#2B2E3A"/>
<path d="M168.603 65.4642C165.489 62.5955 163.276 61.8578 156.719 62.4316C153.44 63.0873 149.834 63.5791 152.539 59.8087C157.129 53.9893 169.915 57.5138 172.456 66.3658C174.013 70.1361 171.882 68.9887 169.997 66.7756" fill="#2B2E3A"/>
<path d="M83.1973 111.937C83.1973 111.937 77.5419 100.298 67.8702 106.937C58.1985 113.576 67.6243 147.017 90.3282 134.887C90.3282 134.887 93.6887 126.444 83.1973 111.937Z" fill="#E09E7D"/>
<path d="M69.1001 115.051C70.1656 113.985 71.477 113.166 72.8704 112.838C74.2638 112.428 75.8211 112.838 76.9686 113.657C78.1161 114.477 79.0177 115.625 79.7554 116.854C80.493 118.083 81.0668 119.395 81.6405 120.788L82.0503 120.215C80.575 120.46 79.2636 120.952 78.198 122.018C77.1325 123.083 76.8046 124.559 77.0505 125.952C77.1325 126.608 77.3784 127.263 77.7882 127.837C78.198 128.411 78.7718 128.821 79.4275 129.067C80.7389 129.64 82.1323 129.722 83.4437 129.558C82.1323 129.558 80.7389 129.312 79.5914 128.739C79.0177 128.411 78.5259 128.001 78.198 127.509C77.8702 127.017 77.6243 126.444 77.6243 125.788C77.5423 124.559 77.8702 123.329 78.6898 122.51C79.5094 121.69 80.8209 121.198 82.0503 121.034L82.6241 120.952L82.4601 120.46C81.8864 119.067 81.2307 117.756 80.493 116.444C79.6734 115.215 78.6898 113.985 77.3784 113.084C76.067 112.182 74.2638 111.854 72.7885 112.428C71.2311 112.838 70.0017 113.821 69.1001 115.051Z" fill="#BD7A66"/>
<path d="M158.276 115.871C158.276 115.871 145.9 135.46 135.49 116.199C135.49 116.199 147.129 118.986 158.276 115.871Z" fill="#BD7A66"/>
<path d="M178.521 23.5799C178.521 23.5799 198.438 18.4981 177.865 8.82644C177.865 8.82644 160.899 2.02347 156.555 10.0559L178.521 23.5799Z" fill="#2B2E3A"/>
<path opacity="0.56" d="M149.588 77.7578C149.588 77.7578 147.457 94.2325 158.276 115.953C158.276 115.953 144.342 120.379 135.49 116.199C135.49 116.199 138.604 87.1836 132.703 78.7413C132.703 78.7413 142.785 80.3806 149.588 77.7578Z" fill="url(#paint0_linear)"/>
<path d="M99.0981 40.3822C99.0981 40.3822 129.589 67.2662 128.605 43.2509C128.605 43.2509 164.095 63.0861 155.817 41.6116C155.817 41.6116 111.393 36.5299 99.0981 40.3822Z" fill="#2B2E3A"/>
<path opacity="0.2" d="M162.128 97.4281C162.866 99.3133 166.39 99.7231 170.079 98.3297C173.767 96.9363 176.144 94.3135 175.488 92.4283C174.751 90.5432 171.226 90.1334 167.538 91.5267C163.849 92.9201 161.472 95.543 162.128 97.4281Z" fill="#EF3F54"/>
<path opacity="0.2" d="M123.36 98.4942C123.114 100.625 118.852 101.937 113.934 101.363C109.016 100.789 105.164 98.5761 105.492 96.3631C105.738 94.232 110 92.9206 114.917 93.4944C119.835 94.0681 123.606 96.2811 123.36 98.4942Z" fill="#EF3F54"/>
<defs>
<linearGradient id="paint0_linear" x1="141.494" y1="85.6209" x2="146.435" y2="114.162" gradientUnits="userSpaceOnUse">
<stop stop-color="#E09E7D"/>
<stop offset="1" stop-color="#BD7A66"/>
</linearGradient>
</defs>
</svg>
