<svg width="333" height="281" viewBox="0 0 333 281" fill="none" xmlns="http://www.w3.org/2000/svg">
<mask id="mask0" mask-type="alpha" maskUnits="userSpaceOnUse" x="0" y="0" width="302" height="281">
<path d="M301.915 247.82L285.655 13.459C285.101 5.50167 278.251 -0.51824 270.294 0.0353154L14.2745 17.7491C6.3171 18.3026 0.29719 25.2221 0.850745 33.1794L17.0422 267.541C17.5958 275.498 24.5152 281.518 32.4726 280.965L288.492 263.251C296.449 262.697 302.469 255.778 301.915 247.82Z" fill="#F2EEE2"/>
</mask>
<g mask="url(#mask0)">
<path d="M513.858 -31.8633H-234.479V248.097H513.858V-31.8633Z" fill="url(#paint0_linear)"/>
<path d="M514.204 240.139H-231.988V352.372H514.204V240.139Z" fill="#86A5BF"/>
<path d="M461.686 -28.4727H143.461V227.131H461.686V-28.4727Z" fill="url(#paint1_linear)"/>
<path d="M153.286 11.9359C156.123 10.7596 159.86 9.65252 164.842 9.02977C164.842 9.02977 167.817 -6.88494 187.607 -4.04797C207.396 -1.211 225.11 9.72171 225.11 9.72171C225.11 9.72171 235.074 1.21081 245.661 6.88474C248.429 8.33783 250.574 9.8601 252.234 11.1748C255.071 13.5274 253.411 18.1634 249.674 18.1634H154.532C151.003 18.2326 149.965 13.3198 153.286 11.9359Z" fill="#E7DCC3"/>
<path d="M268.08 18.233H262.614C260.607 18.233 258.947 16.5724 258.947 14.5657C258.947 12.5591 260.607 10.8984 262.614 10.8984H268.08C270.087 10.8984 271.748 12.5591 271.748 14.5657C271.679 16.5724 270.087 18.233 268.08 18.233Z" fill="#E7DCC3"/>
<path d="M459.057 42.0352L139.171 45.4257L139.655 185.613L459.541 182.223L459.057 42.0352Z" fill="#9FBAC9"/>
<path d="M482.652 44.042L134.12 47.4325V43.0733L482.652 39.752V44.042Z" fill="#DED3C1"/>
<path d="M163.714 109.287L145.931 109.447L146.005 117.681L163.788 117.521L163.714 109.287Z" fill="#86A5BF"/>
<path d="M184.196 109.149L166.413 109.309L166.487 117.543L184.27 117.383L184.196 109.149Z" fill="#86A5BF"/>
<path d="M204.678 108.942L186.896 109.102L186.97 117.336L204.753 117.176L204.678 108.942Z" fill="#86A5BF"/>
<path d="M225.161 108.733L207.378 108.893L207.452 117.127L225.235 116.967L225.161 108.733Z" fill="#86A5BF"/>
<path d="M245.643 108.596L227.86 108.756L227.934 116.99L245.717 116.83L245.643 108.596Z" fill="#86A5BF"/>
<path d="M266.126 108.387L248.343 108.547L248.417 116.781L266.2 116.621L266.126 108.387Z" fill="#86A5BF"/>
<path d="M287.369 108.177L268.825 108.344L268.899 116.578L287.443 116.411L287.369 108.177Z" fill="#86A5BF"/>
<path d="M308.682 108.038L290.138 108.205L290.212 116.439L308.756 116.272L308.682 108.038Z" fill="#86A5BF"/>
<path d="M152.019 120.981L134.236 121.141L134.31 129.375L152.093 129.215L152.019 120.981Z" fill="#86A5BF"/>
<path d="M172.501 120.774L154.718 120.934L154.792 129.168L172.575 129.008L172.501 120.774Z" fill="#86A5BF"/>
<path d="M193.053 120.635L175.271 120.795L175.345 129.029L193.128 128.869L193.053 120.635Z" fill="#86A5BF"/>
<path d="M213.535 120.428L195.752 120.588L195.827 128.822L213.61 128.662L213.535 120.428Z" fill="#86A5BF"/>
<path d="M234.018 120.219L216.235 120.379L216.309 128.613L234.092 128.453L234.018 120.219Z" fill="#86A5BF"/>
<path d="M254.501 120.082L236.718 120.242L236.792 128.476L254.575 128.316L254.501 120.082Z" fill="#86A5BF"/>
<path d="M275.744 119.87L257.2 120.037L257.274 128.271L275.818 128.104L275.744 119.87Z" fill="#86A5BF"/>
<path d="M318.369 119.454L299.825 119.621L299.899 127.855L318.443 127.688L318.369 119.454Z" fill="#86A5BF"/>
<path d="M163.921 131.916L146.138 132.076L146.212 140.31L163.995 140.15L163.921 131.916Z" fill="#86A5BF"/>
<path d="M204.886 131.57L187.103 131.73L187.177 139.965L204.96 139.805L204.886 131.57Z" fill="#86A5BF"/>
<path d="M225.368 131.361L207.585 131.521L207.66 139.756L225.442 139.596L225.368 131.361Z" fill="#86A5BF"/>
<path d="M245.851 131.225L228.068 131.385L228.142 139.619L245.925 139.459L245.851 131.225Z" fill="#86A5BF"/>
<path d="M266.333 131.016L248.55 131.176L248.624 139.41L266.407 139.25L266.333 131.016Z" fill="#86A5BF"/>
<path d="M287.577 130.806L269.033 130.973L269.107 139.207L287.651 139.04L287.577 130.806Z" fill="#86A5BF"/>
<path d="M308.889 130.599L290.345 130.766L290.419 139L308.963 138.833L308.889 130.599Z" fill="#86A5BF"/>
<path d="M152.227 143.61L134.444 143.77L134.518 152.004L152.301 151.844L152.227 143.61Z" fill="#86A5BF"/>
<path d="M172.709 143.402L154.926 143.562L155 151.797L172.783 151.637L172.709 143.402Z" fill="#86A5BF"/>
<path d="M193.192 143.193L175.409 143.354L175.483 151.588L193.266 151.428L193.192 143.193Z" fill="#86A5BF"/>
<path d="M213.743 143.055L195.96 143.215L196.035 151.449L213.818 151.289L213.743 143.055Z" fill="#86A5BF"/>
<path d="M234.226 142.848L216.443 143.008L216.517 151.242L234.3 151.082L234.226 142.848Z" fill="#86A5BF"/>
<path d="M254.708 142.641L236.925 142.801L236.999 151.035L254.782 150.875L254.708 142.641Z" fill="#86A5BF"/>
<path d="M275.952 142.499L257.408 142.666L257.482 150.9L276.026 150.733L275.952 142.499Z" fill="#86A5BF"/>
<path d="M297.264 142.29L278.72 142.457L278.794 150.691L297.338 150.524L297.264 142.29Z" fill="#86A5BF"/>
<path d="M318.577 142.083L300.033 142.25L300.107 150.484L318.651 150.317L318.577 142.083Z" fill="#86A5BF"/>
<path d="M293.248 105.628L311.792 105.461L311.718 97.2268L293.174 97.3937L293.248 105.628Z" fill="#86A5BF"/>
<path d="M271.932 105.804L290.476 105.637L290.402 97.4026L271.858 97.5695L271.932 105.804Z" fill="#86A5BF"/>
<path d="M250.616 106.05L269.16 105.883L269.086 97.6487L250.542 97.8155L250.616 106.05Z" fill="#86A5BF"/>
<path d="M229.299 106.225L247.843 106.059L247.769 97.8245L229.225 97.9913L229.299 106.225Z" fill="#86A5BF"/>
<path d="M208.02 106.386L207.951 98.1521L226.495 98.0137L226.564 106.248" fill="#86A5BF"/>
<path d="M186.666 106.577L205.21 106.41L205.136 98.176L186.592 98.3429L186.666 106.577Z" fill="#86A5BF"/>
<path d="M165.35 106.753L183.894 106.586L183.82 98.3518L165.276 98.5187L165.35 106.753Z" fill="#86A5BF"/>
<path d="M144.034 106.999L162.578 106.832L162.504 98.5979L143.959 98.7648L144.034 106.999Z" fill="#86A5BF"/>
<path d="M283.591 94.1825L302.135 94.0156L302.061 85.7815L283.517 85.9484L283.591 94.1825Z" fill="#86A5BF"/>
<path d="M262.275 94.3583L280.819 94.1914L280.745 85.9573L262.201 86.1242L262.275 94.3583Z" fill="#86A5BF"/>
<path d="M240.958 94.536L259.502 94.3691L259.428 86.135L240.884 86.3019L240.958 94.536Z" fill="#86A5BF"/>
<path d="M219.641 94.7118L238.186 94.5449L238.111 86.3108L219.567 86.4777L219.641 94.7118Z" fill="#86A5BF"/>
<path d="M198.326 94.956L216.87 94.7891L216.796 86.5549L198.251 86.7218L198.326 94.956Z" fill="#86A5BF"/>
<path d="M177.009 95.1337L195.553 94.9668L195.479 86.7327L176.935 86.8996L177.009 95.1337Z" fill="#86A5BF"/>
<path d="M155.692 95.3094L174.236 95.1426L174.162 86.9085L155.618 87.0753L155.692 95.3094Z" fill="#86A5BF"/>
<path d="M134.376 95.4852L152.92 95.3184L152.846 87.0842L134.302 87.2511L134.376 95.4852Z" fill="#86A5BF"/>
<path d="M293.05 83.0204L311.594 82.8535L311.52 74.6194L292.976 74.7863L293.05 83.0204Z" fill="#86A5BF"/>
<path d="M271.733 83.1962L290.277 83.0293L290.203 74.7952L271.659 74.9621L271.733 83.1962Z" fill="#86A5BF"/>
<path d="M250.416 83.372L268.96 83.2051L268.886 74.971L250.342 75.1379L250.416 83.372Z" fill="#86A5BF"/>
<path d="M229.1 83.6181L247.644 83.4512L247.57 75.217L229.026 75.384L229.1 83.6181Z" fill="#86A5BF"/>
<path d="M207.784 83.7938L226.328 83.627L226.254 75.3928L207.71 75.5597L207.784 83.7938Z" fill="#86A5BF"/>
<path d="M186.467 83.9696L205.011 83.8027L204.937 75.5686L186.393 75.7355L186.467 83.9696Z" fill="#86A5BF"/>
<path d="M165.15 84.1454L183.694 83.9785L183.62 75.7444L165.076 75.9113L165.15 84.1454Z" fill="#86A5BF"/>
<path d="M262.076 71.7508L280.62 71.584L280.546 63.3498L262.002 63.5167L262.076 71.7508Z" fill="#86A5BF"/>
<path d="M240.759 71.9286L259.303 71.7617L259.229 63.5276L240.685 63.6945L240.759 71.9286Z" fill="#86A5BF"/>
<path d="M219.442 72.1044L237.986 71.9375L237.912 63.7034L219.368 63.8703L219.442 72.1044Z" fill="#86A5BF"/>
<path d="M198.126 72.3485L216.67 72.1816L216.596 63.9475L198.052 64.1144L198.126 72.3485Z" fill="#86A5BF"/>
<path d="M176.81 72.5263L195.354 72.3594L195.28 64.1252L176.736 64.2922L176.81 72.5263Z" fill="#86A5BF"/>
<path d="M155.493 72.7021L174.037 72.5352L173.963 64.301L155.419 64.4679L155.493 72.7021Z" fill="#86A5BF"/>
<path d="M134.177 72.8778L152.721 72.7109L152.647 64.4768L134.103 64.6437L134.177 72.8778Z" fill="#86A5BF"/>
<path d="M457.742 149.287C456.358 149.425 454.974 149.841 453.659 149.91C452.068 150.048 451.099 149.91 449.508 150.325C448.124 150.671 446.878 150.256 445.425 150.256C444.11 150.325 443.072 150.671 441.827 150.809C440.443 150.948 438.852 150.532 437.537 150.671C436.845 150.74 436.361 151.224 435.599 151.363C434.908 151.501 434.146 151.224 433.385 151.224C432.624 151.224 431.794 151.57 431.033 151.501C430.341 151.432 429.995 150.809 429.441 150.809C428.818 150.809 428.472 151.501 427.711 151.363C426.673 151.155 426.535 149.91 426.051 149.287C426.189 149.979 426.051 151.224 425.705 151.916C425.22 151.224 424.182 150.948 423.56 150.394C423.629 150.948 423.767 151.57 423.836 152.124C423.283 151.501 422.245 150.394 421.276 150.394C421.899 153.231 414.495 153.093 412.489 152.47C411.589 152.124 411.035 151.57 410.69 150.74C410.69 151.224 410.62 152.124 410.067 152.332C409.79 152.47 408.821 152.193 408.544 151.916C408.06 152.193 407.299 152.678 406.676 152.608C406.815 152.193 406.953 151.501 406.676 151.086C406.053 152.055 404.946 152.055 403.839 152.401C401.21 153.162 398.235 152.816 395.536 152.747C395.259 152.747 394.567 152.678 394.29 152.608C394.014 152.608 393.183 152.332 393.045 152.332C392.076 152.401 390.416 153.508 389.931 152.193C389.239 152.401 388.617 152.816 387.925 152.885C387.648 152.885 385.226 152.539 385.226 152.332C385.157 154.061 381.766 153.093 380.521 153.093C379.621 153.093 378.791 153.369 377.961 153.3C377.615 153.3 376.853 152.816 376.577 152.885C375.954 153.023 376.3 153.508 375.885 153.715C374.708 154.269 371.941 153.439 370.557 153.715C369.726 153.854 368.965 153.992 368.066 153.923C367.72 153.854 367.028 153.646 366.751 153.715C366.059 153.715 366.059 153.992 365.436 154.131C362.53 154.753 359.14 154.269 356.164 154.269C352.566 154.269 348.968 154.2 345.37 153.992C325.58 152.954 306.275 149.979 287.108 147.626C259.638 144.236 234.313 149.495 207.189 150.117C192.658 150.463 151.972 148.595 136.957 147.626L139.794 200.56C186.5 202.705 198.401 195.716 244.415 203.051C379.206 224.501 396.435 204.781 458.434 210.524L457.742 149.287Z" fill="#49889E"/>
<path d="M459.333 179.111C458.226 179.941 454.074 179.664 451.791 179.872C449.369 180.149 446.532 180.495 444.041 180.633C442.173 180.702 440.512 180.495 438.852 180.218C438.298 180.149 437.122 179.803 436.499 179.803C435.669 179.803 435.461 180.287 434.492 180.218C433.247 180.218 433.316 179.664 433.247 179.388C432.97 179.733 431.586 180.079 430.548 180.149C429.095 180.287 429.095 179.941 428.957 179.595C428.403 180.287 424.321 180.149 423.698 179.526C424.044 179.872 421.276 180.633 420.584 180.841C420.654 180.425 419.892 179.872 419.062 179.595C419.408 179.734 418.439 180.218 418.232 180.287C417.471 180.564 416.848 180.495 415.948 180.356C413.942 180.01 412.489 179.526 410.136 179.318C409.928 179.664 409.79 180.287 408.752 180.495C407.022 180.841 407.091 180.287 405.984 179.941C405.984 180.218 404.877 180.495 404.116 180.425C403.217 180.356 402.317 179.803 402.04 179.526C401.625 179.733 400.726 179.941 400.034 179.941C398.857 180.01 398.927 179.664 398.857 179.388C398.857 179.595 395.813 179.664 395.398 179.664C394.083 179.595 392.284 179.042 391.523 178.696C391.938 178.972 392.561 179.733 391.315 179.803C390.277 179.803 388.755 179.111 388.271 178.834C388.755 179.111 386.748 179.526 386.195 179.595C385.295 179.664 384.742 179.526 383.911 179.388C381.351 179.111 378.929 179.664 376.3 179.526C373.74 179.388 371.802 179.318 369.242 179.388C366.059 179.457 364.537 179.042 361.562 178.903C359.901 178.834 359.762 179.249 358.725 179.18C357.479 179.18 356.718 178.626 355.334 178.557C355.126 180.149 349.037 178.557 347.031 178.626C345.439 178.696 345.37 179.111 343.156 179.042C342.256 178.972 341.357 178.696 340.526 178.696C339.627 178.696 339.973 179.111 339.212 179.111C337.689 179.18 336.513 178.765 335.06 178.765C333.261 178.765 332.984 179.18 330.978 179.042C329.317 178.972 328.348 178.834 326.48 178.834C322.744 178.834 318.799 178.626 315.132 178.488C315.132 178.211 314.925 177.865 314.994 177.588C314.717 177.727 313.887 178.004 313.679 178.142C313.333 177.934 313.264 177.588 313.264 177.243C312.018 177.588 309.943 178.35 308.144 178.142C306.76 178.004 304.822 177.035 303.369 176.758C303.507 177.242 303.023 177.727 301.639 178.004C300.809 177.173 297.764 176.897 295.619 176.551C296.104 176.827 296.311 177.173 295.55 177.381C294.097 177.796 293.198 177.035 292.09 176.758C288.631 175.928 289.392 177.104 286.14 176.966C283.51 176.827 284.894 176.135 281.642 176.343C279.359 176.481 277.144 176.62 274.861 176.758C274.584 175.72 272.716 176.343 270.917 176.481C267.042 176.827 262.89 176.274 259.015 176.205C254.587 176.135 250.228 175.997 246.007 175.443C244.831 175.305 241.786 174.821 240.402 174.821C239.018 174.821 239.088 175.236 237.773 175.167C236.804 175.097 235.282 174.475 234.244 174.336C233.344 174.89 234.521 175.513 232.099 175.305C230.577 175.167 229.954 174.406 227.947 174.406C227.67 175.997 226.909 175.374 224.764 174.406C224.903 174.682 224.972 175.443 223.726 175.513C222.688 175.582 221.996 174.89 221.374 174.682C221.305 174.959 220.682 175.097 220.543 175.374C219.505 175.167 219.229 174.751 218.26 174.613C218.329 174.89 217.914 175.028 217.776 175.236C217.706 175.443 209.957 174.336 209.542 174.267C209.68 174.682 209.403 175.167 208.019 175.305C208.088 174.267 205.528 174.406 204.075 174.89C203.591 174.751 203.037 174.129 202.415 174.06C201.238 173.921 201.307 174.267 200.269 174.475C198.401 174.821 196.464 174.89 196.879 173.921C195.979 173.921 190.098 174.751 191.205 173.921C189.96 173.99 183.94 174.613 185.531 173.575C183.524 173.368 183.801 174.129 182.348 174.198C180.618 174.267 180.687 173.575 179.096 173.368C178.612 173.644 178.888 173.921 178.958 174.198C177.435 174.06 176.605 173.368 174.598 173.437C174.668 173.644 174.46 173.99 174.529 174.198C172.453 174.06 170.516 172.676 170.654 174.267C170.17 174.198 169.27 173.852 168.786 173.852C168.302 173.852 167.264 173.921 167.195 173.921C165.672 173.783 164.496 173.298 162.766 173.229C162.697 173.229 160.759 173.644 159.791 173.644C154.463 173.506 150.034 173.575 145.26 172.537C145.329 172.814 144.914 172.952 144.845 173.229C142.7 173.368 142.008 172.191 139.309 172.33C139.448 173.16 137.856 172.745 136.749 172.606L139.24 234.051H458.295L459.472 179.872C459.541 179.664 459.195 179.318 459.333 179.111Z" fill="#62C5B5"/>
<path d="M293.89 181.533C293.89 181.533 293.821 181.602 293.613 181.741C293.475 181.879 293.198 182.087 292.921 182.294C292.368 182.71 291.537 183.194 290.707 183.54C289.877 183.886 288.977 184.163 288.285 184.301C287.939 184.37 287.662 184.37 287.386 184.37C287.178 184.37 287.04 184.37 287.04 184.37C287.04 184.37 287.109 184.301 287.316 184.163C287.455 184.024 287.731 183.817 288.008 183.609C288.562 183.194 289.392 182.71 290.222 182.364C291.053 182.018 291.952 181.741 292.644 181.602C292.99 181.533 293.267 181.533 293.544 181.533C293.751 181.533 293.89 181.533 293.89 181.533Z" fill="#5ABA8A"/>
<path d="M303.854 178.766C303.854 178.766 303.784 178.835 303.577 178.973C303.438 179.112 303.162 179.319 302.885 179.527C302.331 179.942 301.501 180.426 300.671 180.772C299.84 181.118 298.941 181.395 298.249 181.533C297.903 181.603 297.626 181.603 297.349 181.603C297.142 181.603 297.003 181.603 297.003 181.603C297.003 181.603 297.073 181.533 297.28 181.395C297.419 181.257 297.695 181.049 297.972 180.841C298.526 180.426 299.356 179.942 300.186 179.596C301.017 179.25 301.916 178.973 302.608 178.835C302.954 178.766 303.231 178.766 303.508 178.766C303.784 178.766 303.854 178.766 303.854 178.766Z" fill="#5ABA8A"/>
<path opacity="0.25" d="M224.142 -31.7949L456.704 204.919L458.365 -28.4736L224.142 -31.7949Z" fill="#F2EEE2"/>
<path d="M133.773 -33.9395V239.586H463.761V-33.9395H133.773ZM144.706 -23.0067H290.014V228.653H144.706V-23.0067ZM452.898 228.653H305.929V-23.0067H452.829V228.653H452.898Z" fill="#F2EEE2"/>
<path d="M298.802 -33.5234H297.142V230.937H298.802V-33.5234Z" fill="#DED3C1"/>
<path d="M65.4784 258.546C65.4784 266.78 58.7666 273.492 50.5324 273.492H-5.7918C-14.0259 273.492 -20.7378 266.78 -20.7378 258.546C-20.7378 250.311 -14.0259 243.6 -5.7918 243.6H50.5324C58.7666 243.669 65.4784 250.311 65.4784 258.546Z" fill="#AFB7BA"/>
<path d="M-7.31396 183.192C-7.31396 183.192 10.8842 191.426 29.0823 190.527C47.2804 189.627 50.6017 183.192 50.6017 183.192C50.6017 183.192 24.4463 174.889 -7.31396 183.192Z" fill="#49889E"/>
<path d="M50.6021 183.191C50.6021 183.191 47.2808 189.626 29.0827 190.526C10.8846 191.426 -7.31357 183.191 -7.31357 183.191C-26.1344 221.94 -22.6055 245.812 0.851381 256.537H42.5064C67.0704 245.743 72.3984 222.978 50.6021 183.191Z" fill="#FFA84A"/>
<path d="M62.9187 165.616C62.9187 180.562 44.167 192.671 20.8485 192.671C-2.40082 192.671 -21.2217 180.562 -21.2217 165.616V160.703C-21.2217 145.757 -2.47001 133.648 20.8485 133.648C44.0978 133.648 62.9187 145.757 62.9187 160.703V165.616Z" fill="#49889E"/>
<path d="M73.9203 167.347C80.563 164.925 69.6303 162.504 67.2777 163.126C63.9564 164.026 52.4009 170.323 59.3203 174.474C55.0995 176.481 49.8407 177.45 46.6577 181.186C41.4682 187.621 49.0796 189.074 53.6464 184.369C55.0995 191.565 78.6256 184.162 64.9251 180.494C67.6929 179.802 73.6436 182.362 75.7886 180.356C81.2549 175.235 66.8625 173.436 64.8559 173.367C67.9696 170.876 69.9071 168.8 73.9203 167.347C77.1725 166.102 70.5298 168.524 73.9203 167.347Z" fill="#6682A3"/>
<path d="M46.8654 187.205C49.6331 186.513 55.5838 189.073 57.7289 187.067C63.1952 181.946 48.8028 180.147 46.7962 180.078C49.9099 177.587 51.8473 175.511 55.7914 174.058C59.0436 172.813 52.4009 175.235 55.7914 174.058C62.4341 171.636 51.5014 169.215 49.1488 169.837C45.8274 170.737 34.272 177.034 41.1914 181.185C36.9705 183.192 31.7118 184.161 28.5288 187.897C23.3393 194.332 30.9507 195.785 35.5175 191.08C37.0398 198.276 60.635 190.872 46.8654 187.205Z" fill="#5ABA8A"/>
<path d="M64.5795 150.878C69.2847 146.726 59.4591 148.249 57.7293 149.563C55.2383 151.362 47.7653 160.358 54.8231 161.534C51.9861 164.578 47.9729 167.069 46.5198 171.152C44.3056 178.14 51.0866 176.895 53.37 171.498C56.8989 176.964 73.99 163.194 61.3966 164.648C63.4724 163.194 69.2155 163.402 70.3918 161.049C73.2288 155.03 60.7738 158.212 59.1132 158.835C60.843 155.721 61.7426 153.3 64.5795 150.878C66.8629 148.802 62.1577 152.954 64.5795 150.878Z" fill="#5ABA8A"/>
<path d="M60.3587 147.557C64.5795 141.952 52.6781 142.921 50.6022 143.198C52.8165 141.537 56.207 135.379 52.6089 132.888C49.7027 130.812 46.4506 138.147 44.5132 139.6C42.0913 134.825 38.4932 129.636 33.442 127.56C28.5292 125.692 21.0563 130.051 26.4534 135.656C31.0894 140.499 37.4553 141.053 41.8838 147.557C44.9975 152.193 47.0733 144.859 48.8032 144.097C44.4439 149.771 57.1065 151.847 60.3587 147.557C61.0506 146.588 59.044 149.287 60.3587 147.557Z" fill="#6682A3"/>
<path d="M-15.3402 175.511C-21.9829 173.09 -11.0502 170.668 -8.69758 171.29C-5.37625 172.19 6.17921 178.487 -0.740227 182.638C3.48063 184.645 8.73941 185.614 11.9224 189.35C17.1119 195.785 9.50055 197.238 4.93372 192.533C3.48064 199.729 -20.0454 192.326 -6.34495 188.658C-9.11273 187.966 -15.0635 190.527 -17.2085 188.52C-22.6748 183.399 -8.28241 181.6 -6.27578 181.531C-9.45872 179.04 -11.3961 176.964 -15.3402 175.511C-18.6616 174.266 -12.0189 176.688 -15.3402 175.511Z" fill="#5ABA8A"/>
<path d="M-19.8376 149.01C-24.0584 143.406 -12.157 144.374 -10.0812 144.651C-12.2954 142.99 -15.6859 136.832 -12.0878 134.341C-9.18164 132.265 -5.92949 139.6 -3.99205 141.053C-1.57025 136.279 2.02786 131.089 7.07905 129.013C11.9919 127.145 19.4649 131.504 14.0677 137.109C9.43167 141.952 3.06577 142.506 -1.36267 149.01C-4.47642 153.646 -6.55225 146.312 -8.28211 145.551C-3.92286 151.225 -16.5854 153.3 -19.8376 149.01C-20.5295 148.042 -18.5229 150.74 -19.8376 149.01Z" fill="#146F81"/>
<path d="M-1.01717 154.754C-5.03045 148.942 -7.86741 160.566 -8.21338 162.642C-9.11291 160.013 -13.8873 154.892 -17.347 157.522C-20.2532 159.667 -14.3025 164.995 -13.4722 167.278C-18.7309 168.108 -24.82 169.907 -28.349 174.059C-31.6703 178.142 -29.802 186.652 -22.8826 183.193C-16.8627 180.287 -14.3717 174.405 -6.7603 172.191C-1.43233 170.669 -7.65983 166.448 -7.86741 164.51C-3.85414 170.53 2.09657 159.113 -1.01717 154.754C-1.70912 153.785 0.228327 156.553 -1.01717 154.754Z" fill="#2E7F6C"/>
<path d="M74.4742 164.164C79.5946 159.251 67.624 158.351 65.5482 158.282C67.97 156.967 72.3292 151.501 69.1463 148.456C66.5861 145.896 62.2268 152.677 60.0818 153.854C58.4903 148.733 55.7226 143.059 51.0173 140.222C46.4505 137.593 38.3548 140.707 42.8524 147.073C46.6581 152.608 52.8856 154.13 56.2069 161.257C58.5595 166.309 61.7425 159.458 63.6107 158.974C58.3519 163.818 70.5302 167.9 74.4742 164.164C75.3046 163.333 72.8828 165.686 74.4742 164.164Z" fill="#7FC799"/>
<path d="M8.04777 166.379C14.6904 163.957 3.75771 161.535 1.40511 162.158C-1.91623 163.057 -13.4717 169.354 -6.55225 173.506C-10.7731 175.512 -16.0319 176.481 -19.2148 180.217C-24.4044 186.652 -16.793 188.106 -12.2262 183.4C-10.7731 190.597 12.753 183.193 -0.947498 179.525C1.82028 178.834 7.771 181.394 9.91603 179.387C15.3824 174.267 0.989941 172.468 -1.0167 172.398C2.16624 169.907 4.10369 167.832 8.04777 166.379C11.2999 165.202 4.72644 167.624 8.04777 166.379Z" fill="#2E7F6C"/>
<path d="M20.0177 193.571C25.8301 197.585 21.54 187.275 19.6026 185.683C16.9732 183.469 5.14097 177.726 5.76372 185.683C1.68125 183.4 -2.12445 179.663 -6.96806 179.179C-15.2022 178.625 -12.0192 185.753 -5.58417 186.721C-10.6354 192.049 9.01584 206.995 4.10304 193.71C6.24807 195.578 7.56277 201.944 10.4689 202.567C17.8035 204.089 10.9533 191.288 9.91539 189.627C13.7211 190.735 16.558 191.15 20.0177 193.571C22.9239 195.509 17.1116 191.496 20.0177 193.571Z" fill="#2E7F6C"/>
<path d="M20.7793 176.618C18.6343 172.466 8.67034 178.278 10.1926 182.292C12.3376 188.588 22.7168 180.285 20.7793 176.618C20.0182 175.234 21.4021 177.725 20.7793 176.618Z" fill="#28AD8A"/>
<path d="M26.799 173.781C24.7231 174.265 18.2881 177.794 24.4464 179.662C31.2274 181.669 31.9193 172.881 26.799 173.781C25.6918 174.057 30.743 173.02 26.799 173.781Z" fill="#2E7F6C"/>
<path d="M51.1553 164.233C52.1932 166.101 57.3828 171.29 57.452 164.786C57.5211 157.728 48.8718 159.527 51.1553 164.233C51.7088 165.201 49.3562 160.634 51.1553 164.233Z" fill="#7FC799"/>
<path d="M37.8699 162.848C38.4927 164.024 41.8832 167.415 41.9524 163.194C41.9524 158.627 36.4169 159.803 37.8699 162.848C38.2159 163.471 36.6936 160.495 37.8699 162.848Z" fill="#7FC799"/>
<path opacity="0.25" d="M417.955 233.151L187.053 -31.1719L176.259 -27.8505L317.277 236.818L395.813 235.434L417.955 233.151Z" fill="#F2EEE2"/>
</g>
<path opacity="0.5" d="M301.777 247.959L285.724 13.5977C285.17 5.64034 278.251 -0.379568 270.294 0.173987L14.2745 17.7494C6.3171 18.3029 0.29719 25.2224 0.850745 33.1797L16.9038 267.541C17.4574 275.498 24.3768 281.518 32.3342 280.965L288.353 263.389C296.311 262.836 302.331 255.916 301.777 247.959Z" fill="url(#paint2_linear)"/>
<path opacity="0.15" d="M290.499 277.782C298.525 278.197 306.621 278.958 314.578 277.851C320.667 277.021 333.676 274.045 332.776 265.88C332.292 261.521 324.611 261.244 321.428 260.552C313.056 258.684 304.13 257.992 295.342 257.923C287.385 257.854 279.497 258.338 271.539 257.646C262.198 256.816 253.134 255.64 243.792 256.747C234.105 257.854 224.418 259.86 214.662 260.137C179.718 261.175 140.831 247.129 106.649 261.452C100.283 264.081 98.3458 269.34 104.435 275.152C104.435 275.152 173.768 281.449 211.409 273.699C237.703 275.498 264.066 276.467 290.499 277.782Z" fill="#001177"/>
<path d="M122.148 240.071C122.148 240.071 111.285 266.434 120.557 261.452L134.188 240.97C134.188 240.97 126.231 236.334 122.148 240.071Z" fill="#C4C5BE"/>
<path d="M297.764 237.44C297.764 237.44 304.545 265.118 296.172 258.821L285.724 236.541C285.724 236.541 294.304 233.219 297.764 237.44Z" fill="#AFB7BA"/>
<path d="M184.216 241.386C184.216 241.386 173.075 271.693 182.417 265.95L196.256 242.286C196.256 242.286 188.367 237.096 184.216 241.386Z" fill="#C4C5BE"/>
<path d="M304.891 210.663C304.891 210.663 308.212 190.251 295.48 184.784L283.233 180.425C283.233 180.425 263.235 168.939 258.392 160.151C257.008 157.591 256.454 154.685 254.517 152.124C250.089 146.243 243.654 145.205 236.665 144.651C217.152 143.198 197.501 142.299 177.919 142.091C159.444 141.884 140.831 142.714 122.425 144.997C110.731 146.451 100.629 150.533 101.251 151.363L178.888 242.146C188.09 241.8 195.356 243.115 204.559 242.769C222.203 242.077 241.647 240.901 259.291 240.278C270.985 239.932 283.509 240.486 295.065 238.894C301.5 237.995 304.129 231.767 303.783 225.678L304.891 210.663Z" fill="#62C5B5"/>
<path d="M300.532 236.127C300.532 236.127 300.532 235.92 300.601 235.574C300.67 235.228 300.67 234.743 300.739 234.051C300.809 233.429 300.878 232.598 300.878 231.699C300.878 230.799 300.878 229.761 300.878 228.654C300.878 228.101 300.809 227.547 300.809 226.924C300.809 226.648 300.739 226.302 300.739 226.025C300.67 225.748 300.67 225.402 300.601 225.125C300.532 224.503 300.393 223.88 300.324 223.188C300.186 222.565 300.117 221.873 299.909 221.181C299.632 219.797 299.217 218.483 298.733 217.099C298.594 216.753 298.456 216.407 298.318 216.061L298.11 215.577L297.902 215.092C297.764 214.746 297.556 214.4 297.418 214.123L296.865 213.155L296.588 212.67C296.519 212.532 296.38 212.394 296.311 212.186C296.103 211.909 295.896 211.563 295.688 211.287C295.481 211.01 295.273 210.733 295.065 210.387C294.858 210.11 294.65 209.764 294.374 209.557C294.166 209.28 293.889 209.003 293.682 208.726L293.336 208.311L292.92 207.965C292.436 207.481 291.952 206.996 291.398 206.581C291.121 206.374 290.845 206.166 290.637 205.959C290.36 205.751 290.083 205.543 289.807 205.405C289.53 205.197 289.253 205.059 288.976 204.851C288.7 204.644 288.423 204.505 288.146 204.367C287.039 203.675 286.001 203.191 284.963 202.706C284.479 202.499 283.925 202.291 283.51 202.153C283.302 202.084 283.026 201.945 282.818 201.876C282.61 201.807 282.334 201.738 282.126 201.669C281.711 201.53 281.296 201.392 280.95 201.253C280.742 201.184 280.604 201.115 280.396 201.115C280.189 201.046 280.05 201.046 279.912 200.977C278.666 200.7 277.905 200.492 277.905 200.492C277.905 200.492 278.666 200.631 279.912 200.838C280.05 200.838 280.258 200.907 280.396 200.907C280.604 200.977 280.742 200.977 280.95 201.046C281.296 201.115 281.711 201.253 282.195 201.392C282.403 201.461 282.61 201.53 282.887 201.599C283.095 201.668 283.372 201.738 283.579 201.876C284.064 202.014 284.548 202.222 285.102 202.43C286.139 202.914 287.246 203.329 288.354 204.021C288.63 204.159 288.907 204.298 289.184 204.505C289.461 204.713 289.738 204.851 290.014 205.059C290.291 205.267 290.568 205.405 290.845 205.613C291.121 205.82 291.398 206.028 291.675 206.235C292.229 206.65 292.782 207.135 293.266 207.688L293.682 208.034L294.028 208.45C294.304 208.726 294.512 209.003 294.789 209.28C295.065 209.557 295.273 209.833 295.481 210.179C295.688 210.456 295.965 210.733 296.173 211.079C296.38 211.425 296.588 211.702 296.795 212.048C296.865 212.186 297.003 212.324 297.072 212.532L297.349 213.016L297.902 213.985C298.041 214.331 298.248 214.677 298.387 215.023L298.594 215.507L298.802 216.061C298.94 216.407 299.079 216.753 299.217 217.099C299.701 218.483 300.117 219.867 300.393 221.25C300.532 221.942 300.67 222.634 300.739 223.257C300.809 223.949 300.947 224.572 300.947 225.195C300.947 225.541 301.016 225.817 301.016 226.163C301.016 226.44 301.016 226.786 301.085 227.063C301.155 227.686 301.155 228.239 301.155 228.793C301.155 229.9 301.155 230.938 301.016 231.837C300.947 232.737 300.878 233.498 300.809 234.19C300.739 235.435 300.532 236.127 300.532 236.127Z" fill="#6682A3"/>
<path d="M244.969 145.828C244.969 145.828 245.107 145.897 245.315 146.036C245.453 146.105 245.522 146.243 245.661 146.312C245.73 146.382 245.799 146.451 245.868 146.52C245.937 146.589 246.007 146.658 246.076 146.728C246.422 147.074 246.768 147.489 247.183 148.042C247.391 148.319 247.598 148.596 247.806 148.873C247.944 149.011 248.013 149.219 248.082 149.357C248.152 149.495 248.29 149.703 248.359 149.841C248.428 150.049 248.567 150.187 248.636 150.395C248.705 150.603 248.844 150.81 248.913 150.949C249.12 151.364 249.259 151.779 249.466 152.194C249.743 153.094 250.158 153.993 250.366 154.962C250.504 155.446 250.643 155.931 250.781 156.484C250.85 156.968 250.989 157.522 251.058 158.006C251.265 159.044 251.335 160.151 251.473 161.189L251.542 162.02C251.542 162.296 251.542 162.573 251.611 162.85C251.611 163.404 251.681 163.888 251.681 164.441C251.75 165.479 251.681 166.517 251.681 167.555C251.681 168.04 251.681 168.524 251.611 169.008C251.611 169.147 251.611 169.216 251.611 169.354C251.611 169.493 251.611 169.562 251.611 169.7C251.611 169.908 251.542 170.185 251.542 170.392C251.473 171.292 251.404 172.191 251.265 172.952C251.265 173.16 251.196 173.367 251.196 173.506C251.196 173.713 251.127 173.852 251.127 174.059C251.058 174.405 250.989 174.751 250.989 175.097C250.85 175.72 250.781 176.274 250.712 176.758C250.573 177.658 250.435 178.211 250.435 178.211C250.435 178.211 250.504 177.658 250.573 176.758C250.643 176.274 250.643 175.72 250.712 175.097C250.712 174.751 250.781 174.405 250.781 174.059C250.781 173.852 250.85 173.713 250.85 173.506C250.85 173.298 250.85 173.091 250.85 172.952C250.919 172.122 250.919 171.292 250.989 170.392C250.989 170.185 250.989 169.908 251.058 169.7C251.058 169.562 251.058 169.493 251.058 169.354C251.058 169.216 251.058 169.147 251.058 169.008C251.058 168.524 251.058 168.04 251.058 167.555C251.058 166.586 251.127 165.549 250.989 164.511C250.989 163.957 250.919 163.473 250.919 162.919C250.919 162.642 250.919 162.366 250.85 162.158L250.781 161.397C250.643 160.359 250.573 159.252 250.366 158.283C250.297 157.799 250.158 157.245 250.089 156.761C249.951 156.276 249.882 155.792 249.743 155.308C249.536 154.339 249.19 153.44 248.913 152.54C248.774 152.125 248.567 151.71 248.428 151.294C248.359 151.087 248.29 150.879 248.221 150.741C248.152 150.533 248.013 150.395 247.944 150.187C247.737 149.841 247.598 149.495 247.391 149.149C247.183 148.873 247.045 148.527 246.837 148.25C246.491 147.696 246.145 147.281 245.799 146.935C245.73 146.866 245.661 146.797 245.591 146.658C245.522 146.589 245.453 146.52 245.384 146.451C245.246 146.313 245.176 146.174 245.038 146.105C245.107 145.897 244.969 145.828 244.969 145.828Z" fill="#49889E"/>
<path d="M252.303 178.211C252.303 178.211 253.48 177.311 252.303 182.708C252.303 182.708 245.453 184.646 244.277 184.161C244.208 184.161 250.712 178.902 252.303 178.211Z" fill="#035279"/>
<path d="M247.529 192.049L247.322 193.917L245.661 193.502L245.315 191.564L247.529 192.049Z" fill="#035279"/>
<path d="M253.687 181.74C253.687 181.74 249.674 183.401 247.322 182.501C247.322 182.501 243.308 189.49 245.868 192.119C245.868 192.119 250.159 193.019 250.574 192.742C251.266 192.396 249.882 190.044 253.687 181.74Z" fill="#F9C1A7"/>
<path d="M252.304 178.211C252.304 178.211 244.277 183.401 246.076 193.295C246.076 193.295 219.436 196.132 211.341 193.71L183.109 190.528L233.621 179.733L252.304 178.211Z" fill="#57617F"/>
<path d="M256.178 208.171C256.178 208.171 261.299 211.285 257.286 193.502L254.033 194.955L251.75 199.799L253.48 206.372L256.178 208.171Z" fill="#035279"/>
<path d="M257.701 204.574C257.701 204.574 257.77 207.965 256.455 208.657C256.455 208.657 253.687 207.065 254.172 205.197L257.701 204.574Z" fill="#035279"/>
<path d="M251.958 197.862C251.958 197.862 261.23 197.24 264.136 195.025C264.136 195.025 263.651 198.762 263.859 202.222L263.928 205.405C263.928 205.405 255.971 204.505 253.48 205.681C253.48 205.681 248.705 202.429 251.958 197.862Z" fill="#F9C1A7"/>
<path d="M183.317 216.613L214.039 212.599C214.039 212.599 245.592 211.631 257.216 208.379C256.524 208.794 254.241 205.542 254.033 204.988C253.272 202.843 253.341 200.075 254.102 197.93C254.518 196.823 255.832 193.502 257.355 193.502L212.101 192.948L176.12 188.174L168.855 197.238L178.542 207.341L183.317 216.613Z" fill="#57617F"/>
<path d="M250.574 193.363C247.391 193.433 244.139 193.433 240.956 193.433H231.338L221.72 193.363C218.537 193.363 215.285 193.294 212.102 193.225L203.106 191.98C200.131 191.564 197.087 191.149 194.111 190.734L185.116 189.489C182.141 189.073 179.165 188.589 176.121 188.174C179.096 188.52 182.141 188.866 185.116 189.212L194.111 190.319C197.087 190.665 200.131 191.08 203.106 191.495L212.102 192.671H212.032C215.215 192.671 218.468 192.741 221.65 192.81L231.268 192.948L240.887 193.156C244.208 193.225 247.391 193.294 250.574 193.363Z" fill="#31374C"/>
<path d="M192.45 163.818L198.678 173.436L197.432 177.934L192.588 179.802L184.977 167.14L192.45 163.818Z" fill="#E6A696"/>
<path d="M234.382 185.267L196.256 177.656L203.383 155.445C203.591 154.683 204.352 154.199 205.113 154.268L242.893 157.59C243.516 157.659 243.931 158.282 243.724 158.835L234.382 185.267Z" fill="#31374C"/>
<path d="M173.768 141.814C173.768 141.814 182.902 145.827 184.147 154.13C184.147 154.13 188.853 172.951 189.129 173.297C191.067 176.134 195.218 178.002 195.218 178.002C195.218 178.002 174.598 189.973 172.177 197.999C171.208 198.207 168.371 196.339 167.471 195.924C162.628 193.779 162.766 193.294 158.269 190.457C151.211 186.098 148.374 170.252 147.128 162.918C145.122 151.086 150.865 145.55 157.646 141.398L169.616 144.997L173.768 141.814Z" fill="#F97A7A"/>
<path d="M162.213 119.672C162.213 119.672 161.244 132.75 160.967 140.223L159.86 140.707L159.514 141.33L169.686 145.897L175.982 143.752L173.076 141.053L171.208 140.292L172.938 128.46L162.213 119.672Z" fill="#E6A696"/>
<path d="M203.59 73.726C209.264 74.8331 208.711 84.7279 208.711 84.7279C208.711 84.7279 207.396 103.618 202.345 109.915C202.276 109.915 194.318 71.9269 203.59 73.726Z" fill="#31374C"/>
<path d="M199.508 112.336C199.508 112.336 202.345 104.586 207.327 108.323C212.309 112.059 205.389 124.791 197.778 122.369C197.778 122.369 196.74 119.325 199.508 112.336Z" fill="#E6A696"/>
<path d="M206.012 114.066C206.151 113.582 206.22 113.097 206.289 112.613C206.289 112.128 206.289 111.575 206.151 111.091C206.012 110.606 205.597 110.122 205.043 109.914C204.767 109.845 204.49 109.776 204.213 109.845C203.936 109.914 203.66 110.053 203.452 110.26C203.037 110.606 202.691 111.021 202.414 111.437C202.137 111.852 201.93 112.336 201.722 112.82C201.307 113.72 200.961 114.689 200.753 115.657L200.684 115.796L200.892 115.865C201.376 116.003 201.93 116.349 202.206 116.765C202.552 117.18 202.552 117.733 202.414 118.218C202.207 118.702 201.861 119.186 201.515 119.601C201.169 120.017 200.684 120.432 200.269 120.778C200.753 120.432 201.238 120.086 201.584 119.671C201.791 119.463 201.999 119.256 202.137 119.048C202.206 118.91 202.276 118.771 202.345 118.702C202.414 118.564 202.483 118.425 202.552 118.287C202.622 118.148 202.691 118.01 202.691 117.872C202.691 117.733 202.76 117.595 202.691 117.387C202.691 117.11 202.552 116.764 202.414 116.488C202.068 115.934 201.515 115.657 200.892 115.45L201.03 115.657C201.307 114.689 201.653 113.789 202.068 112.89C202.276 112.405 202.483 111.99 202.76 111.575C203.037 111.16 203.314 110.745 203.66 110.468C204.006 110.191 204.49 109.983 204.905 110.191C205.389 110.329 205.735 110.675 205.874 111.091C206.22 112.059 206.151 113.097 206.012 114.066Z" fill="#C78684"/>
<path d="M205.182 76.5634C205.182 76.5634 201.03 127.836 198.954 131.296C196.809 134.756 184.7 140.222 177.989 140.568C171.277 140.914 159.029 129.29 157.23 126.383C156.261 124.861 155.085 112.129 154.601 99.3284C154.255 88.3265 147.474 76.7018 148.789 72.481C148.789 72.481 181.933 60.5103 205.182 76.5634Z" fill="#F9C1A7"/>
<g opacity="0.2">
<g opacity="0.2">
<path opacity="0.2" d="M175.636 106.248C175.498 107.286 173.699 107.908 171.623 107.631C169.547 107.355 167.955 106.317 168.094 105.348C168.232 104.31 170.031 103.687 172.107 103.964C174.183 104.241 175.774 105.21 175.636 106.248Z" fill="#F0808E"/>
<path opacity="0.2" d="M198.609 107.839C198.678 108.739 197.294 109.569 195.495 109.707C193.696 109.846 192.174 109.223 192.035 108.393C191.966 107.493 193.35 106.663 195.218 106.524C197.017 106.317 198.539 106.94 198.609 107.839Z" fill="#F0808E"/>
</g>
</g>
<path d="M201.446 93.7229C199.577 92.8926 197.64 92.5466 194.734 93.7229C193.281 94.5532 191.758 95.3144 192.381 93.1693C193.627 89.7788 200.823 89.848 203.314 93.5153C204.559 95.0376 202.622 94.4148 201.446 93.7229Z" fill="#31374C"/>
<path d="M168.993 91.9255C171.069 91.1644 174.252 91.372 176.951 93.1018C178.196 94.2089 179.58 95.2469 179.442 92.6867C178.957 88.7426 170.516 87.5663 167.125 91.4412C165.534 93.0326 167.609 92.6175 168.993 91.9255Z" fill="#31374C"/>
<path d="M157.645 98.0137L159.029 109.362C159.029 109.362 161.935 114.551 168.578 113.444C172.384 112.821 172.868 113.79 183.662 117.25C183.662 117.25 186.776 117.319 190.167 117.665C195.01 118.08 195.495 120.502 196.187 120.779C201.445 122.854 202.206 106.386 203.037 104.864C201.791 117.388 200.2 129.843 199.231 131.435C197.086 134.894 184.769 140.291 178.058 140.637C171.346 140.983 158.96 129.359 157.161 126.522C156.261 125.138 153.286 115.312 152.732 103.895L154.947 102.373L157.645 98.0137Z" fill="#31374C"/>
<path d="M192.035 123.892C192.035 123.892 191.689 124.03 191.066 124.168C190.443 124.307 189.544 124.514 188.506 124.653C187.952 124.722 187.399 124.791 186.776 124.791C186.153 124.791 185.461 124.86 184.838 124.791C184.146 124.791 183.455 124.722 182.763 124.653C182.417 124.584 182.071 124.584 181.725 124.514L181.171 124.445L180.618 124.307C179.926 124.168 179.234 123.892 178.542 123.684C178.196 123.546 177.85 123.407 177.573 123.269C177.227 123.13 176.95 122.992 176.604 122.854C176.327 122.715 175.981 122.508 175.705 122.369C175.428 122.162 175.151 122.023 174.874 121.885C174.598 121.677 174.39 121.539 174.113 121.331C173.906 121.124 173.698 120.985 173.421 120.778C173.214 120.639 173.006 120.432 172.868 120.224C172.66 120.017 172.522 119.878 172.383 119.74C172.107 119.394 171.83 119.117 171.622 118.91C171.207 118.425 171 118.148 171 118.148C171 118.148 171.276 118.425 171.691 118.84C171.899 119.048 172.176 119.325 172.522 119.602C172.66 119.74 172.868 119.878 173.075 120.017C173.283 120.155 173.491 120.363 173.698 120.501C173.906 120.639 174.113 120.847 174.39 120.985C174.598 121.124 174.874 121.331 175.151 121.47C175.428 121.608 175.705 121.747 175.982 121.954C176.258 122.093 176.535 122.231 176.881 122.369C177.158 122.508 177.504 122.646 177.781 122.784C178.127 122.923 178.403 123.061 178.749 123.13C179.441 123.338 180.064 123.546 180.756 123.684L181.24 123.822L181.794 123.892C182.14 123.961 182.486 124.03 182.832 124.03C183.524 124.099 184.216 124.168 184.908 124.238C185.6 124.307 186.222 124.307 186.845 124.307C187.468 124.307 188.021 124.307 188.575 124.238C189.613 124.168 190.512 124.099 191.135 123.961C191.412 123.892 191.689 123.892 191.827 123.822C191.965 123.892 192.035 123.892 192.035 123.892Z" fill="#6677A3"/>
<path d="M172.384 116.695C172.384 116.695 172.384 116.765 172.384 116.903C172.384 117.041 172.384 117.18 172.315 117.387C172.245 117.595 172.107 117.802 171.969 117.941C171.899 118.01 171.761 118.148 171.692 118.218C171.623 118.287 171.484 118.356 171.346 118.425C171.207 118.494 171.138 118.564 171 118.564C170.861 118.633 170.792 118.633 170.654 118.633C170.446 118.702 170.239 118.702 170.031 118.702C169.824 118.702 169.685 118.633 169.616 118.633C169.478 118.633 169.478 118.564 169.478 118.564C169.478 118.564 169.547 118.564 169.616 118.494C169.685 118.425 169.824 118.425 170.031 118.356C170.1 118.356 170.169 118.287 170.308 118.287C170.377 118.287 170.515 118.218 170.585 118.148C170.654 118.148 170.792 118.079 170.861 118.01C170.931 117.941 171.069 117.941 171.138 117.872C171.207 117.802 171.346 117.733 171.415 117.733C171.484 117.664 171.553 117.595 171.692 117.595C171.761 117.526 171.83 117.456 171.899 117.387C171.969 117.318 172.038 117.249 172.107 117.18C172.245 117.041 172.315 116.972 172.384 116.903C172.315 116.765 172.384 116.695 172.384 116.695Z" fill="#6677A3"/>
<g opacity="0.56">
<g opacity="0.56">
<g opacity="0.56">
<path opacity="0.56" d="M177.711 91.9238L176.95 116.419L193.972 116.972L194.733 92.4774L177.711 91.9238Z" fill="url(#paint3_linear)"/>
</g>
</g>
</g>
<path d="M158.476 104.863C158.476 104.863 155.431 92.3392 162.42 87.3572C165.949 84.8662 161.243 77.4624 159.098 74.6255C159.098 74.6255 149.204 72.3421 148.65 72.688C145.26 75.1098 141.177 82.7904 147.958 104.102L158.476 104.863Z" fill="#31374C"/>
<path d="M192.935 103.341C192.935 104.31 193.696 105.071 194.664 105.071C195.633 105.071 196.394 104.31 196.394 103.341C196.394 102.372 195.633 101.611 194.664 101.611C193.696 101.611 192.935 102.372 192.935 103.341Z" fill="#2B2E3A"/>
<path d="M193.557 103.271C193.557 103.617 193.833 103.894 194.179 103.894C194.525 103.894 194.802 103.617 194.802 103.271C194.802 102.925 194.525 102.648 194.179 102.648C193.833 102.648 193.557 102.925 193.557 103.271Z" fill="white"/>
<path d="M171.761 100.781C171.83 101.819 172.66 102.58 173.698 102.58C174.736 102.511 175.497 101.681 175.497 100.643C175.428 99.6049 174.598 98.8438 173.56 98.8438C172.522 98.9129 171.692 99.8125 171.761 100.781Z" fill="#2B2E3A"/>
<path d="M172.314 100.573C172.314 100.919 172.66 101.196 173.006 101.196C173.352 101.196 173.628 100.85 173.628 100.504C173.628 100.158 173.283 99.8809 172.937 99.8809C172.521 99.9501 172.245 100.227 172.314 100.573Z" fill="white"/>
<path d="M190.582 113.583C190.582 113.583 182.97 121.817 179.718 111.715C179.718 111.715 184.977 114.067 190.582 113.583Z" fill="#CE8C86"/>
<path d="M189.267 99.9516C188.783 98.7753 188.091 98.0834 187.261 97.8758C185.531 97.5298 183.593 99.2597 183.524 99.2597L182.486 98.1526C182.556 98.0834 185.047 95.8692 187.538 96.4227C188.852 96.6995 189.89 97.6682 190.651 99.3289L189.267 99.9516Z" fill="#EF3F54"/>
<path d="M167.125 73.9346C167.402 82.0304 187.745 75.0418 192.935 76.9792C196.256 78.2247 199.716 82.3072 203.591 80.0238C204.283 79.6086 206.22 79.8854 206.012 79.9546C206.012 79.9546 208.227 78.8475 207.12 84.8674C206.774 86.8048 211.34 80.7157 211.617 80.3697C215.492 75.8721 212.863 66.946 210.579 62.3792C209.334 59.9574 207.466 57.9507 204.836 57.0512C203.314 56.5669 201.792 56.5669 200.269 56.7744C199.301 56.9128 195.287 58.7119 194.665 58.3659C194.665 58.3659 155.362 35.5318 151.21 66.2541C151.21 66.2541 132.805 75.4569 141.592 99.675C141.592 99.675 132.182 117.596 156.815 116.005C156.815 116.005 153.355 104.034 159.237 97.4607C159.029 97.3915 167.748 91.9252 167.125 73.9346Z" fill="#31374C"/>
<path d="M168.717 145.62L160.759 138.078L157.646 141.469L164.219 150.533L168.717 145.62Z" fill="#EF3F54"/>
<path d="M171.484 145.481L175.636 149.149L176.812 142.714L171.692 140.223L171.484 145.481Z" fill="#EF3F54"/>
<path d="M168.716 145.619C168.716 145.619 168.785 145.758 168.855 145.965C168.924 146.173 169.062 146.449 169.201 146.865C169.339 147.211 169.477 147.626 169.616 148.11C169.754 148.595 169.892 149.079 170.031 149.563C170.169 150.048 170.308 150.532 170.377 151.016C170.515 151.501 170.584 151.916 170.584 152.331C170.723 153.092 170.723 153.646 170.723 153.646C170.723 153.646 170.723 153.507 170.654 153.3C170.584 153.092 170.515 152.746 170.446 152.4C170.377 152.054 170.238 151.57 170.1 151.155C169.962 150.67 169.823 150.186 169.685 149.702C169.408 148.733 169.131 147.695 168.924 147.003C168.785 146.657 168.716 146.311 168.647 146.104C168.716 145.688 168.716 145.619 168.716 145.619Z" fill="#EF3F54"/>
<path d="M171.623 147.973C171.692 148.457 171.554 148.803 171.346 148.872C171.139 148.942 170.931 148.526 170.931 148.042C170.931 147.558 171 147.212 171.208 147.143C171.415 147.143 171.554 147.489 171.623 147.973Z" fill="#EF3F54"/>
<path d="M172.938 151.086C173.007 151.571 172.869 151.917 172.661 151.986C172.454 151.986 172.246 151.64 172.246 151.155C172.177 150.671 172.315 150.325 172.523 150.256C172.661 150.256 172.869 150.602 172.938 151.086Z" fill="#EF3F54"/>
<path d="M201.999 100.505C201.999 100.505 202.137 103.273 201.238 104.38C201.238 104.38 204.282 102.304 203.729 100.505C203.729 100.505 203.383 99.3289 201.999 100.505Z" fill="white"/>
<path d="M179.372 96.7005C179.372 96.7005 179.511 99.4683 178.611 100.575C178.611 100.575 181.656 98.4996 181.102 96.7005C181.102 96.7005 180.756 95.5242 179.372 96.7005Z" fill="white"/>
<path d="M197.433 111.024C196.81 111.024 196.187 110.954 195.565 110.816C192.243 109.986 189.752 107.218 189.129 103.412C189.129 103.343 188.645 97.8075 189.406 96.7696C189.545 96.562 189.821 96.3545 190.098 96.3545C195.772 95.3857 205.252 98.4995 205.667 98.6379L206.359 98.8455L206.29 99.5374C206.082 102.236 205.321 105.834 203.799 107.841C202.207 109.847 199.924 111.024 197.433 111.024ZM190.859 98.0151C190.721 99.1914 190.79 102.513 190.928 103.066C191.482 106.111 193.35 108.394 196.049 109.017C198.471 109.571 200.893 108.671 202.415 106.664C203.522 105.142 204.214 102.305 204.491 100.022C202.207 99.399 195.288 97.4616 190.859 98.0151Z" fill="#F97A7A"/>
<path d="M163.867 92.8678L149.876 101.686L150.688 102.973L164.678 94.1556L163.867 92.8678Z" fill="#EF3F54"/>
<path d="M155.016 106.386C155.016 106.386 153.356 100.366 148.166 102.65C142.977 104.933 143.945 120.571 155.847 116.765C155.847 116.765 158.753 114.205 155.016 106.386Z" fill="#F9C1A7"/>
<path d="M148.027 106.595C148.65 106.18 149.342 105.903 150.034 105.834C150.726 105.765 151.418 106.111 151.902 106.595C152.387 107.079 152.733 107.702 152.94 108.394C153.217 109.017 153.355 109.709 153.494 110.401L153.701 110.124C153.009 110.124 152.317 110.262 151.695 110.677C151.072 111.093 150.795 111.785 150.795 112.407C150.795 112.753 150.864 113.099 151.003 113.376C151.141 113.653 151.418 113.93 151.695 114.137C152.248 114.483 152.94 114.691 153.563 114.76C152.94 114.621 152.317 114.414 151.833 113.999C151.625 113.791 151.418 113.584 151.279 113.307C151.21 113.03 151.141 112.753 151.141 112.476C151.21 111.854 151.487 111.3 151.971 111.023C152.456 110.677 153.079 110.608 153.701 110.608H153.978L153.909 110.331C153.77 109.64 153.563 108.948 153.286 108.256C153.009 107.564 152.663 106.941 152.11 106.387C151.556 105.834 150.726 105.557 149.965 105.695C149.204 105.765 148.581 106.111 148.027 106.595Z" fill="#C78684"/>
<path d="M174.46 107.633C172.107 107.633 169.616 106.802 167.609 105.349C165.534 103.827 164.219 101.82 163.596 99.1908V99.0524C162.558 94.9007 162.835 93.7244 163.25 93.1709C163.458 92.8249 163.804 92.6173 164.15 92.5481C171.069 91.441 183.04 94.5548 183.524 94.6931L184.216 94.9007V95.5927C184.147 98.1529 183.247 101.267 181.863 103.619C180.687 105.626 178.819 106.941 176.466 107.425C175.774 107.563 175.152 107.633 174.46 107.633ZM164.703 94.278C164.634 94.624 164.634 95.7311 165.326 98.6372L165.395 98.7756C165.88 100.921 166.987 102.581 168.717 103.896C170.862 105.487 173.699 106.179 176.051 105.695C177.85 105.349 179.372 104.311 180.272 102.72C181.379 100.851 182.14 98.3605 182.348 96.2846C179.718 95.6619 170.308 93.5168 164.703 94.278Z" fill="#F97A7A"/>
<path d="M232.029 184.161L197.501 177.311L203.867 157.452C204.144 156.622 204.905 156.068 205.805 156.207L239.156 159.113C240.056 159.182 240.61 160.082 240.333 160.912L232.029 184.161Z" fill="#F7F7FA"/>
<path d="M207.95 164.648L210.648 165.064L208.088 174.128L204.905 173.713L207.95 164.648Z" fill="#92DDDA"/>
<path d="M216.046 163.057L219.367 163.472L215.838 174.82L212.725 174.405L216.046 163.057Z" fill="#92DDDA"/>
<path d="M225.249 162.434L228.57 162.849L224.833 176.065L221.72 175.65L225.249 162.434Z" fill="#92DDDA"/>
<path d="M222.688 175.096L221.789 171.567L207.812 174.958L202.415 174.266L202.622 172.813L207.673 173.436L222.896 169.699L223.796 173.228L229.677 171.567L230.092 173.021L222.688 175.096Z" fill="#F97A7A"/>
<path d="M228.57 169.561L229.539 174.958L232.791 171.152L228.57 169.561Z" fill="#F97A7A"/>
<path d="M234.659 185.269L203.591 187.829L179.304 180.218L196.602 177.381L234.659 185.269Z" fill="#31374C"/>
<path d="M234.105 185.268C234.105 185.268 233.621 187.966 228.362 188.658L201.861 191.011C201.861 191.011 200.062 191.357 202.137 187.413C202.137 187.413 224.764 186.375 234.105 185.268Z" fill="#2B2E3A"/>
<path d="M178.681 188.589L202.207 191.011C202.207 191.011 201.169 191.495 202.553 187.759L183.455 184.299L178.681 188.589Z" fill="#2B2E3A"/>
<path d="M158.337 176.48C158.337 176.48 164.98 187.275 167.471 188.866C167.471 188.866 171.415 191.565 183.87 190.111L197.64 188.312C197.64 188.312 192.727 183.123 196.948 181.601C196.948 181.601 188.091 182.639 179.372 180.217C177.366 179.663 173.837 178.556 171.623 178.21L166.226 167.762C166.156 167.831 158.614 169.838 158.337 176.48Z" fill="#F9C1A7"/>
<path d="M152.594 147.35C154.531 147.558 156.469 148.457 157.922 149.634C161.174 152.194 162.904 156 164.357 159.736C164.772 160.774 167.402 169.216 168.509 169.008C163.181 170.115 158.752 172.952 157.922 178.626C153.701 172.606 149.411 168.939 147.266 161.743C146.228 158.283 145.605 155.723 148.235 150.257C149.065 148.734 151.003 147.143 152.594 147.35Z" fill="#EF3F54"/>
<path d="M206.635 178.072C209.195 179.317 217.568 187.275 210.233 187.413C210.233 187.413 203.521 187.344 201.169 189.351C201.169 189.351 197.155 190.319 195.426 186.86L191.966 184.092C192.035 184.023 201.445 175.512 206.635 178.072Z" fill="#F9C1A7"/>
<path d="M212.516 186.167C212.516 186.167 212.032 185.821 211.202 185.337C210.994 185.198 210.786 185.06 210.579 184.991C210.371 184.852 210.095 184.714 209.818 184.576C209.541 184.437 209.264 184.299 208.987 184.23C208.711 184.091 208.434 184.022 208.157 183.884C207.88 183.814 207.604 183.676 207.258 183.607C206.981 183.538 206.704 183.468 206.427 183.468C206.15 183.468 205.874 183.399 205.597 183.399C205.32 183.399 205.113 183.399 204.836 183.399C204.628 183.399 204.421 183.468 204.213 183.468C204.005 183.468 203.867 183.538 203.729 183.538C203.452 183.607 203.313 183.607 203.313 183.607C203.313 183.607 203.452 183.538 203.729 183.399C203.867 183.33 204.005 183.261 204.213 183.192C204.421 183.122 204.628 183.053 204.836 182.984C205.32 182.846 205.874 182.846 206.496 182.846C206.773 182.846 207.119 182.915 207.396 182.984C207.742 183.053 208.019 183.122 208.295 183.261C208.572 183.399 208.918 183.468 209.195 183.607C209.472 183.745 209.749 183.884 210.025 184.022C210.51 184.299 210.994 184.645 211.34 184.991C212.17 185.683 212.516 186.167 212.516 186.167Z" fill="#C78684"/>
<path d="M212.309 183.399C212.309 183.399 212.171 183.33 212.032 183.122C211.963 183.053 211.825 182.984 211.686 182.846C211.548 182.776 211.41 182.638 211.202 182.5C211.064 182.361 210.856 182.223 210.648 182.085C210.441 181.946 210.233 181.808 210.026 181.669C209.818 181.531 209.611 181.393 209.334 181.254C209.126 181.116 208.849 180.977 208.642 180.908C208.365 180.839 208.157 180.701 207.881 180.562C207.604 180.493 207.396 180.355 207.119 180.355C206.843 180.285 206.635 180.216 206.428 180.216C206.22 180.216 206.012 180.147 205.805 180.147C205.597 180.147 205.39 180.147 205.251 180.078C205.113 180.078 204.905 180.078 204.836 180.078C204.559 180.078 204.421 180.078 204.421 180.078C204.421 180.078 204.559 180.009 204.767 179.94C204.905 179.87 205.044 179.87 205.182 179.801C205.32 179.801 205.528 179.732 205.736 179.732C205.943 179.663 206.151 179.732 206.428 179.732C206.704 179.732 206.912 179.801 207.189 179.801C207.465 179.87 207.742 179.94 208.019 180.009C208.296 180.078 208.573 180.216 208.849 180.355C209.126 180.493 209.334 180.631 209.61 180.77C209.818 180.908 210.095 181.047 210.302 181.254C210.51 181.393 210.718 181.6 210.925 181.739C211.133 181.877 211.271 182.085 211.41 182.223C212.032 182.846 212.309 183.399 212.309 183.399Z" fill="#C78684"/>
<path d="M176.674 143.475C176.674 143.475 186.569 146.934 192.173 159.943L194.318 163.61C194.318 163.61 187.814 164.994 187.537 167.969C187.537 167.969 184.078 152.885 182.348 149.218L176.674 143.475Z" fill="#EF3F54"/>
<path d="M108.241 220.351C115.575 245.814 134.534 242.562 134.534 242.562L193.142 242.7C185.6 241.524 184.424 222.15 184.424 222.15C184.77 192.258 139.032 182.294 139.032 182.294C123.532 144.929 101.321 151.364 101.321 151.364C101.321 151.364 91.7723 163.611 108.241 220.351Z" fill="#BFC6F2"/>
<path d="M237.772 213.846L258.6 206.996L323.158 206.857L307.244 213.638L237.772 213.846Z" fill="#F2EEE2"/>
<path d="M274.861 178.279C275.345 177.587 275.829 176.273 276.729 175.996C278.736 175.442 278.32 180.701 278.32 181.67C278.32 185.683 278.874 192.395 277.282 196.201C276.244 198.622 276.66 196.408 277.144 199.245C277.421 200.975 276.867 204.089 276.867 205.819C276.867 206.511 276.867 207.687 276.452 208.24C276.175 208.586 273.892 209.209 273.961 208.794L274.03 200.006L272.37 197.792C272.37 197.861 273.615 180.078 274.861 178.279Z" fill="#2B2E3A"/>
<path d="M262.959 198.415C262.959 198.415 261.229 195.232 267.941 188.52L276.383 176.342L274.584 184.161C274.584 184.161 273.269 197.792 273.269 197.93C273.269 198.138 274.238 198.761 274.376 199.038C274.653 199.522 274.584 200.075 274.584 200.56C274.584 201.667 274.099 207.202 273.961 208.863C273.961 208.863 264.481 210.247 262.405 205.611L262.959 198.415Z" fill="#035279"/>
<path d="M206.635 178.072C209.195 179.317 217.567 187.275 210.233 187.413C210.233 187.413 203.521 187.344 201.168 189.351C201.168 189.351 197.155 190.319 195.425 186.86L191.965 184.092C192.035 184.023 201.445 175.512 206.635 178.072Z" fill="#F9C1A7"/>
<path d="M212.516 186.167C212.516 186.167 212.031 185.821 211.201 185.337C210.994 185.198 210.786 185.06 210.578 184.991C210.371 184.852 210.094 184.714 209.817 184.576C209.54 184.437 209.264 184.299 208.987 184.23C208.71 184.091 208.433 184.022 208.157 183.884C207.88 183.814 207.603 183.676 207.257 183.607C206.98 183.538 206.704 183.468 206.427 183.468C206.15 183.468 205.873 183.399 205.596 183.399C205.32 183.399 205.112 183.399 204.835 183.399C204.628 183.399 204.42 183.468 204.213 183.468C204.005 183.468 203.867 183.538 203.728 183.538C203.451 183.607 203.313 183.607 203.313 183.607C203.313 183.607 203.451 183.538 203.728 183.399C203.867 183.33 204.005 183.261 204.213 183.192C204.42 183.122 204.628 183.053 204.835 182.984C205.32 182.846 205.873 182.846 206.496 182.846C206.773 182.846 207.119 182.915 207.395 182.984C207.741 183.053 208.018 183.122 208.295 183.261C208.572 183.399 208.918 183.468 209.195 183.607C209.471 183.745 209.748 183.884 210.025 184.022C210.509 184.299 210.994 184.645 211.34 184.991C212.17 185.683 212.516 186.167 212.516 186.167Z" fill="#C78684"/>
<path d="M212.309 183.399C212.309 183.399 212.17 183.33 212.032 183.122C211.963 183.053 211.824 182.984 211.686 182.846C211.547 182.776 211.409 182.638 211.201 182.5C211.063 182.361 210.855 182.223 210.648 182.085C210.44 181.946 210.233 181.808 210.025 181.669C209.818 181.531 209.61 181.393 209.333 181.254C209.126 181.116 208.849 180.977 208.641 180.908C208.365 180.839 208.157 180.701 207.88 180.562C207.603 180.493 207.396 180.355 207.119 180.355C206.842 180.285 206.635 180.216 206.427 180.216C206.219 180.216 206.012 180.147 205.804 180.147C205.597 180.147 205.389 180.147 205.251 180.078C205.112 180.078 204.905 180.078 204.836 180.078C204.559 180.078 204.42 180.078 204.42 180.078C204.42 180.078 204.559 180.009 204.766 179.94C204.905 179.87 205.043 179.87 205.182 179.801C205.32 179.801 205.528 179.732 205.735 179.732C205.943 179.663 206.15 179.732 206.427 179.732C206.704 179.732 206.911 179.801 207.188 179.801C207.465 179.87 207.742 179.94 208.019 180.009C208.295 180.078 208.572 180.216 208.849 180.355C209.126 180.493 209.333 180.631 209.61 180.77C209.818 180.908 210.094 181.047 210.302 181.254C210.51 181.393 210.717 181.6 210.925 181.739C211.132 181.877 211.271 182.085 211.409 182.223C212.032 182.846 212.309 183.399 212.309 183.399Z" fill="#C78684"/>
<path d="M108.241 220.351C115.575 245.814 134.534 242.562 134.534 242.562L193.142 242.7C185.6 241.524 184.424 222.15 184.424 222.15C184.77 192.258 139.032 182.294 139.032 182.294C123.532 144.929 101.321 151.364 101.321 151.364C101.321 151.364 91.7723 163.611 108.241 220.351Z" fill="#9CD39C"/>
<path d="M282.61 161.535C282.61 161.535 276.936 157.037 265.035 170.461L257.077 178.487C257.077 178.487 250.988 181.117 250.642 193.433C257.216 194.886 263.581 198 267.733 191.081C269.671 187.898 272.162 185.199 274.307 182.155C276.728 178.764 278.527 175.028 280.326 171.36C281.018 169.907 284.547 163.057 282.61 161.535Z" fill="#49889E"/>
<path d="M259.845 192.049C260.814 194.125 263.236 193.641 265.311 192.326C266.211 191.703 270.639 185.753 270.57 185.683L263.097 182.777C261.16 184.369 259.845 188.866 259.707 190.112C259.568 190.942 259.638 191.565 259.845 192.049Z" fill="#035279"/>
<path d="M263.721 181.74L271.194 184.923C271.194 184.923 283.787 175.928 284.341 166.379C284.341 166.379 285.379 158.698 277.214 162.712C277.214 162.712 271.886 165.549 263.721 181.74Z" fill="#035279"/>
<path d="M244.208 266.087L241.717 268.232L240.125 221.18H244.208V266.087Z" fill="#AFB7BA"/>
<path d="M241.716 221.18H237.634V268.232H241.716V221.18Z" fill="#C4C5BE"/>
<path d="M307.244 266.087L304.753 268.232L303.162 221.18H307.244V266.087Z" fill="#AFB7BA"/>
<path d="M304.753 221.18H300.67V268.232H304.753V221.18Z" fill="#C4C5BE"/>
<path d="M262.89 260.829L260.399 262.974L258.808 215.922H262.89V260.829Z" fill="#AFB7BA"/>
<path d="M260.399 215.922H256.316V262.974H260.399V215.922Z" fill="#C4C5BE"/>
<path d="M307.243 221.734L237.634 222.219V213.846L307.243 213.639V221.734Z" fill="#EDE9D9"/>
<path d="M322.536 260.828L320.045 262.973L318.453 215.921L322.536 214.053V260.828Z" fill="#AFB7BA"/>
<path d="M320.045 262.973H315.962V215.921L320.045 214.053V262.973Z" fill="#C4C5BE"/>
<path d="M307.174 213.637L307.313 221.802L322.605 214.052L322.535 207.133L307.174 213.637Z" fill="#E7DCC3"/>
<defs>
<linearGradient id="paint0_linear" x1="-136.568" y1="356.892" x2="415.928" y2="-140.578" gradientUnits="userSpaceOnUse">
<stop offset="0.0036859" stop-color="#9FBAC9"/>
<stop offset="0.3241" stop-color="#C2BFAB"/>
<stop offset="0.7724" stop-color="#EEC686"/>
<stop offset="1" stop-color="#FFC878"/>
</linearGradient>
<linearGradient id="paint1_linear" x1="249.892" y1="261.676" x2="390.53" y2="-171.615" gradientUnits="userSpaceOnUse">
<stop stop-color="#FFD797"/>
<stop offset="0.1117" stop-color="#F9D69A"/>
<stop offset="0.2603" stop-color="#E8D4A2"/>
<stop offset="0.4297" stop-color="#CDD1B0"/>
<stop offset="0.6147" stop-color="#A6CDC3"/>
<stop offset="0.8097" stop-color="#75C7DB"/>
<stop offset="0.9963" stop-color="#3FC1F5"/>
</linearGradient>
<linearGradient id="paint2_linear" x1="98.25" y1="303.515" x2="204.347" y2="-22.4137" gradientUnits="userSpaceOnUse">
<stop stop-color="#22A3FF" stop-opacity="0"/>
<stop offset="0.0963533" stop-color="#44B1FF" stop-opacity="0.0963533"/>
<stop offset="0.2731" stop-color="#7CC9FF" stop-opacity="0.2731"/>
<stop offset="0.4448" stop-color="#ABDCFF" stop-opacity="0.4448"/>
<stop offset="0.6074" stop-color="#D0EBFF" stop-opacity="0.6074"/>
<stop offset="0.7584" stop-color="#EAF6FF" stop-opacity="0.7584"/>
<stop offset="0.8938" stop-color="#F9FDFF" stop-opacity="0.8938"/>
<stop offset="1" stop-color="white"/>
</linearGradient>
<linearGradient id="paint3_linear" x1="185.899" y1="102.691" x2="185.5" y2="115.506" gradientUnits="userSpaceOnUse">
<stop stop-color="#F9C1A7"/>
<stop offset="1" stop-color="#E3988B"/>
</linearGradient>
</defs>
</svg>
