<svg width="534" height="444" viewBox="0 0 534 444" fill="none" xmlns="http://www.w3.org/2000/svg">
<mask id="mask0" mask-type="alpha" maskUnits="userSpaceOnUse" x="0" y="0" width="600" height="444">
<rect width="600" height="444" fill="#C4C4C4"/>
</mask>
<g mask="url(#mask0)">
<g opacity="0.8">
<path d="M676.767 411.678H5.98047V415.15H676.767V411.678Z" fill="#E3E7FC"/>
<path d="M437.647 94.5273H57.6133V399.872H437.647V94.5273Z" fill="#EDEFFF"/>
<path d="M68.5834 136.471C70.8744 135.499 73.9291 134.666 77.8863 134.11C77.8863 134.11 80.2468 121.194 96.284 123.485C112.321 125.777 126.623 134.666 126.623 134.666C126.623 134.666 134.676 127.791 143.215 132.374C145.437 133.555 147.173 134.735 148.492 135.846C150.783 137.791 149.464 141.541 146.409 141.541H69.6247C66.7089 141.541 65.8758 137.582 68.5834 136.471Z" fill="white"/>
<path d="M161.475 141.539H157.032C155.435 141.539 154.047 140.219 154.047 138.552C154.047 136.955 155.366 135.566 157.032 135.566H161.475C163.072 135.566 164.461 136.886 164.461 138.552C164.391 140.219 163.072 141.539 161.475 141.539Z" fill="white"/>
<path d="M433.62 178.693L46.4355 182.86L46.9909 350.289L434.175 346.192L433.62 178.693Z" fill="#F7F8FF"/>
<path d="M433.62 181.332L46.4355 185.152V180.013L433.62 176.193V181.332Z" fill="#E0E3F7"/>
<path d="M81.8105 259.096L60.5664 259.287L60.6551 269.148L81.8992 268.957L81.8105 259.096Z" fill="#E0E3F7"/>
<path d="M106.25 258.887L85.0059 259.078L85.0946 268.939L106.339 268.748L106.25 258.887Z" fill="#E0E3F7"/>
<path d="M130.687 258.68L109.443 258.871L109.532 268.732L130.776 268.541L130.687 258.68Z" fill="#E0E3F7"/>
<path d="M155.195 258.471L133.951 258.662L134.04 268.523L155.284 268.332L155.195 258.471Z" fill="#E0E3F7"/>
<path d="M179.635 258.194L158.391 258.385L158.479 268.246L179.723 268.055L179.635 258.194Z" fill="#E0E3F7"/>
<path d="M204.143 257.985L182.898 258.176L182.987 268.037L204.231 267.846L204.143 257.985Z" fill="#E0E3F7"/>
<path d="M229.485 257.773L207.338 257.973L207.427 267.834L229.573 267.634L229.485 257.773Z" fill="#E0E3F7"/>
<path d="M254.963 257.564L232.816 257.764L232.905 267.625L255.052 267.425L254.963 257.564Z" fill="#E0E3F7"/>
<path d="M280.375 257.287L258.229 257.486L258.317 267.347L280.464 267.148L280.375 257.287Z" fill="#E0E3F7"/>
<path d="M305.854 257.078L283.707 257.277L283.796 267.138L305.942 266.939L305.854 257.078Z" fill="#E0E3F7"/>
<path d="M331.336 256.869L309.189 257.068L309.278 266.929L331.425 266.73L331.336 256.869Z" fill="#E0E3F7"/>
<path d="M356.746 256.662L334.6 256.861L334.688 266.722L356.835 266.523L356.746 256.662Z" fill="#E0E3F7"/>
<path d="M382.225 256.383L360.078 256.582L360.167 266.443L382.313 266.244L382.225 256.383Z" fill="#E0E3F7"/>
<path d="M407.587 256.123L407.726 265.984L385.579 266.192L385.51 256.331" fill="#E0E3F7"/>
<path d="M433.117 255.967L410.971 256.166L411.059 266.027L433.206 265.828L433.117 255.967Z" fill="#E0E3F7"/>
<path d="M67.8554 273.055L46.6113 273.246L46.7001 283.107L67.9442 282.916L67.8554 273.055Z" fill="#E0E3F7"/>
<path d="M92.3633 272.776L71.1191 272.967L71.2079 282.828L92.452 282.637L92.3633 272.776Z" fill="#E0E3F7"/>
<path d="M116.803 272.568L95.5586 272.76L95.6473 282.621L116.891 282.43L116.803 272.568Z" fill="#E0E3F7"/>
<path d="M141.24 272.361L119.996 272.553L120.085 282.414L141.329 282.222L141.24 272.361Z" fill="#E0E3F7"/>
<path d="M165.748 272.153L144.504 272.344L144.593 282.205L165.837 282.014L165.748 272.153Z" fill="#E0E3F7"/>
<path d="M190.187 271.944L168.943 272.135L169.032 281.996L190.276 281.805L190.187 271.944Z" fill="#E0E3F7"/>
<path d="M215.598 271.73L193.451 271.93L193.54 281.791L215.687 281.591L215.598 271.73Z" fill="#E0E3F7"/>
<path d="M266.488 271.244L244.342 271.443L244.431 281.304L266.577 281.105L266.488 271.244Z" fill="#E0E3F7"/>
<path d="M291.969 271.037L269.822 271.236L269.911 281.097L292.058 280.898L291.969 271.037Z" fill="#E0E3F7"/>
<path d="M317.379 270.758L295.232 270.957L295.321 280.818L317.468 280.619L317.379 270.758Z" fill="#E0E3F7"/>
<path d="M342.86 270.551L320.713 270.75L320.802 280.611L342.948 280.412L342.86 270.551Z" fill="#E0E3F7"/>
<path d="M368.34 270.342L346.193 270.541L346.282 280.402L368.429 280.203L368.34 270.342Z" fill="#E0E3F7"/>
<path d="M393.75 270.064L371.604 270.264L371.692 280.125L393.839 279.925L393.75 270.064Z" fill="#E0E3F7"/>
<path d="M419.231 269.855L397.084 270.055L397.173 279.916L419.319 279.716L419.231 269.855Z" fill="#E0E3F7"/>
<path d="M82.0175 286.111L60.7734 286.303L60.8622 296.164L82.1063 295.973L82.0175 286.111Z" fill="#E0E3F7"/>
<path d="M130.965 285.694L109.721 285.885L109.809 295.746L131.054 295.555L130.965 285.694Z" fill="#E0E3F7"/>
<path d="M155.402 285.487L134.158 285.678L134.247 295.539L155.491 295.348L155.402 285.487Z" fill="#E0E3F7"/>
<path d="M179.91 285.209L158.666 285.4L158.755 295.261L179.999 295.07L179.91 285.209Z" fill="#E0E3F7"/>
<path d="M204.35 285L183.105 285.191L183.194 295.052L204.438 294.861L204.35 285Z" fill="#E0E3F7"/>
<path d="M229.692 284.789L207.545 284.988L207.634 294.849L229.78 294.65L229.692 284.789Z" fill="#E0E3F7"/>
<path d="M255.17 284.58L233.023 284.779L233.112 294.64L255.259 294.441L255.17 284.58Z" fill="#E0E3F7"/>
<path d="M280.651 284.301L258.504 284.5L258.593 294.361L280.739 294.162L280.651 284.301Z" fill="#E0E3F7"/>
<path d="M306.063 284.094L283.916 284.293L284.005 294.154L306.151 293.955L306.063 284.094Z" fill="#E0E3F7"/>
<path d="M331.541 283.885L309.395 284.084L309.483 293.945L331.63 293.746L331.541 283.885Z" fill="#E0E3F7"/>
<path d="M357.022 283.676L334.875 283.875L334.964 293.736L357.11 293.537L357.022 283.676Z" fill="#E0E3F7"/>
<path d="M382.432 283.398L360.285 283.598L360.374 293.459L382.521 293.259L382.432 283.398Z" fill="#E0E3F7"/>
<path d="M407.912 283.189L385.766 283.389L385.854 293.25L408.001 293.05L407.912 283.189Z" fill="#E0E3F7"/>
<path d="M433.393 282.982L411.246 283.182L411.335 293.043L433.481 292.843L433.393 282.982Z" fill="#E0E3F7"/>
<path d="M68.1328 300.071L46.8887 300.262L46.9774 310.123L68.2215 309.931L68.1328 300.071Z" fill="#E0E3F7"/>
<path d="M92.5723 299.861L71.3281 300.053L71.4169 309.914L92.661 309.723L92.5723 299.861Z" fill="#E0E3F7"/>
<path d="M117.08 299.582L95.8359 299.773L95.9247 309.635L117.169 309.443L117.08 299.582Z" fill="#E0E3F7"/>
<path d="M141.518 299.375L120.273 299.566L120.362 309.427L141.606 309.236L141.518 299.375Z" fill="#E0E3F7"/>
<path d="M165.957 299.166L144.713 299.357L144.802 309.218L166.046 309.027L165.957 299.166Z" fill="#E0E3F7"/>
<path d="M190.465 298.959L169.221 299.15L169.309 309.011L190.554 308.82L190.465 298.959Z" fill="#E0E3F7"/>
<path d="M215.807 298.746L193.66 298.945L193.749 308.806L215.896 308.607L215.807 298.746Z" fill="#E0E3F7"/>
<path d="M241.285 298.469L219.139 298.668L219.227 308.529L241.374 308.33L241.285 298.469Z" fill="#E0E3F7"/>
<path d="M266.697 298.26L244.551 298.459L244.64 308.32L266.786 308.121L266.697 298.26Z" fill="#E0E3F7"/>
<path d="M292.176 298.051L270.029 298.25L270.118 308.111L292.265 307.912L292.176 298.051Z" fill="#E0E3F7"/>
<path d="M343.069 297.566L320.922 297.766L321.011 307.627L343.157 307.427L343.069 297.566Z" fill="#E0E3F7"/>
<path d="M368.547 297.357L346.4 297.557L346.489 307.418L368.636 307.218L368.547 297.357Z" fill="#E0E3F7"/>
<path d="M394.028 297.148L371.881 297.348L371.97 307.209L394.116 307.009L394.028 297.148Z" fill="#E0E3F7"/>
<path d="M419.438 296.871L397.291 297.07L397.38 306.931L419.526 306.732L419.438 296.871Z" fill="#E0E3F7"/>
<path d="M411.633 253.103L432.877 252.912L432.788 243.051L411.544 243.242L411.633 253.103Z" fill="#E0E3F7"/>
<path d="M387.141 253.334L408.385 253.143L408.296 243.282L387.052 243.473L387.141 253.334Z" fill="#E0E3F7"/>
<path d="M362.719 253.566L383.963 253.375L383.874 243.514L362.63 243.705L362.719 253.566Z" fill="#E0E3F7"/>
<path d="M338.227 253.799L359.471 253.607L359.382 243.746L338.138 243.938L338.227 253.799Z" fill="#E0E3F7"/>
<path d="M312.875 253.975L335.021 253.775L334.933 243.914L312.786 244.114L312.875 253.975Z" fill="#E0E3F7"/>
<path d="M287.445 254.223L309.592 254.023L309.503 244.162L287.356 244.362L287.445 254.223Z" fill="#E0E3F7"/>
<path d="M261.945 254.473L284.092 254.273L284.003 244.412L261.856 244.612L261.945 254.473Z" fill="#E0E3F7"/>
<path d="M236.515 254.723L258.662 254.523L258.573 244.662L236.427 244.862L236.515 254.723Z" fill="#E0E3F7"/>
<path d="M211.086 254.904L233.232 254.705L233.144 244.844L210.997 245.043L211.086 254.904Z" fill="#E0E3F7"/>
<path d="M185.586 255.154L207.732 254.955L207.644 245.094L185.497 245.293L185.586 255.154Z" fill="#E0E3F7"/>
<path d="M160.156 255.404L182.303 255.205L182.214 245.344L160.067 245.543L160.156 255.404Z" fill="#E0E3F7"/>
<path d="M134.747 255.638L134.678 245.777L156.755 245.568L156.894 255.429" fill="#E0E3F7"/>
<path d="M109.226 255.834L131.373 255.635L131.284 245.774L109.138 245.973L109.226 255.834Z" fill="#E0E3F7"/>
<path d="M83.7967 256.084L105.943 255.885L105.855 246.024L83.708 246.223L83.7967 256.084Z" fill="#E0E3F7"/>
<path d="M58.367 256.264L80.5137 256.064L80.4249 246.203L58.2783 246.403L58.367 256.264Z" fill="#E0E3F7"/>
<path d="M401.061 239.443L422.305 239.252L422.216 229.391L400.972 229.582L401.061 239.443Z" fill="#E0E3F7"/>
<path d="M376.639 239.605L397.883 239.414L397.794 229.553L376.55 229.744L376.639 239.605Z" fill="#E0E3F7"/>
<path d="M352.147 239.838L373.391 239.646L373.302 229.785L352.058 229.977L352.147 239.838Z" fill="#E0E3F7"/>
<path d="M326.795 240.082L348.941 239.883L348.853 230.022L326.706 230.221L326.795 240.082Z" fill="#E0E3F7"/>
<path d="M275.865 240.512L298.012 240.312L297.923 230.451L275.776 230.651L275.865 240.512Z" fill="#E0E3F7"/>
<path d="M250.435 240.762L272.582 240.562L272.493 230.701L250.347 230.901L250.435 240.762Z" fill="#E0E3F7"/>
<path d="M224.937 241.012L247.084 240.812L246.995 230.952L224.849 231.151L224.937 241.012Z" fill="#E0E3F7"/>
<path d="M199.508 241.262L221.654 241.062L221.566 231.201L199.419 231.401L199.508 241.262Z" fill="#E0E3F7"/>
<path d="M174.076 241.442L196.223 241.242L196.134 231.381L173.987 231.581L174.076 241.442Z" fill="#E0E3F7"/>
<path d="M148.576 241.692L170.723 241.492L170.634 231.631L148.487 231.831L148.576 241.692Z" fill="#E0E3F7"/>
<path d="M123.148 241.942L145.295 241.742L145.206 231.881L123.06 232.081L123.148 241.942Z" fill="#E0E3F7"/>
<path d="M97.7167 242.121L119.863 241.922L119.775 232.061L97.6279 232.26L97.7167 242.121Z" fill="#E0E3F7"/>
<path d="M72.2186 242.373L94.3652 242.174L94.2765 232.313L72.1299 232.512L72.2186 242.373Z" fill="#E0E3F7"/>
<path d="M46.787 242.623L68.9336 242.424L68.8449 232.563L46.6983 232.762L46.787 242.623Z" fill="#E0E3F7"/>
<path d="M411.424 226.082L432.668 225.891L432.579 216.03L411.335 216.221L411.424 226.082Z" fill="#E0E3F7"/>
<path d="M386.932 226.312L408.176 226.121L408.087 216.26L386.843 216.451L386.932 226.312Z" fill="#E0E3F7"/>
<path d="M362.439 226.545L383.684 226.354L383.595 216.493L362.351 216.684L362.439 226.545Z" fill="#E0E3F7"/>
<path d="M338.018 226.777L359.262 226.586L359.173 216.725L337.929 216.916L338.018 226.777Z" fill="#E0E3F7"/>
<path d="M312.666 227.022L334.812 226.822L334.724 216.961L312.577 217.161L312.666 227.022Z" fill="#E0E3F7"/>
<path d="M287.166 227.203L309.312 227.004L309.224 217.143L287.077 217.342L287.166 227.203Z" fill="#E0E3F7"/>
<path d="M261.736 227.451L283.883 227.252L283.794 217.391L261.647 217.59L261.736 227.451Z" fill="#E0E3F7"/>
<path d="M236.306 227.701L258.453 227.502L258.364 217.641L236.218 217.84L236.306 227.701Z" fill="#E0E3F7"/>
<path d="M210.806 227.883L232.953 227.684L232.864 217.823L210.718 218.022L210.806 227.883Z" fill="#E0E3F7"/>
<path d="M185.377 228.133L207.523 227.934L207.435 218.073L185.288 218.272L185.377 228.133Z" fill="#E0E3F7"/>
<path d="M159.877 228.383L182.023 228.184L181.935 218.323L159.788 218.522L159.877 228.383Z" fill="#E0E3F7"/>
<path d="M134.447 228.563L156.594 228.363L156.505 218.502L134.358 218.702L134.447 228.563Z" fill="#E0E3F7"/>
<path d="M109.017 228.813L131.164 228.613L131.075 218.752L108.929 218.952L109.017 228.813Z" fill="#E0E3F7"/>
<path d="M83.5194 229.063L105.666 228.863L105.577 219.002L83.4307 219.202L83.5194 229.063Z" fill="#E0E3F7"/>
<path d="M400.852 212.422L422.096 212.23L422.007 202.369L400.763 202.561L400.852 212.422Z" fill="#E0E3F7"/>
<path d="M376.359 212.584L397.604 212.393L397.515 202.532L376.271 202.723L376.359 212.584Z" fill="#E0E3F7"/>
<path d="M351.938 212.816L373.182 212.625L373.093 202.764L351.849 202.955L351.938 212.816Z" fill="#E0E3F7"/>
<path d="M326.517 213.061L348.664 212.861L348.575 203L326.429 203.2L326.517 213.061Z" fill="#E0E3F7"/>
<path d="M301.088 213.311L323.234 213.111L323.146 203.25L300.999 203.45L301.088 213.311Z" fill="#E0E3F7"/>
<path d="M275.656 213.49L297.803 213.291L297.714 203.43L275.567 203.629L275.656 213.49Z" fill="#E0E3F7"/>
<path d="M250.158 213.74L272.305 213.541L272.216 203.68L250.069 203.879L250.158 213.74Z" fill="#E0E3F7"/>
<path d="M199.299 214.24L221.445 214.041L221.357 204.18L199.21 204.379L199.299 214.24Z" fill="#E0E3F7"/>
<path d="M173.799 214.42L195.945 214.221L195.857 204.36L173.71 204.559L173.799 214.42Z" fill="#E0E3F7"/>
<path d="M148.369 214.67L170.516 214.471L170.427 204.61L148.28 204.809L148.369 214.67Z" fill="#E0E3F7"/>
<path d="M122.937 214.92L145.084 214.721L144.995 204.86L122.849 205.059L122.937 214.92Z" fill="#E0E3F7"/>
<path d="M97.4393 215.102L119.586 214.902L119.497 205.041L97.3506 205.241L97.4393 215.102Z" fill="#E0E3F7"/>
<path d="M72.0096 215.352L94.1562 215.152L94.0675 205.291L71.9209 205.491L72.0096 215.352Z" fill="#E0E3F7"/>
<path d="M46.5799 215.602L68.7266 215.402L68.6378 205.541L46.4912 205.741L46.5799 215.602Z" fill="#E0E3F7"/>
<path d="M432.925 306.887C431.259 307.095 429.662 307.512 427.996 307.651C426.121 307.79 424.941 307.651 423.067 308.137C421.401 308.554 419.873 307.998 418.207 308.067C416.68 308.137 415.361 308.623 413.903 308.762C412.236 308.901 410.362 308.415 408.835 308.623C408.001 308.762 407.377 309.317 406.544 309.456C405.71 309.595 404.808 309.248 403.905 309.248C403.003 309.248 402.031 309.665 401.128 309.595C400.295 309.526 399.948 308.762 399.184 308.762C398.421 308.762 398.004 309.595 397.102 309.456C395.852 309.248 395.713 307.72 395.158 306.956C395.297 307.79 395.158 309.317 394.741 310.081C394.186 309.317 392.936 308.901 392.173 308.206C392.311 308.901 392.45 309.595 392.52 310.22C391.825 309.456 390.645 308.206 389.465 308.137C390.159 311.54 381.342 311.401 378.982 310.567C377.871 310.151 377.246 309.526 376.83 308.554C376.83 309.109 376.691 310.151 376.135 310.498C375.788 310.637 374.608 310.359 374.261 310.012C373.705 310.359 372.733 310.915 372.039 310.845C372.247 310.359 372.386 309.526 372.109 309.04C371.345 310.151 370.026 310.22 368.776 310.567C365.652 311.47 362.111 311.053 358.848 310.984C358.571 310.984 357.668 310.845 357.321 310.845C357.043 310.845 356.002 310.498 355.863 310.498C354.752 310.567 352.739 311.887 352.114 310.359C351.281 310.567 350.587 311.123 349.684 311.192C349.337 311.192 346.491 310.706 346.491 310.498C346.421 312.581 342.395 311.401 340.867 311.401C339.826 311.331 338.854 311.748 337.743 311.678C337.327 311.678 336.424 311.123 336.146 311.192C335.383 311.401 335.799 311.956 335.313 312.165C333.855 312.859 330.662 311.887 328.926 312.165C327.954 312.373 327.052 312.512 325.941 312.373C325.524 312.303 324.691 312.095 324.344 312.095C323.511 312.095 323.511 312.442 322.747 312.581C319.276 313.276 315.18 312.72 311.639 312.72C307.335 312.72 303.031 312.581 298.726 312.373C275.122 311.123 252.072 307.581 229.162 304.734C196.393 300.637 166.055 306.956 133.772 307.72C116.485 308.137 67.818 305.915 49.9063 304.734L48.3789 404.525C209.376 430.15 363.778 397.65 437.854 404.525L437.924 306.887C436.119 306.956 434.522 306.679 432.925 306.887Z" fill="#F7F8FF"/>
<path d="M237.286 345.359C237.286 345.359 237.217 345.498 237.008 345.637C236.8 345.776 236.522 346.054 236.175 346.262C235.481 346.748 234.509 347.304 233.468 347.72C232.426 348.137 231.385 348.484 230.552 348.623C230.135 348.693 229.788 348.762 229.51 348.762C229.233 348.762 229.094 348.762 229.094 348.762C229.094 348.762 229.163 348.623 229.371 348.484C229.58 348.345 229.857 348.068 230.205 347.859C230.899 347.373 231.871 346.818 232.912 346.401C233.954 345.984 234.995 345.637 235.828 345.498C236.245 345.429 236.592 345.359 236.869 345.359C237.078 345.359 237.286 345.359 237.286 345.359Z" fill="#E3E7FC"/>
<path d="M249.227 342.096C249.227 342.096 249.158 342.235 248.95 342.373C248.741 342.512 248.464 342.79 248.116 342.998C247.422 343.485 246.45 344.04 245.409 344.457C244.368 344.873 243.326 345.221 242.493 345.36C242.077 345.429 241.729 345.498 241.452 345.498C241.174 345.498 241.035 345.498 241.035 345.498C241.035 345.498 241.105 345.36 241.313 345.221C241.521 345.082 241.799 344.804 242.146 344.596C242.84 344.11 243.812 343.554 244.854 343.137C245.895 342.721 246.936 342.373 247.769 342.235C248.186 342.165 248.533 342.096 248.811 342.096C249.019 342.096 249.227 342.096 249.227 342.096Z" fill="#E3E7FC"/>
<path d="M440.217 415.358H46.0898V88H440.217V415.358ZM59.1418 401.678H427.165V101.055H59.1418V401.678Z" fill="#E0E3F7"/>
<path d="M251.727 94.5273H232.635V404.385H251.727V94.5273Z" fill="#E0E3F7"/>
<path d="M503.941 382.863C504.546 383.393 504.698 353.799 506.212 339.418C508.104 321.859 502.276 307.1 495.767 298.699C493.647 295.974 487.82 293.93 488.198 299.38C488.576 304.754 491.982 313.533 489.409 318.529C487.441 322.237 484.035 325.643 484.187 330.26C484.414 336.088 488.728 341.462 491.15 346.533C492.664 349.863 496.448 357.886 496.902 361.443C497.81 369.466 497.508 377.111 503.941 382.863Z" fill="#B4EDBF"/>
<path d="M505.151 378.172C505.151 378.172 500.156 349.486 502.502 339.42C503.562 334.954 505.075 326.629 510.373 325.418C512.644 324.888 514.536 326.175 516.882 325.039C520.213 323.45 521.575 319.363 523.392 316.487C526.873 311.037 532.928 307.328 539.362 306.647C540.497 306.571 541.859 306.647 542.541 307.555C542.995 308.237 542.919 309.145 542.768 309.977C541.708 315.124 536.94 318.076 536.031 323.298C535.502 326.326 535.729 329.505 535.199 332.532C534.593 336.241 533.004 339.723 530.582 342.599C525.662 348.351 523.392 354.254 517.564 358.947C513.25 362.504 504.016 371.814 505.151 378.172Z" fill="#EDEFFF"/>
<path d="M507.422 380.668C506.286 373.175 504.773 366.818 509.692 355.994C511.433 352.058 516.504 348.88 520.364 346.76C524.754 344.338 530.431 346.836 535.123 347.063C543.07 347.442 550.564 343.884 558.208 347.063C565.701 350.242 547.385 353.572 545.492 354.48C541.33 356.675 538.226 360.384 533.382 361.217C528.538 362.049 518.775 364.168 516.429 368.71C509.995 381.047 507.649 382.333 507.422 380.668Z" fill="#B4EDBF"/>
<path d="M504.394 376.202C507.952 372.872 505.076 362.806 502.881 355.994C500.761 349.409 495.312 342.976 488.273 342.143C485.018 341.765 483.202 343.051 480.023 342.143C476.844 341.235 474.195 338.964 470.941 338.283C465.34 337.072 454.819 339.948 463.22 346.23C467.459 349.409 466.399 354.556 472.152 355.767C482.218 357.886 500.686 367.196 504.394 376.202Z" fill="#E0E3F7"/>
<path d="M503.789 377.337C503.789 377.337 504.244 365.833 495.994 359.323C487.668 352.739 476.769 351.301 469.049 355.312C465.946 356.901 463.599 360.307 460.421 361.821C458.226 362.881 452.246 364.243 453.079 365.833C453.836 367.422 460.572 368.406 464.054 366.892C467.762 365.227 471.849 362.729 476.088 363.562C480.856 364.546 481.613 367.8 487.744 369.541C493.647 371.206 499.248 372.72 500.081 378.548C502.654 381.5 503.789 377.337 503.789 377.337Z" fill="#B4EDBF"/>
<path d="M523.166 420.327H485.247C483.279 420.327 481.614 418.965 481.235 417.073C478.208 402.995 477.072 388.766 477.754 374.461H530.735C531.037 389.069 529.902 403.222 527.177 416.997C526.799 418.889 525.134 420.327 523.166 420.327Z" fill="#CFD4FB"/>
</g>
<path opacity="0.15" d="M135.624 435.137C127.824 434.17 110.938 430.461 112.053 420.543C112.653 415.221 145.91 411.028 157.224 410.947C167.51 410.866 177.796 411.511 188.081 410.624C200.167 409.576 211.91 408.205 223.996 409.576C236.596 410.947 249.025 413.366 261.71 413.689C306.882 414.898 343.054 406.673 399.882 412.479C426.968 415.301 392.254 426.832 381.797 429.574C353.082 437.073 336.796 438.605 287.168 435.46C253.053 433.202 145.996 436.428 135.624 435.137Z" fill="#001177"/>
<path d="M381.481 388.293C381.481 388.293 395.539 422.411 383.538 415.982L365.879 389.408C365.879 389.493 376.166 383.493 381.481 388.293Z" fill="#E7DCC3"/>
<path d="M154.143 384.95C154.143 384.95 145.313 420.782 156.2 412.638L169.659 383.75C169.659 383.835 158.686 379.463 154.143 384.95Z" fill="#AFB7BA"/>
<path d="M217.32 384.177C217.32 384.177 208.491 420.009 219.378 411.865L232.836 382.976C232.922 382.976 221.864 378.69 217.32 384.177Z" fill="#AFB7BA"/>
<path d="M301.073 390.092C301.073 390.092 315.474 429.353 303.473 421.896L285.557 391.207C285.557 391.207 295.758 384.52 301.073 390.092Z" fill="#E7DCC3"/>
<path d="M144.886 350.318C144.886 350.318 140.599 323.915 157.058 316.8C157.058 316.8 169.059 312.942 172.917 311.142C182.347 306.77 198.805 296.226 205.063 284.825C206.863 281.482 207.549 277.71 210.035 274.453C215.779 266.823 224.094 265.452 233.18 264.766C258.383 262.88 283.843 261.766 309.217 261.423C333.134 261.166 357.222 262.194 381.053 265.195C396.14 267.08 409.256 272.395 408.485 273.424L308.017 391.036C296.101 390.608 286.672 392.236 274.756 391.808C251.954 390.951 226.751 389.408 203.949 388.55C188.776 388.122 172.574 388.893 157.573 386.75C149.172 385.55 145.828 377.578 146.257 369.605L144.886 350.318Z" fill="#86A5BF"/>
<path d="M227.779 266.564C224.779 267.336 222.379 269.308 220.407 271.451C218.436 273.679 216.893 276.337 215.778 279.08C214.578 281.823 213.806 284.738 213.121 287.738C212.435 290.738 211.835 293.739 211.149 296.739C209.863 302.74 208.663 308.74 207.463 314.741L203.948 332.743V333.686L202.92 333.6C199.491 333.343 195.976 333.772 192.461 334.286C188.947 334.886 185.518 335.657 182.089 336.515C178.66 337.372 175.317 338.486 171.974 339.686L169.488 340.629C168.63 340.972 167.859 341.315 167.087 341.658C165.544 342.43 164.001 343.287 162.63 344.23C159.801 346.287 157.486 348.859 155.686 351.773C153.886 354.774 152.6 358.031 151.743 361.374C150.028 368.147 149.943 375.347 150.371 382.377C149 375.433 148.828 368.061 150.371 361.032C151.143 357.517 152.514 354.088 154.315 350.916C155.257 349.373 156.372 347.916 157.572 346.544C158.772 345.173 160.229 343.973 161.687 342.944C163.144 341.915 164.773 340.972 166.402 340.201C167.259 339.858 168.116 339.515 168.887 339.172L171.373 338.315C174.717 337.115 178.146 336.086 181.575 335.143C185.003 334.2 188.518 333.429 192.033 332.829C195.547 332.228 199.062 331.714 202.748 331.457L201.72 332.314C202.92 326.314 204.12 320.313 205.32 314.312C206.606 308.312 207.892 302.311 209.263 296.31C209.949 293.31 210.635 290.31 211.406 287.395C212.178 284.395 213.035 281.395 214.321 278.566C215.607 275.737 217.235 272.994 219.379 270.679C220.493 269.565 221.693 268.536 223.065 267.765C224.693 267.165 226.236 266.65 227.779 266.564Z" fill="#86A5BF"/>
<path d="M255.155 360.72L227.856 351.737L143.277 351.504L164.16 360.487L255.155 360.72Z" fill="#CFD4FB"/>
<path d="M246.756 429.199L250.022 431.999L252.122 370.285H246.756V429.199Z" fill="#6677A3"/>
<path d="M250.009 432.031L255.375 432.031L255.375 370.318L250.009 370.318L250.009 432.031Z" fill="#BFC6F2"/>
<path d="M160.771 429.194L163.883 432.081L166.073 368.467H160.771V429.194Z" fill="#6677A3"/>
<path d="M164.011 432.031L169.377 432.031L169.377 370.318L164.011 370.318L164.011 432.031Z" fill="#BFC6F2"/>
<path d="M222.256 422.316L225.522 425.116L227.622 363.402H222.256V422.316Z" fill="#6677A3"/>
<path d="M225.491 425.133L230.857 425.133L230.857 363.419L225.491 363.419L225.491 425.133Z" fill="#BFC6F2"/>
<path d="M164.043 371.102L255.388 371.685V360.719L164.043 360.369V371.102Z" fill="#BFC6F2"/>
<path d="M144.094 422.317L147.36 425.117L149.46 363.404L144.094 361.07V422.317Z" fill="#6677A3"/>
<path d="M147.361 425.117H152.728V363.404L147.361 361.07V425.117Z" fill="#BFC6F2"/>
<path d="M164.159 360.487L164.042 371.103L143.977 361.07L144.093 351.971L164.159 360.487Z" fill="#6677A3"/>
<path d="M213.561 347.798C213.561 347.798 218.19 345.945 217.743 354.874C217.743 354.874 254.911 343.542 265.067 340.528L300.449 336.734L295.649 323.117C295.649 323.117 266.407 320.773 254.129 319.992C245.982 319.545 226.27 339.703 213.561 347.798Z" fill="#D8CEB8"/>
<path d="M207.697 357.494C207.697 357.494 203.456 355.819 207.362 340.082L211.381 341.868L214.282 347.895L212.162 356.154L207.697 357.494Z" fill="#035279"/>
<path d="M214.061 345.661C214.061 345.661 202.341 344.88 198.77 342.09C198.77 342.09 199.328 346.778 199.104 351.131L199.439 353.921C199.439 353.921 209.038 354.032 212.163 355.483C212.163 355.483 218.079 351.465 214.061 345.661Z" fill="#F9C1A7"/>
<path d="M306.028 361.288L261.383 357.493C250.557 360.06 226.56 358.386 207.697 357.605C209.037 356.824 211.157 354.033 210.711 346.109C210.599 344.658 209.595 343.5 207.697 343.5L264.285 339.635L294.086 334.278L301.675 325.684L318.417 344.993L306.252 357.717L306.028 361.288Z" fill="#BFB59B"/>
<path d="M214.23 331.446C215.692 334.035 218.579 344.151 216.555 345.972C216.555 345.972 232.465 342.178 243.373 341.891C254.282 341.603 264.065 338.727 264.065 338.727L236.347 330.605L214.23 331.446Z" fill="#D8CEB8"/>
<path d="M293.528 294.432L286.385 306.709L272.656 312.513L276.898 322.112C276.898 322.112 290.514 319.991 292.412 318.652C298.439 314.522 302.234 303.584 302.234 303.584L293.528 294.432Z" fill="#E6A696"/>
<path d="M235.713 329.924L283.93 320.325L275.001 292.422C274.666 291.529 273.774 290.86 272.769 290.971L225.333 295.101C224.552 295.212 224.106 295.994 224.329 296.663L235.713 329.924Z" fill="#31374C"/>
<path d="M312.168 269.097C312.168 269.097 300.672 274.119 299.221 284.611C299.221 284.611 296.989 316.309 296.543 316.755C294.087 320.327 286.721 324.122 286.721 324.122C286.721 324.122 313.843 333.609 312.28 356.266C313.508 356.49 317.079 354.146 318.196 353.588C324.334 350.909 332.482 347.449 336.5 342.091C344.536 331.153 345.206 304.701 346.322 295.214C347.996 280.258 340.965 273.896 332.37 268.762L317.303 273.226L312.168 269.097Z" fill="#772539"/>
<path d="M301.341 284.053C301.341 284.053 312.949 288.517 328.128 287.401L326.231 308.273C326.231 308.273 304.801 311.063 299.221 304.59C299.221 304.478 299.444 290.75 301.341 284.053Z" fill="#E88636"/>
<path d="M329.467 266.863L329.579 264.742C325.338 266.751 321.654 268.202 317.413 269.43C315.181 270.1 312.614 270.769 310.605 270.434L309.377 271.551L317.19 274.229L330.025 268.537L329.579 267.756L329.467 266.863Z" fill="#FAC2A8"/>
<path d="M317.191 270.324C321.432 269.096 329.58 264.855 329.58 264.855V249.006L313.731 260.725L314.289 267.757L312.949 268.315L310.605 270.547C312.615 270.882 314.958 270.882 317.191 270.324Z" fill="#DC918B"/>
<path d="M317.189 274.341L330.36 265.635L334.043 269.653L321.877 281.372L317.189 274.341Z" fill="#BD1A3B"/>
<path d="M315.07 273.784L309.824 278.36L308.373 270.212L314.065 266.641L315.07 273.784Z" fill="#BD1A3B"/>
<path d="M239.06 328.473L282.366 319.879L275.334 297.668C275 296.664 273.102 293.204 271.986 293.315L230.131 296.998C229.015 297.11 228.345 298.226 228.68 299.231L239.06 328.473Z" fill="#F7F7FA"/>
<path d="M263.169 315.973C263.057 315.973 262.946 315.973 262.834 315.861C260.825 314.187 259.486 311.955 258.928 309.611C258.37 307.155 258.928 304.923 260.267 303.137C261.606 301.463 263.727 300.57 266.071 300.57C270.982 300.57 275.67 304.477 276.786 309.388C277.121 311.062 277.009 312.736 276.451 314.187C276.339 314.522 276.005 314.634 275.67 314.522C275.335 314.41 275.223 314.075 275.335 313.741C275.893 312.513 276.005 311.062 275.67 309.611C274.777 305.258 270.424 301.686 266.071 301.686C264.062 301.686 262.276 302.468 261.16 303.919C259.932 305.37 259.597 307.379 260.044 309.388C260.49 311.508 261.718 313.517 263.504 314.968C263.727 315.192 263.727 315.526 263.615 315.75C263.504 315.861 263.281 315.973 263.169 315.973Z" fill="#E1E4F4"/>
<path d="M271.765 292.87L229.686 296.999C228.682 297.111 228.124 298.115 228.459 299.008L229.686 302.245L275.336 297.78L274.22 294.544C273.885 293.428 272.881 292.758 271.765 292.87Z" fill="#EF3F54"/>
<path d="M253.459 311.508L238.949 313.405L239.731 315.414L254.129 313.517L253.459 311.508Z" fill="#E1E4F4"/>
<path d="M270.089 307.602L265.624 308.16C264.731 308.272 264.285 309.165 264.508 309.946L265.289 311.955C265.624 312.736 266.405 313.183 267.187 313.071L271.651 312.513C272.544 312.402 272.991 311.509 272.767 310.727L272.098 308.718C271.651 308.049 270.87 307.491 270.089 307.602Z" fill="#BFC6F2"/>
<path d="M235.713 329.924L274.331 334.612L307.703 324.455L283.483 319.99L235.713 329.924Z" fill="#31374C"/>
<path d="M235.713 329.926C235.713 329.926 237.052 333.274 243.637 334.167L276.898 337.181C276.898 337.181 279.13 337.627 276.563 332.716C276.563 332.604 247.432 331.377 235.713 329.926Z" fill="#2B2E3A"/>
<path d="M307.703 326.129C307.703 327.915 306.475 329.589 304.689 330.035L277.232 337.179C277.232 337.179 277.232 335.504 276.562 332.714L307.703 324.566V326.129Z" fill="#2B2E3A"/>
<path d="M336.5 308.719C336.5 308.719 330.808 319.992 326.566 325.461C326.566 325.461 323.776 329.144 309.713 328.474C305.248 328.251 291.408 329.702 291.408 329.702C291.408 329.702 293.864 324.121 292.189 321.554C292.189 321.554 314.735 314.523 317.526 314.188L323.33 301.576C323.33 301.687 336.165 300.459 336.5 308.719Z" fill="#F9C1A7"/>
<path d="M338.732 276.016C332.035 275.793 327.012 284.722 326.231 289.633C326.008 290.972 323.775 299.343 322.213 302.133C328.91 303.473 334.825 304.254 335.83 311.397C341.075 303.807 342.75 303.026 345.428 294.097C346.768 289.744 347.549 286.507 344.201 279.699C343.196 277.802 340.741 276.127 338.732 276.016Z" fill="#BD1A3B"/>
<path d="M305.917 273.225C305.917 273.225 297.658 277.689 293.528 290.078L290.18 296.552C290.18 296.552 295.76 298.449 297.993 300.57C297.993 300.57 298.774 283.047 303.127 276.015L305.917 273.225Z" fill="#BD1A3B"/>
<path d="M282.255 226.794C282.255 226.794 278.237 216.302 271.54 221.436C264.843 226.57 274.553 243.982 284.822 240.41C284.822 240.41 286.161 236.281 282.255 226.794Z" fill="#F7AB8D"/>
<path d="M273.773 175.563C266.072 177.237 267.077 186.501 266.965 190.742C266.742 203.243 275.559 222.887 276.787 228.356C276.787 228.244 286.386 172.884 273.773 175.563Z" fill="#2B2E3A"/>
<path d="M271.652 179.471C271.652 179.471 278.349 249.452 281.251 254.14C284.265 258.828 300.783 264.743 309.936 265.078C319.088 265.413 335.718 250.568 338.174 246.662C339.513 244.541 340.852 227.129 341.187 209.606C341.522 194.538 345.094 181.256 343.196 175.453C343.308 175.453 303.016 157.036 271.652 179.471Z" fill="#FAC2A8"/>
<path d="M283.371 216.302C283.594 215.409 284.152 214.739 284.822 214.07C285.492 213.4 286.273 212.953 287.389 212.842C288.394 212.842 289.398 213.288 289.956 214.07C290.291 214.404 290.514 214.851 290.738 215.186C290.849 215.632 291.072 215.967 291.184 216.413C290.849 216.079 290.514 215.855 290.291 215.521C289.956 215.297 289.733 214.962 289.398 214.739C288.84 214.293 288.17 214.07 287.501 214.07C286.831 214.07 286.161 214.404 285.492 214.851C284.71 215.297 284.041 215.744 283.371 216.302Z" fill="#2B2E3A"/>
<path d="M339.847 216.414C339.847 216.414 335.382 240.746 334.378 244.652C331.811 254.028 314.734 260.725 309.711 261.841C305.47 262.734 282.924 255.479 281.696 250.01C278.571 235.835 276.451 223.557 275.893 220.879C277.79 237.621 276.897 250.456 281.138 256.483C284.264 260.948 306.475 268.203 310.604 267.087C320.761 264.185 338.284 253.693 340.628 249.786C341.744 247.889 342.414 234.049 342.86 218.646L343.977 208.713L339.847 216.414Z" fill="#2B2E3A"/>
<path opacity="0.2" d="M312.614 219.427C312.837 220.766 315.292 221.659 318.083 221.213C320.873 220.878 323.105 219.427 322.882 217.976C322.659 216.637 320.203 215.744 317.413 216.19C314.511 216.637 312.391 218.088 312.614 219.427Z" fill="#F0808E"/>
<path opacity="0.2" d="M281.251 222.106C281.139 223.333 283.148 224.449 285.603 224.561C288.059 224.673 290.18 223.891 290.291 222.664C290.403 221.436 288.394 220.32 285.938 220.208C283.371 219.985 281.251 220.878 281.251 222.106Z" fill="#F0808E"/>
<path d="M278.125 199.895C279.576 197.775 281.362 196.101 285.38 195.431C287.389 195.319 289.621 195.096 287.501 193.31C283.929 190.52 276.228 195.431 276.005 201.012C275.67 203.467 277.344 201.458 278.125 199.895Z" fill="#2B2E3A"/>
<path d="M320.204 195.767C318.195 193.758 315.962 192.307 311.61 192.418C309.377 192.753 307.033 192.976 308.931 190.521C312.168 186.838 321.32 190.409 322.659 196.325C323.552 199.003 321.32 197.329 320.204 195.767Z" fill="#2B2E3A"/>
<path opacity="0.6" d="M290.18 206.257C296.988 206.034 302.792 201.793 302.792 201.793C301.341 215.187 307.145 227.018 307.145 227.018C301.229 233.156 292.3 229.808 292.3 229.808C298.885 215.856 290.18 206.257 290.18 206.257Z" fill="url(#paint0_linear)"/>
<path d="M340.853 219.204C332.929 212.619 335.942 205.364 330.919 196.1C327.236 189.18 328.129 178.019 330.919 174.112C330.919 174.112 345.876 171.657 346.657 172.103C351.233 175.228 359.827 191.859 350.898 217.418L340.853 219.204Z" fill="#2B2E3A"/>
<path d="M340.852 219.204C340.852 219.204 342.972 210.945 350.227 213.958C357.37 216.972 356.366 238.402 339.959 233.491C339.847 233.491 338.843 227.798 340.852 219.204Z" fill="#FAC2A8"/>
<path d="M350.339 219.317C349.558 218.759 348.553 218.424 347.549 218.313C346.544 218.201 345.651 218.647 344.981 219.317C344.312 219.987 343.865 220.88 343.53 221.773C343.196 222.665 342.972 223.558 342.861 224.563L342.526 224.228C343.53 224.228 344.423 224.34 345.316 224.898C346.098 225.456 346.544 226.349 346.544 227.242C346.544 227.688 346.432 228.134 346.321 228.581C346.098 229.027 345.763 229.362 345.428 229.585C344.647 230.143 343.754 230.367 342.861 230.478C343.754 230.255 344.647 230.032 345.205 229.474C345.54 229.251 345.763 228.916 345.986 228.469C346.098 228.134 346.209 227.688 346.098 227.242C345.986 226.46 345.651 225.679 344.981 225.233C344.312 224.786 343.419 224.674 342.638 224.674H342.303L342.414 224.34C342.638 223.335 342.861 222.442 343.196 221.438C343.53 220.545 343.977 219.54 344.758 218.871C345.54 218.089 346.656 217.643 347.66 217.866C348.665 218.201 349.669 218.759 350.339 219.317Z" fill="#DC918B"/>
<path d="M317.86 211.392C317.86 212.508 316.967 213.401 315.851 213.401C314.735 213.401 313.842 212.508 313.842 211.392C313.842 210.276 314.735 209.383 315.851 209.383C317.079 209.383 317.86 210.387 317.86 211.392Z" fill="#2B2E3A"/>
<path d="M317.302 210.723C317.302 211.057 316.967 211.392 316.633 211.392C316.298 211.392 315.963 211.057 315.963 210.723C315.963 210.388 316.298 210.053 316.633 210.053C316.967 209.941 317.302 210.276 317.302 210.723Z" fill="white"/>
<path d="M292.301 229.808C292.301 229.808 302.904 240.969 307.145 227.018C307.145 227.018 300.002 230.366 292.301 229.808Z" fill="#DC918B"/>
<path d="M268.415 170.095C273.772 164.291 283.706 152.683 296.765 152.125C303.238 151.902 303.796 153.465 303.796 153.465C303.238 152.348 301.006 149 301.006 149C311.498 153.353 347.549 145.094 346.656 172.104C348.665 174.001 349.781 175.564 349.892 176.234C350.339 179.694 330.137 196.882 330.918 188.176C331.923 180.81 332.481 179.917 329.579 178.131C324.333 174.894 315.516 175.117 296.095 182.037C286.943 185.274 270.089 190.074 257.365 176.68C257.477 176.792 263.058 175.899 268.415 170.095Z" fill="#2B2E3A"/>
<path d="M289.957 238.066C298.551 244.317 293.975 252.241 306.141 251.795C317.637 250.121 321.544 231.146 321.544 231.146C304.355 244.317 289.957 238.066 289.957 238.066Z" fill="#31374C"/>
<path d="M315.963 244.652C307.034 245.21 302.57 248.336 300.449 251.014C301.789 251.572 303.574 251.796 306.141 251.796C310.383 251.126 313.62 248.224 315.963 244.652Z" fill="#F97A7A"/>
<path d="M289.957 238.067C291.743 239.406 292.971 240.745 293.975 242.085C294.422 242.643 310.159 243.424 319.646 237.174C320.874 233.714 321.432 231.035 321.432 231.035C304.355 244.317 289.957 238.067 289.957 238.067Z" fill="white"/>
<path d="M291.073 238.961C291.408 239.296 291.743 239.631 292.19 239.966C292.524 240.3 292.859 240.635 293.194 240.97C293.529 241.305 293.752 241.751 294.087 242.086C295.203 243.649 295.984 245.435 296.766 247.109C297.212 247.89 297.659 248.783 298.328 249.453C298.663 249.788 298.998 250.122 299.333 250.346C299.668 250.569 300.114 250.792 300.561 251.015C300.784 251.127 301.007 251.127 301.23 251.239C301.453 251.35 301.677 251.35 301.9 251.462C302.346 251.573 302.793 251.573 303.239 251.685C303.686 251.685 304.132 251.797 304.69 251.797C305.137 251.797 305.583 251.797 306.141 251.797C308.373 251.462 310.382 250.457 312.057 249.006C313.731 247.555 315.182 245.77 316.298 243.872C317.526 241.975 318.419 239.854 319.2 237.845C319.646 236.84 319.981 235.724 320.316 234.608C320.651 233.492 320.986 232.488 321.209 231.371L321.655 231.595L319.981 232.822C319.423 233.157 318.865 233.604 318.195 233.939C317.637 234.273 316.968 234.72 316.41 235.055C315.852 235.389 315.182 235.724 314.512 236.059C313.842 236.394 313.284 236.617 312.615 236.952C311.945 237.175 311.275 237.51 310.606 237.733C309.936 237.957 309.266 238.18 308.597 238.403C307.927 238.626 307.257 238.738 306.588 238.961C305.918 239.073 305.248 239.296 304.467 239.408C303.797 239.519 303.128 239.631 302.346 239.742C301.677 239.854 300.895 239.854 300.226 239.854C299.556 239.854 298.775 239.854 298.105 239.854C296.654 239.854 295.315 239.631 293.864 239.408C292.524 239.184 291.073 238.849 289.846 238.291C290.292 238.403 290.739 238.626 291.073 238.961ZM293.975 239.073C295.315 239.296 296.766 239.408 298.105 239.408C298.775 239.408 299.444 239.408 300.226 239.296C300.895 239.296 301.565 239.184 302.346 239.073C303.016 238.961 303.686 238.849 304.355 238.738C305.025 238.626 305.695 238.403 306.364 238.291C307.034 238.068 307.704 237.957 308.373 237.733C309.043 237.51 309.713 237.287 310.382 237.064C311.052 236.84 311.722 236.506 312.28 236.282C312.95 235.948 313.508 235.724 314.177 235.389C314.847 235.055 315.405 234.72 315.963 234.385C316.521 234.05 317.191 233.715 317.749 233.269C318.307 232.934 318.865 232.488 319.535 232.153L321.209 230.925L321.767 230.479L321.655 231.148C321.432 232.264 321.097 233.38 320.763 234.497C320.428 235.613 320.093 236.617 319.646 237.733C318.865 239.854 317.861 241.975 316.633 243.872C315.405 245.77 313.954 247.667 312.28 249.118C310.494 250.569 308.373 251.685 306.03 252.02C305.583 252.02 305.025 252.02 304.579 252.02C304.132 252.02 303.574 252.02 303.128 251.908C302.681 251.797 302.123 251.797 301.677 251.685C301.453 251.685 301.23 251.573 301.007 251.462C300.784 251.35 300.561 251.35 300.337 251.239C299.891 251.015 299.444 250.792 298.998 250.569C298.552 250.234 298.217 250.011 297.882 249.564C297.212 248.895 296.766 248.002 296.319 247.109C295.873 246.216 295.538 245.435 295.092 244.542C294.645 243.649 294.199 242.868 293.752 242.086C293.529 241.64 293.194 241.305 292.971 240.97C292.636 240.635 292.413 240.3 292.078 239.854C291.743 239.519 291.408 239.184 291.073 238.849C290.739 238.515 290.292 238.291 289.957 237.957C291.297 238.626 292.636 238.849 293.975 239.073Z" fill="#DC918B"/>
<path d="M318.084 230.813C318.084 230.813 318.53 230.701 319.2 230.589C319.312 230.589 319.535 230.589 319.758 230.589C319.981 230.589 320.093 230.589 320.316 230.589C320.539 230.589 320.763 230.589 320.874 230.701C320.986 230.701 321.098 230.701 321.209 230.813L321.544 230.924C321.767 231.036 321.879 231.147 322.102 231.259C322.214 231.371 322.437 231.482 322.549 231.594C322.66 231.705 322.772 231.929 322.995 232.04C323.107 232.152 323.218 232.375 323.33 232.487C323.441 232.598 323.553 232.71 323.553 232.822C323.665 232.933 323.665 233.045 323.776 233.156C323.888 233.38 323.999 233.38 323.999 233.38C323.999 233.38 323.999 233.268 323.888 233.045C323.776 232.822 323.776 232.598 323.665 232.264C323.553 232.152 323.553 231.929 323.441 231.705C323.33 231.594 323.218 231.371 323.107 231.147C322.995 231.036 322.772 230.813 322.549 230.701C322.325 230.589 322.102 230.366 321.879 230.366L321.544 230.254C321.432 230.254 321.321 230.143 321.209 230.143C320.986 230.031 320.763 230.143 320.539 230.031C320.316 230.031 320.093 230.031 319.87 230.143C319.647 230.143 319.535 230.254 319.312 230.254C318.53 230.589 318.084 230.813 318.084 230.813Z" fill="#DC918B"/>
<path d="M329.579 178.243C329.579 178.243 329.021 184.381 319.868 185.721C309.488 187.283 300.225 182.93 300.225 182.93C300.225 182.93 306.028 182.261 307.145 178.577C308.819 173.108 322.324 170.43 322.324 170.43L329.579 178.243Z" fill="#2B2E3A"/>
<path d="M292.412 152.684C292.412 152.684 288.952 153.353 275.336 160.162C269.643 162.952 266.183 157.148 266.183 157.148C266.183 157.148 261.607 170.318 274.666 169.984C287.836 169.649 292.412 152.684 292.412 152.684Z" fill="#2B2E3A"/>
<path d="M297.545 327.916C297.992 326.8 297.545 325.349 296.429 324.01C295.313 322.671 294.309 322.001 292.969 321.554C291.63 321.22 282.478 318.764 281.585 318.652C280.692 318.429 279.911 318.876 278.906 319.434C278.571 319.657 276.116 319.992 275.558 319.992C274.665 320.103 274.33 320.885 273.883 321.666C273.772 321.889 272.879 323.452 271.428 325.126C269.754 326.577 271.874 327.358 272.656 326.912C272.656 326.912 271.651 327.47 271.986 328.251C272.321 329.256 274.107 329.591 274.888 329.144C273.995 331.041 276.451 331.376 277.344 331.376C277.902 332.827 279.241 332.604 280.357 331.934C281.362 331.265 282.701 329.591 282.701 329.591H286.273C286.273 329.591 288.393 330.372 290.402 330.93C292.411 331.6 293.974 331.376 295.09 330.483C295.648 330.037 297.434 328.028 297.545 327.916Z" fill="#FAC2A8"/>
<path d="M277.455 331.264C277.678 330.371 278.348 329.813 278.906 329.255C279.464 328.697 279.911 328.027 280.357 327.246C280.58 326.911 280.803 326.464 281.25 326.241C281.362 326.129 281.585 326.129 281.696 326.129C281.92 326.129 281.92 326.129 282.031 326.129H282.589C283.371 326.129 284.263 326.018 285.045 325.906C284.263 326.353 283.482 326.576 282.589 326.576C282.366 326.576 282.143 326.576 281.92 326.576C281.808 326.576 281.696 326.576 281.585 326.576C281.585 326.576 281.473 326.576 281.473 326.688C281.25 326.799 281.027 327.246 280.803 327.58C280.357 328.25 279.911 329.031 279.129 329.589C278.794 329.813 278.46 330.036 278.125 330.371C278.013 330.594 277.678 330.817 277.455 331.264Z" fill="#DC918B"/>
<path d="M274.889 329.143C275.558 328.474 276.116 327.804 276.674 327.023C277.233 326.353 277.791 325.572 278.46 324.902C278.795 324.567 279.13 324.121 279.688 324.009C279.911 323.898 280.246 323.898 280.469 323.898C280.693 323.898 280.916 323.898 281.139 323.898C282.032 323.898 282.925 323.674 283.818 323.451C283.036 323.898 282.144 324.232 281.139 324.344C280.916 324.344 280.693 324.456 280.469 324.344C280.246 324.344 280.023 324.344 279.911 324.456C279.576 324.567 279.242 324.902 279.018 325.237C278.46 325.907 277.902 326.688 277.233 327.358C276.451 328.139 275.67 328.697 274.889 329.143Z" fill="#DC918B"/>
<path d="M272.656 326.911C272.991 326.576 273.326 326.353 273.661 326.018C273.996 325.795 274.219 325.349 274.442 325.014C274.889 324.233 275.335 323.451 275.781 322.67C276.005 322.335 276.451 321.777 276.898 321.665C277.344 321.554 277.79 321.442 278.237 321.442C279.13 321.331 280.023 321.331 280.916 321.107C280.134 321.554 279.13 321.777 278.237 321.889C277.79 322 277.344 322 277.009 322.224C276.674 322.335 276.451 322.558 276.228 323.005C275.781 323.786 275.335 324.567 274.777 325.237C274.665 325.46 274.442 325.572 274.33 325.795C274.219 326.018 273.996 326.13 273.772 326.242C273.438 326.576 273.103 326.688 272.656 326.911Z" fill="#DC918B"/>
<path d="M188.5 325.571C188.277 323.897 187.161 320.995 184.259 321.107C181.692 321.218 180.688 324.901 180.688 330.482C180.688 334.947 182.362 337.849 183.143 345.215C183.143 345.215 181.804 345.55 182.027 347.112C182.138 349.01 182.585 351.689 182.92 354.591C183.031 355.372 183.255 356.265 183.701 356.934C184.259 357.716 186.491 357.939 186.491 357.939V348.117L188.612 345.55C188.612 345.55 188.724 328.027 188.5 325.571Z" fill="#2B2E3A"/>
<path d="M202.116 343.654C202.116 343.654 197.428 338.743 194.303 336.064C192.406 325.908 189.95 320.662 184.146 321.108C184.146 321.108 188.165 320.997 188.276 328.698C188.276 332.939 187.941 345.775 187.941 345.775C187.941 345.775 186.267 346.779 186.044 347.003C185.709 347.561 185.709 348.119 185.709 348.788C185.709 350.016 186.267 356.266 186.379 358.052C186.379 358.052 194.973 358.275 200.888 354.257L202.116 343.654Z" fill="#035279"/>
<path d="M195.309 336.51C195.309 336.51 196.648 338.63 195.755 340.751" stroke="#E7DCC3" stroke-miterlimit="10" stroke-linecap="round"/>
<path d="M197.318 338.295C197.318 338.295 198.658 340.416 197.765 342.536" stroke="#E7DCC3" stroke-miterlimit="10" stroke-linecap="round"/>
<path d="M199.326 339.857C199.326 339.857 200.666 341.978 199.773 344.099" stroke="#E7DCC3" stroke-miterlimit="10" stroke-linecap="round"/>
<path d="M190.063 323.117C189.17 321.554 185.375 318.987 182.585 320.215C180.018 321.331 179.571 326.242 181.915 331.711C183.701 336.175 185.933 337.85 189.617 344.77C189.617 344.77 188.5 345.663 189.282 347.114C190.175 349.011 191.737 351.355 193.188 354.145C193.523 354.815 194.527 355.596 195.42 355.931C197.876 356.712 199.773 355.708 199.773 355.708L195.867 345.997L196.871 342.649C196.76 342.649 191.291 325.461 190.063 323.117Z" fill="#2B2E3A"/>
<path d="M214.283 331.934C214.283 331.934 209.372 337.068 216.069 346.332C216.069 346.332 218.301 347.225 217.743 338.296C217.632 335.282 216.292 332.826 214.283 331.934Z" fill="#035279"/>
<path d="M208.814 335.728C208.814 335.728 213.949 335.616 216.851 334.5C216.851 334.5 218.971 338.072 218.078 345.326C218.078 345.326 214.618 346.443 212.833 347.112C211.94 346.554 213.614 346.219 208.814 335.728Z" fill="#F9C1A7"/>
<path d="M209.373 335.17C209.373 335.17 202.788 332.268 198.658 330.817C192.743 321.553 188.167 317.424 182.586 320.103C182.586 320.103 187.72 318.093 190.064 325.906C192.073 332.603 196.203 342.872 196.203 342.872C196.203 342.872 194.975 344.546 194.863 344.881C194.752 345.55 194.975 346.108 195.31 346.778C195.868 348.006 198.881 353.921 199.774 355.707C199.774 355.707 208.592 353.475 212.833 347.113C212.833 342.537 212.052 337.403 209.373 335.17Z" fill="#035279"/>
<path d="M199.773 330.93C199.773 330.93 202.006 332.492 201.894 334.948" stroke="#E7DCC3" stroke-width="1.0646" stroke-miterlimit="10" stroke-linecap="round"/>
<path d="M202.451 331.934C202.451 331.934 204.683 333.496 204.572 335.952" stroke="#E7DCC3" stroke-width="1.0646" stroke-miterlimit="10" stroke-linecap="round"/>
<path d="M205.131 332.715C205.131 332.715 207.363 334.277 207.252 336.733" stroke="#E7DCC3" stroke-width="1.0646" stroke-miterlimit="10" stroke-linecap="round"/>
<path d="M399.483 362.833C389.968 395.751 365.451 391.55 365.451 391.55L289.586 391.722C299.358 390.179 300.901 365.062 300.901 365.062C300.473 326.401 359.708 313.456 359.708 313.456C379.767 265.108 408.484 273.424 408.484 273.424C408.484 273.424 420.743 289.368 399.483 362.833Z" fill="#9FBAC9"/>
</g>
<defs>
<linearGradient id="paint0_linear" x1="297.893" y1="202.055" x2="299.352" y2="230.64" gradientUnits="userSpaceOnUse">
<stop stop-color="#FAC2A8"/>
<stop offset="0.2651" stop-color="#F7BCA5"/>
<stop offset="0.6038" stop-color="#EDAD9B"/>
<stop offset="0.981" stop-color="#DD938C"/>
<stop offset="1" stop-color="#DC918B"/>
</linearGradient>
</defs>
</svg>
