<svg width="363" height="325" viewBox="0 0 363 325" fill="none" xmlns="http://www.w3.org/2000/svg">
<path opacity="0.15" d="M76.1376 317.312C67.1303 316.18 -1.36501 307.782 0.0207374 296.083C0.713609 289.856 140.278 290.328 154.234 291.932C168.785 293.536 183.137 296.366 197.786 296.744C249.949 298.159 280.733 287.309 346.259 294.102C377.537 297.404 333.49 314.576 321.414 317.783C288.255 326.558 284.395 325.803 227.085 322.123C187.789 319.67 88.1144 318.821 76.1376 317.312Z" fill="#001177"/>
<path d="M49.3148 135.217C49.3148 131.16 49.3148 124.178 49.3148 124.178H38.7238H28.1327C28.1327 124.178 28.1327 131.065 28.1327 135.217C28.1327 139.274 22.8867 142.764 22.8867 151.539C22.8867 160.313 31.7951 163.049 31.7951 163.049H38.7238H45.6525C45.6525 163.049 54.5609 160.408 54.5609 151.539C54.5609 142.764 49.3148 139.274 49.3148 135.217Z" fill="#D8CEB8"/>
<path d="M49.9079 97.9492H38.723H27.538L7.04883 128.235C14.9674 132.009 38.723 131.82 38.723 131.82C38.723 131.82 62.4786 132.009 70.3971 128.235L49.9079 97.9492Z" fill="#647B8F"/>
<path d="M60.6967 125.027C63.6662 126.443 66.1407 128.518 67.8234 131.349C68.1204 131.82 68.3183 132.198 68.6153 132.67C68.3183 130.028 68.8132 126.443 72.5745 124.367C72.5745 124.367 76.0389 131.726 69.902 135.877C70.5949 138.142 70.9908 140.501 71.1888 142.765C72.4756 140.312 74.9501 137.576 79.3053 139.463C79.3053 139.463 77.7216 147.482 71.2878 145.973C71.2878 147.199 71.1888 148.332 71.1888 149.369C70.7929 154.936 69.6051 159.087 69.5061 159.276L68.1204 158.899C68.1204 158.804 70.001 152.011 69.8031 144.463C67.6255 144.841 61.7855 145.312 59.311 139.651C59.311 139.651 66.4377 137.859 69.7041 142.482C69.5061 139.651 68.9122 136.915 67.8234 134.368C65.7448 135.311 60.3998 137.198 56.8365 132.387C56.8365 132.387 62.0825 128.99 66.6356 132.104C66.6356 132.104 66.6356 132.104 66.6356 132.009C65.2499 129.839 63.4682 128.047 61.2906 126.82C59.212 127.763 53.867 129.556 50.4027 124.744C50.3037 124.839 55.9456 121.159 60.6967 125.027Z" fill="#5ABA8A"/>
<path d="M59.2134 154.086L63.6676 148.52H69.9034H70.0024H76.2382L80.6924 154.086C81.5832 155.218 81.6822 156.634 80.9893 157.86L77.9209 162.955H70.2004H69.8044H62.0839L59.0154 157.86C58.2236 156.728 58.3226 155.218 59.2134 154.086Z" fill="#D8CEB8"/>
<path d="M89.7657 298.311L96.3975 298.311L96.3975 164.807L89.7657 164.807L89.7657 298.311Z" fill="#31374C"/>
<path d="M73.2794 298.311L79.9111 298.311L79.9111 164.807L73.2794 164.807L73.2794 298.311Z" fill="#31374C"/>
<path d="M35.337 298.311L41.9688 298.311L41.9688 164.807L35.337 164.807L35.337 298.311Z" fill="#31374C"/>
<path d="M16.5977 298.311L23.2295 298.311L23.2295 164.807L16.5977 164.807L16.5977 298.311Z" fill="#31374C"/>
<path d="M21.3136 184.99L91.0957 184.99L91.0957 162.63L21.3136 162.63L21.3136 184.99Z" fill="#31374C"/>
<path d="M13.7189 167.404L100.13 167.404L100.13 162.687L13.7189 162.687L13.7189 167.404Z" fill="#E1E4F4"/>
<path d="M21.3136 286.982L91.0957 286.982L91.0957 282.831L21.3136 282.831L21.3136 286.982Z" fill="#31374C"/>
<path d="M86.6315 254.663C86.1366 257.871 80.9896 298.535 80.4947 301.177C79.9998 303.819 87.3244 304.574 88.1163 300.234C90.9867 289.855 100.885 254.191 100.885 254.191" fill="#BFB59B"/>
<path d="M255.197 256.645C255.197 256.645 262.423 304.102 263.215 306.744C264.106 309.48 270.836 309.48 271.727 305.423C270.737 287.403 267.966 253.531 267.966 253.531" fill="#BFB59B"/>
<path d="M318.842 255.229C318.842 255.229 323.692 292.969 323.989 294.573C324.484 297.498 330.819 297.498 331.61 293.629C331.116 281.458 328.839 247.115 328.839 247.115" fill="#BFB59B"/>
<path d="M139.092 256.834V291.554C139.092 295.611 147.604 294.29 147.604 291.554C148.99 277.119 151.366 261.74 151.366 261.74" fill="#BFB59B"/>
<path d="M53.6704 201.828C53.6704 201.828 63.0737 247.399 64.0635 252.211C65.0533 257.023 70.1014 267.495 88.215 270.42C106.329 273.251 271.826 283.063 271.826 283.063C271.826 283.063 327.355 276.081 333.789 272.024C338.936 268.816 342.499 261.363 343.489 254.475C344.973 244.663 360.81 131.539 361.8 126.255C362.79 120.971 363.285 110.31 353.189 109.367C343.093 108.423 148.297 105.593 138.696 106.064C130.183 105.97 127.016 113.895 125.531 121.538C124.046 129.18 112.564 188.903 112.564 188.903C112.564 188.903 62.5788 193.243 58.6195 194.186C54.6602 195.13 53.2745 197.394 53.6704 201.828Z" fill="#9FBAC9"/>
<path d="M358.929 111.725C353.485 113.517 351.703 115.121 351.703 115.121C325.77 129.651 314.783 185.411 314.783 185.411C314.783 185.411 288.553 193.902 279.842 199.092C271.429 204.092 271.132 215.131 271.132 215.131L264.698 282.59C269.251 282.874 271.825 283.062 271.825 283.062C271.825 283.062 327.354 276.08 333.787 272.023C338.934 268.816 342.498 261.362 343.488 254.475C344.972 244.662 360.809 131.538 361.799 126.254C362.591 122.48 362.987 115.404 358.929 111.725Z" fill="#9FBAC9"/>
<path d="M271.132 215.225C271.231 210.697 272.617 205.979 275.487 202.205C276.279 201.262 277.071 200.413 278.061 199.658C278.555 199.28 279.05 198.903 279.545 198.62L281.129 197.677C283.208 196.544 285.385 195.507 287.563 194.469C291.918 192.487 296.372 190.789 300.826 189.091C305.28 187.392 309.834 185.789 314.288 184.279L313.397 185.317C313.991 181.92 314.783 178.712 315.674 175.41C316.564 172.108 317.455 168.9 318.445 165.692C320.524 159.277 322.899 152.861 325.77 146.728C327.155 143.615 328.739 140.595 330.521 137.671C332.203 134.746 334.084 131.821 336.163 129.085C338.241 126.349 340.518 123.707 343.091 121.348C345.665 118.99 348.535 116.914 351.604 115.404C345.764 119.178 341.31 124.462 337.647 130.028C333.985 135.689 330.917 141.633 328.244 147.766C325.671 153.899 323.295 160.22 321.316 166.636C319.237 172.957 317.554 179.467 316.069 185.977L315.872 186.732L315.179 186.921C310.625 188.336 306.171 189.846 301.618 191.45C297.164 192.959 292.611 194.563 288.256 196.356C286.078 197.205 283.9 198.148 281.822 199.186L280.238 199.941C279.743 200.224 279.248 200.507 278.753 200.884C277.863 201.545 276.972 202.3 276.279 203.149C273.309 206.262 271.726 210.791 271.132 215.225Z" fill="#86A5BF"/>
<path d="M284.098 224.189C280.436 223.528 134.735 220.509 131.073 221.547C127.411 222.585 92.0741 231.926 89.8965 239.096L252.919 261.079C262.718 262.872 272.023 254.758 278.259 250.607C284.494 246.361 286.87 242.493 287.662 235.511C288.355 228.529 287.761 224.944 284.098 224.189Z" fill="#AFB7BA"/>
<path d="M298.154 200.129C291.127 198.714 271.429 208.338 270.935 211.923C270.341 216.263 268.658 245.417 266.975 254.191C265.293 262.871 261.234 265.041 256.681 264.57C252.128 264.004 104.942 263.626 99.3003 262.022C93.5594 260.418 89.0062 256.55 88.4123 253.814C87.8184 251.078 85.5419 227.962 81.5826 209.376C79.405 199.092 52.086 191.355 53.6698 200.412C53.6698 200.412 63.073 255.229 64.0628 259.947C65.0526 264.758 70.1007 275.231 88.2144 278.156C106.328 280.986 248.664 282.968 256.087 283.534C259.849 283.817 266.084 284.006 271.825 283.062C280.239 281.741 287.959 277.307 292.315 263.06C293.403 259.475 302.51 214.376 303.104 207.3C303.499 202.865 301.817 200.79 298.154 200.129Z" fill="#86A5BF"/>
<path d="M89.8969 239.19C88.8081 242.209 89.9959 251.55 91.1837 254.38C92.3715 257.211 96.0338 259.758 101.775 260.419C107.516 261.079 248.07 261.834 252.029 262.211C255.988 262.589 262.224 260.23 263.907 252.588C265.589 244.851 265.391 238.624 258.859 237.303C252.326 235.982 102.468 235.793 97.6175 235.888C92.7674 235.982 90.5898 237.209 89.8969 239.19Z" fill="#86A5BF"/>
<path d="M188.878 130.689C190.737 130.689 192.243 129.253 192.243 127.481C192.243 125.71 190.737 124.273 188.878 124.273C187.019 124.273 185.513 125.71 185.513 127.481C185.513 129.253 187.019 130.689 188.878 130.689Z" fill="#86A5BF"/>
<path d="M292.315 133.142C294.173 133.142 295.68 131.706 295.68 129.934C295.68 128.163 294.173 126.727 292.315 126.727C290.456 126.727 288.949 128.163 288.949 129.934C288.949 131.706 290.456 133.142 292.315 133.142Z" fill="#86A5BF"/>
<path d="M185.612 154.841C187.471 154.841 188.978 153.405 188.978 151.634C188.978 149.862 187.471 148.426 185.612 148.426C183.754 148.426 182.247 149.862 182.247 151.634C182.247 153.405 183.754 154.841 185.612 154.841Z" fill="#86A5BF"/>
<path d="M289.048 157.39C290.907 157.39 292.413 155.954 292.413 154.182C292.413 152.411 290.907 150.975 289.048 150.975C287.189 150.975 285.683 152.411 285.683 154.182C285.683 155.954 287.189 157.39 289.048 157.39Z" fill="#86A5BF"/>
<path d="M181.752 183.148C183.611 183.148 185.117 181.712 185.117 179.94C185.117 178.169 183.611 176.732 181.752 176.732C179.893 176.732 178.387 178.169 178.387 179.94C178.387 181.712 179.893 183.148 181.752 183.148Z" fill="#86A5BF"/>
<path d="M237.776 130.689C239.634 130.689 241.141 129.253 241.141 127.481C241.141 125.71 239.634 124.273 237.776 124.273C235.917 124.273 234.41 125.71 234.41 127.481C234.41 129.253 235.917 130.689 237.776 130.689Z" fill="#86A5BF"/>
<path d="M234.51 154.841C236.369 154.841 237.875 153.405 237.875 151.634C237.875 149.862 236.369 148.426 234.51 148.426C232.651 148.426 231.145 149.862 231.145 151.634C231.145 153.405 232.651 154.841 234.51 154.841Z" fill="#86A5BF"/>
<path d="M230.649 183.148C232.507 183.148 234.014 181.712 234.014 179.94C234.014 178.169 232.507 176.732 230.649 176.732C228.79 176.732 227.283 178.169 227.283 179.94C227.283 181.712 228.79 183.148 230.649 183.148Z" fill="#86A5BF"/>
<path d="M285.287 185.695C287.146 185.695 288.653 184.259 288.653 182.487C288.653 180.715 287.146 179.279 285.287 179.279C283.429 179.279 281.922 180.715 281.922 182.487C281.922 184.259 283.429 185.695 285.287 185.695Z" fill="#86A5BF"/>
<path d="M112.663 188.996C114.346 189.279 115.929 189.94 117.414 190.694C118.899 191.449 120.384 192.393 121.67 193.525C124.244 195.789 126.125 198.808 126.916 202.111C127.114 202.96 127.213 203.809 127.312 204.564C127.411 205.413 127.51 206.168 127.51 206.922L127.906 211.734C128.104 214.942 128.302 218.15 128.599 221.358C127.51 218.339 126.818 215.131 126.323 211.923C126.026 210.319 125.828 208.715 125.63 207.111C125.531 206.356 125.432 205.507 125.333 204.752C125.234 203.998 125.135 203.243 124.937 202.488C124.739 201.733 124.541 200.978 124.244 200.318L123.848 199.28L123.254 198.242C122.957 197.582 122.462 196.921 121.967 196.261C121.769 195.978 121.472 195.695 121.176 195.317C120.978 195.034 120.681 194.751 120.384 194.468C119.295 193.336 118.107 192.298 116.721 191.355C115.633 190.6 114.148 189.751 112.663 188.996Z" fill="#86A5BF"/>
<path d="M178.683 299.101C178.683 299.101 191.155 298.912 193.233 302.781C193.233 302.781 193.035 303.913 193.035 304.385C193.134 306.083 189.373 307.215 185.414 307.97C180.662 309.008 170.863 311.744 170.863 311.744L163.935 303.913L178.683 299.101Z" fill="#E1E4F4"/>
<path d="M166.212 280.043L180.168 281.553C180.168 281.553 177.991 294.573 177.694 301.743C177.694 301.743 175.615 304.574 166.41 302.121C157.897 299.762 148.296 306.555 151.068 302.687C152.255 302.404 153.74 296.271 155.027 295.988C165.618 295.988 166.212 280.043 166.212 280.043Z" fill="#2B2E3A"/>
<path d="M136.121 308.63C136.121 308.63 137.012 294.1 159.778 290.609C159.778 290.609 168.092 297.119 171.062 311.46C170.963 311.46 144.337 317.782 136.121 308.63Z" fill="#BFC6F2"/>
<path d="M262.026 222.678L201.35 239.19C201.35 239.19 202.142 240.322 200.459 241.36C200.063 241.643 197.787 241.737 197.787 241.737C199.964 260.795 182.444 274.004 182.741 290.987C179.178 291.459 167.498 289.949 161.658 287.119C164.727 268.438 172.051 229 175.318 223.905C183.236 211.64 237.28 200.035 237.28 200.035L241.932 194.562L268.558 195.317L262.323 214.376L262.026 222.678Z" fill="#31374C"/>
<path d="M220.156 304.857C217.979 300.989 205.21 301.177 205.21 301.177L190.264 306.083L195.312 311.839L195.807 313.348L196.5 313.16L197.39 314.103C197.39 314.103 207.388 311.273 212.337 310.235C216.197 309.386 219.958 308.348 220.057 306.649L220.156 304.857Z" fill="#E1E4F4"/>
<path d="M197.886 280.797H214.514C214.514 280.797 213.921 293.911 214.415 301.176C214.415 301.176 216.098 311.083 206.695 309.668C197.985 308.252 183.83 315.706 186.107 311.555C187.196 311.177 185.513 298.534 186.701 298.157C200.162 298.063 197.886 280.797 197.886 280.797Z" fill="#2B2E3A"/>
<path d="M161.658 310.707C161.658 310.707 162.549 295.8 185.81 292.309C185.81 292.309 194.322 298.913 197.391 313.631C197.292 313.537 165.518 312.499 161.658 310.707Z" fill="#E1E4F4"/>
<path d="M267.27 234.189C238.467 236.17 219.264 239.661 219.264 239.661C219.264 239.661 218.571 241.737 217.977 242.114C217.483 242.397 215.8 242.303 215.8 242.303C218.274 250.794 218.67 273.061 215.8 294.101C208.178 296.648 197.191 292.402 194.915 292.402C200.557 275.325 180.562 233.057 189.966 223.905C198.181 215.791 233.023 203.62 248.761 202.582L259.154 194.562L275.882 211.357L279.346 217.584C279.445 217.584 274.595 233.623 267.27 234.189Z" fill="#57617F"/>
<path d="M278.159 133.331L275.387 128.33C275.387 128.33 267.073 130.594 263.708 131.632C260.243 132.67 257.571 132.481 255.294 132.859L251.929 135.029L257.373 142.199L274.398 136.916L276.872 135.312L278.159 133.331Z" fill="#F9C1A7"/>
<path d="M263.41 133.52C267.072 132.954 272.418 129.934 275.387 128.33L273.704 104.271L252.621 113.989L254.601 128.897L255.294 132.859C255.393 132.765 259.847 134.086 263.41 133.52Z" fill="#DC918B"/>
<path d="M245.397 162.861C245.694 171.447 245.397 179.466 243.12 185.693L227.877 180.127L234.509 156.162L245.397 162.861Z" fill="#F7AB8D"/>
<path d="M194.52 192.864C206.893 191.826 227.58 195.034 232.826 193.807C236.587 192.958 241.141 189.279 242.427 187.675C242.922 187.014 241.141 181.825 237.28 180.787C236.488 180.599 232.925 180.316 231.935 179.844C226.689 177.391 209.961 180.504 198.578 181.542C191.749 181.07 187.393 192.581 194.52 192.864Z" fill="#F7AB8D"/>
<path d="M253.018 132.859C253.018 132.859 246.782 135.029 244.307 136.538C238.17 153.049 236.884 164.748 234.508 184.75C233.914 189.562 226.095 201.167 226.095 201.167C226.095 201.167 269.053 202.394 277.169 225.792C278.654 225.792 278.753 219.093 280.139 218.716C281.524 218.244 284.791 208.432 287.166 200.695C293.996 178.901 294.095 172.013 295.976 161.635C297.856 151.351 288.75 133.425 288.75 133.425L279.743 130.217L256.383 142.388L253.018 132.859Z" fill="#EF3F54"/>
<path d="M244.308 136.633C240.744 139.086 234.806 146.445 232.628 159.937C236.092 161.164 238.567 164.183 244.407 165.787L251.335 161.635L244.308 136.633Z" fill="#EF3F54"/>
<path d="M255.096 137.67C251.434 140.406 247.178 145.124 247.178 145.124C247.178 145.124 248.366 138.991 249.157 135.595C250.048 133.519 254.7 128.707 254.7 128.707L255.393 132.953L254.898 133.802L255.096 137.67Z" fill="#BD1A3B"/>
<path d="M254.898 134.086L257.967 140.313L269.845 134.275L272.715 137.199L255.987 146.54L252.721 137.766L254.898 134.086Z" fill="#BD1A3B"/>
<path d="M276.476 126.82C276.476 126.82 270.24 132.67 264.104 137.293C264.895 138.991 271.824 144.652 271.824 144.652L282.811 130.877L276.476 126.82Z" fill="#BD1A3B"/>
<path d="M298.253 170.599C298.253 170.599 295.086 186.827 287.563 197.205C287.563 197.205 275.586 185.223 278.358 183.525L281.723 167.58C281.822 167.674 293.997 162.108 298.253 170.599Z" fill="#F9C1A7"/>
<path d="M288.751 133.33C288.751 133.33 284.098 138.142 283.01 140.689C280.634 146.067 281.03 147.577 281.822 153.238C282.02 154.842 280.931 167.956 279.446 168.428C285.88 168.334 293.403 169.937 299.144 173.051C300.331 162.578 303.697 153.238 300.826 143.708C298.55 136.444 288.751 133.33 288.751 133.33Z" fill="#EF3F54"/>
<path d="M294.293 184.185C292.511 188.997 288.255 198.149 286.374 199.281C281.029 202.489 260.936 196.639 246.386 192.771C246.386 192.771 247.079 186.827 246.089 184.185C246.089 184.185 252.523 185.695 264.994 184.94C268.063 184.751 273.903 183.053 279.545 183.619L294.293 184.185Z" fill="#F9C1A7"/>
<path d="M205.111 193.62H135.626L131.864 150.408C131.666 148.521 133.25 147.012 135.131 147.012H197.984C199.667 147.012 201.152 148.238 201.251 149.937L205.111 193.62Z" fill="#2A2D39"/>
<path d="M203.131 193.62H133.646L129.885 150.408C129.687 148.521 131.271 147.012 133.151 147.012H196.005C197.687 147.012 199.172 148.238 199.271 149.937L203.131 193.62Z" fill="#474E64"/>
<path d="M237.973 193.619H164.628V195.884C164.628 197.11 165.717 198.054 166.905 198.054H235.598C236.885 198.054 237.874 197.016 237.874 195.884V193.619H237.973Z" fill="#2A2D39"/>
<path d="M203.131 193.619H133.745V195.884C133.745 197.11 134.834 198.148 136.121 198.148H200.855C202.141 198.148 203.23 197.11 203.23 195.884V193.619H203.131Z" fill="#474E64"/>
<path d="M221.146 84.0794C221.146 84.0794 215.999 72.5689 208.477 78.6072C200.954 84.5512 212.931 103.421 224.71 99.0809C224.71 98.9865 226.194 94.4578 221.146 84.0794Z" fill="#F7AB8D"/>
<path d="M207.882 29.4533C198.974 31.6233 200.558 41.9073 200.657 46.4361C200.954 60.3054 212.04 81.6282 213.524 87.6665C213.524 87.6665 222.433 25.9624 207.882 29.4533Z" fill="#2B2E3A"/>
<path d="M205.507 33.7919C205.507 33.7919 216.098 110.969 219.76 116.064C223.422 121.159 242.823 127.009 253.513 127.009C264.203 127.009 282.91 109.931 285.583 105.497C286.969 103.044 287.859 83.7968 287.563 64.4553C287.266 47.8498 290.235 31.1501 287.761 24.8287C287.761 24.7344 241.041 7.75155 205.507 33.7919Z" fill="#F9C1A7"/>
<path d="M252.319 69.0596C253.462 68.7036 254.086 67.5317 253.713 66.442C253.339 65.3522 252.11 64.7574 250.966 65.1133C249.823 65.4693 249.199 66.6412 249.573 67.7309C249.946 68.8207 251.176 69.4155 252.319 69.0596Z" fill="#31374C"/>
<path d="M250.94 68.4721C251.301 68.3512 251.506 68.014 251.397 67.7191C251.288 67.4241 250.907 67.2831 250.546 67.404C250.185 67.525 249.981 67.8621 250.09 68.1571C250.198 68.452 250.579 68.5931 250.94 68.4721Z" fill="white"/>
<path d="M222.806 73.9639C223.949 73.608 224.573 72.436 224.2 71.3463C223.827 70.2565 222.597 69.6617 221.454 70.0176C220.311 70.3736 219.687 71.5455 220.06 72.6353C220.433 73.725 221.663 74.3198 222.806 73.9639Z" fill="#31374C"/>
<path d="M221.427 73.3784C221.788 73.2574 221.993 72.9203 221.884 72.6253C221.775 72.3304 221.395 72.1893 221.034 72.3103C220.673 72.4312 220.468 72.7684 220.577 73.0633C220.686 73.3583 221.066 73.4994 221.427 73.3784Z" fill="white"/>
<path d="M279.348 72.0973C279.348 72.0973 278.754 76.343 277.566 80.5887C274.3 92.6654 256.186 81.6266 234.212 89.6462C228.471 91.8162 228.966 93.9863 222.829 96.0619C214.614 98.8924 213.03 82.4757 212.238 79.4565C215.208 97.9489 216.198 113.8 219.86 118.706C223.522 123.612 243.912 130.499 253.514 128.518C265.49 126.065 287.068 114.177 289.642 109.743C292.71 104.553 293.502 91.3445 293.403 74.3617L290.83 63.2285L279.348 72.0973Z" fill="#2B2E3A"/>
<path d="M232.825 105.403C238.071 105.025 243.119 104.27 248.068 102.95C250.543 102.289 252.918 101.44 255.195 100.402C257.472 99.3643 259.649 97.949 261.728 96.4395C260.144 98.4208 258.065 100.119 255.789 101.44C253.512 102.761 251.038 103.704 248.464 104.459C245.891 105.12 243.317 105.591 240.645 105.686C237.972 105.874 235.399 105.874 232.825 105.403Z" fill="#57617F"/>
<path d="M258.362 94.742C259.154 94.5533 259.847 94.742 260.54 95.025C261.233 95.3081 261.827 95.6855 262.42 96.2516C262.915 96.7233 263.311 97.3837 263.608 98.0442C263.905 98.7046 264.004 99.3651 264.004 100.12C263.41 99.6481 263.014 99.1764 262.519 98.7046L261.332 97.195C260.441 96.3459 259.55 95.5911 258.362 94.742Z" fill="#57617F"/>
<path opacity="0.2" d="M250.148 75.3058C250.445 76.8154 253.316 77.6645 256.582 77.0984C259.848 76.5324 262.323 74.9284 262.026 73.3245C261.729 71.8149 258.859 70.9658 255.592 71.5319C252.326 72.098 249.95 73.7962 250.148 75.3058Z" fill="#EF3F54"/>
<path opacity="0.2" d="M213.92 80.118C213.821 81.4389 216.197 82.6654 219.067 82.7598C221.937 82.8541 224.313 81.8163 224.412 80.4954C224.511 79.1745 222.135 77.948 219.265 77.8536C216.296 77.7593 213.92 78.7971 213.92 80.118Z" fill="#EF3F54"/>
<path opacity="0.56" d="M239.359 57.8516C239.359 57.8516 232.727 62.7577 224.907 63.2294C224.907 63.2294 235.399 73.6078 228.372 89.1754C228.372 89.1754 238.864 92.5719 245.495 85.4958C245.396 85.5901 238.171 72.6643 239.359 57.8516Z" fill="url(#paint0_linear)"/>
<path d="M279.347 72.0987C279.347 72.0987 281.029 62.0977 273.606 52.5685C268.162 45.681 270.141 31.2456 273.21 26.8112C273.21 26.8112 292.511 22.4712 293.402 23.0373C298.846 26.3395 305.874 37.4726 296.965 69.5513L279.347 72.0987Z" fill="#2B2E3A"/>
<path d="M286.87 71.061C286.87 71.061 287.761 61.6261 296.57 63.6074C305.379 65.5888 308.349 89.176 288.652 86.8173C288.553 86.8173 283.306 83.7038 286.87 71.061Z" fill="#F9C1A7"/>
<path d="M297.857 69.4572C296.769 68.9854 295.581 68.7967 294.492 68.8911C293.403 68.9854 292.413 69.6459 291.819 70.495C291.226 71.3441 290.929 72.382 290.731 73.4198C290.533 74.4577 290.434 75.4955 290.434 76.6277L290.038 76.3446C291.127 76.1559 292.314 76.1559 293.304 76.5333C294.393 77.0051 294.987 77.9486 295.185 78.892C295.284 79.3638 295.284 79.9299 295.185 80.4016C294.987 80.8734 294.69 81.3451 294.393 81.7225C293.601 82.4773 292.611 82.8547 291.622 83.1377C292.611 82.7603 293.502 82.2886 294.195 81.5338C294.492 81.1564 294.789 80.779 294.888 80.3073C294.987 79.8355 294.987 79.4581 294.789 78.9864C294.492 78.1373 293.898 77.3825 293.106 77.0051C292.215 76.6277 291.226 76.6277 290.236 76.9107L289.84 77.0051V76.6277C289.84 75.4955 289.939 74.4576 290.137 73.3255C290.335 72.2876 290.731 71.1554 291.424 70.212C292.116 69.2685 293.304 68.608 294.591 68.5137C295.68 68.5137 296.868 68.8911 297.857 69.4572Z" fill="#DC918B"/>
<path d="M228.372 89.1757C228.372 89.1757 241.141 101.064 245.496 85.4961C245.397 85.5904 237.28 89.4587 228.372 89.1757Z" fill="#DC918B"/>
<path d="M201.449 23.6027C207.388 16.9039 218.573 3.69505 233.618 2.56287C241.141 2.09112 246.486 2.27982 252.821 4.82724C252.029 3.69505 246.783 1.05328 246.981 0.109793C247.179 -0.928045 288.652 5.29898 292.314 22.7535C294.69 24.8292 296.175 26.4331 296.274 27.2823C296.966 31.0562 274.102 50.9639 274.795 41.3403C275.685 33.1319 276.279 32.1884 272.815 30.3014C266.579 26.9049 256.384 27.471 234.113 35.9624C223.621 39.925 189.67 44.1707 188.978 31.528C188.978 31.4336 195.51 30.2071 201.449 23.6027Z" fill="#2B2E3A"/>
<path d="M209.169 62.5692C211.149 59.6444 213.623 57.2857 219.265 56.3422C222.136 56.1535 225.204 55.7761 222.235 53.323C217.088 49.6434 206.299 56.4365 206.2 63.9844C205.705 67.381 208.08 64.7392 209.169 62.5692Z" fill="#2B2E3A"/>
<path d="M259.353 51.152C255.493 49.4537 251.533 48.6046 245.297 50.869C242.328 52.3785 239.062 53.7938 240.447 49.6424C243.12 43.038 258.165 43.4154 263.213 50.869C265.787 53.8881 261.827 52.6616 259.353 51.152Z" fill="#2B2E3A"/>
<path d="M267.273 158.522C267.075 158.522 266.976 158.522 266.877 158.805L265.095 161.07L264.6 158.711C264.6 158.522 264.402 158.428 264.303 158.428C264.105 158.428 264.006 158.522 263.907 158.711L262.225 161.73H263.016L264.105 159.654L264.6 161.824H265.293L266.877 159.749L266.679 161.824H267.372L267.57 158.899C267.57 158.616 267.471 158.522 267.273 158.522Z" fill="white"/>
<path d="M261.433 158.805L260.641 161.635H261.334L262.224 158.805H261.433Z" fill="white"/>
<path d="M260.145 159.559C260.244 159.181 260.046 158.71 259.353 158.71L257.968 158.615L257.176 161.446H257.869L258.166 160.408H258.562L259.155 161.446H259.947L259.353 160.313C259.848 160.313 260.145 159.936 260.145 159.559ZM258.76 160.03H258.265L258.562 159.181H259.056C259.353 159.181 259.452 159.37 259.452 159.653C259.452 159.842 259.155 160.03 258.76 160.03Z" fill="white"/>
<path d="M270.34 162.013H271.033L270.538 159.372C270.439 159.088 270.34 158.994 270.142 158.994C270.043 158.994 269.944 159.088 269.746 159.183L267.865 161.825H268.558L268.954 161.259L270.241 161.353L270.34 162.013ZM269.35 160.881L270.043 159.843L270.241 160.881H269.35Z" fill="white"/>
<path d="M273.31 161.542C272.716 161.542 272.419 161.164 272.518 160.692C272.617 160.126 273.211 159.749 273.904 159.749C274.102 159.749 274.399 159.749 274.597 159.843L274.795 159.277C274.597 159.183 274.201 159.183 274.003 159.183C272.716 159.088 271.924 159.749 271.726 160.598C271.627 161.447 272.122 162.013 273.211 162.013C273.409 162.013 273.607 162.013 273.904 162.013L274.102 161.447C273.805 161.542 273.607 161.542 273.31 161.542Z" fill="white"/>
<path d="M206.991 314.856H136.12C131.369 314.856 126.816 313.064 123.451 309.856C120.085 306.648 118.304 302.308 118.304 297.779L119.195 204.185C119.195 202.581 120.58 201.166 122.362 201.166C124.144 201.166 125.529 202.581 125.529 204.185L124.639 297.779C124.639 300.704 125.826 303.535 128.004 305.61C130.182 307.686 133.052 308.818 136.12 308.818H206.991C208.773 308.818 210.159 310.139 210.159 311.837C210.159 313.536 208.674 314.856 206.991 314.856Z" fill="#6677A3"/>
<path d="M228.767 314.856H205.11C201.151 314.856 197.39 313.347 194.618 310.705C191.847 308.063 190.263 304.478 190.362 300.704L190.956 204.185C190.956 202.581 192.341 201.166 194.123 201.166C195.905 201.166 197.291 202.487 197.291 204.185L196.697 300.704C196.697 302.874 197.587 304.95 199.171 306.459C200.755 307.969 202.932 308.818 205.209 308.818H228.866C230.647 308.818 232.033 310.139 232.033 311.837C232.033 313.536 230.449 314.856 228.767 314.856Z" fill="#6677A3"/>
<path d="M213.524 205.129H115.235C114.345 205.129 113.553 204.468 113.553 203.525V199.657C113.553 198.808 114.246 198.053 115.235 198.053H213.524C214.415 198.053 215.207 198.713 215.207 199.657V203.525C215.207 204.468 214.415 205.129 213.524 205.129Z" fill="#6677A3"/>
<path d="M243.218 205.129H181.85C180.959 205.129 180.167 204.468 180.167 203.525V199.657C180.167 198.808 180.86 198.053 181.85 198.053H243.218C244.109 198.053 244.901 198.713 244.901 199.657V203.525C244.802 204.468 244.109 205.129 243.218 205.129Z" fill="#BFC6F2"/>
<path d="M277.367 156.824C278.555 157.107 279.644 157.673 280.633 158.522C281.128 158.994 281.524 159.466 281.623 160.221C281.722 160.976 281.524 161.447 281.524 162.108C281.029 164.372 280.436 166.542 279.545 168.712L279.248 168.429C280.04 168.523 280.732 168.523 281.524 168.618C280.732 168.712 280.04 168.806 279.248 168.901H278.951L279.05 168.523C279.545 166.259 280.04 164.089 280.535 161.825C280.633 161.259 280.831 160.693 280.732 160.315C280.633 159.843 280.436 159.372 280.04 158.994C279.347 158.145 278.357 157.485 277.367 156.824Z" fill="#BD1A3B"/>
<path d="M241.735 147.955C241.042 150.786 240.349 153.522 239.557 156.258C238.765 158.994 238.072 161.73 237.182 164.466C237.281 161.541 237.874 158.711 238.567 155.975C239.458 153.239 240.349 150.502 241.735 147.955Z" fill="#BD1A3B"/>
<path d="M245.199 193.336C241.833 197.393 233.222 191.732 233.024 191.827C233.024 191.827 229.362 192.676 228.273 192.676C227.481 193.714 226.293 194.657 224.808 195.978C222.928 197.676 221.245 196.261 222.136 195.129C222.631 194.563 223.423 193.336 223.423 193.336C223.423 193.336 220.156 195.506 218.771 193.808C217.88 192.676 219.859 191.732 220.75 188.996C219.562 189.657 218.573 190.789 216.791 190.506C215.405 190.317 214.613 188.807 215.207 188.336C217.088 187.015 219.661 184.09 219.661 184.09C219.661 184.09 217.781 185.033 215.702 184.656C214.613 184.467 213.92 182.958 214.91 182.392C216.197 181.731 217.781 181.637 218.87 180.316C219.958 178.995 220.552 178.618 221.146 178.618C221.74 178.618 225.6 178.146 226.59 177.957C227.58 177.769 229.461 177.391 230.153 178.052C230.846 178.712 232.529 180.033 235.795 181.448C236.488 181.731 249.95 185.411 249.95 185.411L248.861 193.336H245.199Z" fill="#F9C1A7"/>
<path d="M221.345 178.523C222.631 178.146 223.918 177.863 225.205 177.674C225.799 177.579 226.492 177.485 227.086 177.296C227.779 177.202 228.372 177.013 229.164 177.108C229.56 177.108 229.956 177.202 230.352 177.485C230.451 177.58 230.55 177.674 230.649 177.768C230.649 177.863 230.748 177.863 230.748 177.957C230.847 178.051 230.946 178.146 231.045 178.24C231.441 178.617 232.035 178.995 232.53 179.372C233.618 180.127 234.707 180.787 235.796 181.448C234.509 181.165 233.222 180.693 232.035 180.033C231.441 179.75 230.847 179.372 230.352 178.9C230.253 178.806 230.055 178.712 229.956 178.523C229.857 178.429 229.857 178.429 229.758 178.334C229.758 178.334 229.758 178.334 229.659 178.24C229.56 178.146 229.263 178.146 228.966 178.051C228.372 178.051 227.779 178.146 227.086 178.24C226.393 178.334 225.799 178.334 225.106 178.429C223.918 178.523 222.631 178.617 221.345 178.523Z" fill="#DC918B"/>
<path d="M223.422 193.335C223.62 192.958 223.719 192.486 223.818 192.109C223.917 191.637 224.016 191.165 224.313 190.788C224.709 189.939 225.5 189.184 226.391 188.712C227.282 188.241 228.272 188.052 229.163 187.957C229.658 187.863 230.054 187.863 230.549 187.863C231.043 187.863 231.439 187.769 231.835 187.58C231.637 188.052 231.142 188.241 230.648 188.429C230.153 188.618 229.757 188.712 229.262 188.807C228.371 189.09 227.579 189.278 226.787 189.656C225.995 190.033 225.402 190.505 224.907 191.165C224.61 191.448 224.412 191.826 224.214 192.203C224.115 192.675 223.818 193.052 223.422 193.335Z" fill="#DC918B"/>
<path d="M220.849 188.995C221.344 188.24 221.937 187.58 222.531 186.919C222.828 186.636 223.125 186.259 223.521 185.976C223.917 185.599 224.313 185.41 224.709 185.127C225.6 184.749 226.392 184.466 227.282 184.183C227.678 184.089 228.173 183.995 228.668 183.9C229.064 183.806 229.559 183.806 229.955 183.617C229.658 183.995 229.262 184.183 228.866 184.466C228.47 184.655 228.074 184.844 227.579 185.032C226.788 185.41 225.897 185.693 225.105 185.976C224.709 186.165 224.313 186.259 223.917 186.448C223.521 186.636 223.224 186.919 222.828 187.202C222.234 187.769 221.542 188.335 220.849 188.995Z" fill="#DC918B"/>
<path d="M219.76 184.09C219.958 183.807 220.255 183.618 220.453 183.335C220.552 183.241 220.651 183.146 220.75 182.958C220.849 182.769 220.948 182.675 221.047 182.486C221.541 182.014 222.234 181.637 222.828 181.354C223.521 181.071 224.115 180.882 224.808 180.788C225.501 180.693 226.194 180.599 226.886 180.693C225.699 181.448 224.412 181.826 223.224 182.297C222.63 182.486 222.036 182.675 221.442 182.958C221.343 183.052 221.146 183.052 221.047 183.146C220.948 183.241 220.75 183.429 220.651 183.429C220.354 183.807 220.057 183.901 219.76 184.09Z" fill="#DC918B"/>
<path d="M358.928 111.725C353.484 113.517 351.702 115.121 351.702 115.121C325.769 129.651 314.782 185.411 314.782 185.411C314.782 185.411 288.552 193.902 279.842 199.092C271.428 204.092 271.032 211.829 271.032 211.829L268.459 277.779C273.012 278.062 271.824 283.062 271.824 283.062C271.824 283.062 327.353 276.08 333.787 272.023C338.934 268.816 342.497 261.362 343.487 254.475C344.972 244.662 360.809 131.538 361.799 126.254C362.59 122.48 362.986 115.404 358.928 111.725Z" fill="#9FBAC9"/>
<path d="M270.934 212.772C271.231 208.432 273.21 203.998 276.675 200.884C277.565 200.13 278.456 199.375 279.446 198.714C280.436 198.148 281.426 197.488 282.514 197.016C284.593 195.978 286.672 195.035 288.75 194.091C292.908 192.204 297.263 190.6 301.519 188.902C305.775 187.298 310.13 185.789 314.486 184.279L313.595 185.317C314.189 181.92 314.98 178.712 315.871 175.41C316.762 172.108 317.653 168.9 318.643 165.692C320.721 159.277 323.097 152.861 325.967 146.728C327.353 143.615 328.937 140.595 330.719 137.671C332.401 134.746 334.282 131.821 336.36 129.085C338.439 126.349 340.716 123.707 343.289 121.348C345.863 118.99 348.733 116.914 351.802 115.404C345.962 119.178 341.508 124.462 337.845 130.028C334.183 135.689 331.114 141.633 328.442 147.766C325.868 153.899 323.493 160.22 321.513 166.636C319.435 172.957 317.752 179.467 316.267 185.977L316.069 186.732L315.376 186.921C311.021 188.336 306.666 189.751 302.41 191.261C298.055 192.77 293.798 194.28 289.542 195.884C287.464 196.733 285.286 197.582 283.306 198.526C281.228 199.469 279.248 200.413 277.565 201.828C274.002 204.47 271.725 208.432 270.934 212.772Z" fill="#86A5BF"/>
<path d="M298.153 200.129C291.125 198.714 271.428 208.338 270.933 211.923C270.339 216.263 268.657 245.417 266.974 254.191C265.291 262.871 261.233 265.041 256.68 264.57L256.086 283.628C259.847 283.911 266.083 284.1 271.824 283.156C280.237 281.835 287.958 277.401 292.313 263.154C293.402 259.569 302.508 214.47 303.102 207.394C303.498 202.865 301.815 200.79 298.153 200.129Z" fill="#86A5BF"/>
<defs>
<linearGradient id="paint0_linear" x1="234.44" y1="57.999" x2="235.654" y2="89.9502" gradientUnits="userSpaceOnUse">
<stop stop-color="#F9C1A7"/>
<stop offset="0.2907" stop-color="#F4B8A2"/>
<stop offset="0.7644" stop-color="#E5A094"/>
<stop offset="1" stop-color="#DC918B"/>
</linearGradient>
</defs>
</svg>
