<svg width="10" height="12" viewBox="0 0 10 12" fill="none" xmlns="http://www.w3.org/2000/svg">
<path d="M8 1.75C8 1.2 7.55 0.75 7 0.75H3C2.45 0.75 2 1.2 2 1.75H0V3.75H1V10.75C1 11.3 1.45 11.75 2 11.75H8C8.55 11.75 9 11.3 9 10.75V3.75H10V1.75H8ZM3 9.75C3 10.03 2.78 10.25 2.5 10.25C2.22 10.25 2 10.03 2 9.75V4.75C2 4.47 2.22 4.25 2.5 4.25C2.78 4.25 3 4.47 3 4.75V9.75ZM5.5 9.75C5.5 10.03 5.28 10.25 5 10.25C4.72 10.25 4.5 10.03 4.5 9.75V4.75C4.5 4.47 4.72 4.25 5 4.25C5.28 4.25 5.5 4.47 5.5 4.75V9.75ZM8 9.75C8 10.03 7.78 10.25 7.5 10.25C7.22 10.25 7 10.03 7 9.75V4.75C7 4.47 7.22 4.25 7.5 4.25C7.78 4.25 8 4.47 8 4.75V9.75Z" fill="#6769FF"/>
</svg>
