<svg width="64" height="65" viewBox="0 0 64 65" fill="none" xmlns="http://www.w3.org/2000/svg">
<path d="M54.0808 52.0478L22.4975 60.4991C18.252 61.6498 13.8874 59.1501 12.7368 54.9046L4.28544 23.3212C3.13479 19.0757 5.67416 14.7112 9.91966 13.5605L41.503 5.10917C45.7485 3.95852 50.1131 6.49789 51.2637 10.7434L59.7151 42.3268C60.826 46.5723 58.3264 50.9368 54.0808 52.0478Z" fill="#E1E4F4"/>
<path d="M55.0724 21.2582L53.1678 23.0437C53.1678 23.0437 42.5342 16.4176 42.1771 16.1795C41.82 15.9811 38.8442 21.0598 38.2887 21.3773L5.55469 40.2638L31.2261 45.0648L55.5882 31.9712C56.5008 31.4157 55.0724 21.2582 55.0724 21.2582Z" fill="#2B2E3A"/>
<path d="M35.0355 22.011L33.4087 21.4555C33.0516 21.3365 32.6945 21.0984 32.4564 20.8207L31.8612 20.1065C31.5438 19.7097 30.909 19.7494 30.6312 20.2255L30.0757 21.1778C29.9567 21.3762 29.8774 21.6142 29.8774 21.892V24.1933L28.1712 26.3755L22.7354 29.5101C22.537 29.6291 22.418 29.8275 22.418 30.0655V30.8194C22.418 31.0575 22.537 31.2559 22.7354 31.3749L27.7744 34.2714C28.0125 34.4301 28.3299 34.4301 28.568 34.2714L34.3213 31.0178C34.48 30.9385 34.5593 30.7797 34.5593 30.5814V30.0655L36.3845 24.7487C36.7416 23.6378 36.1464 22.4078 35.0355 22.011Z" fill="#57617F"/>
<path d="M43.09 27.9231L41.4632 27.3676C41.1061 27.2486 40.749 27.0105 40.511 26.7328L39.9158 26.0186C39.5984 25.6218 38.9635 25.6615 38.6858 26.1376L38.3287 26.7725C38.0906 27.2089 37.9319 27.685 37.9319 28.1612V30.8196C37.9319 31.0973 37.7732 31.3751 37.5351 31.5338L36.2655 32.2876L30.8296 35.4222C30.6312 35.5412 30.5122 35.7396 30.5122 35.9777V36.7315C30.5122 36.9696 30.6312 37.168 30.8296 37.287L35.8687 40.1835C36.1068 40.3422 36.4242 40.3422 36.6622 40.1835L42.4155 36.9299C42.5742 36.8506 42.6536 36.6919 42.6536 36.4935V35.9777L44.4787 30.6609C44.8358 29.5102 44.2407 28.3199 43.09 27.9231Z" fill="#57617F"/>
<path d="M19.9972 23.123L18.926 28.1224L22.9334 25.6227L23.0921 27.7653L26.425 28.6779L24.0444 30.3841L25.3934 34.3915L14.4424 28.6779L16.3072 25.8211L19.9972 23.123Z" fill="#FFD385"/>
<path d="M30.5915 24.9473L28.2505 27.566L31.5834 27.4073L31.4644 28.677L33.607 29.0737L34.1625 26.4947L30.5915 24.9473Z" fill="#FFD385"/>
<path d="M7.18165 35.7012C7.06262 35.9789 6.50713 35.6615 6.031 37.6057C5.27713 38.3199 5.03906 39.3912 5.03906 39.9467V43.8748C5.03906 44.708 5.31681 45.4619 5.87229 46.0967C6.11036 46.3744 7.30069 45.7396 7.65779 45.938C10.7526 47.7235 14.0856 49.3503 14.0856 49.3503C15.8711 50.3819 16.8233 51.969 18.8866 51.969L19.442 50.8977L22.1004 39.7086L7.18165 35.7012Z" fill="#F97A7A"/>
<path d="M53.1682 17.2503L41.0268 10.3067C39.8365 9.63215 38.3287 9.63215 37.1384 10.3067L26.2271 17.8851C25.6319 18.2819 24.9574 18.5596 24.2432 18.6786L22.0609 18.9961L21.307 19.5516C20.9499 19.8293 20.6325 20.1864 20.4341 20.6229L19.5612 22.5274L15.6728 25.8206L14.4428 27.8045L8.17375 32.6452C7.81665 32.9229 8.29278 33.7958 8.09439 34.1529C7.77697 34.6687 6.90406 35.1052 6.90406 35.74L6.82471 36.3352C6.82471 36.732 8.29278 37.8826 8.76891 36.9304C9.08633 36.2955 13.2128 37.7636 13.808 38.1207L15.5935 40.2236C16.6251 40.8188 14.9189 43.1201 16.1093 42.9613L20.7912 42.6043C21.6641 42.5249 23.2116 43.0804 23.9654 42.6439C26.9809 41.0171 30.7106 37.2478 30.9487 37.3271L34.7577 27.0109C40.7491 21.9322 47.1768 20.9799 53.1682 17.2503ZM33.1706 27.8442L30.1551 35.3829C29.9568 35.8591 29.5203 36.1765 29.0045 36.1765L15.3951 28.36C15.3157 28.0029 15.3951 27.6061 15.6728 27.2887L16.3077 26.138L19.9977 23.1225L21.1087 20.8609C21.4261 20.5038 21.9419 20.4641 22.299 20.7816C22.8148 21.2577 22.8545 22.4877 23.8067 23.2019C24.4812 23.678 26.0287 23.6384 26.7825 24.0351C28.6871 25.1064 31.3852 26.2571 32.7342 26.7729C33.131 26.9316 33.3294 27.4077 33.1706 27.8442Z" fill="#BFC6F2"/>
<path d="M56.1042 19.3926C55.5884 18.6784 54.8742 18.1626 54.1203 17.7261L53.1681 17.25L51.3032 18.4007C56.3026 24.0745 48.2877 35.2636 47.3751 35.7794L44.5977 37.2475C45.0738 36.7317 45.3516 36.0969 45.3516 35.3827L45.5103 28.3201C45.5103 27.7646 45.4706 27.2091 45.3516 26.6536L44.2009 21.4955C44.0422 20.821 43.2883 20.4639 42.6535 20.821L37.0193 24.0745C35.829 24.7491 34.9164 25.86 34.4799 27.1297L32.6547 32.3672C32.496 32.8036 32.3373 33.2401 32.0993 33.6369C31.9405 33.9543 31.8215 34.3114 31.7422 34.6685C30.8296 36.573 29.3615 38.1204 27.5363 39.1917L23.5686 41.4533C22.5766 42.0088 21.4657 42.4056 20.3547 42.5246C20.3547 42.5246 18.3708 43.3182 16.7043 44.9053L15.7124 48.5953C15.7124 50.4205 17.1805 51.8886 19.0056 51.8886L22.5766 49.9444C23.1321 49.1905 23.7273 45.6989 27.4173 45.0243L32.8531 46.3734L46.1055 38.7156L54.041 33.1607C55.39 32.3672 57.2152 31.4943 57.4929 29.9468C57.5723 29.6294 57.612 29.2723 57.612 28.9549V23.7968C57.612 22.2891 57.0962 20.702 56.1042 19.3926ZM34.3212 33.0417L35.7496 28.1613C36.1861 26.733 37.1383 25.5029 38.4477 24.7491L43.2883 21.932L44.32 26.4552C44.4787 27.2091 44.1613 27.963 43.5264 28.3994L35.2338 33.7162C34.7577 33.994 34.1625 33.5575 34.3212 33.0417Z" fill="#8698BF"/>
<path d="M19.6006 32.1289C19.6006 32.1289 19.6403 32.1289 19.6403 32.1686C19.6403 32.1289 19.6006 32.1289 19.6006 32.1289Z" fill="#B3B3B3"/>
<path d="M56.6992 28.837C56.6992 28.837 55.3105 28.0434 55.2312 28.1228C55.1518 28.2021 52.9695 28.5989 52.9695 28.5989L49.954 31.2176L47.375 38.1215L49.0018 37.2089L50.9063 38.2802L56.5008 32.3683L56.6199 31.8128L56.858 30.2257L56.6992 28.837Z" fill="#2B2E3A"/>
<path d="M54.279 30.1855C53.8822 30.1855 53.4854 30.3046 53.168 30.503C51.1444 31.6536 49.7954 33.8359 49.7954 36.3356C49.7954 37.5656 50.7873 38.5972 52.057 38.5972C52.4538 38.5972 52.8506 38.4782 53.2077 38.2798C55.1916 37.1291 56.5803 34.9469 56.5803 32.4472C56.5406 31.2172 55.509 30.1855 54.279 30.1855Z" fill="#57617F"/>
<path d="M53.8423 27.845C52.1759 28.3608 50.8665 29.3527 49.8349 30.5034C49.4778 30.9001 48.1685 32.8047 47.9304 33.3205C47.3749 34.3918 47.0178 35.3837 46.7797 36.2566C46.3433 37.685 46.1846 38.796 46.1846 38.796L47.9304 37.804C47.9304 37.804 49.4381 30.1463 53.8423 28.7972C54.6756 28.5592 54.9533 28.5988 55.3898 28.7179C55.8262 28.8766 56.4214 29.1543 56.5801 29.5908C56.8975 30.424 56.7388 31.535 56.5404 32.3285C57.0562 31.654 57.3737 30.9001 57.5324 30.1066C57.4133 29.5114 57.2149 28.9162 56.8579 28.4401C56.6198 28.1227 54.6756 27.5672 53.8423 27.845Z" fill="#BFC6F2"/>
<path d="M5.87229 39.5484L6.3881 39.3104C6.3881 37.8423 6.82456 36.5329 6.82456 36.5329L8.76876 34.7871L6.90391 35.6997C6.78488 35.9774 6.54681 35.66 6.031 37.6042C5.27713 38.3184 5.03906 39.3897 5.03906 39.9452V41.2546C5.03906 42.4449 5.03906 43.1988 5.03906 43.8336C5.03906 43.8336 5.43584 43.913 5.43584 43.6749C5.59455 42.0878 5.87229 39.5484 5.87229 39.5484Z" fill="#8698BF"/>
<path d="M17.9344 47.4451C17.736 47.8022 18.847 48.5957 18.847 49.1909L16.3076 49.0719L17.736 51.8493L14.165 50.1828L15.6331 46.1357L21.0689 44.3105C21.1086 44.3105 18.1328 47.088 17.9344 47.4451Z" fill="#F97A7A"/>
<path d="M22.1798 43.7154C20.7514 44.2708 18.1723 45.0644 15.6726 44.6279L13.8475 42.6837L9.00678 42.287L6.38806 39.3111C6.38806 39.3111 6.22935 37.9224 6.38806 36.375C6.38806 36.375 5.27709 39.946 6.34838 40.7395C6.34838 41.4537 6.46742 42.2473 6.82451 42.4854C6.98322 42.6044 7.38 42.8028 7.93549 43.0805L8.76872 44.3502L12.9745 45.6596C13.0539 45.6992 13.0936 45.7389 13.1729 45.7786C14.2839 46.3341 15.1965 46.8102 15.5139 47.0086C15.9107 47.2467 16.0297 46.9292 16.0297 46.4531C16.6646 46.4531 17.8152 46.4134 19.5214 46.096C19.8785 46.0167 20.8307 45.3421 22.3781 44.0725C22.4972 43.9137 22.3385 43.6757 22.1798 43.7154Z" fill="#2B2E3A"/>
<path d="M6.22923 43.5957L15.6725 49.0315C16.3073 50.5393 16.9025 51.4122 16.9025 51.4122C16.1486 51.6503 15.2757 50.5393 14.6409 50.3409C14.006 50.1425 6.78471 47.246 6.78471 47.246C6.11019 46.7699 5.51503 45.8176 5.396 45.4209C5.43567 44.9051 6.22923 43.5957 6.22923 43.5957Z" fill="#EF3F54"/>
<path d="M15.4344 28.6777C14.8393 29.3919 14.4028 30.1855 13.887 30.9394C13.4109 31.6932 12.8951 32.4868 12.3793 33.2407C11.8238 33.9945 11.2683 34.7484 10.6334 35.4229C10.5541 35.5023 10.4747 35.5816 10.3954 35.661C10.316 35.7404 10.2367 35.8197 10.1176 35.9387C9.91924 36.1371 9.56215 36.2562 9.2844 36.1768C9.00666 36.1371 8.80827 35.9387 8.64956 35.8991C8.60988 35.8991 8.60988 35.8594 8.60988 35.8991C8.57021 35.9387 8.57021 35.9784 8.57021 36.0181C8.53053 36.1371 8.53053 36.2562 8.53053 36.3752C8.49085 36.2562 8.45117 36.1371 8.45117 36.0181C8.45117 35.9387 8.45117 35.8991 8.49085 35.8197C8.53053 35.7404 8.64956 35.661 8.72892 35.661C9.00666 35.7007 9.20505 35.78 9.40344 35.78C9.56215 35.78 9.68118 35.7007 9.80021 35.542C9.83989 35.4626 9.91924 35.3833 9.95892 35.2642C9.9986 35.1849 10.078 35.0658 10.1573 34.9865C10.6334 34.2326 11.1493 33.4391 11.6651 32.6852C12.1809 31.9313 12.7364 31.1774 13.3712 30.5029C13.6886 30.1458 14.006 29.8284 14.3631 29.511C14.6012 29.1935 14.9583 28.8761 15.4344 28.6777Z" fill="#8698BF"/>
<path d="M27.6555 36.2949C27.0207 36.7711 26.3462 37.2075 25.632 37.5646C24.9178 37.9217 24.2036 38.2391 23.4497 38.5169C22.6958 38.7946 21.942 39.0327 21.1881 39.2707L20.0771 39.5882C19.72 39.7072 19.3232 39.8262 19.0455 39.9453L19.1645 39.8262C18.8471 40.3024 18.49 40.7388 18.1329 41.1753L18.0139 41.2943L17.8948 41.2546C17.3394 41.1356 16.8236 41.0166 16.2681 40.8578C16.8236 40.7785 17.379 40.7785 17.9345 40.7785L17.6965 40.8975C17.9345 40.3817 18.2123 39.9056 18.49 39.3898L18.5297 39.3104L18.609 39.2707C19.0058 39.0327 19.3629 38.9136 19.7597 38.7549C20.1168 38.5962 20.5136 38.4772 20.8707 38.3582C21.6245 38.1201 22.3784 37.882 23.0926 37.6836L25.3146 37.0091L27.6555 36.2949Z" fill="#8698BF"/>
<path d="M32.1784 46.8895L33.1307 44.6676L31.98 42.0488H29.2026L27.179 43.4772L24.838 45.9372L23.5684 48.0798C23.5684 48.0798 24.4413 47.4847 25.4332 46.9292C28.4884 45.2627 32.1784 46.8895 32.1784 46.8895Z" fill="#2B2E3A"/>
<path d="M29.6791 45.6586C29.2426 45.4205 28.6474 45.6189 28.1713 46.095L25.6716 44.627L24.6797 46.4124L27.2587 47.9202C27.1794 48.5154 27.2984 48.9915 27.6952 49.2296L28.1713 49.5073L30.1552 45.9363C30.1552 45.9363 29.7187 45.6982 29.6791 45.6586Z" fill="#57617F"/>
<path d="M30.1549 45.9371C29.52 45.6197 28.6075 46.1355 28.0917 47.1274C27.5758 48.1193 27.5362 49.1906 28.171 49.5081C28.8058 49.8255 29.8375 49.3097 30.3533 48.3177C30.8691 47.3258 30.7897 46.2545 30.1549 45.9371Z" fill="#8698BF"/>
<path d="M23.3304 48.4366C23.3304 48.4366 24.1636 47.8018 24.7191 46.413C24.9571 45.8179 25.3936 46.413 25.7904 45.7782C26.6633 44.3498 27.933 43.0008 29.6788 42.485C34.1227 41.1359 32.1388 46.8892 32.1388 46.8892L33.4482 46.1353C33.4482 46.1353 34.2814 40.0646 29.7185 41.493C27.2584 42.2866 25.7904 43.0008 24.6794 44.6275C24.481 44.9053 24.2429 46.0163 24.2429 46.0163L22.021 47.405C22.021 47.405 22.2987 48.7937 22.2194 49.1111C22.0607 49.6269 22.5368 50.0237 22.5368 50.0237C23.251 49.5079 23.132 49.1111 23.3304 48.4366Z" fill="#BFC6F2"/>
</svg>
