<svg width="72" height="72" viewBox="0 0 72 72" fill="none" xmlns="http://www.w3.org/2000/svg">
<path d="M60.8658 57.6719L25.3136 67.1943C20.5374 68.4779 15.6419 65.6421 14.3583 60.866L4.83596 25.3137C3.55237 20.5376 6.38819 15.6421 11.1643 14.3585L46.7166 4.83611C51.4927 3.55253 56.3882 6.38835 57.6718 11.1645L67.1942 46.7167C68.4778 51.463 65.6419 56.3884 60.8658 57.6719Z" fill="#E1E4F4"/>
<path d="M47.1942 41.0742L44.3285 41.8802L42.8957 43.5518L45.7613 45.1936L48.627 44.4772L49.9703 42.6862L47.1942 41.0742Z" fill="#999999"/>
<path d="M48.1495 40.5371H45.0152V42.7759H48.1495V40.5371Z" fill="#57617F"/>
<path d="M23.0151 40.1189L50.1793 24.4473L57.3435 28.5667L30.1793 44.2682L23.0151 40.1189Z" fill="#57617F"/>
<path d="M32.5375 45.0745C32.5375 48.5968 28.0301 51.4327 22.4778 51.4327C21.1047 51.4327 19.8211 51.2536 18.6271 50.955L25.851 46.7759L19.2539 42.955C18.9256 42.7759 18.5077 42.7759 18.1793 42.955L12.5674 46.2088C12.4778 45.8506 12.4181 45.4625 12.4181 45.1043C12.4181 41.5819 16.9256 38.7461 22.4778 38.7461C28.0301 38.7461 32.5375 41.5819 32.5375 45.0745Z" fill="#57617F"/>
<path d="M68.3284 24.3596C68.3284 27.882 63.821 30.7178 58.2687 30.7178C52.7165 30.7178 48.209 27.882 48.209 24.3596C48.209 20.8372 53.2538 25.9715 58.8061 25.9715C64.3583 25.9715 68.3284 20.8372 68.3284 24.3596Z" fill="#57617F"/>
<path d="M68.3285 21.0742V24.3578L65.7315 26.3279V21.8802L68.3285 21.0742Z" fill="#57617F"/>
<path d="M23.0151 36.8656L50.1793 21.1641L52.5674 25.1044L57.3435 25.3133L30.1793 40.985L23.0151 36.8656Z" fill="#F97A7A"/>
<path d="M12.4181 41.8203V45.074L15.9704 43.0442L12.4181 41.8203Z" fill="#57617F"/>
<path d="M18.5973 47.6719L18.6271 50.9555L20.8659 50.9256L26.0898 47.7316L18.5973 47.6719Z" fill="#57617F"/>
<path d="M32.5375 45.074V41.8203L30.0301 42.6263L32.5375 45.074Z" fill="#57617F"/>
<path d="M32.5375 41.8211C32.5375 45.3435 28.0301 48.1793 22.4778 48.1793C21.1047 48.1793 19.7913 48.0002 18.5972 47.6718L25.4629 43.7315C25.642 43.6121 25.642 43.3435 25.4629 43.2241L19.2838 39.642C18.9554 39.4629 18.5375 39.4629 18.2092 39.642L12.5674 42.8957C12.4778 42.5375 12.4181 42.1793 12.4181 41.8211C12.4181 38.2987 16.9256 35.4629 22.4778 35.4629C28.0301 35.4629 32.5375 38.2987 32.5375 41.8211Z" fill="#F97A7A"/>
<path d="M58.2687 14.7168C52.7165 14.7168 48.209 17.5526 48.209 21.075C48.209 24.5974 52.7165 27.4332 58.2687 27.4332C63.821 27.4332 68.3284 24.5974 68.3284 21.075C68.3284 17.5526 63.821 14.7168 58.2687 14.7168ZM58.2687 25.1049C54.7464 25.1049 51.9105 23.3138 51.9105 21.075C51.9105 18.8362 54.7464 17.0452 58.2687 17.0452C61.7911 17.0452 64.627 18.8362 64.627 21.075C64.627 23.3138 61.7911 25.1049 58.2687 25.1049Z" fill="#F97A7A"/>
<path d="M58.2687 20.3285C60.8658 20.3285 63.1046 21.3136 64.0896 22.7166C64.4478 22.2091 64.6568 21.6718 64.6568 21.0748C64.6568 18.836 61.821 17.0449 58.2986 17.0449C54.7762 17.0449 51.9404 18.836 51.9404 21.0748C51.9404 21.6718 52.1493 22.2091 52.5075 22.7166C53.4628 21.3136 55.6717 20.3285 58.2687 20.3285Z" fill="#EF3F54"/>
<path d="M47.1942 39.373L44.3285 40.179L42.8957 41.8507L45.7613 43.4924L48.627 42.776L49.9703 40.985L47.1942 39.373ZM47.1942 41.8805L46.2389 42.1193L45.2837 41.5522L45.7613 40.985L46.7166 40.7163L47.6419 41.2536L47.1942 41.8805Z" fill="#92DDDA"/>
<path d="M42.8957 41.8516V43.5531L45.7613 45.1948V43.4934L42.8957 41.8516Z" fill="#5DC6B5"/>
<path d="M45.7615 43.4938L48.657 42.7773V44.4788L45.7615 45.1953V43.4938Z" fill="#FDFDFD"/>
<path d="M50.0001 40.9863L48.6568 42.7774V44.4789L50.0001 42.6878V40.9863Z" fill="#8698BF"/>
<path d="M47.3434 47.7012L44.4778 48.5071L43.0449 50.1788L45.9106 51.8206L48.7763 51.1042L50.1195 49.3131L47.3434 47.7012Z" fill="#999999"/>
<path d="M48.2988 47.1934H45.1644V49.4322H48.2988V47.1934Z" fill="#57617F"/>
<path d="M47.3434 46L44.4778 46.806L43.0449 48.4776L45.9106 50.1194L48.7763 49.403L50.1195 47.6119L47.3434 46ZM47.3136 48.5075L46.3584 48.7463L45.4031 48.1791L45.8807 47.6119L46.836 47.3433L47.7613 47.8806L47.3136 48.5075Z" fill="#92DDDA"/>
<path d="M43.0449 48.4785V50.18L45.9106 51.8516V50.1502L43.0449 48.4785Z" fill="#5DC6B5"/>
<path d="M45.9107 50.1486L48.7764 49.4023V51.1337L45.9107 51.8501V50.1486Z" fill="#FDFDFD"/>
<path d="M50.1196 47.6113L48.7763 49.4024V51.1337L50.1196 49.3427V47.6113Z" fill="#8698BF"/>
</svg>
