<svg width="64" height="65" viewBox="0 0 64 65" fill="none" xmlns="http://www.w3.org/2000/svg">
<path d="M54.1491 52.0429L22.5699 60.5222C18.3303 61.6444 13.9659 59.1505 12.8437 54.9109L4.36437 23.3317C3.24211 19.0921 5.73602 14.7277 9.97567 13.6055L41.5548 5.15733C45.7945 4.03507 50.1588 6.52899 51.2811 10.7686L59.7292 42.3478C60.9138 46.5563 58.3887 50.9206 54.1491 52.0429Z" fill="#E1E4F4"/>
<path d="M21.1982 27.0718C21.1982 27.0718 19.2966 25.2949 19.3589 24.2973C19.4213 23.2997 19.733 22.6763 20.263 22.801C20.7929 22.8945 21.5411 23.7362 21.5411 24.1414C21.5411 24.5467 21.1358 25.3884 21.5411 25.8248C21.9775 26.2924 22.3204 27.103 21.1982 27.0718Z" fill="#57617F"/>
<path d="M10.4741 38.8873L12.9992 46.1508L35.8497 40.3524L48.5998 24.2044L44.7966 11.7348L44.3913 11.0178C43.9237 10.2073 42.895 9.92671 42.0845 10.3943L27.5262 18.7801C26.3416 19.4659 25.2817 20.3388 24.3777 21.3675L18.6417 27.9452C18.2676 28.3817 17.8623 28.7557 17.4259 29.0987L12.7498 32.7148C11.3158 33.8059 10.4741 35.5205 10.4741 37.3286V38.8873Z" fill="#F97A7A"/>
<path d="M10.8483 34.6777C10.7236 34.9583 10.1936 36.4858 9.69483 38.4186C8.94666 39.1356 8.69727 40.1955 8.69727 40.7878V44.7157C8.69727 45.9315 9.35192 47.0538 10.3807 47.6461C13.4669 49.423 16.6154 51.2311 16.6154 51.2311C18.3923 52.2598 20.4498 52.7898 22.5073 52.7898H24.1595L25.7182 43.2506L10.8483 34.6777Z" fill="#57617F"/>
<path d="M9.53896 40.3201L10.0689 40.0707C10.0689 38.6056 10.5054 37.2963 10.5054 37.2963L12.4381 35.5505L10.8483 34.6465C10.7236 34.927 10.1936 36.4546 9.69483 38.3874C8.94666 39.1044 8.69727 40.1643 8.69727 40.7566V42.0659C8.69727 43.2505 8.69727 44.0298 8.69727 44.6533C8.69727 44.6533 9.10253 44.7468 9.10253 44.4974C9.2584 42.9076 9.53896 40.3201 9.53896 40.3201Z" fill="#EF3F54"/>
<path d="M18.1118 28.5996L34.634 38.1388L26.8717 42.5967C26.1235 43.0331 25.2818 43.3137 24.4401 43.4072L21.198 43.7813C19.9822 43.906 18.7665 43.6566 17.7377 43.0643L12.0329 39.7599C11.0977 39.1987 10.5054 38.2012 10.5054 37.1101V36.206C10.5054 35.115 11.0042 34.0862 11.877 33.4316L18.1118 28.5996Z" fill="#F97A7A"/>
<path d="M27.3705 19.4655C27.3705 19.4655 26.9964 21.9906 30.7996 24.2039C34.6028 26.4173 38.4372 27.1343 38.4372 27.1343L56.7674 17.5639L44.3914 10.4562C43.6121 10.0198 42.6768 10.0198 41.9287 10.4562L28.2433 18.3432L27.3705 19.4655Z" fill="#F97A7A"/>
<path d="M27.2459 42.3775L31.205 40.1018C33.4183 38.8237 35.0705 36.7974 35.9122 34.397L38.4373 27.1335L54.6789 17.7501C55.583 17.2202 56.7364 17.3449 57.5469 18.0307L58.6692 18.9971C60.3526 20.4311 61.2878 22.5509 61.2878 24.7642V29.9079C61.2878 31.8095 60.259 33.5865 58.6068 34.5528L29.3657 51.4491C27.8382 52.322 26.0924 52.7896 24.3155 52.7896H22.6633C20.8552 52.7896 19.3589 51.3244 19.3589 49.5163V47.2094C19.3589 45.3702 20.7305 43.8427 22.5386 43.6244L24.035 43.4686C25.1572 43.3127 26.2483 42.9698 27.2459 42.3775Z" fill="#EF3F54"/>
<path d="M38.4996 35.6451L56.6116 24.0484C57.0792 23.7678 57.1416 23.1132 56.7363 22.7391L54.1177 20.2452C53.8372 19.9958 53.4319 19.9334 53.1201 20.1205L41.7417 26.6982C40.4324 27.4463 39.466 28.6621 39.0607 30.1273L37.6267 34.9904C37.4397 35.5204 38.032 35.9568 38.4996 35.6451Z" fill="#FFB75E"/>
<path d="M19.3275 28.1003L24.7829 21.6785C25.0947 21.3356 25.6246 21.2733 25.9675 21.585C26.8716 22.3644 28.6485 23.7984 30.4254 24.8271C32.327 25.9182 35.0391 27.0404 36.3796 27.5704C36.8161 27.7263 37.0031 28.225 36.8472 28.6615L33.8234 36.2056C33.574 36.8602 32.8258 37.2031 32.14 36.9226C30.0201 36.0809 25.6558 34.304 23.2866 32.9323C21.385 31.8412 20.0757 30.5943 19.3587 29.7837C18.9222 29.3161 18.9222 28.5991 19.3275 28.1003Z" fill="#FDFDFD"/>
<path d="M21.8837 46.929C20.8238 47.5525 20.6368 48.0512 20.6368 49.1735V52.4779L17.8623 50.9816L19.3275 46.9602L24.7829 45.1209C24.7829 45.0897 24.3776 45.4638 21.8837 46.929Z" fill="#57617F"/>
<path d="M10.0688 37.1719C10.0688 37.1719 8.91536 40.9127 10.0688 41.5674L18.9845 47.1787C18.9845 47.1787 20.2315 47.4281 23.193 46.867C23.5359 46.8046 24.5023 46.0876 26.0298 44.8407C26.1857 44.716 26.0298 44.4666 25.874 44.5601C24.44 45.1212 21.8525 45.9317 19.3898 45.4953C16.8335 44.0613 10.1 40.1334 10.1 40.1334C10.1 40.1334 9.91292 38.6994 10.0688 37.1719Z" fill="#FFB75E"/>
<path d="M10.0688 40.1035L19.3586 45.4654C19.3586 45.4654 19.1092 48.2711 18.1117 47.6788C17.1141 47.1176 11.3158 43.7509 10.5052 43.2521C9.75706 42.7845 10.0688 40.1035 10.0688 40.1035Z" fill="#2B2E3A"/>
<path d="M36.5666 47.3036L36.4419 43.7809L35.6626 42.8457H32.8569L30.8306 44.2797L28.3679 47.8335L27.2456 51.6679L27.4015 52.3226C27.4015 52.3226 28.5237 52.0108 29.459 51.3873C30.4253 50.7327 36.5666 47.3036 36.5666 47.3036Z" fill="#2B2E3A"/>
<path d="M32.2649 43.7812C31.8597 43.7812 31.4856 43.8748 31.1427 44.093C29.1164 45.2464 27.7759 47.4286 27.7759 49.9225C27.7759 51.1695 28.7734 52.167 30.0204 52.167C30.4257 52.167 30.8309 52.0423 31.1427 51.8553C33.1378 50.7018 34.5094 48.5197 34.5094 46.0258C34.5094 44.7788 33.5119 43.7812 32.2649 43.7812Z" fill="#2B2E3A"/>
<path d="M28.8979 51.8559L30.5813 52.7911L35.008 44.9976L33.2935 44.0312L28.8979 51.8559Z" fill="#2B2E3A"/>
<path d="M60.29 32.5887L60.1965 33.1186L57.1415 35.1449L54.9593 36.6413L51.0938 38.8546L53.0577 32.5575L56.705 29.3777C56.705 29.3777 58.8872 29.0037 58.9496 28.9101C59.0119 28.8166 60.4459 29.596 60.4459 29.596L60.6018 30.9364L60.29 32.5887Z" fill="#2B2E3A"/>
<path d="M56.2688 30.0332C55.8636 30.0332 55.4895 30.1267 55.1466 30.3449C53.1203 31.4984 51.7798 33.6805 51.7798 36.1745C51.7798 37.4214 52.7773 38.419 54.0243 38.419C54.4296 38.419 54.8348 38.2943 55.1466 38.1072C57.1417 36.9538 58.5133 34.7716 58.5133 32.2777C58.5133 31.0308 57.5158 30.0332 56.2688 30.0332Z" fill="#2B2E3A"/>
<path d="M52.9019 38.1079L54.5852 39.0742L59.0119 31.2496L57.2974 30.2832L52.9019 38.1079Z" fill="#2B2E3A"/>
<path d="M57.9519 31C57.5467 31 57.1726 31.0935 56.8297 31.3117C54.8034 32.4652 53.4629 34.6473 53.4629 37.1412C53.4629 38.3882 54.4605 39.3858 55.7074 39.3858C56.1127 39.3858 56.5179 39.2611 56.8297 39.074C58.8248 37.9206 60.1965 35.7384 60.1965 33.2445C60.1965 31.9976 59.1989 31 57.9519 31Z" fill="#57617F"/>
<path d="M57.7336 31.873C57.4218 31.873 57.1101 31.9666 56.8607 32.1224C55.2708 33.0265 54.2109 34.7722 54.2109 36.7362C54.2109 37.7026 54.9903 38.5131 55.9879 38.5131C56.2996 38.5131 56.6113 38.4196 56.8919 38.2637C58.4818 37.3285 59.5417 35.6139 59.5417 33.65C59.5105 32.6524 58.7312 31.873 57.7336 31.873Z" fill="#57617F"/>
<path d="M27.4016 52.3225C27.4016 52.3225 28.9603 44.6537 33.387 43.282C37.8137 41.9104 35.8497 47.6775 35.8497 47.6775L37.1278 46.9294C37.1278 46.9294 37.9695 40.8816 33.387 42.3156C27.4951 44.1861 25.687 52.6654 25.687 52.6654C26.2481 52.8836 26.9651 52.603 27.4016 52.3225Z" fill="#F97A7A"/>
<path d="M57.5159 28.6624C50.9694 30.751 49.8159 39.6356 49.8159 39.6356L51.5617 38.638C51.5617 38.638 53.058 31.0004 57.4847 29.6288C60.8203 28.6 60.5397 31.5927 60.1968 33.1514C60.6956 32.4968 61.0385 31.7174 61.1944 30.9069C60.9138 29.3794 60.0721 27.8207 57.5159 28.6624Z" fill="#F97A7A"/>
<path d="M33.948 44.748C33.5428 44.748 33.1687 44.8416 32.8258 45.0598C30.7995 46.2132 29.459 48.3954 29.459 50.8893C29.459 52.1363 30.4565 53.1338 31.7035 53.1338C32.1088 53.1338 32.514 53.0091 32.8258 52.8221C34.8209 51.6687 36.1925 49.4865 36.1925 46.9926C36.1925 45.7456 35.195 44.748 33.948 44.748Z" fill="#57617F"/>
<path d="M33.7611 45.5273C33.4182 45.5273 33.1065 45.6209 32.8571 45.7767C31.236 46.712 30.1138 48.4889 30.1138 50.5152C30.1138 51.5127 30.9243 52.3233 31.9219 52.3233C32.2648 52.3233 32.5765 52.2297 32.8571 52.0739C34.4781 51.1386 35.5692 49.3617 35.5692 47.3666C35.6004 46.3379 34.7587 45.5273 33.7611 45.5273Z" fill="#57617F"/>
<path d="M39.0294 33.9614C38.5929 33.9926 38.063 34.5537 38.063 35.3019C38.0942 36.05 38.4371 36.1747 38.7176 36.2994C38.9982 36.4241 41.2116 36.7982 41.8039 36.1747C42.3962 35.5513 42.2091 35.0836 41.6792 34.8031C41.1492 34.5225 39.6529 33.899 39.0294 33.9614Z" fill="#57617F"/>
<path d="M37.3462 35.4268C37.2839 35.8008 38.2191 35.9255 38.4062 35.9567C38.5932 35.9879 38.4373 34.9903 38.2503 34.928C38.0632 34.8656 37.3774 35.1774 37.3462 35.4268Z" fill="#57617F"/>
<path d="M9.91304 44.4043L19.3587 49.8597C19.9199 52.7901 20.5745 52.6342 20.5745 52.6342C19.3899 52.4472 18.1741 52.0419 16.8648 51.3249L10.443 47.584C9.78834 47.1164 9.22721 46.6488 9.13369 46.2436C9.10252 45.7136 9.91304 44.4043 9.91304 44.4043Z" fill="#2B2E3A"/>
<path d="M19.1092 29.5039C18.4233 30.2521 17.831 31.0626 17.2076 31.8419L15.3683 34.18C14.7448 34.9593 14.1213 35.7387 13.4979 36.518C13.1861 36.8921 12.8744 37.2974 12.5627 37.6715C12.4068 37.8585 12.2509 38.0767 12.095 38.2638C11.9392 38.482 11.7833 38.669 11.721 38.9184C11.6898 38.669 11.7833 38.3885 11.8768 38.1703C11.9703 37.9209 12.0639 37.7026 12.1574 37.4533C12.3756 36.9856 12.625 36.5492 12.8744 36.1128C13.4043 35.2399 13.9655 34.3982 14.6201 33.6189C15.2436 32.8395 15.9294 32.0602 16.6464 31.3743C17.3946 30.6262 18.174 29.9403 19.1092 29.5039Z" fill="#EF3F54"/>
<path d="M18.7354 42.9077C19.6706 42.1907 20.6993 41.6608 21.728 41.1308C22.7568 40.6009 23.8167 40.1021 24.8454 39.6345C25.9053 39.1669 26.9653 38.6992 28.0563 38.294C29.1474 37.8575 30.2073 37.4523 31.3296 37.1094C30.3944 37.8264 29.3968 38.4187 28.3681 38.9798C27.3393 39.5409 26.3106 40.0397 25.2507 40.5073C24.1908 40.9749 23.1309 41.4114 22.0398 41.8166C20.9487 42.2219 19.8576 42.5648 18.7354 42.9077Z" fill="#EF3F54"/>
<path fill-rule="evenodd" clip-rule="evenodd" d="M47 22.3242L49.5 30.3242L48 31.8242L45.5 23.8242L47 22.3242Z" fill="#EF3F54"/>
<path d="M61.0694 22.8633C61.0694 22.8633 60.82 23.5803 59.2925 24.5155C59.2925 25.2948 60.7577 25.9807 61.2876 25.7001C61.2876 25.7001 61.4123 23.9232 61.0694 22.8633Z" fill="#FFB75E"/>
</svg>
