<svg width="64" height="64" viewBox="0 0 64 64" fill="none" xmlns="http://www.w3.org/2000/svg">
<path d="M54.0551 51.2012L22.4489 59.6689C18.2151 60.8504 13.8828 58.2904 12.7012 54.0566L4.33202 22.5489C3.15048 18.315 5.71048 13.9827 9.94433 12.8012L41.5505 4.33348C45.7843 3.15195 50.1166 5.71195 51.2982 9.94579L59.7659 41.5519C60.8489 45.7858 58.2889 50.1181 54.0551 51.2012Z" fill="#E1E4F4"/>
<path d="M40.3691 59.5697L19.1014 47.1636C18.4122 46.7697 18.0183 45.982 18.2152 45.1943L24.0245 4.52971C24.2214 3.15125 25.6983 2.46202 26.8799 3.15125L47.2614 14.9666C48.5414 15.6559 49.1322 17.0343 48.9352 18.5112L43.3229 58.1912C43.0275 59.5697 41.5506 60.2589 40.3691 59.5697Z" fill="#BFC6F2"/>
<path d="M37.5137 60.9478L16.1475 48.6401C15.4583 48.2463 15.0645 47.4586 15.2614 46.6709L21.0706 6.00627C21.1691 4.62781 22.646 3.93858 23.8275 4.62781L44.0122 16.3447C45.3906 17.1324 46.0798 18.6093 45.8829 20.1847L40.3691 59.5693C40.1722 60.9478 38.6952 61.637 37.5137 60.9478Z" fill="#FDFDFD"/>
<path d="M45.9812 19.8902C46.1781 18.5117 45.4888 17.1332 44.3073 16.3455L23.9258 4.53015C22.7442 3.84092 21.2673 4.53015 21.0704 5.90862L19.9873 13.6871L44.8981 28.0625L45.9812 19.8902Z" fill="#F97A7A"/>
<path d="M30.5229 14.8674L30.6214 13.4889L23.5321 9.35352L23.3352 10.732" fill="#EF3F54"/>
<path d="M28.8489 25.5996L28.4551 28.1596L39.5812 34.6581L39.9751 31.9996L28.8489 25.5996Z" fill="#5DC6A0"/>
<path d="M27.3719 34.6582L26.978 37.2182L38.2026 43.7167L38.5965 41.0582L27.3719 34.6582Z" fill="#BFC6F2"/>
<path d="M25.9935 43.6191L25.5012 46.2776L36.7258 52.7761L37.1197 50.1176L25.9935 43.6191Z" fill="#BFC6F2"/>
<path d="M18.3135 43.4211L21.7597 45.3903C22.055 45.5872 22.4489 45.3903 22.5474 44.9964L23.1381 41.058C23.1381 40.7626 23.0397 40.4672 22.7443 40.3688L19.3966 38.3995C19.1012 38.2026 18.7074 38.3995 18.6089 38.7934L18.0181 42.7318C17.9197 42.9288 18.0181 43.2241 18.3135 43.4211Z" fill="#E1E4F4"/>
<path d="M25.5997 22.3512L22.252 20.3819C21.9566 20.185 21.5628 20.3819 21.4643 20.7758L20.8735 24.6158C20.8735 24.9112 20.972 25.2066 21.2674 25.305L24.6151 27.2742C24.9105 27.4712 25.3043 27.2742 25.4028 26.8804L25.9935 22.9419C25.9935 22.745 25.8951 22.4496 25.5997 22.3512Z" fill="#E1E4F4"/>
<path d="M19.9873 29.7359L19.3965 33.6743C19.3965 33.9697 19.4949 34.2651 19.7903 34.3636L23.138 36.3328C23.4334 36.5297 23.8273 36.3328 23.9257 35.9389L24.5165 32.0005C24.5165 31.7051 24.418 31.4097 24.1226 31.3112L20.7749 29.342C20.4796 29.2436 20.0857 29.4405 19.9873 29.7359Z" fill="#E1E4F4"/>
<path d="M26.8796 22.1538L22.5473 26.683L20.775 23.7292C20.6765 23.6307 20.6765 23.4338 20.6765 23.2369C20.775 22.5476 21.6611 22.3507 22.055 22.9415L22.9411 24.32L25.895 21.1692C26.3873 20.6769 27.175 21.0707 27.0765 21.76C27.0765 21.9569 26.9781 22.0553 26.8796 22.1538Z" fill="#5DC6A0"/>
</svg>
