<svg width="64" height="64" viewBox="0 0 64 64" fill="none" xmlns="http://www.w3.org/2000/svg">
<path d="M54.0588 51.2448L22.4714 59.7231C18.2323 60.8485 13.8806 58.335 12.7176 54.0959L4.2393 22.5085C3.11386 18.2694 5.62735 13.9177 9.8665 12.7547L41.4538 4.27641C45.693 3.15097 50.0447 5.66446 51.2077 9.90361L59.686 41.491C60.8489 45.7301 58.2979 50.1193 54.0588 51.2448Z" fill="#E1E4F4"/>
<path d="M53.8337 17.3305C53.3835 16.3551 52.6332 15.4922 51.6203 14.892L27.9861 1.23668C26.2229 0.22378 24.0095 1.3117 23.7469 3.29998L20.3706 27.3469C20.0705 29.5227 21.1209 31.6611 22.9966 32.7865L25.6602 34.3246L24.8348 40.1394L30.2745 36.9881L39.6156 42.3903L48.6566 20.2191L53.8337 17.3305Z" fill="#F97A7A"/>
<path d="M24.8349 35.5996L21.8337 41.4144L26.1104 40.2889L30.162 38.0005L24.8349 35.5996Z" fill="#57617F"/>
<path d="M49.0318 46.7796L46.1807 47.9425L47.6062 46.0293L49.0318 46.7796Z" fill="#57617F"/>
<path d="M53.8336 17.3301L48.6941 20.2562L39.6531 42.4274L46.7058 46.5165C48.469 47.5294 50.6824 46.4415 50.945 44.4532L54.2463 20.2937C54.4339 19.2808 54.2463 18.2304 53.8336 17.3301Z" fill="#57617F"/>
<path d="M25.3225 1.16211L22.3213 2.36257L30.8371 9.49036L25.3225 1.16211Z" fill="#F97A7A"/>
<path d="M24.9472 2.4743L48.5814 16.1296C50.4947 17.2176 51.47 19.8061 51.1699 21.9819L47.9437 45.6912C47.6811 47.6794 45.4302 48.7674 43.7045 47.7545L27.3106 38.2258L21.8335 41.4145L22.6588 35.5997L19.9952 34.0616C18.082 32.9737 17.0316 30.7979 17.3692 28.622L20.7455 4.57511C21.0081 2.54932 23.2215 1.4614 24.9472 2.4743Z" fill="white"/>
<path d="M35.6015 36.5374C34.251 36.5374 32.9004 36.1998 31.7 35.487C26.0728 32.2232 23.0341 25.9958 23.972 19.5433C24.3471 16.9172 26.0353 14.6289 28.4362 13.4659C30.8371 12.3029 33.6507 12.378 35.9766 13.7285C41.4538 16.8422 44.3799 22.9196 43.4796 29.147L43.367 29.8223C42.9919 32.4108 41.3788 34.5866 39.0153 35.7496C37.9274 36.2748 36.7645 36.5374 35.6015 36.5374ZM31.9626 13.4659C30.8747 13.4659 29.8242 13.7285 28.7738 14.2162C26.598 15.2666 25.1349 17.2549 24.7598 19.6933C23.8594 25.8082 26.7105 31.7355 32.0751 34.8117C34.1384 35.9747 36.5018 36.0872 38.6402 35.0368C40.7785 33.9864 42.1666 32.0732 42.5417 29.7473L42.6543 29.072C43.5171 23.1822 40.741 17.4425 35.564 14.4788C34.4385 13.766 33.2006 13.4659 31.9626 13.4659Z" fill="#92DDDA"/>
<path d="M35.3012 23.0335L32.4126 21.3828L31.0996 30.724L33.9507 32.4121L35.3012 23.0335Z" fill="#EF3F54"/>
<path d="M34.0633 21.194C33.0129 20.5937 32.4502 19.4308 32.6378 18.2678C32.7878 17.2549 33.9132 16.7297 34.7761 17.2174C35.789 17.7801 36.3142 18.9056 36.1641 20.0685L36.1266 20.1811C36.0141 21.1565 34.9261 21.6817 34.0633 21.194Z" fill="#EF3F54"/>
</svg>
