<svg width="64" height="64" viewBox="0 0 64 64" fill="none" xmlns="http://www.w3.org/2000/svg">
<path d="M54.081 51.4793L22.5129 59.79C18.2778 60.9108 13.9034 58.4231 12.7611 54.2678L4.29088 23.2942C3.14852 19.1389 5.684 14.8469 9.91909 13.726L41.5151 5.41536C45.7502 4.29451 50.1246 6.78224 51.2669 10.9376L59.7093 41.9385C60.8516 46.0938 58.3161 50.3858 54.081 51.4793Z" fill="#E1E4F4"/>
<path d="M55.6414 28.5422C55.6414 40.0787 48.5365 45.0815 37.6423 51.3145C27.6118 57.0554 13.5413 40.0787 13.5413 28.5422C13.5413 17.0057 22.9588 7.65625 34.5774 7.65625C46.196 7.65625 55.6414 17.0057 55.6414 28.5422Z" fill="#F97A7A"/>
<path d="M14.5443 22.2012C13.2905 24.3608 9.89126 26.3018 7.96875 26.4658L11.6745 40.7361C11.6745 40.7361 14.0149 41.3375 16.1882 43.6612C18.3893 45.9849 18.4729 48.8827 19.866 49.7575C21.1755 50.5777 21.8442 50.769 23.0423 50.0583C24.129 49.4295 24.3797 49.3201 24.3797 49.3201C25.9122 50.277 26.9152 50.7964 26.9152 50.7964C27.4446 52.3273 28.0576 54.3229 29.4507 55.1157C31.206 56.0999 33.3236 55.7992 34.4102 55.1704C37.2243 53.5848 39.927 48.746 39.927 48.746L41.1808 46.4223L45.2487 46.559C45.2487 46.559 45.4437 46.8597 46.3353 47.3792C47.2269 47.8986 50.7376 46.559 51.6292 45.0281C52.5208 43.4972 55.502 36.1707 55.502 30.9766C55.502 25.7824 14.5443 22.2012 14.5443 22.2012Z" fill="#F97A7A"/>
<path d="M7.96884 26.4643C5.7677 26.7377 4.04024 37.6181 9.44555 40.5432C12.9283 42.4295 20.1726 36.1419 18.5844 32.4239C17.6092 30.1276 10.6436 26.1363 7.96884 26.4643Z" fill="#EF3F54"/>
<path d="M17.9965 22.5839C18.2708 22.1646 18.2622 21.6792 17.9773 21.4998C17.6924 21.3203 17.239 21.5148 16.9647 21.9341C16.6904 22.3534 16.699 22.8388 16.9839 23.0183C17.2688 23.1977 17.7221 23.0032 17.9965 22.5839Z" fill="#2B2E3A"/>
<path d="M25.9279 27.2362C26.2022 26.8169 26.1936 26.3315 25.9087 26.1521C25.6238 25.9727 25.1704 26.1671 24.8961 26.5865C24.6218 27.0058 24.6304 27.4912 24.9153 27.6706C25.2002 27.85 25.6535 27.6556 25.9279 27.2362Z" fill="#2B2E3A"/>
<path d="M17.4698 19.5209V18.072C17.4698 18.072 17.1912 11.6203 17.1912 9.46066C17.1912 7.62903 19.0858 7.71105 21.2312 8.94124C23.4045 10.1714 24.4354 11.9484 24.4354 11.9484L17.4698 19.5209Z" fill="#F97A7A"/>
<path d="M34.9675 18.099C35.274 17.8803 35.6362 17.689 35.9984 17.5523C36.3606 17.4156 36.7507 17.3063 37.1408 17.2516C37.9209 17.1149 38.7568 17.1422 39.5648 17.3063C39.9549 17.3883 40.3728 17.525 40.7351 17.689C40.9301 17.771 41.0973 17.853 41.2923 17.9624L41.5709 18.1264C41.6824 18.1811 41.766 18.2631 41.8495 18.3451C42.2396 18.6458 42.5182 19.0559 42.6854 19.4933C42.8526 19.9307 42.9083 20.3954 42.9083 20.8055C42.8805 21.6529 42.6576 22.4184 42.3789 23.1565C42.1003 23.8946 41.7381 24.5507 41.348 25.2068C40.54 26.4917 39.6484 27.7219 38.5618 28.7881C39.2862 27.4759 39.9828 26.1637 40.5679 24.8241C40.8744 24.168 41.1251 23.4846 41.3202 22.8011C41.5152 22.1177 41.6824 21.4342 41.6545 20.8055C41.6545 20.1767 41.4595 19.63 41.0137 19.3019C40.958 19.2472 40.9022 19.2199 40.8465 19.1926L40.6236 19.0559C40.4843 18.9739 40.3171 18.8918 40.1778 18.8098C39.8713 18.6731 39.5648 18.5365 39.2305 18.4271C37.9767 17.9624 36.5 17.8803 34.9675 18.099Z" fill="#57617F"/>
<path d="M52.66 22.9929C52.2142 22.9929 51.7963 22.6648 51.7127 22.2001C51.6291 21.6807 51.9635 21.2159 52.4929 21.1339C52.6043 21.1066 54.3875 20.7512 54.9169 18.5095C53.7745 18.0994 52.7715 17.17 52.2142 16.1311C51.4341 14.6822 51.6291 13.2607 52.6879 12.6319C53.5238 12.1125 54.4432 12.0852 55.1955 12.5499C56.2822 13.1787 56.8951 14.7096 56.9509 16.7052C59.0405 15.7757 58.8455 13.288 58.8455 13.288C58.7898 12.7686 59.1798 12.3312 59.7092 12.2765C60.2386 12.2218 60.6844 12.6046 60.7401 13.124C60.768 13.288 61.0745 17.0333 57.6196 18.4822C57.3409 18.5915 57.0902 18.6735 56.8115 18.7282C56.2264 21.6807 53.9974 22.8289 52.7994 23.0202C52.7715 22.9929 52.7158 22.9929 52.66 22.9929ZM54.0532 14.1081C53.9696 14.1081 53.8581 14.1355 53.691 14.2448C53.6352 14.2722 53.5795 14.6822 53.9139 15.2837C54.1367 15.6937 54.5547 16.1858 55.0562 16.5139C54.9726 15.1196 54.5547 14.3542 54.2203 14.1355C54.1925 14.1355 54.1367 14.1081 54.0532 14.1081Z" fill="#F97A7A"/>
<path d="M29.8128 14.1082C29.5899 14.1082 29.367 14.0262 29.1998 13.8895C28.8098 13.5614 28.754 12.96 29.1163 12.5773C29.2556 12.4132 32.5433 8.77733 37.5029 8.69531C38.0322 8.69531 38.4502 9.10538 38.478 9.62479C38.478 10.1442 38.0601 10.5543 37.5307 10.5816C33.4349 10.6363 30.593 13.7801 30.5651 13.8075C30.3422 13.9988 30.0636 14.1082 29.8128 14.1082Z" fill="#FDFDFD"/>
<path d="M36.3519 6.8973C37.6625 4.67609 37.5914 2.23158 36.1931 1.43734C34.7949 0.643104 32.5989 1.79989 31.2883 4.02111C29.9777 6.24232 30.0488 8.68683 31.4471 9.48107C32.8453 10.2753 35.0413 9.11851 36.3519 6.8973Z" fill="#FFD385"/>
<path d="M31.4568 9.48845L32.5156 10.2539L37.4751 2.38065L36.1655 1.45117L31.4568 9.48845Z" fill="#FFD385"/>
<path d="M37.4957 7.743C38.8063 5.52179 38.7352 3.07728 37.3369 2.28304C35.9387 1.4888 33.7427 2.6456 32.4321 4.86681C31.1215 7.08802 31.1926 9.53253 32.5909 10.3268C33.9891 11.121 36.1851 9.96422 37.4957 7.743Z" fill="#FFB75E"/>
<path d="M8.3865 35.2413C8.05215 35.0772 7.88498 34.7218 7.96857 34.3665L8.8323 29.9924C8.91589 29.5824 9.36169 29.391 9.7239 29.5824C10.0583 29.7464 10.2254 30.1018 10.1418 30.4572L9.2781 34.8312C9.22238 35.2413 8.74871 35.4326 8.3865 35.2413Z" fill="#2B2E3A"/>
<path d="M12.2039 37.3721C11.8695 37.2081 11.7024 36.8527 11.7859 36.4973L12.6497 32.1233C12.7333 31.7132 13.1791 31.5219 13.5413 31.7132C13.8756 31.8773 14.0428 32.2326 13.9592 32.588L13.0955 36.9621C13.0119 37.3721 12.5661 37.5635 12.2039 37.3721Z" fill="#2B2E3A"/>
</svg>
