<svg width="64" height="64" viewBox="0 0 64 64" fill="none" xmlns="http://www.w3.org/2000/svg">
<path d="M54.0849 51.2494L22.4985 59.7171C18.2548 60.8494 13.8929 58.3386 12.7508 54.0949L4.28307 22.5085C3.15076 18.2648 5.66153 13.9029 9.90523 12.7608L41.4917 4.29308C45.7354 3.16077 50.0972 5.67154 51.2394 9.91524L59.7071 41.5017C60.8492 45.7454 58.3286 50.1072 54.0849 51.2494Z" fill="#E1E4F4"/>
<path d="M59.7069 41.5018L54.7839 23.1387L48.1672 26.959C47.6159 27.2839 47.2712 27.8747 47.2712 28.5147V53.071L54.0749 51.2494C58.3285 50.1073 60.8491 45.7454 59.7069 41.5018Z" fill="#EF3F54"/>
<path d="M18.0576 42.9879V8.97933C18.0576 7.88641 18.6385 6.87225 19.5838 6.33071L28.6718 1.08272C29.9616 0.334407 31.5567 0.334407 32.8564 1.08272L41.9345 6.33071C42.8798 6.8821 43.4705 7.88641 43.4705 8.98918V42.9978C43.4705 44.4944 42.673 45.8729 41.3832 46.6212L32.3936 51.8101C31.3893 52.391 30.1487 52.391 29.1444 51.8101L20.1548 46.6212C18.8453 45.863 18.0576 44.4846 18.0576 42.9879Z" fill="#FDFDFD"/>
<path d="M28.6711 1.08272C29.961 0.334407 31.5561 0.334407 32.8558 1.08272L41.9339 6.33071C42.8791 6.8821 43.4699 7.88641 43.4699 8.98918V42.9978C43.4699 44.4944 42.6724 45.8729 41.3825 46.6212L28.6711 1.08272Z" fill="#FFB75E"/>
<path d="M18.0576 45.401V9.03912C18.0576 8.23173 18.9339 7.71973 19.6428 8.12342L29.873 14.0311C30.4244 14.356 30.769 14.9468 30.769 15.5868V52.7462L18.0576 45.401Z" fill="#FDFDFD"/>
<path d="M41.8852 8.12342L31.655 14.0311C31.1037 14.356 30.759 14.9468 30.759 15.5868V52.7462L42.5646 45.9327C43.116 45.6077 43.4606 45.017 43.4606 44.377V9.03912C43.4704 8.23173 42.5843 7.71973 41.8852 8.12342Z" fill="#FFD385"/>
<path d="M19.6325 6.3022L29.2915 0.729275C30.1974 0.207429 31.3198 0.207429 32.2257 0.729275L41.8848 6.3022C42.5838 6.70589 42.5838 7.72004 41.8848 8.13358L31.6546 14.0413C31.1032 14.3662 30.414 14.3662 29.8626 14.0413L19.6325 8.13358C18.9334 7.72004 18.9334 6.70589 19.6325 6.3022Z" fill="#F97A7A"/>
<path d="M27.2445 18.3934L26.1614 17.7731C25.866 17.6057 25.679 17.2907 25.679 16.9461V15.7054C25.679 15.223 26.2008 14.9079 26.6242 15.1541L27.7073 15.7744C28.0026 15.9417 28.1897 16.2568 28.1897 16.6014V17.8421C28.1897 18.3245 27.6679 18.6297 27.2445 18.3934Z" fill="#57617F"/>
<path d="M27.2445 25.6981L26.1614 25.0778C25.866 24.9104 25.679 24.5954 25.679 24.2507V23.0101C25.679 22.5277 26.2008 22.2126 26.6242 22.4587L27.7073 23.0791C28.0026 23.2464 28.1897 23.5615 28.1897 23.9061V25.1467C28.1897 25.6292 27.6679 25.9344 27.2445 25.6981Z" fill="#57617F"/>
<path d="M27.2445 33.0048L26.1614 32.3845C25.866 32.2171 25.679 31.902 25.679 31.5574V30.3168C25.679 29.8343 26.2008 29.5192 26.6242 29.7654L27.7073 30.3857C28.0026 30.5531 28.1897 30.8682 28.1897 31.2128V32.4534C28.1897 32.9358 27.6679 33.2411 27.2445 33.0048Z" fill="#57617F"/>
<path d="M27.2445 40.3095L26.1614 39.6891C25.866 39.5218 25.679 39.2067 25.679 38.8621V37.6215C25.679 37.139 26.2008 36.8239 26.6242 37.0701L27.7073 37.6904C28.0026 37.8578 28.1897 38.1728 28.1897 38.5175V39.7581C28.1897 40.2405 27.6679 40.5458 27.2445 40.3095Z" fill="#57617F"/>
<path d="M22.1737 15.5184L21.0906 14.8981C20.7952 14.7307 20.6082 14.4157 20.6082 14.0711V12.8304C20.6082 12.348 21.13 12.0329 21.5534 12.2791L22.6365 12.8994C22.9318 13.0667 23.1189 13.3818 23.1189 13.7264V14.9671C23.1189 15.4495 22.5971 15.7547 22.1737 15.5184Z" fill="#57617F"/>
<path d="M22.1737 22.8231L21.0906 22.2028C20.7952 22.0354 20.6082 21.7204 20.6082 21.3757V20.1351C20.6082 19.6527 21.13 19.3376 21.5534 19.5837L23.1189 20.4699V22.2717C23.1189 22.7542 22.5971 23.0594 22.1737 22.8231Z" fill="#57617F"/>
<path d="M22.1737 30.1298L21.0906 29.5095C20.7952 29.3421 20.6082 29.027 20.6082 28.6824V27.4418C20.6082 26.9593 21.13 26.6442 21.5534 26.8904L22.6365 27.5107C22.9318 27.6781 23.1189 27.9932 23.1189 28.3378V29.5784C23.1189 30.0608 22.5971 30.3759 22.1737 30.1298Z" fill="#57617F"/>
<path d="M22.1737 37.4345L21.0906 36.8141C20.7952 36.6468 20.6082 36.3317 20.6082 35.9871V34.7465C20.6082 34.264 21.13 33.9489 21.5534 34.1951L22.6365 34.8154C22.9318 34.9828 23.1189 35.2978 23.1189 35.6425V36.8831C23.1189 37.3655 22.5971 37.6806 22.1737 37.4345Z" fill="#57617F"/>
<path d="M34.5696 44.398V24.4891C34.5696 23.3962 35.1505 22.382 36.0957 21.8405L45.1837 16.5925C46.4736 15.8442 48.0687 15.8442 49.3683 16.5925L58.4465 21.8405C59.3917 22.3919 59.9825 23.3962 59.9825 24.4989V41.5033L47.281 48.4546V52.3242L36.6668 48.0214C35.3671 47.2731 34.5696 45.8946 34.5696 44.398Z" fill="#F97A7A"/>
<path d="M45.1836 16.5925C46.4734 15.8442 48.0685 15.8442 49.3682 16.5925L58.4464 21.8405C59.3916 22.3919 59.9824 23.3962 59.9824 24.4989L45.1836 16.5925Z" fill="#FFB75E"/>
<path d="M34.5696 54.9322V24.5469C34.5696 23.7395 35.4459 23.2275 36.1548 23.6312L46.385 29.5389C46.9363 29.8639 47.281 30.4546 47.281 31.0946V53.0712L36.3911 55.9857L34.5696 54.9322Z" fill="#F97A7A"/>
<path d="M58.3972 23.6407L48.167 29.5484C47.6156 29.8733 47.271 30.4641 47.271 31.1041V50.5305L59.9725 43.1952V24.5465C59.9824 23.7392 59.1061 23.2272 58.3972 23.6407Z" fill="#EF3F54"/>
<path d="M36.1547 21.81L45.8138 16.2371C46.7197 15.7152 47.8421 15.7152 48.748 16.2371L58.407 21.81C59.1061 22.2137 59.1061 23.2279 58.407 23.6414L48.1769 29.5491C47.6255 29.874 46.9363 29.874 46.3849 29.5491L36.1547 23.6414C35.4458 23.2279 35.4458 22.2137 36.1547 21.81Z" fill="#FFB75E"/>
<path d="M21.8193 47.5774V41.6992L25.6692 43.9146L25.6593 49.7829L21.8193 47.5774Z" fill="#EF3F54"/>
<path d="M38.6759 32.3833L36.3227 31.0147C36.0273 30.8473 35.8501 30.5322 35.8501 30.1876V28.947C35.8501 28.4547 36.3818 28.1494 36.8052 28.3956L39.1584 29.7642C39.4538 29.9316 39.631 30.2467 39.631 30.5913V31.8319C39.631 32.3242 39.0993 32.6294 38.6759 32.3833Z" fill="#FFB75E"/>
<path d="M43.7762 35.3173L42.6932 34.697C42.3978 34.5296 42.2107 34.2145 42.2107 33.8699V32.6293C42.2107 32.1468 42.7325 31.8317 43.1559 32.0779L44.239 32.6982C44.5344 32.8656 44.7215 33.1806 44.7215 33.5253V34.7659C44.7215 35.2582 44.1996 35.5634 43.7762 35.3173Z" fill="#FFB75E"/>
<path d="M38.6855 38.2426L36.3322 36.8838C36.0369 36.7164 35.8596 36.4013 35.8596 36.0567V34.8161C35.8596 34.3238 36.3913 34.0186 36.8147 34.2647L39.1679 35.6235C39.4633 35.7909 39.6405 36.106 39.6405 36.4506V37.6912C39.6307 38.1835 39.1089 38.4887 38.6855 38.2426Z" fill="#FFB75E"/>
<path d="M43.7762 41.1864L42.6932 40.5661C42.3978 40.3987 42.2107 40.0836 42.2107 39.739V38.4984C42.2107 38.0159 42.7325 37.7009 43.1559 37.947L44.239 38.5673C44.5344 38.7347 44.7215 39.0498 44.7215 39.3944V40.635C44.7215 41.1175 44.1996 41.4227 43.7762 41.1864Z" fill="#FFB75E"/>
<path d="M38.6855 44.1L36.3322 42.7412C36.0369 42.5738 35.8596 42.2588 35.8596 41.9142V40.6735C35.8596 40.1812 36.3913 39.876 36.8147 40.1222L39.1679 41.4809C39.4633 41.6483 39.6405 41.9634 39.6405 42.308V43.5486C39.6307 44.0409 39.1089 44.3462 38.6855 44.1Z" fill="#FFB75E"/>
<path d="M43.7762 47.0458L42.6932 46.4255C42.3978 46.2581 42.2107 45.943 42.2107 45.5984V44.3578C42.2107 43.8753 42.7325 43.5602 43.1559 43.8064L44.239 44.4267C44.5344 44.5941 44.7215 44.9092 44.7215 45.2538V46.4944C44.7215 46.9867 44.1996 47.2919 43.7762 47.0458Z" fill="#FFB75E"/>
</svg>
