<svg width="64" height="64" viewBox="0 0 64 64" fill="none" xmlns="http://www.w3.org/2000/svg">
<mask id="mask0" mask-type="alpha" maskUnits="userSpaceOnUse" x="0" y="0" width="64" height="64">
<rect width="64" height="64" fill="#C4C4C4"/>
</mask>
<g mask="url(#mask0)">
<path d="M54.0552 51.2L22.449 59.6677C18.2152 60.8493 13.8829 58.2893 12.7013 54.0554L4.23363 22.4493C3.05209 18.2154 5.61209 13.8831 9.84593 12.7016L41.4521 4.23387C45.6859 3.05234 50.0182 5.61234 51.1998 9.84618L59.6675 41.4523C60.849 45.7846 58.289 50.117 54.0552 51.2Z" fill="#E1E4F4"/>
<path d="M44.7011 48.7383L40.5657 51.1014L40.8611 49.8214L44.7011 48.7383Z" fill="#57617F"/>
<path d="M23.5321 2.75586L19.5936 4.92201L22.5475 6.39894L24.4183 4.13432L23.5321 2.75586Z" fill="#F97A7A"/>
<path d="M25.8952 36.7251C27.9629 42.042 30.8183 47.0636 34.3629 51.5928C44.7013 51.5928 53.4644 44.0113 54.8429 33.7713L56.5167 21.8574L52.5783 24.0236L25.8952 36.7251Z" fill="#57617F"/>
<path d="M23.532 2.75656L22.7443 8.56579C21.3658 18.1166 22.5474 27.7658 25.8951 36.6273L52.6766 23.9258L56.6151 21.7596L41.5505 1.47656L23.532 2.75656Z" fill="#F97A7A"/>
<path d="M27.0765 47.0646C20.6765 38.9907 17.8211 28.4553 19.1996 18.2153L20.8734 6.20302L36.9227 5.02148L51.1996 24.4184L49.6242 35.7415C48.3442 44.9969 40.4673 51.9876 31.2119 52.283L27.0765 47.0646Z" fill="#FDFDFD"/>
<path d="M36.2335 6.59642L49.6243 24.8118L48.1473 35.5441C46.9658 43.8149 40.0735 50.2149 31.8027 50.8057L28.1597 46.178C21.9566 38.3995 19.1997 28.258 20.5781 18.4118L22.1535 7.58104L36.2335 6.59642ZM37.612 3.64258L19.5935 4.92258L17.7227 18.018C16.2458 28.6518 19.1012 39.4826 25.895 47.9503L30.5227 53.661C40.8612 53.661 49.6243 46.0795 51.0027 35.8395L52.6766 23.9257L37.612 3.64258Z" fill="#FFB75E"/>
<path d="M35.9383 19.5928L37.2183 25.8943C37.2183 25.9928 37.3168 26.1897 37.4152 26.2882L42.4368 29.9313C42.7322 30.1282 42.7322 30.6205 42.4368 30.7189L38.006 32.6882C37.9076 32.7866 37.8091 32.8851 37.8091 33.082L37.5137 38.9897C37.5137 39.3836 36.9229 39.482 36.6275 39.1866L32.7876 34.2636C32.6891 34.0666 32.4922 34.0666 32.2952 34.0666L27.2737 34.2636C26.8799 34.2636 26.5845 33.8697 26.6829 33.5743L28.7506 28.2574C28.7506 28.1589 28.7506 27.962 28.7506 27.8636L25.8952 21.8574C25.6983 21.4636 25.9937 21.0697 26.3876 21.2666L31.4091 23.1374C31.606 23.2359 31.8029 23.1374 31.9014 23.0389L35.0522 19.2974C35.3476 18.9036 35.9383 19.1005 35.9383 19.5928Z" fill="#EF3F54"/>
<path d="M59.4704 8.6648C57.8951 10.2402 57.2058 11.1263 56.2212 13.2925C55.0397 10.9294 54.6458 10.3386 52.972 8.6648C54.5474 7.28634 55.4335 5.90788 56.2212 4.03711C57.0089 6.00634 57.8951 7.28634 59.4704 8.6648Z" fill="#EF3F54"/>
<path d="M13.9813 7.18673C12.8982 8.26981 12.4059 8.95904 11.6182 10.436C10.8305 8.76212 10.5352 8.26981 9.25516 7.18673C10.3382 6.20212 11.0275 5.2175 11.6182 3.9375C12.209 5.2175 12.7998 6.10365 13.9813 7.18673Z" fill="#EF3F54"/>
<path d="M45.1938 59.7649C44.1107 60.8479 43.6184 61.5372 42.8307 63.0141C42.043 61.3402 41.7477 60.8479 40.4677 59.7649C41.5507 58.7802 42.24 57.7956 42.8307 56.5156C43.4215 57.8941 44.0123 58.7802 45.1938 59.7649Z" fill="#EF3F54"/>
<path d="M12.406 42.7321C10.6337 44.406 9.9445 45.4891 8.6645 47.9506C7.3845 45.2921 6.89219 44.6029 4.92296 42.7321C6.69527 41.2552 7.67988 39.6798 8.6645 37.5137C9.64912 39.6798 10.6337 41.1568 12.406 42.7321Z" fill="#EF3F54"/>
</g>
</svg>
