<svg width="72" height="72" viewBox="0 0 72 72" fill="none" xmlns="http://www.w3.org/2000/svg">
<path d="M60.8656 58.8969L25.31 68.4286C20.5331 69.7032 15.6231 66.877 14.3375 62.1L4.80573 26.5444C3.53113 21.7675 6.3574 16.8575 11.1344 15.5718L46.69 6.0401C51.4669 4.76551 56.3769 7.59178 57.6625 12.3687L67.1943 47.9243C68.4689 52.7013 65.6426 57.6112 60.8656 58.8969Z" fill="#E1E4F4"/>
<path d="M29.9645 5.44922L43.4862 62.152L40.5048 63.8367L28.1689 10.5033" fill="#57617F"/>
<path d="M28.1706 10.5047L26.7298 4.25363L29.6004 2.61328L29.9662 5.45064" fill="#F97A7A"/>
<path d="M50.9896 14.2387C50.6571 13.4851 50.0918 12.8201 49.3492 12.3989L32.4249 2.63439C30.6737 1.6258 28.4459 2.70089 28.1577 4.70699L25.4645 23.5931L33.7438 22.1745L50.9896 14.2387Z" fill="#F97A7A"/>
<path d="M50.9901 14.2383L33.7665 22.174L25.4872 23.5927L21.7742 49.683C21.6745 50.4146 22.0181 51.1461 22.6609 51.5118L40.8266 62.0521C42.5778 63.0718 44.8056 61.9856 45.0937 59.9795L51.2783 16.3663C51.378 15.6237 51.2672 14.8922 50.9901 14.2383Z" fill="#57617F"/>
<path d="M39.3857 63.3502C39.0089 63.3502 38.6432 63.2505 38.3106 63.062L21.5858 53.3641C20.3223 52.6325 19.6351 51.2139 19.8346 49.7619L26.0081 6.43687C26.1521 5.38394 27.0721 4.58594 28.1361 4.58594C28.5129 4.58594 28.8676 4.68569 29.2001 4.87411L45.9139 14.5167C47.1885 15.2482 47.8756 16.6669 47.6651 18.1188L41.5248 61.5104C41.3697 62.5633 40.4497 63.3502 39.3857 63.3502Z" fill="#FFD385"/>
<path d="M46.2685 13.9055L29.5547 4.26292C29.1003 3.99692 28.6126 3.875 28.125 3.875C26.7728 3.875 25.4982 4.85034 25.2876 6.33552L19.1363 49.6606C18.8925 51.3896 19.7237 53.0964 21.2311 53.972L37.956 63.67C38.4104 63.936 38.9091 64.0579 39.3857 64.0579C40.7379 64.0579 42.0125 63.0826 42.2231 61.5974L48.3744 18.2169C48.6182 16.4879 47.7869 14.7811 46.2685 13.9055ZM46.9668 18.0285L40.8155 61.409C40.7046 62.2181 40.0175 62.6393 39.3968 62.6393C39.153 62.6393 38.9091 62.5728 38.6875 62.4398L21.9626 52.7418C20.954 52.1544 20.3998 51.0238 20.5661 49.8601L26.7285 6.53502C26.8393 5.72593 27.5265 5.30476 28.1471 5.30476C28.391 5.30476 28.6348 5.37126 28.8565 5.50426L30.5633 6.49069C31.1286 6.8121 31.4389 7.45494 31.3392 8.09778L31.317 8.23078C31.2062 8.99554 31.5719 9.76029 32.248 10.1482L40.4054 14.8808C41.148 15.3131 42.079 14.8587 42.2009 14.0052C42.2563 13.6506 42.6442 13.4622 42.9546 13.6395L45.5481 15.1357C46.5678 15.7343 47.1219 16.8648 46.9668 18.0285Z" fill="#FDFDFD"/>
<path d="M39.9294 34.1557C40.1178 32.2826 39.2754 29.5893 36.1499 27.9933L30.0984 24.9121L27.2167 38.323L30.32 39.8969L31.3951 34.865L32.9911 35.6741L35.6844 42.6234L39.0759 44.3635L36.0502 36.9044C38.7988 37.4031 39.7409 36.0399 39.9294 34.1557ZM34.1106 33.7234L31.8939 32.604L32.7695 28.5586L35.1081 29.7445C36.3494 30.3762 36.9812 31.4624 36.8482 32.8035C36.7041 34.1889 35.6179 34.4882 34.1106 33.7234Z" fill="#EF3F54"/>
</svg>
