<svg width="64" height="65" viewBox="0 0 64 65" fill="none" xmlns="http://www.w3.org/2000/svg">
<path d="M54.1743 52.058L22.5915 60.5274C18.3569 61.6747 13.9762 59.1506 12.8497 54.895L4.38032 23.3122C3.23299 19.0776 5.75711 14.6969 10.0127 13.5704L41.5955 5.10102C45.8301 3.9537 50.2108 6.47782 51.3373 10.7334L59.8067 42.3161C60.9331 46.5717 58.409 50.9315 54.1743 52.058Z" fill="#E1E4F4"/>
<path d="M44.7453 49.6172L40.5732 51.9536L40.8861 50.6602L44.7453 49.6172Z" fill="#57617F"/>
<path d="M23.5513 3.61914L19.6504 5.78863L22.55 7.22801L24.4066 5.01679L23.5513 3.61914Z" fill="#F97A7A"/>
<path d="M25.9082 37.5597C27.9525 42.8583 30.7896 47.8648 34.3984 52.3915C44.7244 52.3915 53.4649 44.7983 54.9043 34.5975L56.594 22.707L52.6931 24.8765L25.9082 37.5597Z" fill="#57617F"/>
<path d="M23.551 3.6189L22.7166 9.45984C21.3607 19.0348 22.4871 28.7141 25.9082 37.5589L52.714 24.8757L56.6149 22.7063L41.5328 2.30469L23.551 3.6189Z" fill="#F97A7A"/>
<path d="M27.0556 47.9055C20.6097 39.8325 17.7518 29.3397 19.1912 19.0972L20.9017 7.12327L36.9643 5.95508L51.212 25.251L49.6058 36.5574C48.9591 41.1467 46.6644 45.3606 43.1599 48.4062C39.8222 51.3058 35.6084 52.9538 31.1859 53.1207L27.0556 47.9055Z" fill="#FFB75E"/>
<path d="M36.2759 7.4368L49.71 25.6272L48.1872 36.3495C47.5823 40.605 45.4545 44.5059 42.2211 47.3221C39.3215 49.8462 35.6709 51.3481 31.8534 51.6402L28.1611 47.03C25.0529 43.15 22.8209 38.7484 21.5275 33.9505C20.2133 29.1526 19.9212 24.2295 20.6096 19.3064L22.1533 8.47983L36.2759 7.4368ZM37.6527 4.47461L19.6709 5.78882L17.7935 18.9101C16.2707 29.5698 19.212 40.3964 25.9291 48.824L30.5184 54.5607C40.8443 54.5607 49.5849 46.9674 51.0242 36.7667L52.7139 24.8762L37.6527 4.47461Z" fill="#FDFDFD"/>
<path d="M33.3136 32.7815L30.122 30.9666C27.1598 29.2769 25.9707 22.5807 25.9707 22.5807C26.3253 19.994 29.1832 18.5755 31.457 19.8688C33.4805 21.0162 34.607 23.2691 34.2941 25.5638L33.3136 32.7815Z" fill="#EF3F54"/>
<path d="M36.151 34.3048L33.314 32.6985L34.2527 25.898C34.5239 23.8954 36.7351 22.7898 38.5082 23.7911C41.1784 25.293 42.6595 28.2761 42.2423 31.3009C41.8459 34.1796 38.6751 35.7441 36.151 34.3048Z" fill="#EF3F54"/>
<path d="M32.6254 37.4753C29.4963 32.7191 25.1991 27.3371 25.9918 22.4141L42.1586 31.697C41.7206 34.8469 36.5472 36.2446 32.6254 37.4753Z" fill="#EF3F54"/>
</svg>
