<svg width="64" height="64" viewBox="0 0 64 64" fill="none" xmlns="http://www.w3.org/2000/svg">
<path d="M54.0961 51.2448L22.5088 59.7231C18.2696 60.8485 13.9179 58.335 12.755 54.0959L4.27666 22.5085C3.15122 18.2694 5.6647 13.9177 9.90385 12.7547L41.4912 4.27641C45.7304 3.15097 50.0821 5.66446 51.245 9.90361L59.7233 41.491C60.8487 45.7301 58.3353 50.1193 54.0961 51.2448Z" fill="#E1E4F4"/>
<path d="M58.7479 24.9101L26.1101 6.11529C25.7725 5.92772 25.3598 5.92772 24.9847 6.11529L23.9343 6.67801C23.3716 6.97813 22.9964 7.54085 22.9589 8.1786L20.8206 32.0754L30.0492 37.7026L59.8358 26.4482C59.7233 25.773 59.3481 25.2102 58.7479 24.9101Z" fill="#F97A7A"/>
<path d="M30.0867 37.6646L54.3587 52.4453L56.0843 51.5825C56.3844 51.4324 56.6095 51.1323 56.647 50.7947L59.9483 27.3105C59.9859 27.0104 59.9858 26.7103 59.9108 26.4102L30.0867 37.6646Z" fill="#57617F"/>
<path d="M53.3456 52.3329L20.933 33.6131C20.1076 33.1254 19.6575 32.1876 19.77 31.2497L23.0338 7.99061C23.1838 7.05275 24.1967 6.56506 25.0221 7.01523L57.4347 25.6975C58.26 26.1852 58.7102 27.1231 58.5977 28.061L55.3339 51.3951C55.1838 52.2954 54.1709 52.7831 53.3456 52.3329Z" fill="#92DDD2"/>
<path d="M31.8874 24.0851L26.7854 21.1215C26.2602 20.8214 25.96 20.2211 26.0726 19.6209L26.5978 15.7569C26.7103 14.8565 27.7232 14.3313 28.5486 14.819L33.6506 17.7452C34.1758 18.0453 34.4759 18.6455 34.3633 19.2457L33.8381 23.1098C33.7256 24.0476 32.7127 24.5353 31.8874 24.0851Z" fill="#EF3F54"/>
<path d="M25.6224 28.7731C24.6845 28.2479 24.1968 27.1975 24.3469 26.1471C24.4969 25.2467 25.4723 24.7591 26.2601 25.2092C27.1605 25.7344 27.6482 26.7473 27.4981 27.7602V27.8728C27.3856 28.7731 26.4102 29.2233 25.6224 28.7731Z" fill="#FDFDFD"/>
<path d="M31.9624 32.5251C31.0246 31.9999 30.5369 30.9495 30.687 29.8991C30.837 28.9987 31.8124 28.511 32.6002 28.9612C33.5005 29.4864 33.9882 30.4993 33.8382 31.5122V31.6247C33.6881 32.4876 32.7127 32.9377 31.9624 32.5251Z" fill="#FDFDFD"/>
<path d="M38.3399 36.0895C37.402 35.5643 36.9143 34.5139 37.0644 33.4635C37.2145 32.5632 38.1898 32.0755 38.9776 32.5256C39.878 33.0508 40.3657 34.0637 40.2156 35.0766V35.1892C40.0656 36.052 39.0902 36.5397 38.3399 36.0895Z" fill="#FDFDFD"/>
<path d="M44.6797 39.8044C43.7419 39.2792 43.2542 38.2288 43.4042 37.1784C43.5543 36.278 44.5297 35.7903 45.3175 36.2405C46.2178 36.7657 46.7055 37.7786 46.5555 38.7915V38.904C46.4054 39.8044 45.43 40.2546 44.6797 39.8044Z" fill="#FDFDFD"/>
<path d="M51.0198 43.4802C50.0819 42.955 49.5943 41.9045 49.7443 40.8541C49.8944 39.9538 50.8698 39.4661 51.6576 39.9163C52.5579 40.4415 53.0456 41.4544 52.8955 42.4673V42.5798C52.7455 43.4802 51.7701 43.9303 51.0198 43.4802Z" fill="#FDFDFD"/>
</svg>
