<svg width="64" height="64" viewBox="0 0 64 64" fill="none" xmlns="http://www.w3.org/2000/svg">
<path d="M54.0691 51.218L22.4829 59.6778C18.253 60.8272 13.8852 58.2985 12.7358 54.0686L4.27599 22.4824C3.12657 18.2525 5.65531 13.8847 9.88519 12.7353L41.4714 4.2755C45.7013 3.12608 50.0691 5.65481 51.2185 9.8847L59.6783 41.4709C60.8277 45.7468 58.299 50.1146 54.0691 51.218Z" fill="#E1E4F4"/>
<path d="M49.5635 14.6211L45.5175 16.9659L40.9198 57.1498L40.552 58.759L43.0347 57.3797C43.5865 57.1039 44.0003 56.5521 44.0922 55.9084L49.7014 16.2303C49.7934 15.6326 49.7474 15.1268 49.5635 14.6211Z" fill="#8698BF"/>
<path d="M49.5635 14.6212C49.2877 13.8855 48.8279 13.2878 48.1383 12.8741L28.644 1.70164C28.3222 1.51774 28.0003 1.42578 27.6785 1.42578C27.3567 1.42578 27.0808 1.51774 26.8049 1.60969L26.713 1.65567C26.667 1.65567 26.667 1.70164 26.621 1.70164L23.9543 3.21888L45.9773 16.6901L49.5635 14.6212Z" fill="#5DC6A0"/>
<path d="M39.5866 58.9886C39.2188 58.9886 38.897 58.8966 38.6211 58.7127L19.1269 47.4484C17.9775 46.7587 17.3338 45.4714 17.5177 44.138L23.1729 4.50584C23.3108 3.54032 24.1384 2.80469 25.1039 2.80469C25.4257 2.80469 25.7936 2.89664 26.0694 3.08055L45.5637 14.2989C46.7131 14.9886 47.3568 16.276 47.1728 17.6093L41.5637 57.2874C41.4257 58.2989 40.5981 58.9886 39.5866 58.9886Z" fill="#92DDDA"/>
<path d="M45.5176 20.1853L40.9199 52.737L19.3567 40.3232L24.0004 7.77148L45.5176 20.1853Z" fill="#FDFDFD"/>
<path d="M41.7934 23.3574L37.6095 25.5643L38.5291 26.3919L33.2877 33.3344L30.4371 27.7252C30.2992 27.4954 30.1153 27.3114 29.8394 27.2195C29.5636 27.1735 29.2877 27.1735 29.0578 27.3574L22.9429 31.3574L23.4486 33.2885L29.1957 29.5183L32.2762 35.5413C32.4141 35.8172 32.736 36.0471 33.0578 36.0471C33.1038 36.0471 33.1038 36.0471 33.1497 36.0471C33.4256 36.0471 33.7475 35.9091 33.9314 35.6793L40.0003 27.6793L40.8279 28.4149L41.7934 23.3574Z" fill="#EF3F54"/>
<path d="M29.0578 51.7715C28.0463 51.1738 27.4946 50.0244 27.6325 48.875C27.7704 47.8635 28.8739 47.3118 29.7934 47.8175C30.8049 48.3692 31.3107 49.5186 31.1727 50.6221V50.76C31.0348 51.7255 29.9314 52.2773 29.0578 51.7715Z" fill="#57617F"/>
<path d="M35.6782 12.2302C35.3563 12.0463 35.1724 11.6785 35.2184 11.3106C35.2644 10.9888 35.6322 10.8509 35.8621 10.9888C36.1839 11.1727 36.3219 11.4946 36.2759 11.8624V11.9083C36.2759 12.2302 35.954 12.4141 35.6782 12.2302Z" fill="#FDFDFD"/>
<path d="M39.4025 46.0234L23.0347 36.5522L26.0232 15.5407C26.0692 15.1269 25.8853 14.7131 25.5175 14.4832C25.2416 14.2993 24.8738 14.4832 24.8278 14.8051L21.8393 35.8625C21.5175 35.6786 21.1496 35.8625 21.1037 36.2303C21.0577 36.5982 21.2416 37.0119 21.5634 37.1959L21.6554 37.2418V37.2878C21.6094 37.7016 21.7933 38.1154 22.1611 38.2993C22.437 38.4832 22.8048 38.2993 22.8508 37.9775V37.8855L39.1726 47.3108C39.4945 47.4947 39.8623 47.3108 39.9082 46.943C39.9542 46.5752 39.7244 46.2073 39.4025 46.0234Z" fill="#BFC6F2"/>
</svg>
