<svg width="64" height="64" viewBox="0 0 64 64" fill="none" xmlns="http://www.w3.org/2000/svg">
<path d="M54.0824 51.2604L22.5096 59.7293C18.2751 60.8808 13.8921 58.355 12.7777 54.1205L4.30877 22.5477C3.15729 18.3132 5.68312 13.9301 9.91759 12.8158L41.4904 4.34686C45.7249 3.19538 50.108 5.7212 51.2223 9.95568L59.6912 41.5285C60.8427 45.763 58.354 50.1089 54.0824 51.2604Z" fill="#E1E4F4"/>
<path d="M56.3111 45.2797L52.8938 44.7969L30.1985 24.1074L30.9042 2.67499L31.4985 2.34069C32.4272 1.82067 33.5415 1.85781 34.433 2.37784L59.5055 16.8271C60.7684 17.5328 61.437 18.9814 61.2141 20.3929L57.574 43.4968C57.4254 44.2025 56.9797 44.8712 56.3111 45.2797Z" fill="#F97A7A"/>
<path d="M5.31177 37.8882L26.5584 28.082L56.3112 45.2428L37.0703 56.349C35.8446 57.0548 34.3216 57.0548 33.0959 56.349L7.46615 41.5655C6.12895 40.8226 5.31177 39.4111 5.31177 37.8882Z" fill="#F97A7A"/>
<path d="M56.3111 42.8288L26.5583 25.6309L29.9014 3.86416C30.0871 2.74983 31.2757 2.19266 32.2415 2.74983L58.5026 17.9048C59.3941 18.4248 59.877 19.4277 59.7284 20.4678L56.3111 42.8288Z" fill="#57617F"/>
<path d="M5.31177 37.8886L26.5584 25.6309L56.3112 42.7916L36.6246 54.1579C35.6588 54.715 34.4702 54.715 33.5045 54.1579L5.31177 37.8886Z" fill="#FDFDFD"/>
<path d="M32.093 5.20129L56.9427 19.4276C57.6113 19.7991 57.9456 20.542 57.8341 21.2849L54.974 38.7428L28.2671 23.3278L30.9043 5.75845C30.9786 5.20129 31.6101 4.90413 32.093 5.20129Z" fill="#5DC6B5"/>
<path d="M16.6409 42.8274L22.3983 39.4844L30.8301 44.4617L25.147 47.6933L16.6409 42.8274Z" fill="#92DDDA"/>
<path d="M26.2611 29.0844L27.6726 28.2672C27.8583 28.1557 28.0812 28.1557 28.304 28.2672L30.4584 29.4929C30.6441 29.6044 30.6441 29.8272 30.4584 29.9387L29.0469 30.7559C28.8612 30.8673 28.6383 30.8673 28.4155 30.7559L26.2611 29.5301C26.1125 29.4187 26.1125 29.1958 26.2611 29.0844Z" fill="#EF3F54"/>
<path d="M30.5328 31.5355L31.9443 30.7183C32.1301 30.6069 32.3529 30.6069 32.5758 30.7183L34.7302 31.9441C34.9159 32.0555 34.9159 32.2784 34.7302 32.3898L33.3187 33.207C33.133 33.3185 32.9101 33.3185 32.6872 33.207L30.5328 31.9813C30.3471 31.8698 30.3471 31.6098 30.5328 31.5355Z" fill="#EF3F54"/>
<path d="M34.7671 33.9867L36.1786 33.1695C36.3643 33.0581 36.5872 33.0581 36.8101 33.1695L38.9645 34.3953C39.1502 34.5067 39.1502 34.7296 38.9645 34.841L37.5158 35.6582C37.3301 35.7696 37.1072 35.7696 36.8844 35.6582L34.73 34.4324C34.5814 34.321 34.5814 34.061 34.7671 33.9867Z" fill="#EF3F54"/>
<path d="M39.0016 36.4398L40.4131 35.6226C40.5988 35.5112 40.8217 35.5112 41.0445 35.6226L43.1989 36.8484C43.3846 36.9598 43.3846 37.1827 43.1989 37.2941L41.7874 38.1113C41.6017 38.2228 41.3788 38.2228 41.156 38.1113L39.0016 36.8856C38.853 36.7741 38.853 36.5141 39.0016 36.4398Z" fill="#EF3F54"/>
<path d="M43.2736 38.891L44.6851 38.0738C44.8708 37.9624 45.0936 37.9624 45.3165 38.0738L47.4709 39.2996C47.6566 39.411 47.6566 39.6339 47.4709 39.7453L46.0594 40.5625C45.8737 40.6739 45.6508 40.6739 45.428 40.5625L43.2736 39.3367C43.0878 39.2624 43.0878 39.0024 43.2736 38.891Z" fill="#EF3F54"/>
<path d="M47.5079 41.3422L48.9194 40.525C49.1051 40.4135 49.328 40.4135 49.5509 40.525L51.7053 41.7508C51.891 41.8622 51.891 42.0851 51.7053 42.1965L50.2938 43.0137C50.108 43.1251 49.8852 43.1251 49.6623 43.0137L47.5079 41.7879C47.3593 41.7136 47.3593 41.4536 47.5079 41.3422Z" fill="#EF3F54"/>
<path d="M22.7323 31.1273L24.1438 30.3101C24.3295 30.1987 24.5524 30.1987 24.7753 30.3101L26.9296 31.5359C27.1154 31.6473 27.1154 31.8702 26.9296 31.9816L25.5181 32.7988C25.3324 32.9103 25.1096 32.9103 24.8867 32.7988L22.7323 31.5731C22.5466 31.4616 22.5466 31.2388 22.7323 31.1273Z" fill="#EF3F54"/>
<path d="M26.9669 33.5785L28.3784 32.7613C28.5641 32.6499 28.787 32.6499 29.0099 32.7613L31.1642 33.9871C31.35 34.0985 31.35 34.3214 31.1642 34.4328L29.7156 35.25C29.5299 35.3614 29.307 35.3614 29.0842 35.25L26.9298 34.0242C26.8183 33.9128 26.8183 33.6899 26.9669 33.5785Z" fill="#EF3F54"/>
<path d="M31.2013 36.0297L32.6128 35.2125C32.7985 35.101 33.0214 35.101 33.2442 35.2125L35.3986 36.4382C35.5843 36.5497 35.5843 36.7726 35.3986 36.884L33.9871 37.7012C33.8014 37.8126 33.5785 37.8126 33.3557 37.7012L31.2013 36.4754C31.0527 36.364 31.0527 36.1411 31.2013 36.0297Z" fill="#EF3F54"/>
<path d="M35.473 38.4828L36.8845 37.6656C37.0702 37.5542 37.2931 37.5542 37.516 37.6656L39.6704 38.8914C39.8561 39.0028 39.8561 39.2257 39.6704 39.3371L38.2589 40.1543C38.0732 40.2657 37.8503 40.2657 37.6274 40.1543L35.473 38.9285C35.2873 38.8171 35.2873 38.5942 35.473 38.4828Z" fill="#EF3F54"/>
<path d="M39.7076 40.934L41.1191 40.1168C41.3048 40.0053 41.5277 40.0053 41.7506 40.1168L43.905 41.3425C44.0907 41.454 44.0907 41.6768 43.905 41.7883L42.4935 42.6055C42.3077 42.7169 42.0849 42.7169 41.862 42.6055L39.7076 41.3797C39.559 41.3054 39.559 41.0454 39.7076 40.934Z" fill="#EF3F54"/>
<path d="M43.9791 43.3851L45.3906 42.568C45.5763 42.4565 45.7992 42.4565 46.0221 42.568L48.1765 43.7937C48.3622 43.9052 48.3622 44.128 48.1765 44.2395L46.765 45.0566C46.5792 45.1681 46.3564 45.1681 46.1335 45.0566L43.9791 43.8309C43.7934 43.7566 43.7934 43.4966 43.9791 43.3851Z" fill="#EF3F54"/>
<path d="M19.1664 33.1703L20.5779 32.3531C20.7636 32.2417 20.9865 32.2417 21.2093 32.3531L23.3637 33.5789C23.5494 33.6903 23.5494 33.9132 23.3637 34.0246L21.9151 34.8418C21.7294 34.9532 21.5065 34.9532 21.2836 34.8418L19.1292 33.616C19.0178 33.5046 19.0178 33.2817 19.1664 33.1703Z" fill="#EF3F54"/>
<path d="M23.4752 35.5843L24.8124 34.8043C25.0353 34.6928 25.2953 34.6928 25.481 34.8043L36.0301 40.9331C36.2158 41.0446 36.2158 41.3046 36.0301 41.416L34.6929 42.196C34.47 42.3075 34.21 42.3075 34.0243 42.196L23.4752 36.1043C23.2895 35.9929 23.2895 35.6957 23.4752 35.5843Z" fill="#EF3F54"/>
<path d="M36.1788 42.9769L37.5903 42.1597C37.7761 42.0483 37.9989 42.0483 38.2218 42.1597L40.3762 43.3855C40.5619 43.497 40.5619 43.7198 40.3762 43.8312L38.9647 44.6484C38.779 44.7599 38.5561 44.7599 38.3332 44.6484L36.1788 43.4227C35.9931 43.3484 35.9931 43.0884 36.1788 42.9769Z" fill="#EF3F54"/>
<path d="M40.4132 45.4281L41.8247 44.6109C42.0104 44.4995 42.2333 44.4995 42.4561 44.6109L44.6105 45.8367C44.7962 45.9481 44.7962 46.171 44.6105 46.2824L43.199 47.0996C43.0133 47.211 42.7904 47.211 42.5676 47.0996L40.4132 45.8738C40.2646 45.7995 40.2646 45.5395 40.4132 45.4281Z" fill="#EF3F54"/>
</svg>
