<svg width="64" height="64" viewBox="0 0 64 64" fill="none" xmlns="http://www.w3.org/2000/svg">
<path d="M54.0585 51.2487L22.4712 59.727C18.232 60.8524 13.8803 58.3389 12.7174 54.0998L4.23906 22.5125C3.11362 18.2733 5.6271 13.9216 9.86625 12.7587L41.4536 4.28032C45.6927 3.15488 50.0444 5.66836 51.2074 9.90751L59.6857 41.4949C60.8486 45.734 58.3352 50.0857 54.0585 51.2487Z" fill="#E1E4F4"/>
<path d="M26.7479 2.85352L38.7526 53.1981L36.089 54.6987L25.1348 7.31777" fill="#57617F"/>
<path d="M25.1349 7.318L23.8594 1.76581L26.4104 0.302734L26.748 2.85375" fill="#F97A7A"/>
<path d="M45.3926 10.6575C45.0925 9.98226 44.6048 9.41957 43.9296 9.00691L28.8862 0.340996C27.3106 -0.559355 25.3598 0.416035 25.0972 2.17922L22.6963 18.9483L30.0492 17.6728L45.3926 10.6575Z" fill="#F97A7A"/>
<path d="M45.3926 10.6582L30.0867 17.711L22.7338 18.9865L19.4325 42.1705C19.3575 42.8082 19.6576 43.4835 20.2203 43.7836L36.3516 53.1623C37.9272 54.0627 39.878 53.0873 40.1406 51.3241L45.6177 12.5715C45.7678 11.8962 45.6552 11.2209 45.3926 10.6582Z" fill="#57617F"/>
<path d="M35.1138 54.2868C34.7761 54.2868 34.476 54.2117 34.1759 54.0242L19.3201 45.3958C18.1947 44.7581 17.5944 43.4826 17.782 42.2071L23.2591 3.71701C23.4092 2.77915 24.197 2.06641 25.1349 2.06641C25.4725 2.06641 25.7726 2.14142 26.0727 2.32899L40.9285 10.8823C42.054 11.5201 42.6542 12.7956 42.5041 14.0711L37.027 52.5986C36.8769 53.574 36.0516 54.2868 35.1138 54.2868Z" fill="#FDFDFD"/>
<path d="M41.2286 10.3578L26.3728 1.80444C25.9602 1.57935 25.5475 1.4668 25.0973 1.4668C23.8968 1.4668 22.7714 2.32965 22.5838 3.64266L17.1067 42.1327C16.8816 43.6708 17.6319 45.1714 18.9824 45.9592L33.8382 54.5876C34.2509 54.8126 34.7011 54.9251 35.1137 54.9251C36.3142 54.9251 37.4396 54.0623 37.6272 52.7493L43.1043 14.2218C43.2919 12.6462 42.5791 11.1456 41.2286 10.3578ZM41.8288 13.9967L36.3517 52.5243C36.2392 53.237 35.6389 53.6121 35.0762 53.6121C34.8511 53.6121 34.626 53.5371 34.4385 53.4246L19.5827 44.7962C18.6823 44.271 18.1946 43.2581 18.3447 42.2452L23.8218 3.75523C23.9344 3.04245 24.5346 2.66729 25.0973 2.66729C25.3224 2.66729 25.5475 2.74232 25.7351 2.85487L27.2356 3.71767C27.7233 4.01779 28.0235 4.58053 27.9109 5.14325V5.25581C27.7984 5.93107 28.136 6.60634 28.7362 6.94397L35.9766 11.1456C36.6143 11.5207 37.4771 11.1081 37.5522 10.3578C37.5897 10.0577 37.9648 9.87009 38.2274 10.0202L40.5158 11.3332C41.4912 11.9709 41.9789 12.9838 41.8288 13.9967Z" fill="#92DDDA"/>
<path d="M23.2591 44.7958C23.2216 45.1334 23.3716 45.5086 23.6717 45.6961L29.9367 49.3351C30.2368 49.5227 30.6495 49.3351 30.7245 48.9599C30.762 48.6223 30.612 48.2471 30.3118 48.0971L24.0469 44.4957C23.7093 44.2331 23.2966 44.4581 23.2591 44.7958Z" fill="#92DDDA"/>
<path d="M33.9882 22.2871L25.3599 32.9038L27.3481 35.4172L35.7889 24.8756L33.9882 22.2871Z" fill="#EF3F54"/>
<path d="M33.9883 27.5769C31.9625 26.4139 30.8745 24.1255 31.2122 21.7996C31.5123 19.8113 33.6881 18.7609 35.4513 19.7363C37.4021 20.8617 38.49 23.0751 38.1524 25.2884L38.1149 25.5511C37.8148 27.5393 35.6764 28.5522 33.9883 27.5769Z" fill="#EF3F54"/>
<path d="M34.3258 25.5503C33.3504 24.9876 32.8252 23.8996 32.9753 22.7742C33.1253 21.8363 34.1757 21.3111 35.0011 21.7988C35.9389 22.324 36.4641 23.4119 36.3141 24.4623V24.5749C36.164 25.5503 35.1511 26.038 34.3258 25.5503Z" fill="#FDFDFD"/>
<path d="M26.673 30.9898C25.0223 30.0519 22.9215 31.0648 22.6589 32.9406C22.5089 33.991 22.6589 35.0414 23.0716 35.9417L24.3471 34.4036L26.3729 36.5044L24.9848 38.1926C25.0974 38.2676 25.1724 38.3052 25.2849 38.3802C26.8981 39.318 28.9239 38.3052 29.1865 36.5044L29.224 36.2794C29.5616 34.141 28.5487 32.0402 26.673 30.9898Z" fill="#EF3F54"/>
<path d="M32.8627 31.7031L35.1886 33.0536L35.6763 36.1673L34.2883 38.1931L31.9999 36.8426L31.5122 33.7664L32.8627 31.7031Z" fill="#8698BF"/>
<path d="M33.2754 33.6172L34.2507 34.1799L34.4758 35.4554L33.8756 36.3182L32.9377 35.7555L32.7126 34.4425L33.2754 33.6172Z" fill="white"/>
</svg>
