<svg width="64" height="65" viewBox="0 0 64 65" fill="none" xmlns="http://www.w3.org/2000/svg">
<path d="M54.1793 52.0516L22.594 60.512C18.3473 61.64 14.001 59.1185 12.8398 54.8717L4.37943 23.3196C3.25138 19.0729 5.7729 14.7266 10.0197 13.5654L41.6049 5.10502C45.8517 3.97697 50.198 6.49848 51.3592 10.7452L59.8196 42.3305C60.9144 46.5441 58.3929 50.9236 54.1793 52.0516Z" fill="#E1E4F4"/>
<path d="M44.7239 49.5977L40.5435 51.9201L40.8421 50.6262L44.7239 49.5977Z" fill="#57617F"/>
<path d="M23.5234 3.61328L19.6416 5.76984L22.5281 7.22966L24.386 5.00675L23.5234 3.61328Z" fill="#F97A7A"/>
<path d="M25.8789 37.5199C27.9028 42.8284 30.756 47.8051 34.3724 52.3504C44.6907 52.3504 53.4165 44.7527 54.8763 34.5671L56.5684 22.6895L52.6866 24.846L25.8789 37.5199Z" fill="#57617F"/>
<path d="M23.5231 3.61227L22.6937 9.45156C21.3334 19.04 22.4614 28.6947 25.8788 37.5532L52.6864 24.8792L56.5682 22.7227L41.5055 2.28516L23.5231 3.61227Z" fill="#F97A7A"/>
<path d="M27.0401 47.9055C20.6036 39.8433 17.7503 29.3259 19.2101 19.1072L20.9022 7.12997L36.9603 5.96875L51.1935 25.2451L49.601 36.5587C48.3071 45.7821 40.4439 52.7826 31.1873 53.1144L27.0401 47.9055Z" fill="#FDFDFD"/>
<path d="M36.2634 7.42741L49.7004 25.6089L48.1742 36.3253C47.577 40.572 45.4537 44.487 42.2022 47.3071C39.2826 49.8287 35.6662 51.3548 31.8508 51.6203L28.168 47.0085C21.9638 39.2449 19.21 29.1257 20.6367 19.3051L22.1297 8.45592L36.2634 7.42741ZM37.6237 4.44141L19.6413 5.76852L17.7834 18.8738C16.2572 29.5238 19.21 40.3398 25.9119 48.767L30.4905 54.5067C40.8088 54.5067 49.5345 46.909 50.9943 36.7234L52.6864 24.8458L37.6237 4.44141Z" fill="#FFB75E"/>
<path d="M34.9031 38.7484L30.7227 36.26L33.2773 18.6758L37.4246 21.0978L34.9031 38.7484Z" fill="#EF3F54"/>
<path d="M40.2116 35.2305L26.9736 27.5332L27.7699 22.4238L40.9747 30.0215L40.2116 35.2305Z" fill="#EF3F54"/>
</svg>
