<svg width="64" height="65" viewBox="0 0 64 65" fill="none" xmlns="http://www.w3.org/2000/svg">
<path d="M54.0842 52.0656L22.5034 60.5273C18.2594 61.6669 13.8976 59.1519 12.758 54.908L4.29628 23.3271C3.15669 19.0832 5.67163 14.7213 9.9156 13.5817L41.4964 5.12001C45.7404 3.98042 50.1022 6.49536 51.2418 10.7393L59.7036 42.3202C60.8431 46.5641 58.3282 50.926 54.0842 52.0656Z" fill="#E1E4F4"/>
<path d="M52.6958 24.8463L44.9283 28.527L40.5664 51.9212L44.7449 49.5896C50.1284 46.4983 53.9794 41.0755 54.9094 34.5524L56.5992 22.6719L52.6958 24.8463Z" fill="#57617F"/>
<path d="M41.5227 2.29102L23.5382 3.60088L19.6479 5.77526L52.6958 24.8469L56.5861 22.6856L41.5227 2.29102Z" fill="#F97A7A"/>
<path d="M26.7868 48.0975C20.2899 39.9501 17.4082 29.3664 18.8753 19.0447L20.6174 6.81054L37.0955 5.60547L51.5171 25.1356L49.906 36.5707C48.5699 46.0017 40.5011 53.1536 31.0308 53.4155L26.7868 48.0975Z" fill="#FDFDFD"/>
<path d="M36.5716 6.75849L50.3644 25.4372L48.8057 36.4138C47.5744 45.1244 40.2392 51.7785 31.5417 52.2763L27.6514 47.4036C21.3509 39.492 18.5478 29.2096 19.9756 19.2022L21.5867 7.85877L36.5716 6.75849ZM37.6325 4.45312L19.6481 5.77609L17.775 18.8878C16.2556 29.5501 19.2028 40.3696 25.9093 48.7921L30.4938 54.5424C40.8024 54.5424 49.5523 46.9582 51.0063 36.7413L52.696 24.8608L37.6325 4.45312Z" fill="#FFD385"/>
<path d="M30.5323 24.8346C27.978 23.3676 26.5765 20.4728 27.0087 17.5518C27.3755 15.0499 30.1524 13.7008 32.353 14.9582C34.8286 16.3729 36.1909 19.176 35.7717 21.9922L35.7193 22.3197C35.3656 24.756 32.6673 26.0528 30.5323 24.8346Z" fill="#FFD385"/>
<path d="M27.3626 24.1532L27.2317 24.0878C25.0442 22.8696 22.3066 24.2056 21.9398 26.6944L21.4552 29.969C21.4028 30.3358 21.573 30.7157 21.9005 30.8991L35.772 38.9154L36.3876 34.8024C36.833 31.8029 36.6103 29.5106 33.9775 27.9911L32.6807 27.2576L27.3626 24.1532Z" fill="#FFD385"/>
<path d="M40.0946 34.8021C38.3132 33.7804 37.3439 31.7632 37.6452 29.7329C37.9072 27.9908 39.8327 27.0608 41.3521 27.9253C43.0811 28.9077 44.0242 30.8594 43.736 32.8242L43.6968 33.0469C43.461 34.7497 41.5879 35.6535 40.0946 34.8021Z" fill="#FFB75E"/>
<path d="M38.8504 34.8675C37.462 34.0947 35.7068 34.7497 35.1697 36.2429L34.7637 37.3694C34.6065 37.8016 34.7899 38.2732 35.1828 38.509L43.4611 43.29C43.8148 43.4996 44.2602 43.2376 44.2602 42.8315V40.9715C44.2602 39.1377 43.2778 37.448 41.6928 36.5311L38.8504 34.8675Z" fill="#FFB75E"/>
<path d="M43.4746 58.9823C48.676 58.9823 52.8925 54.7658 52.8925 49.5644C52.8925 44.363 48.676 40.1465 43.4746 40.1465C38.2732 40.1465 34.0566 44.363 34.0566 49.5644C34.0566 54.7658 38.2732 58.9823 43.4746 58.9823Z" fill="#EF3F54"/>
<path d="M47.548 48.0049H45.0199V45.4769C45.0199 44.966 44.6008 44.5469 44.0899 44.5469H42.8456C42.3347 44.5469 41.9156 44.966 41.9156 45.4769V48.0049H39.3875C38.8767 48.0049 38.4575 48.4241 38.4575 48.9349V50.1793C38.4575 50.6901 38.8767 51.1093 39.3875 51.1093H41.9156V53.6373C41.9156 54.1482 42.3347 54.5673 42.8456 54.5673H44.0899C44.6008 54.5673 45.0199 54.1482 45.0199 53.6373V51.1224H47.548C48.0588 51.1224 48.478 50.7032 48.478 50.1924V48.948C48.4911 48.4241 48.0719 48.0049 47.548 48.0049Z" fill="#FDFDFD"/>
</svg>
