<svg width="64" height="65" viewBox="0 0 64 65" fill="none" xmlns="http://www.w3.org/2000/svg">
<path d="M54.1789 52.0623L22.6015 60.5314C18.3585 61.664 13.9972 59.1452 12.8646 54.9022L4.37858 23.3248C3.24598 19.0818 5.76474 14.7205 10.0077 13.5879L41.5851 5.11881C45.8281 3.98622 50.1895 6.50497 51.3221 10.748L59.7912 42.3254C60.9407 46.5684 58.4219 50.9297 54.1789 52.0623Z" fill="#E1E4F4"/>
<path fill-rule="evenodd" clip-rule="evenodd" d="M36.2855 52.7234C32.6855 48.1234 29.7855 43.0234 27.6855 37.6234L54.7855 24.7234L58.7855 22.5234L57.0855 34.6234C56.1426 41.628 51.7976 47.4077 45.8529 50.4351L42.5855 52.2244L42.6995 51.7304C40.6713 52.3765 38.5144 52.7234 36.2855 52.7234Z" fill="#57617F"/>
<path fill-rule="evenodd" clip-rule="evenodd" d="M25.2853 3.12457L25.2853 3.12422L43.4853 1.82422L58.8853 22.4242L54.8853 24.6242L27.6853 37.5242C24.2853 28.5242 23.0853 18.7242 24.4853 9.02422L24.8765 6.13968L24.2852 6.82435L21.2852 5.32435L25.2852 3.12435L25.2853 3.12457Z" fill="#F97A7A"/>
<path d="M28.7854 48.1258C22.2854 39.9258 19.3854 29.2258 20.7854 18.8258L22.4854 6.62578L38.7854 5.42578L53.2854 25.0258L51.6854 36.5258C50.3854 45.9258 42.3854 53.0258 32.9854 53.3258L28.7854 48.1258Z" fill="#FDFDFD"/>
<path d="M38.1855 7.02344L51.7855 25.5234L50.2855 36.4234C49.0855 44.8234 42.0855 51.3234 33.6855 51.9234L29.9855 47.2234C23.6855 39.3234 20.8855 29.0234 22.2855 19.0234L23.8855 8.02344L38.1855 7.02344ZM39.5855 4.02344L21.2855 5.32344L19.3855 18.6234C17.8855 29.4234 20.7855 40.4234 27.6855 49.0234L32.3855 54.8234C42.8855 54.8234 51.7855 47.1234 53.1855 36.7234L54.8855 24.6234L39.5855 4.02344Z" fill="#FFB75E"/>
<path d="M32.7176 21.3826L30.8462 23.1034C30.2456 22.5996 29.5702 22.9649 29.3367 23.9243L28.6907 26.516C28.4537 27.4659 28.7489 28.6466 29.3495 29.1504L30.3458 29.9776C30.1089 30.9275 30.4041 32.1081 31.0046 32.612C31.6052 33.1158 32.2806 32.7505 32.5176 31.8005L36.9613 35.5161C36.7244 36.4661 37.0196 37.6467 37.6201 38.1505C38.2207 38.6543 38.8961 38.289 39.1297 37.3297L40.2202 38.2394C40.8208 38.7432 41.4963 38.3779 41.7298 37.4186L42.2206 35.4485C42.3074 35.0757 42.246 34.6188 42.0503 34.3179L39.5452 30.3695L38.6257 26.1264C38.5146 25.5919 38.273 25.1373 37.9646 24.8777L33.8001 21.4004C33.4394 21.0855 33.0345 21.0851 32.7176 21.3826ZM35.7202 24.6262L37.1483 25.8168C37.3788 26.0091 37.5567 26.3486 37.6512 26.7507L38.3425 29.9377L35.0836 27.2144L35.7202 24.6262ZM34.0162 23.2067L34.6296 23.7165L33.9837 26.3081L31.8153 24.4946L33.2191 23.2119C33.4559 22.9864 33.7532 22.9837 34.0162 23.2067Z" fill="#EF3340"/>
</svg>
