<svg width="323" height="313" viewBox="0 0 323 313" fill="none" xmlns="http://www.w3.org/2000/svg">
<mask id="mask0" mask-type="alpha" maskUnits="userSpaceOnUse" x="0" y="0" width="323" height="313">
<rect width="322.238" height="312.942" fill="#494F66"/>
</mask>
<g mask="url(#mask0)">
<path d="M6.97126 267.804C3.09418 267.804 -0.00748825 264.703 -0.00748825 260.826V211.664C-0.00748825 207.787 3.09418 204.686 6.97126 204.686H56.1327C60.0097 204.686 63.1114 207.787 63.1114 211.664V260.826C63.1114 264.703 60.0097 267.804 56.1327 267.804H6.97126Z" fill="#F7F7FA"/>
<path d="M56.1326 205.149C59.6995 205.149 62.6461 208.096 62.6461 211.663V260.824C62.6461 264.391 59.6995 267.338 56.1326 267.338H6.97122C3.4043 267.338 0.457718 264.391 0.457718 260.824V211.663C0.457718 208.096 3.4043 205.149 6.97122 205.149H56.1326ZM56.1326 204.219H6.97122C2.93905 204.219 -0.472782 207.476 -0.472782 211.663V260.824C-0.472782 264.856 2.78397 268.268 6.97122 268.268H56.1326C60.1648 268.268 63.5766 265.011 63.5766 260.824V211.663C63.5766 207.631 60.1648 204.219 56.1326 204.219Z" fill="#BFC6F2"/>
<path d="M50.2401 249.659H28.6835C28.0631 249.659 27.5979 249.194 27.5979 248.574C27.5979 247.954 28.0631 247.488 28.6835 247.488H50.2401C50.8604 247.488 51.3256 247.954 51.3256 248.574C51.3256 249.194 50.8604 249.659 50.2401 249.659Z" fill="#E1E4F4"/>
<path d="M50.2401 258.189H28.6835C28.0631 258.189 27.5979 257.723 27.5979 257.103C27.5979 256.483 28.0631 256.018 28.6835 256.018H50.2401C50.8604 256.018 51.3256 256.483 51.3256 257.103C51.3256 257.723 50.8604 258.189 50.2401 258.189Z" fill="#E1E4F4"/>
<path d="M23.2553 250.277C24.1975 250.277 24.9612 249.513 24.9612 248.571C24.9612 247.629 24.1975 246.865 23.2553 246.865C22.3132 246.865 21.5494 247.629 21.5494 248.571C21.5494 249.513 22.3132 250.277 23.2553 250.277Z" fill="#F97A7A"/>
<path d="M23.2553 258.963C24.1975 258.963 24.9612 258.199 24.9612 257.257C24.9612 256.315 24.1975 255.551 23.2553 255.551C22.3132 255.551 21.5494 256.315 21.5494 257.257C21.5494 258.199 22.3132 258.963 23.2553 258.963Z" fill="#F97A7A"/>
<path d="M33.3355 238.026L15.656 242.679C13.3297 243.299 10.8484 241.903 10.2281 239.577L5.57557 221.898C4.95523 219.571 6.35098 217.09 8.67723 216.47L26.3567 211.817C28.683 211.197 31.1643 212.593 31.7846 214.919L36.4371 232.598C37.2126 234.925 35.8168 237.251 33.3355 238.026Z" fill="#E1E4F4"/>
<path d="M21.2388 238.494C25.607 238.494 29.148 236.272 29.148 233.531C29.148 230.79 25.607 228.568 21.2388 228.568C16.8706 228.568 13.3296 230.79 13.3296 233.531C13.3296 236.272 16.8706 238.494 21.2388 238.494Z" fill="#F97A7A"/>
<path d="M17.6717 220.037C17.6717 220.037 15.5005 222.518 13.7946 226.86C12.0887 231.358 13.7946 234.925 13.7946 234.925L21.3937 238.492V218.951L17.6717 220.037Z" fill="#F97A7A"/>
<path d="M24.8055 220.036C24.8055 220.036 26.9767 222.517 28.8377 227.015C30.5436 231.512 28.8377 235.079 28.8377 235.079L21.2386 238.646V219.105L24.8055 220.036Z" fill="#F97A7A"/>
<path d="M21.2391 222.209C19.223 222.209 17.6721 221.123 17.6721 219.727C17.6721 218.332 19.223 217.246 21.2391 217.246C23.2551 217.246 24.806 218.332 24.806 219.727C24.806 221.123 23.2551 222.209 21.2391 222.209ZM21.2391 218.642C19.9984 218.642 19.0679 219.262 19.0679 219.727C19.0679 220.193 19.9984 220.813 21.2391 220.813C22.4797 220.813 23.4102 220.193 23.4102 219.727C23.4102 219.262 22.4797 218.642 21.2391 218.642Z" fill="#57617F"/>
<path d="M16.5861 213.059C16.5861 213.059 17.2064 217.091 18.7573 219.727C18.7573 219.727 19.5327 220.968 21.2386 220.968C23.0996 220.968 23.875 219.727 23.875 219.727C23.875 219.727 25.5809 216.936 25.5809 214.454L16.5861 213.059Z" fill="#F97A7A"/>
<path d="M19.9977 211.506C18.602 210.731 15.5003 212.747 16.8961 213.523C18.2918 214.298 16.5859 215.228 18.2918 216.159C19.9977 217.089 20.3079 217.089 21.8587 216.159C23.4096 215.228 24.185 215.849 25.2706 215.073C26.3562 214.298 25.8909 213.057 23.4096 211.662C22.1689 210.886 21.2384 212.282 19.9977 211.506Z" fill="#EF3F54"/>
<path d="M20.1532 225.62C20.3083 225.775 20.4633 226.086 20.6184 226.241L20.4633 226.706C20.4633 226.706 20.4633 226.861 20.3083 226.861C20.3083 226.861 20.3083 226.861 20.1532 226.861C20.1532 226.861 20.1532 226.861 19.9981 226.706L19.843 226.551L19.6879 226.396C19.6879 226.396 19.5328 226.241 19.3778 226.241L19.2227 228.412C19.3778 228.567 19.5328 228.722 19.6879 228.877C19.843 229.032 19.9981 229.187 20.1532 229.342C20.3083 229.497 20.3083 229.808 20.4633 229.963C20.4633 230.273 20.6184 230.428 20.6184 230.893C20.6184 231.203 20.6184 231.514 20.4633 231.824C20.3083 232.134 20.3083 232.289 20.1532 232.444C19.9981 232.599 19.843 232.754 19.6879 232.754C19.5328 232.754 19.2227 232.754 18.9125 232.754V233.53C18.9125 233.685 18.9125 233.685 18.9125 233.685H18.7574L18.4473 233.53L18.6023 232.444C18.2922 232.289 18.1371 232.134 17.8269 231.824C17.5168 231.514 17.3617 231.358 17.2066 231.048L17.5168 230.583C17.5168 230.583 17.5168 230.583 17.6718 230.428H17.8269C17.8269 230.428 17.982 230.428 17.982 230.583C17.982 230.583 18.1371 230.738 18.1371 230.893C18.1371 231.048 18.2922 231.048 18.4473 231.203C18.6023 231.358 18.6023 231.358 18.7574 231.514L18.9125 229.187C18.7574 229.032 18.6023 228.877 18.4473 228.722C18.2922 228.567 18.1371 228.412 17.982 228.257C17.8269 228.102 17.8269 227.792 17.6718 227.636C17.6718 227.326 17.5168 227.016 17.5168 226.706C17.5168 226.396 17.5168 226.241 17.6718 225.931C17.8269 225.775 17.8269 225.465 17.982 225.31C18.1371 225.155 18.2922 225 18.4473 225C18.6023 225 18.9125 225 19.0676 225V224.38C19.0676 224.225 19.0676 224.225 19.2227 224.225H19.3778L19.6879 224.38L19.5328 225.31C19.843 225.155 19.9981 225.465 20.1532 225.62ZM18.1371 226.706C18.1371 226.861 18.1371 227.016 18.1371 227.016C18.1371 227.171 18.1371 227.171 18.2922 227.326C18.2922 227.481 18.4473 227.481 18.4473 227.636C18.4473 227.792 18.6023 227.792 18.7574 227.947L18.9125 226.086C18.7574 226.086 18.6023 226.086 18.6023 226.086C18.4473 226.086 18.4473 226.086 18.2922 226.241C18.2922 226.241 18.1371 226.396 18.1371 226.551C18.1371 226.396 18.1371 226.551 18.1371 226.706ZM19.6879 230.583C19.6879 230.428 19.6879 230.273 19.6879 230.273C19.6879 230.118 19.6879 230.118 19.5328 229.963C19.5328 229.808 19.3778 229.808 19.3778 229.653C19.3778 229.497 19.2227 229.497 19.0676 229.342L18.9125 231.358C19.2227 231.358 19.3778 231.358 19.5328 231.203C19.6879 231.203 19.6879 230.893 19.6879 230.583Z" fill="#FDFDFD"/>
<path d="M33.49 234.149C34.6891 234.149 35.6612 233.524 35.6612 232.753C35.6612 231.982 34.6891 231.357 33.49 231.357C32.2909 231.357 31.3189 231.982 31.3189 232.753C31.3189 233.524 32.2909 234.149 33.49 234.149Z" fill="#FFB75E"/>
<path d="M35.6611 231.979H31.3187V232.909H35.6611V231.979Z" fill="#FFB75E"/>
<path d="M33.4899 233.374C34.689 233.374 35.6611 232.749 35.6611 231.978C35.6611 231.207 34.689 230.582 33.4899 230.582C32.2908 230.582 31.3187 231.207 31.3187 231.978C31.3187 232.749 32.2908 233.374 33.4899 233.374Z" fill="#FFD385"/>
<path d="M33.49 232.752C34.6891 232.752 35.6612 232.128 35.6612 231.357C35.6612 230.586 34.6891 229.961 33.49 229.961C32.2909 229.961 31.3189 230.586 31.3189 231.357C31.3189 232.128 32.2909 232.752 33.49 232.752Z" fill="#FFB75E"/>
<path d="M35.6611 230.582H31.3187V231.513H35.6611V230.582Z" fill="#FFB75E"/>
<path d="M33.4904 231.979C34.6895 231.979 35.6616 231.354 35.6616 230.583C35.6616 229.812 34.6895 229.188 33.4904 229.188C32.2913 229.188 31.3193 229.812 31.3193 230.583C31.3193 231.354 32.2913 231.979 33.4904 231.979Z" fill="#FFD385"/>
<path d="M33.49 231.36C34.6891 231.36 35.6612 230.735 35.6612 229.964C35.6612 229.193 34.6891 228.568 33.49 228.568C32.2909 228.568 31.3189 229.193 31.3189 229.964C31.3189 230.735 32.2909 231.36 33.49 231.36Z" fill="#FFB75E"/>
<path d="M35.6616 229.188H31.3193V230.118H35.6616V229.188Z" fill="#FFB75E"/>
<path d="M33.49 230.583C34.6891 230.583 35.6612 229.958 35.6612 229.187C35.6612 228.416 34.6891 227.791 33.49 227.791C32.2909 227.791 31.3189 228.416 31.3189 229.187C31.3189 229.958 32.2909 230.583 33.49 230.583Z" fill="#FFD385"/>
<path d="M33.49 229.963C34.6891 229.963 35.6612 229.338 35.6612 228.568C35.6612 227.797 34.6891 227.172 33.49 227.172C32.2909 227.172 31.3189 227.797 31.3189 228.568C31.3189 229.338 32.2909 229.963 33.49 229.963Z" fill="#FFB75E"/>
<path d="M35.6612 227.791H31.3189V228.722H35.6612V227.791Z" fill="#FFB75E"/>
<path d="M33.49 229.186C34.6891 229.186 35.6612 228.561 35.6612 227.79C35.6612 227.019 34.6891 226.395 33.49 226.395C32.2909 226.395 31.3189 227.019 31.3189 227.79C31.3189 228.561 32.2909 229.186 33.49 229.186Z" fill="#FFD385"/>
<path d="M33.49 228.721C34.6891 228.721 35.6612 228.096 35.6612 227.325C35.6612 226.555 34.6891 225.93 33.49 225.93C32.2909 225.93 31.3189 226.555 31.3189 227.325C31.3189 228.096 32.2909 228.721 33.49 228.721Z" fill="#FFB75E"/>
<path d="M35.6612 226.395H31.3189V227.325H35.6612V226.395Z" fill="#FFB75E"/>
<path d="M33.49 227.791C34.6891 227.791 35.6612 227.167 35.6612 226.396C35.6612 225.625 34.6891 225 33.49 225C32.2909 225 31.3189 225.625 31.3189 226.396C31.3189 227.167 32.2909 227.791 33.49 227.791Z" fill="#FFD385"/>
<path d="M28.5279 238.338C29.727 238.338 30.6991 237.713 30.6991 236.943C30.6991 236.172 29.727 235.547 28.5279 235.547C27.3288 235.547 26.3568 236.172 26.3568 236.943C26.3568 237.713 27.3288 238.338 28.5279 238.338Z" fill="#FFB75E"/>
<path d="M30.5438 236.01H26.2014V236.94H30.5438V236.01Z" fill="#FFB75E"/>
<path d="M28.5276 237.405C29.7267 237.405 30.6987 236.78 30.6987 236.009C30.6987 235.238 29.7267 234.613 28.5276 234.613C27.3285 234.613 26.3564 235.238 26.3564 236.009C26.3564 236.78 27.3285 237.405 28.5276 237.405Z" fill="#FFD385"/>
<path d="M28.5276 236.94C29.7267 236.94 30.6987 236.315 30.6987 235.544C30.6987 234.773 29.7267 234.148 28.5276 234.148C27.3285 234.148 26.3564 234.773 26.3564 235.544C26.3564 236.315 27.3285 236.94 28.5276 236.94Z" fill="#FFB75E"/>
<path d="M30.5438 234.613H26.2014V235.544H30.5438V234.613Z" fill="#FFB75E"/>
<path d="M28.5276 236.012C29.7267 236.012 30.6987 235.387 30.6987 234.616C30.6987 233.846 29.7267 233.221 28.5276 233.221C27.3285 233.221 26.3564 233.846 26.3564 234.616C26.3564 235.387 27.3285 236.012 28.5276 236.012Z" fill="#FFD385"/>
<path d="M28.5276 235.545C29.7267 235.545 30.6987 234.92 30.6987 234.15C30.6987 233.379 29.7267 232.754 28.5276 232.754C27.3285 232.754 26.3564 233.379 26.3564 234.15C26.3564 234.92 27.3285 235.545 28.5276 235.545Z" fill="#FFB75E"/>
<path d="M30.5441 233.221H26.2018V234.151H30.5441V233.221Z" fill="#FFB75E"/>
<path d="M28.5276 234.616C29.7267 234.616 30.6987 233.991 30.6987 233.22C30.6987 232.449 29.7267 231.824 28.5276 231.824C27.3285 231.824 26.3564 232.449 26.3564 233.22C26.3564 233.991 27.3285 234.616 28.5276 234.616Z" fill="#FFD385"/>
<path d="M28.5276 234.149C29.7267 234.149 30.6987 233.524 30.6987 232.753C30.6987 231.982 29.7267 231.357 28.5276 231.357C27.3285 231.357 26.3564 231.982 26.3564 232.753C26.3564 233.524 27.3285 234.149 28.5276 234.149Z" fill="#FFB75E"/>
<path d="M30.5441 231.824H26.2018V232.755H30.5441V231.824Z" fill="#FFB75E"/>
<path d="M28.5276 233.217C29.7267 233.217 30.6987 232.592 30.6987 231.822C30.6987 231.051 29.7267 230.426 28.5276 230.426C27.3285 230.426 26.3564 231.051 26.3564 231.822C26.3564 232.592 27.3285 233.217 28.5276 233.217Z" fill="#FFD385"/>
<path d="M130.263 92.0955C126.386 92.0955 123.129 88.8388 123.129 84.9617V33.7842C123.129 29.9071 126.386 26.6504 130.263 26.6504H181.285C185.162 26.6504 188.419 29.9071 188.419 33.7842V84.8066C188.419 88.6837 185.162 91.9405 181.285 91.9405H130.263V92.0955Z" fill="#F7F7FA"/>
<path d="M181.285 27.1141C185.007 27.1141 187.953 30.0607 187.953 33.7827V84.8051C187.953 88.5271 185.007 91.4737 181.285 91.4737H130.262C126.54 91.4737 123.594 88.5271 123.594 84.8051V33.7827C123.594 30.0607 126.54 27.1141 130.262 27.1141H181.285ZM181.285 26.1836H130.262C126.075 26.1836 122.663 29.5954 122.663 33.7827V84.8051C122.663 88.9923 126.075 92.4042 130.262 92.4042H181.285C185.472 92.4042 188.884 88.9923 188.884 84.8051V33.7827C188.884 29.5954 185.472 26.1836 181.285 26.1836Z" fill="#BFC6F2"/>
<path d="M175.236 73.3274H152.904C152.284 73.3274 151.819 72.8622 151.819 72.2418C151.819 71.6215 152.284 71.1562 152.904 71.1562H175.236C175.857 71.1562 176.322 71.6215 176.322 72.2418C176.322 72.8622 175.857 73.3274 175.236 73.3274Z" fill="#E1E4F4"/>
<path d="M175.236 82.1692H152.904C152.284 82.1692 151.819 81.704 151.819 81.0836C151.819 80.4633 152.284 79.998 152.904 79.998H175.236C175.857 79.998 176.322 80.4633 176.322 81.0836C176.322 81.704 175.857 82.1692 175.236 82.1692Z" fill="#E1E4F4"/>
<path d="M147.167 73.9489C148.109 73.9489 148.873 73.1852 148.873 72.243C148.873 71.3009 148.109 70.5371 147.167 70.5371C146.225 70.5371 145.461 71.3009 145.461 72.243C145.461 73.1852 146.225 73.9489 147.167 73.9489Z" fill="#F97A7A"/>
<path d="M147.167 82.7907C148.109 82.7907 148.873 82.027 148.873 81.0848C148.873 80.1427 148.109 79.3789 147.167 79.3789C146.225 79.3789 145.461 80.1427 145.461 81.0848C145.461 82.027 146.225 82.7907 147.167 82.7907Z" fill="#F97A7A"/>
<path d="M157.556 61.2336L139.257 66.1962C136.775 66.8166 134.294 65.4208 133.674 62.9395L128.711 44.6397C128.091 42.1583 129.486 39.677 131.968 39.0567L150.423 34.094C152.904 33.4737 155.385 34.8694 156.006 37.3508L160.968 55.6506C161.589 57.9768 160.038 60.4582 157.556 61.2336Z" fill="#E1E4F4"/>
<path d="M151.198 65.4223L138.947 58.2884C138.637 58.1333 138.326 57.6681 138.481 57.2028L141.738 33.7853C141.893 33.0098 142.669 32.5446 143.444 33.0098L155.696 40.1437C156.161 40.2988 156.316 40.764 156.161 41.2293L152.904 64.6468C152.749 65.4223 151.819 65.7324 151.198 65.4223Z" fill="#BFC6F2"/>
<path d="M149.492 66.1976L137.241 59.0638C136.931 58.9087 136.62 58.4435 136.776 57.9782L140.032 34.5607C140.187 33.7852 140.963 33.32 141.738 33.7852L153.99 40.9191C154.455 41.0741 154.61 41.5394 154.455 42.0046L151.198 65.4222C151.043 66.1976 150.268 66.6629 149.492 66.1976Z" fill="#FDFDFD"/>
<path d="M154.455 42.1589C154.455 41.6937 154.3 41.2284 153.99 41.0734L141.738 33.9395C141.118 33.4743 140.187 33.9395 140.032 34.7149L139.412 39.2124L153.68 47.4318L154.455 42.1589Z" fill="#F97A7A"/>
<path d="M145.46 39.8341L145.615 39.0587L141.583 36.7324L141.428 37.5078" fill="#EF3F54"/>
<path d="M142.669 44.7956C142.669 45.2608 142.824 45.7261 143.134 45.8811L148.717 49.1379C149.027 49.293 149.492 49.1379 149.647 48.6726C149.647 48.2074 149.492 47.7421 149.182 47.5871L143.599 44.3303C143.134 44.1752 142.669 44.4854 142.669 44.7956Z" fill="#8698BF"/>
<path d="M141.273 48.0547L141.118 48.8301L149.647 53.7928L149.802 53.0174L141.273 48.0547Z" fill="#92DDDA"/>
<path d="M141.117 49.6055L140.962 50.3809L149.492 55.3436L149.647 54.5681L141.117 49.6055Z" fill="#92DDDA"/>
<path d="M140.808 51.1562L140.652 51.9317L149.182 56.8943L149.337 56.1189L140.808 51.1562Z" fill="#92DDDA"/>
<path d="M140.187 57.668L140.032 58.4434L144.374 60.9247L144.529 60.1493L140.187 57.668Z" fill="#92DDDA"/>
<path d="M146.7 63.2519C145.615 62.6316 145.15 61.546 145.305 60.3054V60.1503C145.46 58.7545 147.011 57.9791 148.251 58.7545C149.337 59.3749 149.802 60.4604 149.647 61.7011V61.8562C149.492 63.0969 147.941 63.8723 146.7 63.2519Z" fill="#5DC6B5"/>
<path d="M148.872 60.6141L147.166 62.4751L146.391 61.2344V61.0794C146.391 60.7692 146.856 60.7692 147.011 60.9243L147.321 61.5446L148.562 60.3039C148.562 59.9938 148.872 60.1489 148.872 60.6141C148.872 60.459 148.872 60.6141 148.872 60.6141Z" fill="#FDFDFD"/>
<path d="M26.3565 88.3728C22.4794 88.3728 19.3778 85.2711 19.3778 81.3941V32.2327C19.3778 28.3556 22.4794 25.2539 26.3565 25.2539H75.5179C79.395 25.2539 82.4967 28.3556 82.4967 32.2327V81.3941C82.4967 85.2711 79.395 88.3728 75.5179 88.3728H26.3565Z" fill="#F7F7FA"/>
<path d="M75.673 25.7176C79.2399 25.7176 82.1865 28.6642 82.1865 32.2311V81.3925C82.1865 84.9594 79.2399 87.906 75.673 87.906H26.3565C22.7896 87.906 19.843 84.9594 19.843 81.3925V32.2311C19.843 28.6642 22.7896 25.7176 26.3565 25.7176H75.673ZM75.673 24.7871H26.3565C22.3243 24.7871 18.9125 28.0439 18.9125 32.2311V81.3925C18.9125 85.4247 22.1692 88.8365 26.3565 88.8365H75.5179C79.5501 88.8365 82.9619 85.5798 82.9619 81.3925V32.2311C82.9619 28.0439 79.7051 24.7871 75.673 24.7871Z" fill="#BFC6F2"/>
<path d="M69.7803 70.2278H48.2237C47.6034 70.2278 47.1382 69.7626 47.1382 69.1422C47.1382 68.5219 47.6034 68.0566 48.2237 68.0566H69.7803C70.4006 68.0566 70.8659 68.5219 70.8659 69.1422C70.8659 69.7626 70.4006 70.2278 69.7803 70.2278Z" fill="#E1E4F4"/>
<path d="M69.7803 78.7571H48.2237C47.6034 78.7571 47.1382 78.2918 47.1382 77.6715C47.1382 77.0512 47.6034 76.5859 48.2237 76.5859H69.7803C70.4006 76.5859 70.8659 77.0512 70.8659 77.6715C70.8659 78.2918 70.4006 78.7571 69.7803 78.7571Z" fill="#E1E4F4"/>
<path d="M42.6406 70.8474C43.5828 70.8474 44.3465 70.0836 44.3465 69.1415C44.3465 68.1993 43.5828 67.4355 42.6406 67.4355C41.6985 67.4355 40.9347 68.1993 40.9347 69.1415C40.9347 70.0836 41.6985 70.8474 42.6406 70.8474Z" fill="#F97A7A"/>
<path d="M42.6406 79.531C43.5828 79.531 44.3465 78.7672 44.3465 77.8251C44.3465 76.8829 43.5828 76.1191 42.6406 76.1191C41.6985 76.1191 40.9347 76.8829 40.9347 77.8251C40.9347 78.7672 41.6985 79.531 42.6406 79.531Z" fill="#F97A7A"/>
<path d="M52.7212 59.2158L35.0417 64.0234C32.7155 64.6437 30.2341 63.248 29.6138 60.9217L24.8062 43.2422C24.1859 40.916 25.5816 38.4347 27.9079 37.8143L45.5874 33.0067C47.9136 32.3864 50.3949 33.7822 51.0153 36.1084L55.8229 53.7879C56.5983 56.1142 55.0474 58.5955 52.7212 59.2158Z" fill="#E1E4F4"/>
<path d="M43.1054 53.0136C46.6171 53.0136 49.4639 51.2083 49.4639 48.9814C49.4639 46.7545 46.6171 44.9492 43.1054 44.9492C39.5938 44.9492 36.747 46.7545 36.747 48.9814C36.747 51.2083 39.5938 53.0136 43.1054 53.0136Z" fill="#92DDDA"/>
<path d="M49.4639 35.6445H36.747V49.2919H49.4639V35.6445Z" fill="#92DDDA"/>
<path d="M43.1058 39.6737C46.6175 39.6737 49.4642 37.8684 49.4642 35.6415C49.4642 33.4146 46.6175 31.6094 43.1058 31.6094C39.5942 31.6094 36.7474 33.4146 36.7474 35.6415C36.7474 37.8684 39.5942 39.6737 43.1058 39.6737Z" fill="#5DC6B5"/>
<path d="M43.1058 35.4888C44.3906 35.4888 45.4321 34.8639 45.4321 34.093C45.4321 33.3222 44.3906 32.6973 43.1058 32.6973C41.8211 32.6973 40.7796 33.3222 40.7796 34.093C40.7796 34.8639 41.8211 35.4888 43.1058 35.4888Z" fill="#2B2E3A"/>
<path d="M45.432 31.9199H40.9346V34.0911H45.432V31.9199Z" fill="#2B2E3A"/>
<path d="M43.1058 33.3169C44.3906 33.3169 45.4321 32.692 45.4321 31.9211C45.4321 31.1503 44.3906 30.5254 43.1058 30.5254C41.8211 30.5254 40.7796 31.1503 40.7796 31.9211C40.7796 32.692 41.8211 33.3169 43.1058 33.3169Z" fill="#57617F"/>
<path d="M41.7097 42.1564C41.2444 42.1564 40.9343 42.0013 40.6241 41.8462C38.2979 41.2259 36.747 39.8301 36.747 38.2793V45.5682C36.747 46.1885 36.9021 46.6538 37.3674 47.2741C38.2979 48.6699 40.6241 49.6004 43.1054 49.6004V42.3115C42.6402 42.3115 42.1749 42.1564 41.7097 42.1564Z" fill="#FDFDFD"/>
<path d="M37.9876 41.6895V46.342C38.4529 46.8072 39.0732 47.1174 39.8486 47.4275V42.775C39.0732 42.4649 38.4529 42.1547 37.9876 41.6895Z" fill="#EF3F54"/>
<path d="M36.7466 42.1543V43.8602C37.6771 45.1009 39.0729 46.0314 40.9339 46.4966V44.9458C39.0729 44.3255 37.6771 43.395 36.7466 42.1543Z" fill="#EF3F54"/>
<path d="M31.164 50.5308C32.4047 49.7554 33.9555 49.7554 35.1962 50.5308L43.8808 55.4934C44.8113 56.1138 44.8113 57.5095 43.8808 58.1299H43.7258C42.4851 58.7502 41.0893 58.7502 39.8487 58.1299L31.164 53.1672C30.0784 52.5469 30.0784 50.996 31.164 50.5308Z" fill="#BFC6F2"/>
<path d="M33.9556 54.2563L37.5225 52.2402L40.9343 54.2563L37.5225 56.2724L33.9556 54.2563Z" fill="#8698BF"/>
<path d="M37.3673 52.5489L40.1588 54.2548L37.5224 55.8056L34.5758 54.2548L37.3673 52.5489ZM37.3673 51.7734L33.18 54.2548L37.5224 56.7361L41.7096 54.2548L37.3673 51.7734Z" fill="#BFC6F2"/>
<path d="M33.4902 59.9897C34.5758 61.2304 36.2817 61.6956 37.8326 61.3854L49.6189 58.4389C50.3943 58.2838 50.7045 57.3533 50.0841 56.7329C48.9986 55.4923 47.2926 55.027 45.7418 55.3372L33.9555 58.2838C33.1801 58.4389 32.8699 59.3694 33.4902 59.9897Z" fill="#F97A7A"/>
<path d="M38.4529 57.5114L43.1054 56.4258L45.4316 59.0622L40.7791 60.1478L38.4529 57.5114Z" fill="#FDFDFD"/>
<path d="M42.9501 56.7344L44.8111 58.7505L40.934 59.681L39.073 57.6649L42.9501 56.7344ZM43.1052 55.959L37.8324 57.3547L40.6238 60.6115L46.0518 59.2157L43.1052 55.959Z" fill="#F97A7A"/>
<path d="M66.8336 171.187C62.9565 171.187 59.6998 167.93 59.6998 164.053V113.341C59.6998 109.464 62.9565 106.207 66.8336 106.207H117.546C121.423 106.207 124.68 109.464 124.68 113.341V164.053C124.68 167.93 121.423 171.187 117.546 171.187H66.8336Z" fill="#F7F7FA"/>
<path d="M117.546 106.671C121.268 106.671 124.214 109.617 124.214 113.339V164.052C124.214 167.774 121.268 170.72 117.546 170.72H66.8334C63.1114 170.72 60.1648 167.774 60.1648 164.052V113.339C60.1648 109.617 63.1114 106.671 66.8334 106.671H117.546ZM117.546 105.74H66.8334C62.6462 105.74 59.2343 109.152 59.2343 113.339V164.052C59.2343 168.239 62.6462 171.651 66.8334 171.651H117.546C121.733 171.651 125.145 168.239 125.145 164.052V113.339C125.145 109.152 121.733 105.74 117.546 105.74Z" fill="#BFC6F2"/>
<path d="M111.653 152.577H89.321C88.7006 152.577 88.2354 152.112 88.2354 151.492C88.2354 150.871 88.7006 150.406 89.321 150.406H111.498C112.118 150.406 112.583 150.871 112.583 151.492C112.583 152.112 112.118 152.577 111.653 152.577Z" fill="#E1E4F4"/>
<path d="M111.653 161.415H89.321C88.7006 161.415 88.2354 160.95 88.2354 160.33C88.2354 159.709 88.7006 159.244 89.321 159.244H111.498C112.118 159.244 112.583 159.709 112.583 160.33C112.583 160.95 112.118 161.415 111.653 161.415Z" fill="#E1E4F4"/>
<path d="M83.7382 153.197C84.6804 153.197 85.4442 152.433 85.4442 151.491C85.4442 150.549 84.6804 149.785 83.7382 149.785C82.7961 149.785 82.0323 150.549 82.0323 151.491C82.0323 152.433 82.7961 153.197 83.7382 153.197Z" fill="#F97A7A"/>
<path d="M83.7382 162.035C84.6804 162.035 85.4442 161.271 85.4442 160.329C85.4442 159.387 84.6804 158.623 83.7382 158.623C82.7961 158.623 82.0323 159.387 82.0323 160.329C82.0323 161.271 82.7961 162.035 83.7382 162.035Z" fill="#F97A7A"/>
<path d="M94.1282 140.48L75.9835 145.288C73.5021 145.908 71.0208 144.512 70.4005 142.031L65.5929 124.041C64.9726 121.56 66.3683 119.079 68.8496 118.458L86.9944 113.651C89.4757 113.03 91.957 114.426 92.5774 116.907L97.385 134.897C98.0053 137.378 96.6095 139.86 94.1282 140.48Z" fill="#E1E4F4"/>
<path d="M75.2079 126.21C75.2079 126.21 74.1223 125.124 74.1223 124.659C74.1223 124.194 74.2774 123.729 74.5876 123.729C74.8977 123.729 75.363 124.194 75.363 124.504C75.363 124.659 75.2079 125.279 75.363 125.434C75.5181 125.59 75.8282 126.21 75.2079 126.21Z" fill="#57617F"/>
<path d="M69.0052 132.879L70.401 137.066L83.5831 133.809L90.872 124.504L88.7008 117.37L88.3906 116.905C88.0805 116.44 87.4601 116.285 86.9949 116.595L78.6204 121.403C78.0001 121.868 77.3797 122.333 76.7594 122.953L73.5026 126.675C73.3476 126.986 73.0374 127.141 72.7272 127.296L70.0908 129.312C69.3154 129.932 68.8501 130.863 68.8501 131.948L69.0052 132.879Z" fill="#F97A7A"/>
<path d="M69.3149 130.555C69.3149 130.71 69.0047 131.64 68.6945 132.726C68.2293 133.191 68.0742 133.811 68.0742 134.122V136.448C68.0742 137.068 68.3844 137.844 69.0047 138.154C70.7106 139.239 72.5716 140.17 72.5716 140.17C73.6572 140.79 74.7428 141.1 75.9834 141.1H76.914L77.8444 135.672L69.3149 130.555Z" fill="#57617F"/>
<path d="M68.5395 133.811L68.8496 133.656C68.8496 132.881 69.1598 132.106 69.1598 132.106L70.2454 131.175L69.3149 130.555C69.3149 130.71 69.0047 131.64 68.6945 132.726C68.2293 133.191 68.0742 133.811 68.0742 134.122V134.897C68.0742 135.517 68.0742 135.983 68.0742 136.448C68.0742 136.448 68.2293 136.448 68.3844 136.293C68.3844 135.207 68.5395 133.811 68.5395 133.811Z" fill="#EF3F54"/>
<path d="M73.5019 126.986L82.962 132.414L78.4646 135.051C77.9993 135.361 77.5341 135.516 77.0688 135.516L75.2078 135.671C74.5875 135.826 73.8121 135.671 73.1917 135.206L69.935 133.345C69.3147 133.035 69.0045 132.414 69.0045 131.794V131.329C69.0045 130.708 69.3147 130.088 69.7799 129.778L73.5019 126.986Z" fill="#F97A7A"/>
<path d="M78.7754 121.715C78.7754 121.715 78.6203 123.111 80.7914 124.506C82.9626 125.747 85.1338 126.212 85.1338 126.212L95.6794 120.784L88.5456 116.752C88.0804 116.442 87.6151 116.442 87.1499 116.752L79.2406 121.25L78.7754 121.715Z" fill="#F97A7A"/>
<path d="M78.6194 134.893L80.9456 133.653C82.1863 132.877 83.1168 131.792 83.582 130.396L84.9778 126.209L94.2828 120.781C94.748 120.47 95.5234 120.47 95.9887 120.936L96.609 121.556C97.5395 122.331 98.1598 123.572 98.1598 124.813V127.759C98.1598 128.845 97.5395 129.931 96.609 130.396L79.86 140.166C78.9295 140.631 77.999 140.941 76.9134 140.941H75.9829C74.8974 140.941 74.1219 140.166 74.1219 139.08V137.685C74.1219 136.599 74.8974 135.824 75.9829 135.669L76.9134 135.514C77.5338 135.514 78.1541 135.203 78.6194 134.893Z" fill="#EF3F54"/>
<path d="M85.1336 131.019L95.5242 124.35C95.8343 124.195 95.8343 123.885 95.5242 123.575L93.9733 122.179C93.8182 122.024 93.6632 122.024 93.353 122.179L86.8395 125.901C86.0641 126.366 85.5988 126.986 85.2887 127.917L84.5132 130.708C84.5132 131.019 84.8234 131.174 85.1336 131.019Z" fill="#FFB75E"/>
<path d="M74.1224 126.676L77.2241 122.954C77.3792 122.799 77.6893 122.799 77.8444 122.954C78.3097 123.419 79.3953 124.195 80.4808 124.815C81.5664 125.436 83.1173 126.056 83.8927 126.366C84.2028 126.521 84.2028 126.676 84.2028 126.986L82.4969 131.329C82.3418 131.639 81.8766 131.949 81.5664 131.794C80.3258 131.329 77.8444 130.243 76.4487 129.468C75.3631 128.847 74.5877 128.072 74.1224 127.607C73.9673 127.452 73.9673 126.986 74.1224 126.676Z" fill="#FDFDFD"/>
<path d="M75.6733 137.533C75.053 137.843 74.8979 138.153 74.8979 138.774V140.635L73.3471 139.859L74.1225 137.533L77.2241 136.447C77.2241 136.447 77.0691 136.757 75.6733 137.533Z" fill="#57617F"/>
<path d="M68.8499 131.949C68.8499 131.949 68.2295 134.12 68.8499 134.431L73.9676 137.687C73.9676 137.687 74.743 137.842 76.449 137.532C76.604 137.532 77.2244 137.067 78.1549 136.292C78.31 136.292 78.1549 136.136 77.9998 136.136C77.0693 136.447 75.5185 136.912 74.1227 136.757C72.727 135.981 68.8499 133.655 68.8499 133.655C68.8499 133.655 68.6948 132.88 68.8499 131.949Z" fill="#FFB75E"/>
<path d="M68.8491 133.654L74.122 136.756C74.122 136.756 73.9669 138.307 73.3465 137.997C72.7262 137.686 69.4695 135.67 69.0042 135.515C68.6941 135.205 68.8491 133.654 68.8491 133.654Z" fill="#2B2E3A"/>
<path d="M84.0476 137.686V135.67L83.5824 135.205H82.0316L80.7909 135.98L79.3951 137.997L78.7748 140.168L78.9299 140.478C78.9299 140.478 79.5502 140.323 80.1706 139.858C80.4807 139.702 84.0476 137.686 84.0476 137.686Z" fill="#2B2E3A"/>
<path d="M81.5668 135.672C81.2567 135.672 81.1016 135.672 80.9465 135.827C79.8609 136.447 79.0855 137.688 79.0855 139.239C79.0855 140.014 79.7058 140.479 80.3262 140.479C80.6363 140.479 80.7914 140.479 80.9465 140.324C82.0321 139.704 82.8075 138.463 82.8075 136.913C82.8075 136.292 82.3422 135.672 81.5668 135.672Z" fill="#2B2E3A"/>
<path d="M79.7054 140.324L80.6359 140.944L83.1172 136.447L82.1867 135.826L79.7054 140.324Z" fill="#2B2E3A"/>
<path d="M97.6947 129.311V129.621L95.9888 130.862L94.7481 131.792L92.5769 133.033L93.6625 129.466L95.6786 127.605C95.6786 127.605 96.9193 127.45 96.9193 127.295L97.6947 127.76L97.8498 128.536L97.6947 129.311Z" fill="#2B2E3A"/>
<path d="M95.369 127.916C95.0588 127.916 94.9037 127.916 94.7487 128.071C93.6631 128.691 92.8877 129.932 92.8877 131.483C92.8877 132.258 93.508 132.724 94.1283 132.724C94.4385 132.724 94.5936 132.724 94.7487 132.569C95.8342 131.948 96.6097 130.708 96.6097 129.157C96.6097 128.381 96.1444 127.916 95.369 127.916Z" fill="#2B2E3A"/>
<path d="M93.3522 132.415L94.4378 133.035L96.9191 128.538L95.9886 128.072L93.3522 132.415Z" fill="#2B2E3A"/>
<path d="M96.2996 128.381C95.9894 128.381 95.8344 128.381 95.6793 128.536C94.5937 129.156 93.8183 130.397 93.8183 131.948C93.8183 132.723 94.4386 133.188 95.0589 133.188C95.3691 133.188 95.5242 133.188 95.6793 133.033C96.7649 132.413 97.5403 131.172 97.5403 129.622C97.6954 129.001 97.075 128.381 96.2996 128.381Z" fill="#57617F"/>
<path d="M96.1443 128.848C95.9892 128.848 95.8342 128.848 95.6791 129.003C94.7486 129.468 94.1283 130.554 94.1283 131.639C94.1283 132.259 94.5935 132.725 95.2138 132.725C95.3689 132.725 95.524 132.725 95.6791 132.57C96.6096 132.104 97.2299 131.019 97.2299 129.933C97.2299 129.313 96.7647 128.848 96.1443 128.848Z" fill="#57617F"/>
<path d="M78.7751 140.632C78.7751 140.632 79.7056 136.29 82.1869 135.514C84.6683 134.739 83.5827 137.996 83.5827 137.996L84.3581 137.53C84.3581 137.53 84.8233 134.119 82.1869 134.894C78.7751 135.98 77.6895 140.787 77.6895 140.787C78.1548 140.942 78.4649 140.787 78.7751 140.632Z" fill="#F97A7A"/>
<path d="M96.1444 126.985C92.4224 128.226 91.647 133.343 91.647 133.343L92.5775 132.723C92.5775 132.723 93.508 128.381 95.9894 127.605C97.8504 126.985 97.6953 128.691 97.5402 129.621C97.8504 129.311 98.0054 128.846 98.1605 128.381C98.0054 127.45 97.5402 126.52 96.1444 126.985Z" fill="#F97A7A"/>
<path d="M82.4967 136.293C82.1866 136.293 82.0315 136.293 81.8764 136.448C80.7908 137.068 80.0154 138.309 80.0154 139.86C80.0154 140.635 80.6357 141.101 81.2561 141.101C81.5662 141.101 81.7213 141.101 81.8764 140.945C82.962 140.325 83.7374 139.084 83.7374 137.534C83.8925 136.913 83.2721 136.293 82.4967 136.293Z" fill="#57617F"/>
<path d="M82.4965 136.756C82.3414 136.756 82.1863 136.756 82.0312 136.911C81.1007 137.376 80.4804 138.462 80.4804 139.702C80.4804 140.323 80.9457 140.788 81.566 140.788C81.7211 140.788 81.8762 140.788 82.0312 140.633C82.9617 140.168 83.5821 139.082 83.5821 137.997C83.427 137.221 82.9617 136.756 82.4965 136.756Z" fill="#57617F"/>
<path d="M85.4433 130.09C85.1331 130.09 84.8229 130.4 84.8229 130.865C84.8229 131.331 84.978 131.331 85.1331 131.486C85.2882 131.486 86.5288 131.796 86.839 131.486C87.1492 131.175 86.9941 130.865 86.839 130.71C86.6839 130.555 85.7534 130.09 85.4433 130.09Z" fill="#57617F"/>
<path d="M84.5132 131.017C84.5132 131.173 84.9788 131.328 85.134 131.328C85.2892 131.328 85.134 130.707 84.9788 130.707C84.8236 130.707 84.5132 130.862 84.5132 131.017Z" fill="#57617F"/>
<path d="M68.6949 136.135L74.1228 139.236C74.4329 140.942 74.7431 140.787 74.7431 140.787C74.1228 140.632 73.3474 140.477 72.5719 140.012L69.005 137.996C68.6949 137.686 68.3847 137.531 68.2296 137.22C68.2296 136.91 68.6949 136.135 68.6949 136.135Z" fill="#2B2E3A"/>
<path d="M73.9678 127.605C73.5025 128.071 73.1924 128.536 72.8822 129.001L71.7966 130.242L70.8661 131.483C70.556 131.948 70.0907 132.413 69.7805 132.878C69.7805 132.258 70.2458 131.793 70.4009 131.327C70.7111 130.862 71.0212 130.397 71.3314 129.932C72.2619 129.001 72.8822 128.071 73.9678 127.605Z" fill="#EF3F54"/>
<path d="M73.8123 135.206C74.8979 134.431 76.1386 133.965 77.3792 133.345C78.6199 132.88 79.8606 132.259 81.1012 131.949C80.0157 132.725 78.775 133.345 77.5343 133.965C76.914 134.275 76.2937 134.431 75.6733 134.741C75.053 134.896 74.4327 135.051 73.8123 135.206Z" fill="#EF3F54"/>
<path d="M90.7162 128.694L90.5612 127.454L89.7857 123.887H90.7162V124.042L91.3366 127.299L91.6467 128.539L90.7162 128.694Z" fill="#EF3F54"/>
<path d="M98.1608 123.729C98.1608 123.729 98.0057 124.194 97.0752 124.659C97.0752 125.124 97.8506 125.434 98.1608 125.279C98.3159 125.279 98.3159 124.349 98.1608 123.729Z" fill="#FFB75E"/>
<path opacity="0.15" d="M270.923 291.998C313.571 292.618 299.923 273.698 294.961 262.532C285.966 242.681 313.416 209.494 312.02 197.087C311.244 190.418 304.576 187.472 291.394 187.317C279.297 187.162 269.527 267.34 255.414 268.89C240.681 270.596 226.104 273.543 211.371 274.008C158.642 275.559 95.2133 256.329 43.5706 277.885C33.9554 281.917 33.3351 291.378 44.8113 296.65C97.5396 320.688 88.3897 300.682 146.391 296.805C186.092 294.014 230.911 291.378 270.923 291.998Z" fill="#001177"/>
<path d="M294.806 175.219C294.806 175.219 282.399 151.646 267.046 153.352C251.693 155.058 224.398 192.743 224.398 192.743L241.612 209.182L294.806 175.219Z" fill="#BFC6F2"/>
<path d="M212.922 188.09L179.424 182.662L169.654 194.293L201.291 206.7L212.922 188.09Z" fill="#FAC2A8"/>
<path d="M69.6254 257.566L91.182 244.85V263.305L71.4864 268.577L69.6254 257.566Z" fill="#F7AB8D"/>
<path d="M173.221 234.461C173.221 234.461 132.899 222.674 126.851 225.776C124.37 227.017 75.6734 251.054 75.6734 251.054C75.6734 251.054 76.6039 256.637 82.0318 267.493C82.0318 267.493 112.118 258.809 117.701 254.776C117.701 254.776 119.717 254.932 120.958 254.621C122.043 254.311 123.749 252.295 123.749 252.295C138.792 247.798 158.023 267.183 173.376 266.718C173.376 266.718 196.793 251.365 198.965 243.61C200.826 236.477 178.339 231.669 178.339 231.669L173.221 234.461Z" fill="#BD1A3B"/>
<path d="M208.735 210.885L189.35 203.596C190.59 198.013 193.227 187.777 195.398 184.831C205.478 185.916 216.024 183.125 216.024 183.125L208.735 210.885Z" fill="#28AD8A"/>
<path d="M183.767 227.324L178.339 231.511C202.066 243.143 211.682 263.769 211.682 263.769L216.644 259.426C220.056 239.421 204.238 233.217 183.767 227.324Z" fill="#2B2E3A"/>
<path d="M214.628 262.531C205.478 234.46 184.077 233.375 178.959 230.428C180.82 228.877 188.574 221.744 193.227 214.3C200.671 202.048 202.532 194.759 206.564 186.074C210.596 184.369 221.142 181.732 227.5 181.732C231.532 181.267 236.96 180.802 240.372 182.352C245.49 189.021 247.816 191.813 250.297 198.791C249.367 224.69 236.65 239.423 214.628 262.531Z" fill="#28AD8A"/>
<path d="M213.232 227.637C213.232 227.637 224.708 243.921 229.051 245.627C233.393 247.333 238.046 247.333 239.441 245.627C240.837 243.921 238.976 236.787 236.34 233.065C233.703 229.343 217.885 220.193 217.885 220.193L213.232 227.637Z" fill="#FAC2A8"/>
<path d="M219.436 224.689C219.591 225.775 218.816 226.706 217.885 227.326C217.42 227.636 216.955 227.791 216.489 227.946C216.024 228.101 215.559 228.101 214.939 228.101C215.404 227.791 215.869 227.636 216.334 227.481C216.8 227.326 217.265 227.016 217.575 226.861C218.04 226.706 218.35 226.395 218.661 226.085C218.971 225.62 219.281 225.155 219.436 224.689Z" fill="#DC918B"/>
<path d="M232.308 215.073L225.639 238.026C225.639 238.026 238.666 246.555 239.442 245.78C241.768 238.956 247.971 222.982 250.453 211.041L232.308 215.073Z" fill="#FAC2A8"/>
<path d="M228.896 227.016C230.757 227.636 232.463 228.256 234.324 228.877C235.255 229.187 236.185 229.652 236.96 230.272C237.736 230.893 238.356 231.823 238.511 232.754C237.891 231.978 237.116 231.358 236.495 230.893C235.72 230.427 234.944 230.117 234.014 229.807C231.998 229.342 230.292 228.411 228.896 227.016Z" fill="#DC918B"/>
<path d="M245.8 228.719C240.682 226.238 233.238 221.43 226.879 221.585C229.981 214.607 231.997 207.783 233.238 203.286C235.409 194.911 249.211 195.066 249.211 195.997C249.211 195.997 252.468 201.89 252.003 205.922C251.383 212.28 249.211 220.655 245.8 228.719Z" fill="#28AD8A"/>
<path d="M245.8 228.724C244.249 228.104 242.698 227.483 240.992 226.863C239.441 226.243 237.891 225.467 236.34 224.847C233.238 223.606 229.981 222.521 226.88 222.521H225.484L226.104 221.28C228.741 215.387 230.912 209.494 233.238 203.445C233.083 204.996 232.618 206.702 232.308 208.253C231.997 209.804 231.532 211.355 231.067 212.905C230.136 216.007 229.051 219.109 227.655 222.055L226.88 220.815C228.741 220.815 230.447 221.125 232.152 221.59C233.858 222.21 235.409 222.831 236.96 223.606C238.511 224.382 240.062 225.312 241.457 226.087L245.8 228.724Z" fill="#2E7F6C"/>
<path d="M227.035 171.652L243.784 172.118L242.543 180.802C238.356 181.268 232.773 181.423 226.26 180.647L227.035 171.652Z" fill="#DC918B"/>
<path d="M226.26 180.49C232.773 181.266 238.511 181.111 242.543 180.645L241.768 185.763C241.768 185.763 234.944 191.191 223.158 189.795C217.42 185.143 226.104 182.196 226.104 182.196L226.26 180.49Z" fill="#FAC2A8"/>
<path d="M150.269 166.379C150.269 166.379 177.873 180.647 179.424 182.663C180.2 183.439 180.665 184.369 181.13 184.989C183.146 188.401 180.665 193.519 179.89 193.674C177.873 194.139 169.189 195.38 165.777 193.364C159.419 189.797 140.809 171.497 140.809 171.497C136.156 166.534 145.771 161.417 150.269 166.379Z" fill="#FAC2A8"/>
<path d="M223.467 181.886C223.467 181.886 214.162 185.608 221.141 189.951C229.826 195.379 244.714 187.78 244.714 187.78L242.388 184.213C242.388 184.213 230.136 188.555 224.243 186.384C219.901 184.678 225.949 182.041 225.949 182.041V181.576L223.467 181.886Z" fill="#2E7F6C"/>
<path d="M213.542 82.478C204.858 93.7991 197.724 139.704 196.173 140.169C194.777 140.479 193.381 139.239 193.381 139.239C193.381 139.239 194.622 124.04 196.483 112.409C187.643 94.2643 201.601 74.1035 201.601 74.1035C201.601 74.1035 204.237 74.2586 213.542 82.478Z" fill="#2B2E3A"/>
<path d="M204.238 82.4777C204.238 82.4777 216.955 69.2956 246.42 73.1727C275.886 77.0498 274.956 87.5955 277.127 99.847C277.282 100.312 274.646 143.736 260.223 160.95C248.126 175.528 231.377 175.373 217.73 175.993C201.446 176.613 196.484 172.116 195.863 163.741C190.28 156.297 190.59 148.853 192.917 123.575C195.398 94.264 200.826 87.4404 204.238 82.4777Z" fill="#FAC2A8"/>
<path d="M194.312 143.735C196.638 144.976 198.964 145.751 201.446 146.217C203.927 146.682 206.408 146.992 208.89 146.837C211.371 146.837 213.852 146.372 216.334 145.906C218.815 145.286 221.141 144.511 223.468 143.58L223.933 144.511C221.607 145.596 219.125 146.527 216.644 147.302C214.163 147.922 211.526 148.388 208.89 148.543C206.253 148.698 203.617 148.388 201.136 147.612C198.654 146.682 196.173 145.596 194.312 143.735Z" fill="#DC918B"/>
<path d="M224.088 147.459C223.778 146.218 223.467 145.133 222.847 144.202C222.227 143.272 221.451 142.651 220.366 141.721C221.606 141.721 223.002 142.496 223.622 143.582C224.553 144.977 224.553 146.373 224.088 147.459Z" fill="#DC918B"/>
<path d="M203.462 62.9374C211.061 58.1298 223.778 52.0816 238.201 55.3384C245.334 57.0443 245.489 58.9053 245.489 58.9053C245.179 57.6646 243.784 53.3223 243.784 53.3223C253.864 61.2315 295.581 62.9374 286.587 92.0931C288.137 94.7295 285.811 104.19 285.656 104.965C285.191 108.842 261.153 114.27 264.565 104.965C267.821 97.2108 267.046 87.5957 264.41 84.8042C259.602 79.6864 252.003 82.1678 228.74 83.8737C217.73 84.6491 200.205 82.4779 190.435 64.023C190.435 63.8679 196.018 67.745 203.462 62.9374Z" fill="#2B2E3A"/>
<path d="M268.442 88.8382C268.442 88.8382 265.961 95.3517 255.57 94.111C243.784 92.7153 234.324 87.4424 234.324 87.4424C234.324 87.4424 241.613 86.2018 243.939 82.4798C247.506 77.0519 262.859 78.1374 262.859 78.1374L268.442 88.8382Z" fill="#2B2E3A"/>
<path opacity="0.2" d="M220.987 122.18C220.676 120.629 222.693 119.078 225.484 118.613C228.276 118.147 230.602 118.923 230.912 120.474C231.222 122.024 229.206 123.575 226.415 124.041C223.623 124.506 221.297 123.575 220.987 122.18Z" fill="#F0808E"/>
<path d="M191.055 131.328C191.055 131.328 198.654 112.407 199.895 109.151C200.98 105.894 209.045 107.755 209.045 111.942C209.045 116.129 207.339 134.429 207.339 134.429C198.189 134.895 191.055 131.328 191.055 131.328Z" fill="#FAC2A8"/>
<path opacity="0.7" d="M191.055 131.328C191.055 131.328 198.654 112.407 199.895 109.151C200.98 105.894 209.045 107.755 209.045 111.942C209.045 116.129 207.339 134.429 207.339 134.429C198.189 134.895 191.055 131.328 191.055 131.328Z" fill="url(#paint0_linear)"/>
<path d="M191.055 131.328C191.675 129.312 207.339 134.429 207.339 134.429C200.515 139.237 193.071 135.36 191.055 131.328Z" fill="#DC918B"/>
<path d="M286.587 91.94C293.566 102.796 288.293 120.63 283.951 131.021C278.213 144.513 269.063 158.781 260.223 161.107C260.223 161.107 260.843 145.444 260.688 146.529C260.533 147.615 253.554 140.016 253.089 139.396C252.779 138.775 254.02 133.347 255.726 125.748C247.661 116.908 258.672 90.6994 258.672 90.6994C258.672 90.6994 274.025 84.9613 286.587 91.94Z" fill="#2B2E3A"/>
<path d="M196.639 96.5918C200.051 96.902 202.222 98.6079 202.067 100.159C201.912 101.71 199.74 101.865 195.398 101.089C194.778 100.934 194.157 100.934 193.537 101.089L193.847 96.902C194.778 96.5918 195.708 96.5918 196.639 96.5918Z" fill="#2B2E3A"/>
<path d="M214.783 102.173C213.853 101.398 213.853 97.6758 219.436 97.6758C225.019 97.6758 230.757 102.018 231.532 102.794C232.307 103.569 233.703 105.275 232.307 106.05C230.136 106.981 228.585 104.499 225.794 103.569C223.158 102.483 220.366 102.328 218.66 102.794C217.885 102.949 215.714 102.949 214.783 102.173Z" fill="#2B2E3A"/>
<path d="M195.088 110.393C195.088 109.307 196.173 108.377 197.259 108.377C198.344 108.377 199.275 109.463 199.275 110.548C199.275 111.634 198.189 112.564 197.104 112.564C196.018 112.564 195.088 111.479 195.088 110.393Z" fill="#2B2E3A"/>
<path d="M195.708 109.773C195.708 109.463 196.018 109.152 196.328 109.152C196.638 109.152 196.948 109.463 196.948 109.773C196.948 110.083 196.638 110.393 196.328 110.393C195.863 110.393 195.708 110.083 195.708 109.773Z" fill="white"/>
<path d="M219.126 113.184C219.281 111.788 220.367 110.857 221.762 110.857C223.158 110.857 224.089 112.098 224.089 113.494C223.934 114.89 222.848 115.82 221.452 115.82C220.056 115.665 218.971 114.424 219.126 113.184Z" fill="#2B2E3A"/>
<path d="M219.746 112.408C219.746 111.943 220.211 111.633 220.521 111.633C220.986 111.633 221.297 112.098 221.297 112.408C221.297 112.873 220.831 113.184 220.521 113.184C220.056 113.184 219.746 112.873 219.746 112.408Z" fill="white"/>
<path d="M259.292 150.404C255.104 148.543 254.329 140.634 257.741 132.725C261.153 124.66 267.356 119.698 271.543 121.559C275.731 123.42 276.506 131.329 273.094 139.238C269.682 147.147 263.479 152.265 259.292 150.404Z" fill="#FAC2A8"/>
<path d="M270.459 133.347C270.769 132.572 270.924 131.641 270.924 130.556C270.924 129.625 270.614 128.54 269.838 127.764C269.063 127.144 267.822 126.834 266.892 126.989C265.961 127.144 265.031 127.764 264.255 128.384C263.48 129.005 262.859 129.78 262.394 130.401C261.929 131.176 261.464 131.951 260.998 132.727C260.688 133.502 260.223 134.433 260.068 135.363C260.068 135.673 260.223 135.984 260.533 136.139C261.309 136.294 262.239 136.759 262.859 137.379C263.48 137.845 263.635 138.775 263.325 139.706C262.859 141.567 260.998 142.807 258.982 143.117C260.068 143.117 260.998 142.962 261.929 142.497C262.859 142.032 263.79 141.101 264.1 140.016C264.255 139.55 264.41 138.93 264.255 138.31C264.255 137.689 263.945 137.069 263.635 136.604C262.859 135.673 261.774 135.208 260.688 134.898L261.154 135.673C261.619 134.123 262.394 132.572 263.325 131.176C263.79 130.401 264.41 129.78 265.031 129.315C265.651 128.85 266.271 128.229 267.047 128.074C267.667 127.919 268.442 128.074 269.063 128.54C269.683 129.005 269.993 129.78 270.148 130.556C270.459 132.262 269.993 133.967 269.373 135.673C269.838 134.898 270.148 133.967 270.459 133.347Z" fill="#DC918B"/>
<path d="M71.7963 256.173C71.176 255.243 70.0904 254.932 69.1599 255.398C67.1438 256.328 63.8871 257.569 61.4057 256.794C57.5286 255.708 40.4695 242.526 38.4534 245.162C36.4373 247.799 39.8491 252.606 44.3466 258.034C48.844 263.462 55.6676 275.559 57.6837 276.489C61.871 278.35 67.6091 272.612 70.7107 270.596C73.8124 268.58 77.3793 269.51 77.5344 267.494C77.6895 265.943 73.8124 259.275 71.7963 256.173Z" fill="#31374C"/>
<path d="M197.879 205.77C198.344 203.909 198.964 202.203 199.74 200.342C200.515 198.636 201.136 196.93 202.066 195.224C202.842 193.673 203.772 191.812 205.013 190.417C206.253 188.866 207.649 187.47 209.51 186.85C208.269 188.245 207.184 189.796 206.253 191.347C205.323 192.898 204.703 194.604 203.617 196.31C202.686 197.861 201.756 199.566 200.825 201.117C200.05 202.668 199.12 204.219 197.879 205.77Z" fill="#2E7F6C"/>
<path d="M146.236 160.329C143.755 160.639 140.188 160.484 139.878 160.484C139.257 160.484 138.327 160.484 137.551 160.639C137.396 161.26 137.241 161.57 136.466 162.655C135.845 163.431 133.984 163.431 134.14 162.345C134.14 161.88 134.45 161.26 134.45 161.26C134.45 161.26 132.123 162.811 130.883 161.725C130.107 160.95 131.503 160.329 131.968 158.623C131.193 159.089 130.418 159.864 129.022 159.709C127.936 159.554 127.006 158.778 127.471 158.313C128.867 157.383 130.418 155.367 130.418 155.367C130.418 155.367 129.022 155.987 127.316 155.832C126.385 155.677 125.765 154.746 126.385 154.436C127.316 153.971 128.557 153.195 129.332 152.265C130.107 151.334 130.418 151.179 130.883 151.024C131.348 151.024 136.931 150.869 137.706 150.869C138.482 150.869 138.947 151.489 139.257 151.955C139.567 152.42 146.236 160.329 146.236 160.329Z" fill="#F7AB8D"/>
<path d="M142.204 164.052C141.739 165.913 143.289 163.742 140.808 169.791C139.257 169.015 139.257 169.946 136 166.999C134.76 165.758 131.658 166.224 129.952 164.673C128.712 164.673 127.316 164.052 126.385 163.432C124.524 162.347 122.508 155.988 123.439 155.368C124.369 154.592 127.161 153.197 129.177 153.507C132.899 151.646 132.744 154.592 135.535 154.747C136.156 158.469 142.669 162.347 142.204 164.052Z" fill="#F7AB8D"/>
<path d="M123.439 156.607C123.905 158.003 124.215 159.399 124.835 160.795C125.145 161.415 125.455 162.035 126.076 162.501C126.696 162.966 127.161 163.431 127.782 163.741C128.402 164.051 129.022 164.362 129.643 164.207C130.263 164.051 130.883 163.431 130.883 162.966C130.883 162.346 130.573 161.725 130.108 161.26C129.643 160.64 129.177 160.174 128.712 159.554C129.488 159.864 130.108 160.329 130.573 160.95C131.038 161.57 131.659 162.19 131.504 163.121C131.349 164.051 130.573 164.672 129.798 164.982C128.867 165.292 128.092 164.982 127.472 164.517C126.851 164.207 126.231 163.586 125.611 163.121C124.99 162.501 124.68 161.88 124.37 161.105C123.905 159.554 123.594 158.003 123.439 156.607Z" fill="#DC918B"/>
<path d="M130.883 158.004C130.417 158.624 129.642 158.779 128.867 158.779C128.091 158.779 127.316 158.314 127.006 157.693C127.316 157.693 127.781 157.848 128.091 157.848C128.401 157.848 128.711 158.004 129.022 158.004C129.487 158.004 130.107 158.004 130.883 158.004Z" fill="#DC918B"/>
<path d="M129.022 158.469C129.177 159.089 129.022 159.554 128.867 160.02C128.712 160.175 128.557 160.485 128.401 160.64C128.246 160.795 127.936 160.95 127.781 161.105C127.936 160.485 127.936 160.175 128.246 159.709C128.401 159.244 128.557 158.779 129.022 158.469Z" fill="#DC918B"/>
<path d="M113.668 147.767C114.754 146.682 120.027 145.131 121.268 144.976C122.508 144.666 122.663 144.821 123.904 145.131C125.765 145.596 128.867 147.302 130.262 148.388C131.658 149.473 134.295 150.869 135.535 151.179C136.621 151.489 137.086 152.11 137.706 153.195C139.878 154.591 141.894 156.142 142.824 156.917C144.84 158.468 150.578 165.292 150.423 167.153C148.717 169.789 143.755 171.96 143.755 171.96C143.6 172.115 143.289 172.115 142.979 172.27C136.156 173.821 133.209 169.014 130.107 168.393C128.556 168.083 126.695 167.773 124.369 167.153C122.043 166.532 119.872 168.083 120.492 166.067C121.423 162.81 124.99 162.5 130.573 164.051C135.38 162.035 130.728 159.398 128.867 157.693C127.781 156.762 128.556 154.746 125.3 151.954C124.059 151.179 123.439 150.559 122.198 149.938C119.717 148.698 117.856 150.404 115.529 149.938C114.444 149.318 112.738 148.543 113.668 147.767Z" fill="#FAC2A8"/>
<path d="M136.62 151.643C137.241 151.953 137.551 152.573 138.016 153.193C138.326 153.814 138.637 154.434 138.792 154.899C139.257 155.985 140.187 157.07 140.808 158.156C140.187 157.846 139.722 157.381 139.257 156.915C138.792 156.45 138.481 155.83 138.016 155.209C137.706 154.589 137.551 153.969 137.396 153.348C137.241 152.728 136.931 152.108 136.62 151.643Z" fill="#DC918B"/>
<path d="M91.4919 284.243L104.984 263.307L112.738 279.125L97.5401 292.617L91.4919 284.243Z" fill="#F7AB8D"/>
<path d="M215.869 226.083L145.771 218.484L120.803 233.372L183.611 240.661L215.869 226.083Z" fill="#57617F"/>
<path d="M200.206 227.789L130.108 220.189L140.809 230.425L168.414 238.179L200.206 227.789Z" fill="#31374C"/>
<path d="M160.814 237.561L196.793 225.93" stroke="#57617F" stroke-width="0.4577" stroke-miterlimit="10"/>
<path d="M199.43 229.96L129.332 222.361" stroke="#57617F" stroke-width="0.4577" stroke-miterlimit="10"/>
<path d="M194.312 232.133L124.215 224.379" stroke="#57617F" stroke-width="0.4577" stroke-miterlimit="10"/>
<path d="M215.868 226.086L181.75 238.803L182.37 242.99L211.681 232.134C213.542 231.514 214.783 229.963 215.403 228.102L215.868 226.086Z" fill="#31374C"/>
<path d="M185.938 240.973L183.611 242.214C182.836 242.679 181.905 242.834 180.975 242.679L120.337 234.925C118.166 234.615 116.46 233.219 115.995 231.048L105.605 191.967C105.139 190.261 105.915 188.4 107.31 187.469C108.086 187.004 109.016 186.694 109.947 186.849L170.739 194.293C172.6 194.448 174.151 195.844 174.617 197.705L185.938 240.973Z" fill="#31374C"/>
<path d="M178.649 242.524L120.492 235.08C118.321 234.77 116.615 233.374 116.15 231.203L106.07 192.897C105.604 191.192 107 189.486 108.861 189.641L167.638 197.085C169.499 197.395 170.895 198.636 171.36 200.341L181.595 239.112C181.905 241.128 180.51 242.834 178.649 242.524Z" fill="#57617F"/>
<path d="M142.128 220.001C143.739 219.023 144.18 216.806 143.113 215.049C142.047 213.292 139.876 212.66 138.266 213.638C136.655 214.616 136.214 216.833 137.28 218.59C138.347 220.347 140.518 220.979 142.128 220.001Z" fill="#BFC6F2"/>
<path d="M211.682 263.771C211.682 263.771 201.291 274.627 196.173 275.402C178.959 277.884 142.669 256.172 142.669 256.172C142.669 256.172 142.359 258.343 140.653 258.964C139.258 259.429 136.621 258.809 136.621 258.809C128.557 269.354 109.016 284.707 109.016 284.707C99.5563 283.002 93.6632 272.921 93.6632 272.921C104.984 262.065 126.231 229.653 133.364 228.722C144.841 227.327 178.494 243.455 178.804 242.68C186.093 242.525 192.451 240.664 192.451 240.664C202.532 246.247 205.943 250.434 211.682 263.771Z" fill="#EF3F54"/>
<path d="M94.7482 280.053C93.5076 279.278 91.9567 279.743 91.1813 280.983C90.0957 282.844 88.2347 285.171 86.0636 286.101C82.3416 287.497 58.6138 284.085 58.4587 287.342C58.3037 290.754 66.0578 295.406 72.8815 297.112C79.7052 298.818 91.0262 304.556 93.1974 304.246C97.6948 303.315 100.331 297.422 101.572 293.855C102.813 290.288 106.379 289.048 105.294 287.342C104.674 285.946 98.3151 282.069 94.7482 280.053Z" fill="#31374C"/>
<path d="M221.142 222.983C220.521 225.465 214.783 225.775 214.318 225.93L209.666 225.465C208.735 225.31 207.65 226.085 207.494 225.93C206.254 226.861 206.099 228.722 205.478 229.962C204.858 231.203 203.462 230.272 202.842 229.807C202.222 229.342 202.377 229.342 202.532 229.962C202.687 230.738 202.377 231.823 201.446 231.668C200.516 231.513 200.05 231.048 199.585 230.272C199.43 231.048 199.43 231.513 198.345 231.358C197.259 231.203 196.484 230.738 196.173 229.342C195.863 228.101 195.088 225.62 194.778 224.379C194.467 223.139 194.623 222.983 195.088 221.743C195.553 220.502 196.639 218.796 197.104 217.245C195.863 216.935 195.243 216.47 194.157 216.78C191.986 217.556 192.451 219.261 190.745 220.192C189.97 220.657 188.574 221.122 188.574 220.192C188.574 218.951 190.901 214.919 191.366 214.144C191.986 213.213 192.606 212.748 193.692 212.593C195.243 212.438 197.569 211.973 198.965 212.438C200.361 212.903 200.981 213.523 202.997 213.989C204.858 214.609 211.061 216.16 213.077 216.935C214.783 218.021 220.676 221.743 221.142 222.983Z" fill="#FAC2A8"/>
<path d="M202.221 229.652C201.911 228.876 201.756 227.946 201.756 227.171C201.756 226.24 202.221 225.465 202.686 224.689C203.152 223.914 203.617 223.293 204.082 222.673C204.392 222.363 204.392 221.898 204.703 221.588C204.858 221.432 205.013 221.277 205.323 221.277C205.478 221.277 205.788 221.432 205.943 221.277C205.788 221.432 205.478 221.277 205.323 221.277C205.168 221.277 205.013 221.432 204.858 221.588C204.703 221.898 204.547 222.363 204.392 222.673C204.082 223.449 203.462 224.069 203.152 224.844C202.842 225.62 202.376 226.395 202.376 227.015C202.376 227.946 202.531 228.721 202.221 229.652Z" fill="#DC918B"/>
<path d="M199.43 230.426C198.965 229.34 198.5 228.255 198.189 227.014C198.034 226.394 197.879 225.928 197.724 225.153C197.569 224.533 197.724 223.757 198.034 223.292C198.499 222.051 199.275 221.121 199.895 220.19C200.205 219.725 200.516 219.105 201.136 218.795C201.446 218.639 201.756 218.484 202.066 218.484C202.377 218.484 202.687 218.639 202.997 218.484C202.687 218.639 202.377 218.639 202.066 218.639C201.756 218.639 201.601 218.795 201.291 218.95C200.826 219.26 200.671 219.88 200.36 220.345C199.74 221.431 199.12 222.361 198.655 223.447C198.344 223.912 198.189 224.533 198.344 224.998C198.344 225.618 198.499 226.083 198.655 226.704C198.81 228.1 199.12 229.34 199.43 230.426Z" fill="#DC918B"/>
<path d="M197.104 217.4C197.104 216.625 197.569 216.004 198.189 215.539C198.499 215.229 199.12 215.074 199.43 215.229C199.74 215.384 200.05 215.539 200.36 215.539C200.05 215.849 199.585 215.694 199.275 215.694C198.965 215.694 198.809 215.849 198.654 216.004C198.189 216.625 197.724 217.09 197.104 217.4Z" fill="#DC918B"/>
<path d="M224.398 250.432C224.398 250.432 246.42 201.735 274.645 195.222C302.87 188.708 310.624 207.629 310.624 207.629C310.624 207.629 306.127 223.137 294.961 236.474C283.795 249.811 272.164 261.132 272.164 261.132L224.398 250.432Z" fill="#E1E4F4"/>
<path d="M253.243 213.833L249.832 197.704C249.832 197.704 258.051 182.196 272.474 174.752C286.896 167.153 303.801 161.88 313.726 167.463C323.651 173.046 322.255 183.592 321.48 186.693C320.705 189.795 317.603 194.603 316.207 197.394C314.811 200.186 310.934 207.63 310.934 207.63L253.243 213.833Z" fill="#E1E4F4"/>
<path d="M245.179 217.089C246.42 213.987 248.436 211.196 250.452 208.715C252.623 206.078 254.949 203.907 257.586 201.736C260.222 199.72 263.169 198.014 266.27 196.773C269.372 195.532 272.784 194.912 276.041 194.912C272.939 196.153 269.992 197.238 267.201 198.789C266.426 199.099 265.805 199.565 265.185 200.03C264.565 200.495 263.789 200.805 263.169 201.271L261.153 202.511L259.292 203.907C254.329 207.784 249.676 212.281 245.179 217.089Z" fill="#BFC6F2"/>
<path d="M202.531 268.887C197.724 270.748 194.932 275.09 194.157 278.192C193.381 281.294 202.686 287.187 231.842 285.481C260.998 283.62 276.196 283.775 281.934 277.417C287.672 271.058 283.95 263.459 268.597 258.341C253.244 253.224 228.43 245.004 218.815 252.138C209.045 259.117 202.531 268.887 202.531 268.887Z" fill="#F7F7FA"/>
</g>
<defs>
<linearGradient id="paint0_linear" x1="202.639" y1="110.888" x2="197.058" y2="143.411" gradientUnits="userSpaceOnUse">
<stop stop-color="#FAC2A8"/>
<stop offset="1" stop-color="#DC918B"/>
</linearGradient>
</defs>
</svg>
