<svg width="573" height="421" viewBox="0 0 573 421" fill="none" xmlns="http://www.w3.org/2000/svg">
<mask id="mask0" mask-type="alpha" maskUnits="userSpaceOnUse" x="0" y="0" width="573" height="421">
<path d="M0 0H573V411C573 416.523 568.523 421 563 421H10C4.47715 421 0 416.523 0 411V0Z" fill="white"/>
</mask>
<g mask="url(#mask0)">
<path d="M475.391 41.2695H125.051V246.687H475.391V41.2695Z" fill="url(#paint0_linear)"/>
<path d="M102.77 154.088C104.338 153.18 106.483 152.437 109.289 152.025C109.289 152.025 110.94 140.471 122.082 142.534C133.223 144.597 143.292 152.603 143.292 152.603C143.292 152.603 148.904 146.495 154.928 150.539C156.497 151.612 157.652 152.685 158.642 153.675C160.293 155.409 159.303 158.71 157.239 158.71H103.595C101.532 158.627 100.954 155.078 102.77 154.088Z" fill="white"/>
<path d="M315.039 127.348H225.081C221.615 127.348 219.304 122.562 220.542 118.105C222.935 109.109 227.887 96.3172 237.048 93.181C250.418 88.6419 261.724 103.332 261.724 103.332C261.724 103.332 269.895 99.7009 278.891 98.3804C287.969 97.06 296.139 98.1328 298.945 102.094C301.834 106.056 298.945 111.338 298.945 111.338H307.694C312.48 111.338 316.689 116.124 317.597 122.727C317.927 125.203 316.689 127.348 315.039 127.348Z" fill="white"/>
<path d="M467.221 118.189C460.041 115.052 451.54 117.528 444.608 121.16C437.675 124.791 431.073 129.495 423.315 130.898C406.397 134.034 390.221 120.747 372.972 121.737C362.821 122.315 353.742 127.845 346.397 134.53C338.392 141.792 331.872 150.87 329.644 161.187C327.415 171.503 330.056 183.057 338.062 190.32C348.295 199.646 364.059 199.893 378.171 199.563C413.164 198.82 448.157 198.078 483.15 197.335V127.184C481.829 126.854 480.509 126.524 479.271 125.946C474.896 124.048 471.678 120.169 467.221 118.189Z" fill="#B4EDBF"/>
<path d="M459.216 171.834C442.297 174.97 435.117 174.392 417.868 175.383C407.717 175.96 365.214 167.377 357.951 174.062C349.946 181.325 331.872 150.954 329.644 161.27C327.415 171.586 330.056 183.141 338.062 190.403C348.295 199.729 364.059 199.977 378.171 199.647C413.164 198.904 448.157 198.161 483.15 197.418V177.859C481.912 177.528 466.974 170.348 459.216 171.834Z" fill="#DBE0FC"/>
<path d="M460.62 175.3V202.618C456.494 197.253 453.11 191.559 450.386 185.369C450.056 184.626 448.901 184.461 448.653 185.369C448.571 185.699 448.488 186.029 448.406 186.277C448.241 186.937 448.818 187.35 449.396 187.35C451.294 191.476 453.523 195.437 456.081 199.234C452.862 198.243 449.726 195.685 447.333 193.622C447.003 193.292 446.673 193.044 446.342 192.714V175.218C446.342 173.072 442.794 173.072 442.794 175.218V188.835C442.299 188.092 441.803 187.35 441.391 186.607C440.896 185.616 439.41 186.442 439.823 187.432C440.565 188.918 441.556 190.403 442.711 191.724V193.292C442.629 193.374 442.546 193.539 442.546 193.704C441.968 196.84 436.356 199.399 433.798 201.05C431.9 202.205 430.002 203.278 428.103 204.351C430.414 200.719 432.395 196.923 434.211 193.044C434.541 192.301 433.798 191.393 432.973 191.889C432.23 192.301 432.147 192.549 432.065 193.292C432.065 193.292 432.065 193.292 432.065 193.374C430.002 197.831 427.526 202.122 424.72 206.166C424.472 206.331 424.307 206.579 424.307 206.827C422.326 209.715 420.18 212.604 417.87 215.245V207.569C421.171 200.224 423.977 192.631 426.205 184.874C426.535 183.801 424.802 183.388 424.472 184.461C422.656 190.898 420.428 197.088 417.87 203.278V175.383C417.87 173.237 414.321 173.237 414.321 175.383V210.458C407.141 205.506 401.859 198.739 398.97 190.651C398.64 189.66 396.907 190.073 397.237 191.063C398.97 195.933 401.529 200.307 404.83 204.103C400.869 203.278 397.485 199.481 394.761 196.84C394.018 196.098 391.955 194.447 390.305 192.797V175.383C390.305 173.237 386.756 173.237 386.756 175.383V199.977C383.702 193.787 381.556 187.267 380.319 180.582C380.814 179.262 381.309 178.024 381.887 176.703C382.299 175.713 380.566 175.218 380.153 176.291L379.823 177.198C379.741 176.373 379.576 175.465 379.493 174.64C379.411 173.567 377.595 173.567 377.678 174.64C377.843 176.621 378.173 178.519 378.503 180.417C377.513 182.81 376.605 185.286 375.614 187.68C374.624 185.781 373.881 183.883 373.386 181.903V175.465C373.386 173.319 369.837 173.319 369.837 175.465V211.201C362.822 200.967 357.045 190.073 352.588 178.601C352.176 177.611 350.443 178.024 350.855 179.014C353.826 186.689 357.375 194.2 361.584 201.297C353.414 193.044 346.316 183.883 340.457 173.897C339.879 172.907 338.393 173.815 338.889 174.722C345.986 186.607 354.734 197.418 364.968 206.992C365.05 207.074 365.051 207.074 365.133 207.074C366.619 209.468 368.187 211.778 369.837 214.089V243.965C369.837 246.111 373.386 246.111 373.386 243.965V197.253C373.551 197.171 373.716 197.006 373.799 196.84C374.541 195.025 375.202 193.292 375.944 191.476C378.998 196.098 383.042 200.224 386.756 203.856V244.048C386.756 246.193 390.305 246.193 390.305 244.048V194.777C391.625 196.18 393.028 197.583 394.431 198.904C397.732 201.957 401.446 206.001 406.398 205.919C408.709 208.312 411.35 210.54 414.238 212.439V243.883C414.238 246.028 417.787 246.028 417.787 243.883V217.886C420.758 214.584 423.564 211.036 426.04 207.404C430.084 205.259 434.046 203.03 437.759 200.472C439.245 199.399 441.308 198.326 442.711 196.84V243.965C442.711 246.111 446.26 246.111 446.26 243.965V195.19C446.755 195.603 447.168 195.933 447.663 196.263C450.387 198.326 453.44 200.802 456.989 201.297C457.154 201.297 457.236 201.297 457.319 201.297C458.227 202.535 459.135 203.773 460.125 205.011C460.208 205.176 460.373 205.259 460.538 205.259V243.883C460.538 246.028 464.086 246.028 464.086 243.883V175.218C464.169 173.154 460.62 173.154 460.62 175.3ZM373.469 193.044V186.937C373.881 187.845 374.376 188.67 374.872 189.578C374.459 190.733 373.964 191.889 373.469 193.044ZM376.77 189.495L379.163 183.471C380.319 188.753 382.052 193.869 384.362 198.821C381.639 196.015 378.916 192.879 376.77 189.495Z" fill="#B6BCF4"/>
<path d="M422.903 154.42C403.756 154.172 384.609 154.007 365.628 156.071C358.613 156.813 351.35 157.969 345.408 161.683C339.466 165.396 335.256 172.329 336.907 178.931C339.053 187.267 349.452 191.311 358.447 191.063C368.186 190.816 377.429 187.349 386.92 185.204C396.411 183.058 407.058 182.398 415.228 187.432C418.777 189.578 421.748 192.714 425.792 194.034C430.084 195.437 434.788 194.364 439.244 193.292C453.935 189.825 468.542 186.277 483.233 182.81V177.776C472.009 168.45 460.042 159.537 445.764 156.318C438.254 154.668 430.579 154.503 422.903 154.42Z" fill="#DBE0FC"/>
<path d="M401.447 184.131C396.578 184.131 392.534 186.524 392.534 189.413C392.534 192.301 396.496 194.695 401.447 194.695C406.317 194.695 410.361 192.301 410.361 189.413C410.361 186.524 406.399 184.131 401.447 184.131Z" fill="#DBE0FC"/>
<path d="M465.569 218.132C454.097 221.516 449.888 232.327 440.563 233.235C431.237 234.143 423.809 229.026 415.721 232.657C407.716 236.371 404.414 242.066 398.225 242.396C392.035 242.808 392.943 240.25 384.937 241.653C376.932 243.056 355.392 250.979 355.392 250.979H483.148V218.71C477.784 216.646 472.089 216.234 465.569 218.132Z" fill="#B4EDBF"/>
<path d="M354.155 157.885C340.373 156.73 326.343 157.72 312.89 160.939C308.268 162.011 303.234 163.745 301.253 167.871C299.438 171.667 300.923 176.207 303.317 179.673C306.535 184.295 311.322 187.843 316.852 189.576C322.464 191.392 328.571 191.31 334.513 191.227C338.062 191.145 341.611 191.145 345.159 191.062C347.883 190.979 350.689 190.979 353.33 190.649C361.583 189.576 369.341 185.45 375.035 179.508C376.686 177.775 378.171 175.876 378.501 173.566C378.997 170.512 377.264 167.541 375.035 165.395C369.671 160.031 361.665 158.463 354.155 157.885Z" fill="#B4EDBF"/>
<path d="M338.558 163.168V185.038C335.175 179.179 332.204 173.072 329.563 166.882C328.737 164.901 325.271 165.726 326.096 167.79C329.398 175.712 333.276 183.305 337.733 190.65C337.981 190.981 338.228 191.228 338.558 191.311V200.802C331.543 199.151 324.858 196.923 318.586 193.952C318.504 193.869 318.504 193.787 318.421 193.704C316.605 191.723 315.12 189.495 313.882 187.019C314.129 186.854 314.377 186.689 314.542 186.359C316.275 183.388 317.843 180.087 318.669 176.785C319.246 174.392 320.319 171.586 318.504 169.523C317.348 168.12 315.45 169.523 315.615 170.926C315.533 171.503 315.698 172.164 316.193 172.576C316.193 174.227 314.707 177.941 314.377 178.766C313.799 180.417 313.057 181.902 312.231 183.47C310.581 179.756 309.26 175.795 307.94 172.246C307.197 170.183 303.731 171.091 304.474 173.154C306.537 178.766 308.683 185.121 311.901 190.568C301.833 185.038 292.837 177.858 285.162 169.193C283.676 167.542 281.2 169.935 282.686 171.586C297.293 188.092 316.605 199.316 338.641 204.268V243.965C338.641 246.111 342.19 246.111 342.19 243.965V163.168C342.107 161.022 338.558 161.022 338.558 163.168Z" fill="#B6BCF4"/>
<path d="M389.065 145.671C377.924 136.263 363.481 130.238 348.626 129.578C327.498 128.587 307.608 137.996 288.709 147.157C283.84 149.55 278.97 151.861 274.184 154.254C271.873 155.327 269.479 156.565 267.664 158.298C266.756 159.206 265.931 160.196 265.435 161.352C263.455 166.056 266.838 171.586 271.543 173.979C276.247 176.372 281.859 176.455 287.141 176.455C315.614 176.537 344.169 176.702 372.642 176.785C377.511 176.785 382.463 176.785 387.085 175.464C391.706 174.144 396.163 171.173 397.979 166.881C399.217 163.91 399.051 160.857 398.061 157.968C396.576 153.346 392.944 148.972 389.065 145.671Z" fill="#DBE0FC"/>
<path d="M389.066 145.671C377.924 136.263 363.481 130.238 348.626 129.578C327.498 128.587 307.609 137.996 288.709 147.157C283.84 149.55 278.971 151.861 274.184 154.254C271.873 155.327 269.48 156.565 267.664 158.298C269.562 160.031 272.038 161.269 274.514 161.764C278.888 162.672 283.427 162.012 287.719 160.774C294.816 158.711 301.336 155.245 308.351 152.769C315.366 150.375 323.207 149.055 330.057 151.613C336.247 153.842 340.868 158.793 346.233 162.425C359.603 171.338 378.75 171.586 392.367 163.002C394.513 161.682 396.576 159.949 398.061 157.968C396.576 153.346 392.945 148.972 389.066 145.671Z" fill="#B4EDBF"/>
<path d="M335.175 237.361C325.767 237.361 318.092 243.469 318.092 251.061H352.259C352.259 243.469 344.666 237.361 335.175 237.361Z" fill="#B4EDBF"/>
<path d="M358.2 238.188C350.773 238.188 344.748 243.965 344.748 251.062H371.735C371.653 243.882 365.628 238.188 358.2 238.188Z" fill="#B4EDBF"/>
<path d="M475.391 41.2695H125.051V246.687H475.391V41.2695Z" stroke="#EDEFFF" stroke-width="6.3205" stroke-miterlimit="10"/>
<path d="M293.747 40.1152H284.751V246.688H293.747V40.1152Z" fill="#EDEFFF"/>
<path d="M422.905 40.1152H413.909V246.688H422.905V40.1152Z" fill="#EDEFFF"/>
<path d="M488.102 45.418H128.684V48.8017H488.102V45.418Z" fill="white"/>
<path d="M488.102 52.5977H128.684V55.9814H488.102V52.5977Z" fill="white"/>
<path d="M488.102 59.7773H128.684V63.1611H488.102V59.7773Z" fill="white"/>
<path d="M488.102 66.959H128.684V70.3427H488.102V66.959Z" fill="white"/>
<path d="M488.102 74.0547H128.684V77.4384H488.102V74.0547Z" fill="white"/>
<path d="M488.102 81.2363H128.684V84.6201H488.102V81.2363Z" fill="white"/>
<path fill-rule="evenodd" clip-rule="evenodd" d="M568.945 333H66.0547C63.8021 333 62 330.224 62 326.755V322.245C62 318.775 63.8021 316 66.0547 316H568.945C571.198 316 573 318.775 573 322.245V326.755C573 330.224 571.142 333 568.945 333Z" fill="#EDEFFF"/>
<path opacity="0.15" d="M100.73 363.087C93.8621 362.03 41.9872 354.496 42.996 343.966C43.5392 338.326 149.268 338.811 159.86 340.221C170.879 341.674 181.782 344.186 192.878 344.582C232.415 345.904 255.734 336.035 305.436 342.203C329.142 345.155 295.736 360.708 286.579 363.616C261.476 371.591 258.566 370.886 215.149 367.537C185.313 365.246 109.77 364.453 100.73 363.087Z" fill="#001177"/>
<path d="M77.3968 305.666C76.9947 308.57 72.4371 345.88 72.0349 348.248C71.5881 350.616 78.0224 351.331 78.6479 347.399C81.1501 337.882 89.8185 305.219 89.8185 305.219" fill="#BFB59B"/>
<path d="M224.447 307.498C224.447 307.498 230.747 350.885 231.462 353.387C232.222 355.889 238.075 355.889 238.924 352.136C238.075 335.603 235.618 304.594 235.618 304.594" fill="#BFB59B"/>
<path d="M280.078 306.202C280.078 306.202 284.323 340.742 284.546 342.216C284.993 344.897 290.534 344.897 291.159 341.367C290.757 330.197 288.747 298.74 288.747 298.74" fill="#BFB59B"/>
<path d="M123.108 307.633V339.402C123.108 343.111 130.57 341.904 130.57 339.402C131.821 326.176 133.877 312.101 133.877 312.101" fill="#BFB59B"/>
<path d="M48.6641 257.321C48.6641 257.321 56.8856 299.054 57.7793 303.477C58.6729 307.856 63.0518 317.508 78.8247 320.144C94.5976 322.78 239.011 331.761 239.011 331.761C239.011 331.761 287.447 325.372 293.077 321.708C297.59 318.759 300.673 311.922 301.567 305.622C302.907 296.596 316.669 193.112 317.563 188.286C318.457 183.46 318.814 173.675 310.056 172.826C301.298 171.932 131.237 169.341 122.882 169.788C115.464 169.743 112.694 176.937 111.398 183.952C110.102 190.967 100.094 245.614 100.094 245.614C100.094 245.614 56.4835 249.635 52.9983 250.484C49.4683 251.333 48.2172 253.21 48.6641 257.321Z" fill="#9FBAC9"/>
<path d="M315.016 174.836C310.325 176.445 308.716 177.964 308.716 177.964C286.107 191.234 276.545 242.351 276.545 242.351C276.545 242.351 253.667 250.126 246.071 254.907C238.788 259.464 238.431 269.607 238.431 269.607L232.801 331.358C236.778 331.627 239.056 331.761 239.056 331.761C239.056 331.761 287.492 325.371 293.122 321.707C297.635 318.758 300.718 311.922 301.612 305.621C302.952 296.596 316.714 193.111 317.608 188.285C318.234 184.621 318.591 178.187 315.016 174.836Z" fill="#9FBAC9"/>
<path d="M238.387 269.609C238.431 267.509 238.789 265.409 239.37 263.398C239.995 261.387 240.889 259.421 242.185 257.679C242.855 256.83 243.57 256.025 244.419 255.31C244.642 255.132 244.821 254.953 245.044 254.819L245.715 254.372C246.161 254.059 246.608 253.791 247.055 253.523C248.887 252.451 250.764 251.512 252.685 250.619C256.483 248.831 260.37 247.223 264.258 245.659C268.145 244.095 272.077 242.621 276.054 241.235L275.25 242.129C275.786 239.046 276.456 236.052 277.216 233.059C277.975 230.065 278.78 227.071 279.673 224.122C281.505 218.224 283.561 212.371 286.063 206.741C286.688 205.311 287.359 203.926 288.029 202.54C288.699 201.155 289.414 199.77 290.174 198.43C290.933 197.089 291.693 195.749 292.497 194.408C293.301 193.068 294.195 191.817 295.089 190.521C296.876 188.019 298.887 185.606 301.121 183.461C303.355 181.316 305.857 179.395 308.583 178.01C303.489 181.495 299.646 186.321 296.384 191.414C294.776 194.006 293.301 196.642 291.961 199.368C290.62 202.094 289.369 204.864 288.208 207.679C285.929 213.309 283.918 219.073 282.175 224.926C280.388 230.735 278.869 236.678 277.573 242.621L277.439 243.335L276.814 243.559C272.882 244.855 268.905 246.285 265.017 247.67C261.085 249.099 257.198 250.574 253.355 252.138C251.434 252.942 249.513 253.791 247.681 254.729C246.742 255.221 245.849 255.668 245.089 256.293C244.285 256.874 243.525 257.589 242.9 258.349C241.604 259.913 240.576 261.7 239.817 263.621C239.146 265.498 238.61 267.509 238.387 269.609Z" fill="#86A5BF"/>
<path d="M249.69 277.785C246.473 277.159 119.352 274.434 116.135 275.417C112.917 276.4 82.1313 284.979 80.21 291.458L222.479 311.609C231.013 313.218 239.145 305.845 244.597 302.003C250.048 298.16 252.148 294.585 252.773 288.196C253.444 281.762 252.863 278.455 249.69 277.785Z" fill="#AFB7BA"/>
<path d="M262.024 255.757C255.903 254.506 238.745 263.219 238.298 266.57C237.806 270.547 236.287 297.267 234.813 305.22C233.338 313.219 229.808 315.185 225.831 314.693C221.855 314.202 93.4373 313.844 88.4776 312.37C83.4731 310.895 79.4964 307.365 79.0049 304.908C78.5134 302.405 76.5027 281.181 73.0175 264.247C71.0961 254.819 47.2804 247.803 48.6655 256.07C48.6655 256.07 56.8871 306.248 57.7808 310.627C58.6744 315.006 63.0533 324.657 78.8262 327.293C94.5991 329.93 218.816 331.717 225.295 332.164C228.557 332.387 233.964 332.566 239.013 331.762C246.341 330.555 253.043 326.534 256.886 313.442C257.869 310.135 265.777 268.849 266.314 262.37C266.582 258.304 265.197 256.382 262.024 255.757Z" fill="#86A5BF"/>
<path d="M80.2098 291.503C79.2715 294.229 80.2992 302.853 81.3269 305.4C82.3992 307.947 85.5717 310.359 90.5314 310.896C95.4912 311.477 218.189 312.191 221.63 312.549C225.07 312.906 230.566 310.762 231.996 303.702C233.426 296.642 233.292 290.923 227.572 289.716C221.853 288.465 91.0676 288.286 86.8228 288.42C82.578 288.51 80.8354 289.671 80.2098 291.503Z" fill="#86A5BF"/>
<path d="M166.581 192.129C168.21 192.129 169.53 190.808 169.53 189.18C169.53 187.551 168.21 186.23 166.581 186.23C164.952 186.23 163.632 187.551 163.632 189.18C163.632 190.808 164.952 192.129 166.581 192.129Z" fill="#86A5BF"/>
<path d="M256.882 194.451C258.51 194.451 259.831 193.13 259.831 191.502C259.831 189.873 258.51 188.553 256.882 188.553C255.253 188.553 253.933 189.873 253.933 191.502C253.933 193.13 255.253 194.451 256.882 194.451Z" fill="#86A5BF"/>
<path d="M163.766 214.336C165.395 214.336 166.715 213.015 166.715 211.387C166.715 209.758 165.395 208.438 163.766 208.438C162.138 208.438 160.817 209.758 160.817 211.387C160.817 213.015 162.138 214.336 163.766 214.336Z" fill="#86A5BF"/>
<path d="M254.027 216.615C255.656 216.615 256.976 215.295 256.976 213.666C256.976 212.037 255.656 210.717 254.027 210.717C252.398 210.717 251.078 212.037 251.078 213.666C251.078 215.295 252.398 216.615 254.027 216.615Z" fill="#86A5BF"/>
<path d="M160.415 240.252C162.044 240.252 163.364 238.931 163.364 237.303C163.364 235.674 162.044 234.354 160.415 234.354C158.786 234.354 157.466 235.674 157.466 237.303C157.466 238.931 158.786 240.252 160.415 240.252Z" fill="#86A5BF"/>
<path d="M209.253 192.129C210.881 192.129 212.202 190.808 212.202 189.18C212.202 187.551 210.881 186.23 209.253 186.23C207.624 186.23 206.304 187.551 206.304 189.18C206.304 190.808 207.624 192.129 209.253 192.129Z" fill="#86A5BF"/>
<path d="M206.392 214.336C208.021 214.336 209.341 213.015 209.341 211.387C209.341 209.758 208.021 208.438 206.392 208.438C204.764 208.438 203.443 209.758 203.443 211.387C203.443 213.015 204.764 214.336 206.392 214.336Z" fill="#86A5BF"/>
<path d="M203.087 240.252C204.715 240.252 206.036 238.931 206.036 237.303C206.036 235.674 204.715 234.354 203.087 234.354C201.458 234.354 200.138 235.674 200.138 237.303C200.138 238.931 201.458 240.252 203.087 240.252Z" fill="#86A5BF"/>
<path d="M250.721 242.574C252.349 242.574 253.67 241.254 253.67 239.625C253.67 237.996 252.349 236.676 250.721 236.676C249.092 236.676 247.771 237.996 247.771 239.625C247.771 241.254 249.092 242.574 250.721 242.574Z" fill="#86A5BF"/>
<path d="M100.094 245.568C101.568 245.836 102.953 246.417 104.294 247.132C105.634 247.847 106.885 248.696 108.003 249.724C110.237 251.779 111.935 254.55 112.605 257.588C112.784 258.348 112.918 259.107 112.962 259.867C113.007 260.626 113.096 261.341 113.141 262.056C113.23 263.531 113.364 264.961 113.454 266.435C113.677 269.339 113.856 272.288 114.079 275.237C113.543 273.852 113.23 272.422 112.873 270.948C112.56 269.518 112.292 268.044 112.069 266.614C111.801 265.139 111.666 263.709 111.443 262.235L111.22 260.045C111.13 259.331 111.041 258.66 110.862 257.99C110.237 255.264 108.896 252.762 106.975 250.707C105.098 248.607 102.73 246.864 100.094 245.568Z" fill="#86A5BF"/>
<path d="M157.732 346.374C157.732 346.374 168.59 346.24 170.467 349.725C170.467 349.725 170.333 350.797 170.333 351.155C170.422 352.719 167.116 353.702 163.72 354.461C159.564 355.4 150.985 357.902 150.985 357.902L144.953 350.797L157.732 346.374Z" fill="#E1E4F4"/>
<path d="M146.831 328.947L159.029 330.377C159.029 330.377 157.108 342.263 156.84 348.876C156.84 348.876 155.008 351.467 147.01 349.233C139.592 347.088 131.192 353.299 133.56 349.725C134.588 349.456 135.884 343.827 137.001 343.603C146.295 343.514 146.831 328.947 146.831 328.947Z" fill="#2B2E3A"/>
<path d="M120.515 355.085C120.515 355.085 121.319 341.77 141.113 338.553C141.113 338.553 148.352 344.496 150.988 357.632C150.988 357.677 127.753 363.441 120.515 355.085Z" fill="#BFC6F2"/>
<path d="M230.474 276.356L177.48 291.458C177.48 291.458 178.151 292.486 176.676 293.469C176.319 293.737 174.308 293.827 174.308 293.827C176.229 311.297 160.903 323.362 161.216 338.866C158.133 339.313 147.901 337.883 142.852 335.337C145.488 318.223 151.877 282.164 154.782 277.428C161.708 266.168 208.803 255.578 208.803 255.578L212.824 250.529L236.059 251.2L230.608 268.67L230.474 276.356Z" fill="#035279"/>
<path d="M193.882 351.647C192.005 348.117 180.879 348.251 180.879 348.251L167.832 352.764L172.256 357.991L172.658 359.332L173.283 359.198L174.043 360.092C174.043 360.092 182.801 357.5 187.045 356.562C190.397 355.802 193.658 354.819 193.793 353.3L193.882 351.647Z" fill="#E1E4F4"/>
<path d="M174.446 329.617H188.968C188.968 329.617 188.432 341.681 188.923 348.25C188.923 348.25 190.398 357.32 182.131 355.98C174.491 354.729 162.203 361.565 164.169 357.722C165.152 357.365 163.633 345.837 164.705 345.479C176.501 345.479 174.446 329.617 174.446 329.617Z" fill="#2B2E3A"/>
<path d="M142.852 357.007C142.852 357.007 143.656 343.379 163.897 340.117C163.897 340.117 171.314 346.194 173.995 359.599C173.995 359.643 146.247 358.66 142.852 357.007Z" fill="#E1E4F4"/>
<path d="M235.076 286.901C209.92 288.733 193.208 291.906 193.208 291.906C193.208 291.906 192.628 293.782 192.136 294.14C191.734 294.408 190.215 294.319 190.215 294.319C192.359 302.093 192.717 322.424 190.259 341.727C183.602 344.095 173.995 340.118 171.984 340.163C176.944 324.524 159.429 285.874 167.65 277.429C174.844 270.011 205.183 258.885 218.99 257.947L228.061 250.619L242.672 265.945L245.666 271.665C245.666 271.709 241.421 286.454 235.076 286.901Z" fill="#49889E"/>
<path d="M246.07 192.486L241.11 189.85C241.11 189.85 234.14 192.799 231.414 194.094C228.554 195.435 225.918 194.541 223.997 195.122L219.395 199.099L226.678 208.974L241.244 197.714L243.21 196.016L246.07 192.486Z" fill="#F9C1A7"/>
<path d="M231.324 195.838C234.452 194.9 238.697 191.593 241.11 189.85L236.91 168.135L219.841 179.261L223.281 192.576L224.309 196.061C224.264 196.106 228.286 196.732 231.324 195.838Z" fill="#DC918B"/>
<path d="M215.951 221.664C216.264 229.573 215.907 236.856 213.985 242.576L200.67 237.482L206.434 215.543L215.951 221.664Z" fill="#F7AB8D"/>
<path d="M171.537 249.144C182.35 248.206 200.402 251.11 205.004 249.993C208.31 249.189 212.287 245.793 213.36 244.318C213.806 243.693 212.198 239.001 208.847 238.018C208.132 237.795 205.049 237.526 204.2 237.124C199.642 234.935 184.986 237.705 175.067 238.688C169.124 238.286 165.326 248.786 171.537 249.144Z" fill="#F7AB8D"/>
<path d="M223.998 195.122C223.998 195.122 214.257 198.161 212.336 199.859C208.762 215.498 208.359 229.081 210.459 244.273C211.085 248.697 203.444 260.493 203.444 260.493C203.444 260.493 240.844 257.276 250.316 277.74C251.657 277.606 250.986 271.529 252.148 270.949C253.265 270.412 255.053 261.118 256.304 253.835C259.923 233.326 259.253 227.07 259.789 217.374C260.28 207.812 253.221 195.48 253.221 195.48L244.82 191.012C244.82 191.012 235.392 201.646 226.679 201.378C220.736 201.155 223.998 195.122 223.998 195.122Z" fill="#FFB75E"/>
<path d="M212.334 199.859C209.474 202.451 205.14 209.734 204.693 222.201C207.821 222.96 210.323 225.462 215.506 226.311L221.047 221.843L212.334 199.859Z" fill="#FFB75E"/>
<path d="M262.736 225.285C262.736 225.285 261.708 240.387 256.302 250.62C256.302 250.62 244.639 240.923 246.918 239.136L248.169 224.302C248.125 224.302 258.089 218.001 262.736 225.285Z" fill="#F9C1A7"/>
<path d="M253.219 195.48C253.219 195.48 247.008 197.268 246.338 199.636C244.819 204.819 245.355 206.115 246.651 211.209C247.008 212.594 247.455 224.658 246.159 225.239C251.744 224.524 258.402 225.194 263.719 227.428C263.63 217.822 265.104 214.694 262.781 205.847C260.994 199.144 253.219 195.48 253.219 195.48Z" fill="#FFB75E"/>
<path d="M258.625 241.191C257.106 245.57 253.352 253.97 251.654 254.998C246.963 257.947 229.492 252.63 216.757 249.055C216.757 249.055 217.338 243.604 216.489 241.191C216.489 241.191 222.119 242.576 232.977 241.906C235.658 241.727 240.796 240.163 245.667 240.699L258.625 241.191Z" fill="#F9C1A7"/>
<path d="M180.742 249.814H120.108L116.801 210.27C116.667 208.572 118.008 207.143 119.706 207.143H174.531C176.05 207.143 177.301 208.304 177.435 209.779L180.742 249.814Z" fill="#2A2D39"/>
<path d="M179.045 249.814H118.411L115.105 210.27C114.971 208.572 116.311 207.143 118.009 207.143H172.835C174.354 207.143 175.605 208.304 175.739 209.779L179.045 249.814Z" fill="#474E64"/>
<path d="M209.43 249.814H145.444V251.87C145.444 252.987 146.338 253.881 147.455 253.881H207.374C208.491 253.881 209.385 252.987 209.385 251.87V249.814H209.43Z" fill="#2A2D39"/>
<path d="M179.048 249.814H118.503V251.825C118.503 252.942 119.397 253.836 120.514 253.836H177.037C178.154 253.836 179.048 252.942 179.048 251.825V249.814Z" fill="#474E64"/>
<path d="M182.399 360.85H120.514C116.359 360.85 112.427 359.197 109.478 356.248C106.529 353.299 104.965 349.367 104.965 345.166L105.724 259.421C105.724 257.902 106.976 256.695 108.45 256.695C108.45 256.695 108.45 256.695 108.495 256.695C110.014 256.695 111.22 257.946 111.22 259.466L110.461 345.211C110.416 347.892 111.488 350.439 113.365 352.36C115.242 354.282 117.789 355.309 120.47 355.309H182.355C183.874 355.309 185.08 356.561 185.08 358.035C185.17 359.599 183.919 360.85 182.399 360.85Z" fill="#6677A3"/>
<path d="M201.387 360.851H180.699C177.259 360.851 173.997 359.51 171.539 357.053C169.082 354.595 167.786 351.333 167.786 347.893L168.322 259.511C168.322 257.992 169.573 256.785 171.048 256.785C172.567 256.785 173.774 258.036 173.774 259.555L173.237 347.937C173.237 349.903 173.997 351.78 175.382 353.21C176.767 354.64 178.644 355.399 180.655 355.399H201.343C202.862 355.399 204.068 356.65 204.068 358.125C204.158 359.599 202.907 360.851 201.387 360.851Z" fill="#6677A3"/>
<path d="M188.116 260.315H102.37C101.566 260.315 100.94 259.69 100.94 258.885V255.311C100.94 254.506 101.566 253.881 102.37 253.881H188.116C188.92 253.881 189.546 254.506 189.546 255.311V258.885C189.546 259.69 188.92 260.315 188.116 260.315Z" fill="#6677A3"/>
<path d="M213.985 260.315H160.455C159.651 260.315 159.025 259.69 159.025 258.885V255.311C159.025 254.506 159.651 253.881 160.455 253.881H214.029C214.834 253.881 215.459 254.506 215.459 255.311V258.885C215.415 259.69 214.789 260.315 213.985 260.315Z" fill="#BFC6F2"/>
<path d="M243.165 214.918C244.103 215.186 244.952 215.856 245.399 216.839C245.623 217.286 245.712 217.867 245.712 218.359C245.712 218.85 245.667 219.342 245.623 219.788C245.533 220.727 245.399 221.71 245.265 222.648C245.131 223.586 244.908 224.525 244.684 225.463L244.416 225.15C245.086 225.106 245.757 225.106 246.382 225.106C245.757 225.284 245.086 225.418 244.461 225.597L244.193 225.642L244.237 225.329C244.327 224.391 244.371 223.452 244.506 222.514L244.774 219.699C244.818 219.252 244.863 218.761 244.908 218.314C244.952 217.867 244.908 217.465 244.774 217.063C244.506 216.258 243.925 215.499 243.165 214.918Z" fill="#E88636"/>
<path d="M210.502 212.504C210.502 213.889 210.368 215.274 210.189 216.659C210.055 218.045 209.832 219.385 209.742 220.77C209.608 222.155 209.564 223.496 209.474 224.881C209.385 226.266 209.34 227.651 209.206 229.036C208.983 227.651 208.849 226.266 208.804 224.881C208.759 223.496 208.759 222.066 208.893 220.681C209.027 219.296 209.251 217.91 209.564 216.525C209.832 215.185 210.145 213.844 210.502 212.504Z" fill="#E88636"/>
<path d="M215.821 249.503C212.872 253.211 205.365 248.028 205.186 248.162C205.186 248.162 202.014 248.922 201.075 248.922C200.361 249.905 199.333 250.754 197.992 251.96C196.294 253.48 194.865 252.228 195.669 251.201C196.071 250.709 196.786 249.592 196.786 249.592C196.786 249.592 193.926 251.603 192.765 250.039C192.005 248.967 193.748 248.162 194.552 245.615C193.569 246.196 192.675 247.269 191.111 247.001C189.95 246.822 189.19 245.437 189.771 245.035C191.424 243.828 193.658 241.147 193.658 241.147C193.658 241.147 192.005 241.996 190.173 241.639C189.19 241.415 188.654 240.03 189.503 239.539C190.62 238.913 192.005 238.824 192.943 237.617C193.882 236.411 194.418 236.053 194.954 236.053C195.49 236.053 198.797 235.562 199.69 235.428C200.584 235.294 202.237 234.892 202.773 235.562C203.31 236.187 204.829 237.394 207.688 238.645C208.269 238.868 220.065 242.264 220.065 242.264L219.082 249.503H215.821Z" fill="#F9C1A7"/>
<path d="M194.909 236.008C196.026 235.695 197.143 235.427 198.26 235.204C198.841 235.07 199.377 234.981 199.958 234.846C200.539 234.712 201.12 234.623 201.79 234.623C202.103 234.668 202.461 234.712 202.863 234.936C202.952 234.98 203.041 235.115 203.086 235.159C203.131 235.204 203.175 235.249 203.22 235.293C203.309 235.383 203.399 235.472 203.488 235.561C203.89 235.919 204.337 236.276 204.784 236.589C205.678 237.259 206.661 237.84 207.644 238.466C206.527 238.198 205.41 237.751 204.382 237.215C203.846 236.947 203.354 236.589 202.907 236.232C202.773 236.142 202.684 236.008 202.55 235.919C202.505 235.874 202.461 235.785 202.371 235.74C202.326 235.695 202.326 235.695 202.282 235.695C202.192 235.606 201.969 235.561 201.701 235.561C201.209 235.517 200.629 235.606 200.092 235.695C199.511 235.785 198.931 235.829 198.35 235.874C197.233 236.008 196.071 236.098 194.909 236.008Z" fill="#DC918B"/>
<path d="M196.786 249.546C197.01 249.189 197.054 248.786 197.144 248.384C197.233 247.982 197.367 247.535 197.546 247.178C197.903 246.374 198.618 245.703 199.378 245.301C200.137 244.899 201.031 244.676 201.835 244.631C202.237 244.586 202.64 244.542 203.042 244.542C203.444 244.497 203.846 244.497 204.159 244.273C204.069 244.452 203.891 244.631 203.712 244.72C203.533 244.854 203.31 244.944 203.131 244.988C202.729 245.122 202.327 245.256 201.969 245.346C201.21 245.569 200.45 245.793 199.825 246.15C199.154 246.508 198.618 246.954 198.171 247.535C197.948 247.848 197.724 248.161 197.546 248.518C197.456 248.697 197.367 248.876 197.233 249.054C197.099 249.233 196.965 249.412 196.786 249.546Z" fill="#DC918B"/>
<path d="M194.509 245.57C194.911 244.855 195.447 244.229 195.939 243.648C196.207 243.335 196.475 243.067 196.788 242.755C197.1 242.442 197.458 242.218 197.86 241.995C198.575 241.593 199.379 241.369 200.139 241.146C200.541 241.057 200.898 240.967 201.301 240.923L201.881 240.833C202.06 240.789 202.284 240.789 202.462 240.699C202.373 240.923 202.194 241.012 202.015 241.146C201.837 241.28 201.658 241.369 201.479 241.459C201.122 241.638 200.764 241.816 200.407 241.995C199.692 242.308 198.932 242.576 198.217 242.844C197.86 242.978 197.503 243.112 197.19 243.291C196.877 243.514 196.564 243.782 196.296 244.006C195.671 244.497 195.09 244.989 194.509 245.57Z" fill="#DC918B"/>
<path d="M193.616 241.103C193.795 240.834 194.018 240.656 194.197 240.432C194.242 240.388 194.286 240.343 194.331 240.254C194.376 240.209 194.376 240.12 194.421 240.03C194.51 239.896 194.599 239.762 194.733 239.628C195.18 239.137 195.761 238.824 196.297 238.6C196.878 238.377 197.459 238.198 198.04 238.109C198.621 238.019 199.246 237.975 199.872 238.019C199.336 238.377 198.799 238.6 198.263 238.824C197.727 239.047 197.191 239.271 196.655 239.449C196.118 239.673 195.582 239.851 195.091 240.075C194.957 240.12 194.867 240.209 194.733 240.254C194.689 240.298 194.644 240.298 194.555 240.388C194.51 240.432 194.421 240.477 194.376 240.522C194.108 240.79 193.84 240.924 193.616 241.103Z" fill="#DC918B"/>
<path d="M315.013 174.836C310.321 176.445 308.712 177.964 308.712 177.964C286.103 191.234 276.541 242.351 276.541 242.351C276.541 242.351 253.664 250.126 246.068 254.907C238.784 259.464 238.338 266.569 238.338 266.569L236.104 326.935C240.08 327.203 239.008 331.761 239.008 331.761C239.008 331.761 287.444 325.371 293.074 321.707C297.587 318.758 300.67 311.922 301.563 305.621C302.904 296.596 316.666 193.111 317.56 188.285C318.23 184.621 318.587 178.187 315.013 174.836Z" fill="#9FBAC9"/>
<path d="M238.204 267.33C238.338 265.319 238.83 263.309 239.679 261.477C240.528 259.6 241.689 257.902 243.164 256.427C243.923 255.713 244.728 255.042 245.577 254.461C246.426 253.881 247.319 253.389 248.213 252.898C250 251.914 251.832 251.066 253.664 250.217C257.328 248.519 261.082 246.999 264.79 245.48C268.543 244.006 272.297 242.576 276.095 241.235L275.291 242.129C275.827 239.046 276.497 236.052 277.257 233.059C278.016 230.065 278.82 227.071 279.714 224.122C281.546 218.224 283.601 212.371 286.104 206.741C286.729 205.311 287.399 203.926 288.07 202.54C288.74 201.155 289.455 199.77 290.214 198.43C290.974 197.089 291.734 195.749 292.538 194.408C293.342 193.068 294.236 191.817 295.13 190.521C296.917 188.019 298.928 185.606 301.162 183.461C303.396 181.316 305.898 179.395 308.624 178.01C303.53 181.495 299.687 186.321 296.425 191.414C294.817 194.006 293.342 196.642 292.002 199.368C290.661 202.094 289.41 204.864 288.248 207.679C285.97 213.309 283.959 219.073 282.216 224.926C280.429 230.735 278.91 236.678 277.614 242.621L277.48 243.335L276.854 243.559C273.056 244.81 269.258 246.15 265.505 247.491C261.752 248.831 257.998 250.261 254.29 251.736C252.458 252.495 250.626 253.3 248.794 254.149C247.9 254.595 247.007 255.042 246.158 255.534C245.309 256.025 244.504 256.606 243.789 257.232C240.93 259.734 238.874 263.398 238.204 267.33Z" fill="#86A5BF"/>
<path d="M262.019 255.757C255.897 254.506 238.739 263.219 238.293 266.57C237.801 270.547 236.282 297.267 234.807 305.22C233.333 313.218 229.803 315.184 225.826 314.693L225.29 332.164C228.552 332.387 233.958 332.566 239.008 331.761C246.335 330.555 253.038 326.534 256.881 313.442C257.864 310.135 265.772 268.849 266.308 262.37C266.577 258.304 265.191 256.382 262.019 255.757Z" fill="#86A5BF"/>
<path d="M244.908 165.453C245.895 165.453 246.696 164.653 246.696 163.666C246.696 162.679 245.895 161.879 244.908 161.879C243.921 161.879 243.121 162.679 243.121 163.666C243.121 164.653 243.921 165.453 244.908 165.453Z" fill="#EDE9D9"/>
<path d="M257.419 138.822L255.81 139.627C255.408 139.805 255.229 140.252 255.408 140.654L255.766 141.637C255.944 142.084 256.436 142.308 256.883 142.084L258.491 141.325C258.893 141.146 259.072 140.699 258.938 140.297L258.581 139.269C258.402 138.822 257.866 138.644 257.419 138.822Z" fill="#EDE9D9"/>
<path d="M258.58 142.577L256.927 142.935C256.659 142.979 256.48 143.247 256.569 143.515L256.614 143.828C256.658 144.096 256.927 144.275 257.195 144.23L258.848 143.918C259.116 143.873 259.295 143.605 259.25 143.337L259.205 142.979C259.116 142.711 258.848 142.532 258.58 142.577Z" fill="#EDE9D9"/>
<path d="M168.054 102.316L183.916 107.678L184.988 132.075C180.833 131.315 173.818 117.151 173.684 106.561L168.054 102.316Z" fill="#31374C"/>
<path d="M184.452 98.8317C176.543 109.6 186.239 161.253 187.758 170.368C189.456 180.332 203.397 192.173 215.193 193.469C222.521 194.273 243.969 180.735 248.08 173.496C249.42 171.172 253.933 153.165 255.273 134.354C256.435 118.179 251.207 103.389 249.509 97.0444C249.509 97.0444 217.159 75.5968 182.084 97.938" fill="#FAC2A8"/>
<path d="M226.187 163.219C226.187 163.219 222.389 179.26 212.29 180.511C203.131 181.628 199.064 168.849 199.064 168.849C199.064 168.849 208.85 172.915 226.187 163.219Z" fill="#343948"/>
<path d="M226.053 163.263C226.008 163.397 225.964 163.576 225.919 163.71C226.053 163.397 226.142 163.219 226.142 163.219C226.142 163.263 226.098 163.263 226.053 163.263Z" fill="#31374C"/>
<path d="M199.019 168.851C199.019 168.851 199.733 170.281 200.404 172.068C204.023 172.783 214.166 173.587 225.024 166.84C225.783 165.455 225.649 164.338 225.962 163.757C226.007 163.623 226.051 163.445 226.096 163.311C208.804 172.873 199.019 168.851 199.019 168.851Z" fill="white"/>
<path d="M204.694 177.74C206.258 179.081 209.699 180.779 212.246 180.511C215.239 180.198 218.01 178.098 220.423 175.551C213.05 173.674 207.018 175.596 204.694 177.74Z" fill="#F97A7A"/>
<path d="M197.006 167.285C197.006 167.285 197.006 167.241 197.006 167.196C197.006 167.196 196.962 167.151 197.006 167.151L197.051 167.196C197.051 167.196 197.096 167.241 197.14 167.285C197.185 167.33 197.23 167.375 197.319 167.419C197.453 167.509 197.543 167.598 197.677 167.688C197.945 167.866 198.213 168 198.526 168.134C199.106 168.402 199.732 168.626 200.313 168.805C201.564 169.117 202.86 169.296 204.156 169.296C206.747 169.341 209.383 168.939 211.93 168.358C214.477 167.732 217.024 166.883 219.482 165.9C221.939 164.917 224.352 163.8 226.72 162.594L227.033 163.175C224.665 164.426 222.252 165.587 219.794 166.615C217.292 167.643 214.79 168.537 212.154 169.162C209.562 169.788 206.837 170.234 204.111 170.145C202.77 170.1 201.385 169.922 200.045 169.564C199.375 169.385 198.749 169.117 198.123 168.805C197.811 168.626 197.498 168.447 197.23 168.268C197.096 168.179 196.962 168.045 196.828 167.956C196.738 167.911 196.694 167.822 196.604 167.777C196.56 167.732 196.56 167.732 196.515 167.643L196.47 167.554C196.47 167.554 196.426 167.509 196.426 167.464C196.426 167.419 196.381 167.375 196.381 167.33L197.006 167.285Z" fill="#DC918B"/>
<path d="M222.209 161.968C222.924 161.745 223.639 161.7 224.398 161.789C225.113 161.879 225.873 162.057 226.543 162.415C226.901 162.594 227.169 162.817 227.482 163.04C227.75 163.308 228.062 163.532 228.241 163.845C228.733 164.426 229.001 165.14 229.179 165.811C228.733 165.23 228.375 164.649 227.839 164.157C227.347 163.666 226.811 163.264 226.186 162.996C225.024 162.415 223.639 162.102 222.209 161.968Z" fill="#DC918B"/>
<path d="M195.979 169.697C195.845 169.34 195.8 168.982 195.845 168.625C195.89 168.268 196.024 167.91 196.202 167.553C196.381 167.24 196.649 166.927 197.007 166.748C197.319 166.525 197.677 166.436 198.034 166.436C197.766 166.704 197.543 166.927 197.319 167.15C197.096 167.374 196.917 167.642 196.783 167.91C196.426 168.402 196.202 168.982 195.979 169.697Z" fill="#DC918B"/>
<path d="M199.33 168.716C199.956 170.324 200.76 171.888 201.698 173.363C202.637 174.837 203.664 176.223 204.96 177.384C206.211 178.546 207.686 179.484 209.339 179.887C210.143 180.065 210.992 180.155 211.841 180.065C212.243 180.065 212.69 179.931 213.092 179.887C213.316 179.842 213.494 179.797 213.718 179.708L214.031 179.618L214.343 179.529C215.952 178.993 217.382 178.01 218.633 176.803C219.258 176.223 219.839 175.552 220.376 174.882C220.912 174.212 221.403 173.497 221.85 172.737C222.744 171.263 223.548 169.699 224.218 168.046C224.888 166.437 225.469 164.739 225.871 163.086L226.542 163.22C225.693 166.705 224.397 170.056 222.565 173.139C222.118 173.899 221.582 174.659 221.046 175.374C220.465 176.089 219.884 176.759 219.259 177.384C217.963 178.635 216.399 179.708 214.656 180.289C212.958 180.914 210.992 181.093 209.205 180.646C207.373 180.199 205.809 179.172 204.469 177.921C203.128 176.669 202.056 175.24 201.117 173.676C200.179 172.156 199.419 170.548 198.794 168.85L199.33 168.716Z" fill="#DC918B"/>
<path d="M218.769 137.348C218.01 138.376 216.625 138.599 215.597 137.84C214.569 137.08 214.346 135.695 215.105 134.667C215.865 133.64 217.25 133.416 218.278 134.176C219.306 134.891 219.529 136.32 218.769 137.348Z" fill="#31374C"/>
<path d="M216.355 137.079C216.131 137.347 215.774 137.436 215.461 137.213C215.193 136.99 215.103 136.632 215.327 136.319C215.55 136.051 215.908 135.962 216.22 136.185C216.533 136.364 216.578 136.766 216.355 137.079Z" fill="white"/>
<path d="M195 138.332C194.285 139.27 192.989 139.493 192.006 138.778C191.068 138.063 190.845 136.768 191.559 135.785C192.274 134.846 193.57 134.623 194.553 135.338C195.447 136.053 195.67 137.393 195 138.332Z" fill="#31374C"/>
<path d="M192.718 138.109C192.54 138.377 192.138 138.422 191.914 138.243C191.646 138.064 191.601 137.662 191.78 137.439C191.959 137.17 192.361 137.126 192.584 137.305C192.852 137.439 192.897 137.841 192.718 138.109Z" fill="white"/>
<g opacity="0.2">
<path opacity="0.2" d="M185.749 143.693C185.436 145.257 187.268 147.044 189.904 147.714C192.54 148.385 194.909 147.625 195.221 146.061C195.534 144.497 193.702 142.71 191.066 142.04C188.43 141.37 186.061 142.084 185.749 143.693Z" fill="#EF3F54"/>
</g>
<g opacity="0.2">
<path opacity="0.2" d="M228.823 142.443C229.27 144.275 227.17 146.419 224.176 147.268C221.182 148.117 218.367 147.358 217.92 145.526C217.473 143.694 219.574 141.549 222.567 140.7C225.606 139.851 228.421 140.611 228.823 142.443Z" fill="#EF3F54"/>
</g>
<path opacity="0.56" d="M196.964 132.657C196.964 132.657 200.404 143.247 197.143 158.93C197.143 158.93 205.007 166.079 211.709 158.752C211.709 158.752 206.794 149.1 209.475 132.076C209.43 132.076 204.068 133.059 196.964 132.657Z" fill="url(#paint1_linear)"/>
<path d="M197.145 158.931C197.145 158.931 204.651 170.012 211.711 158.752C211.711 158.752 201.657 160.092 197.145 158.931Z" fill="#DC918B"/>
<path d="M179.538 94.6772C185.302 88.3323 228.51 76.4021 256.481 89.4493C260.323 91.2366 262.558 96.5985 264.345 104.909C267.562 119.61 259.743 156.875 250.046 167.42C250.046 167.42 247.41 151.558 243.523 143.426C236.955 132.344 234.765 120.548 235.659 111.165C236.731 103.212 250.761 100.039 247.544 98.1177C241.825 94.6325 229.671 82.0321 204.202 90.477C204.202 90.477 167.92 114.427 167.607 102.05C167.652 101.96 173.774 101.022 179.538 94.6772Z" fill="#31374C"/>
<path d="M246.695 123.005C246.695 123.005 221.941 127.965 209.251 96.4193C198.438 108.305 201.655 119.788 190.082 122.514C186.463 123.363 178.018 118.403 180.476 108.618C180.476 108.618 178.152 119.565 171.673 118.537C165.194 117.509 169.796 110.271 169.796 110.271C169.796 110.271 164.747 112.773 163.541 111.433C157.956 104.998 167.026 95.7491 176.32 93.2022C176.32 93.2022 166.266 97.2683 167.607 89.4489C168.947 81.6295 195.176 68.2247 218.679 75.2846C218.679 75.2846 233.424 70.7716 243.925 75.0611C253.04 78.8145 261.798 95.6151 254.157 113.667C254.157 113.667 263.495 128.099 256.212 136.41C256.257 136.455 252.414 129.484 246.695 123.005Z" fill="#31374C"/>
<path d="M242.361 143.47C242.361 143.47 242.942 134.265 251.164 136.053C259.385 137.84 262.602 160.673 244.283 158.751C244.283 158.751 239.368 155.847 242.361 143.47Z" fill="#FAC2A8"/>
<path d="M252.551 141.681C251.568 141.279 250.451 141.056 249.423 141.235C248.351 141.369 247.502 141.994 246.966 142.888C246.43 143.737 246.161 144.765 245.983 145.748C245.804 146.775 245.804 147.803 245.804 148.831L245.402 148.563C246.43 148.294 247.457 148.294 248.44 148.741C249.423 149.143 250.049 150.082 250.272 151.02C250.406 151.512 250.406 152.003 250.272 152.495C250.138 152.986 249.87 153.433 249.513 153.79C248.798 154.505 247.904 154.952 246.966 155.22C247.859 154.818 248.708 154.327 249.289 153.612C249.557 153.254 249.781 152.852 249.87 152.45C249.915 152.048 249.915 151.601 249.781 151.199C249.513 150.35 248.976 149.635 248.172 149.322C247.368 149.009 246.385 149.009 245.536 149.233L245.134 149.322V148.92C245.134 147.848 245.178 146.775 245.357 145.748C245.536 144.72 245.849 143.603 246.474 142.664C247.1 141.726 248.172 141.056 249.334 140.967C250.54 140.832 251.613 141.145 252.551 141.681Z" fill="#DC918B"/>
<path d="M228.822 124.167C223.014 122.157 220.958 121.218 212.156 122.112C210.681 122.246 211.039 118.493 212.29 117.689C217.026 114.561 223.505 118.448 229.403 122.157C230.118 122.604 229.671 124.436 228.822 124.167Z" fill="#31374C"/>
<path d="M183.425 129.931C186.865 128.993 187.178 125.329 195.802 125.105C197.276 125.061 197.053 121.665 195.891 120.727C193.478 118.761 185.614 123.72 183.246 126.982C182.665 127.697 182.531 130.199 183.425 129.931Z" fill="#31374C"/>
</g>
<defs>
<linearGradient id="paint0_linear" x1="197.835" y1="-7.80594" x2="402.631" y2="295.816" gradientUnits="userSpaceOnUse">
<stop offset="0.0036859" stop-color="#EDEFFF"/>
<stop offset="0.487" stop-color="#F8F9FF"/>
<stop offset="1" stop-color="white"/>
</linearGradient>
<linearGradient id="paint1_linear" x1="204.111" y1="132.13" x2="204.476" y2="162.041" gradientUnits="userSpaceOnUse">
<stop stop-color="#FAC2A8"/>
<stop offset="0.2649" stop-color="#F7BCA5"/>
<stop offset="0.6073" stop-color="#EDAC9B"/>
<stop offset="0.9909" stop-color="#DC928B"/>
<stop offset="1" stop-color="#DC918B"/>
</linearGradient>
</defs>
</svg>
