<svg width="160" height="273" viewBox="0 0 160 273" fill="none" xmlns="http://www.w3.org/2000/svg">
<mask id="mask0" mask-type="alpha" maskUnits="userSpaceOnUse" x="0" y="0" width="160" height="273">
<rect width="160" height="273" fill="#C4C4C4"/>
</mask>
<g mask="url(#mask0)">
<path d="M108.65 244.629L108.402 256.359C108.402 256.359 93.5492 263.174 82.7807 264.413C74.6528 304.767 76.5919 307.493 75.8492 311.376C75.4779 313.317 73.3325 337.769 73.5388 338.925C73.7863 340.082 73.9926 342.065 73.6213 343.428C73.3325 344.419 74.0339 349.747 74.0339 349.747C74.0339 349.747 70.7744 350.697 66.5661 351.151C62.3577 351.606 56.9941 350.119 55.3438 350.119C55.3438 350.119 55.7563 347.269 55.3025 345.493C54.9312 344.006 56.2515 342.147 55.7563 340.536C55.3025 338.884 54.6011 323.147 54.6424 313.937C54.6424 312.987 54.9724 299.398 56.1277 296.093C55.6738 266.479 55.7976 261.357 55.7151 259.87C55.385 253.84 55.385 246.24 55.385 244.381C55.385 242.522 60.2123 240.994 60.2123 240.994L108.65 244.629Z" fill="#474E64"/>
<path d="M108.401 256.361C108.401 256.361 106.833 292.42 106.833 294.072C106.833 295.724 105.636 340.662 106.131 341.819C106.585 342.975 107.328 348.717 107.328 348.717C107.328 348.717 102.542 350.617 99.3651 350.864C96.4357 351.071 95.0742 351.236 87.1525 349.378C87.8127 344.628 87.7302 339.299 87.7302 337.689C87.7302 336.036 86.8637 325.545 86.8637 322.984C86.8637 320.424 84.7183 305.224 86.3686 298.822C86.8637 296.88 85.4609 264.044 85.4609 264.044C85.4609 264.044 94.9091 261.648 108.401 256.361Z" fill="#343948"/>
<path d="M84.2224 244.258C84.2224 245.414 84.2224 246.571 84.1811 247.727C84.1811 248.884 84.1399 250.04 84.1399 251.197C84.0986 253.51 84.0161 255.782 83.8923 258.095L83.5622 257.723H87.4406L87.0692 258.053C87.1517 256.401 87.2343 254.749 87.358 253.056C87.4405 251.403 87.5643 249.751 87.6881 248.058V247.851H87.8944C88.8433 247.769 89.7923 247.686 90.7412 247.645L90.6175 247.81C90.5349 246.53 90.4524 245.249 90.4112 243.969C90.6175 245.249 90.7825 246.53 90.9475 247.81L90.9888 247.975L90.8238 248.017C89.8748 248.14 88.9259 248.264 88.0182 248.388L88.2245 248.14C88.1832 249.793 88.1419 251.486 88.0594 253.138C88.0182 254.79 87.8944 256.442 87.8531 258.136V258.466H87.5231H83.6448H83.2734V258.095C83.3972 255.782 83.5622 253.51 83.686 251.197C83.7685 250.04 83.8511 248.884 83.9336 247.769C84.0161 246.571 84.0986 245.414 84.2224 244.258Z" fill="#343948"/>
<path d="M51.7941 174.041C43.2535 183.871 28.2354 200.517 27.5753 205.762C27.4515 206.878 37.8899 209.81 37.8899 209.81L57.9003 191.926L51.7941 174.041Z" fill="#FAC2A8"/>
<path d="M55.5078 244.424L55.7554 235.667L108.649 233.809V244.63C83.2748 248.967 55.5078 244.424 55.5078 244.424Z" fill="#2B2E3A"/>
<path d="M91.3213 247.521H85.5038C83.6884 247.521 82.2031 246.034 82.2031 244.217V240.541C82.2031 238.723 83.6884 237.236 85.5038 237.236H91.3213V239.343H85.5038C84.8437 239.343 84.3073 239.88 84.3073 240.541V244.217C84.3073 244.878 84.8437 245.414 85.5038 245.414H91.3213V247.521Z" fill="#545B72"/>
<path d="M91.7723 241.326H87.3164V243.433H91.7723V241.326Z" fill="#545B72"/>
<path d="M96.8906 190.893L111.496 207.828L122.265 200.269L103.905 172.018L96.8906 190.893Z" fill="#F9C1A7"/>
<path d="M101.016 167.805C101.016 167.805 110.135 172.018 116.86 190.15C113.435 192.009 107.37 195.354 106.916 203.946L96.8906 192.917L101.016 167.805Z" fill="#EF3F54"/>
<path d="M137.117 171.15C137.117 171.15 127.298 196.469 123.749 202.789C121.851 206.093 117.024 209.48 115.126 210.182C114.301 210.471 109.68 207.332 109.598 203.367C109.598 202.541 109.639 201.591 109.804 200.558C110.217 197.956 126.472 171.563 126.472 171.563C127.793 164.996 138.602 164.335 137.117 171.15Z" fill="#F9C1A7"/>
<path d="M128.246 171.15C127.545 169.746 126.72 168.094 127.008 166.524C127.297 164.913 129.731 160.494 130.598 159.833C131.506 159.172 132.702 158.759 133.156 157.644C133.61 156.529 134.064 154.216 135.425 154.876C138.231 156.198 136.869 159.461 135.178 161.65C135.095 162.518 135.054 163.302 134.971 164.17C135.755 164.211 136.127 164.376 137.034 164.335C137.942 164.294 139.592 163.963 140.582 163.839C141.531 163.757 145.781 163.674 146.895 163.468C148.009 163.261 148.71 163.426 149.701 162.765C150.691 162.105 153.95 159.213 157.168 161.155C157.911 161.609 157.581 162.105 157.663 162.6C158.365 163.055 159.685 163.468 159.809 164.459C159.974 165.45 158.159 166.194 157.498 166.648C157.663 167.144 158.489 167.391 158.241 168.094C157.952 168.796 154.28 170.448 153.538 171.191C152.795 171.935 149.701 176.189 148.463 176.437C147.184 176.685 142.274 177.346 140.954 177.676C139.675 178.007 138.52 178.626 136.745 178.791C134.971 178.957 132.496 178.461 130.969 176.933C129.443 175.404 128.617 173.298 128.246 171.15Z" fill="#F9C1A7"/>
<path d="M134.888 164.293C135.177 165.449 135.342 166.606 135.218 167.845C135.136 168.423 135.012 169.043 134.682 169.58C134.393 170.117 133.898 170.571 133.32 170.778C133.733 170.365 134.063 169.91 134.269 169.373C134.476 168.878 134.641 168.341 134.723 167.762C134.806 167.184 134.847 166.647 134.888 166.069C134.888 165.449 134.888 164.871 134.888 164.293Z" fill="#DC918B"/>
<path d="M153.371 171.316C153.206 170.862 153.083 170.573 152.835 170.366C152.587 170.159 152.216 170.036 151.845 170.036C151.061 169.994 150.277 170.242 149.617 170.614C148.957 171.027 148.338 171.605 147.843 172.225C147.348 172.844 146.894 173.546 146.729 174.372C146.646 173.959 146.688 173.505 146.853 173.092C146.976 172.679 147.224 172.307 147.471 171.936C148.008 171.233 148.627 170.614 149.328 170.118C149.699 169.87 150.153 169.705 150.566 169.581C150.978 169.457 151.432 169.416 151.886 169.416C152.34 169.416 152.835 169.499 153.248 169.87C153.454 170.036 153.578 170.325 153.578 170.573C153.619 170.903 153.536 171.151 153.371 171.316Z" fill="#DC918B"/>
<path d="M147.35 172.678C145.782 172.719 144.255 172.76 142.688 172.802" stroke="#DC918B" stroke-width="1.2793" stroke-miterlimit="10"/>
<path d="M157.5 166.647C156.881 166.317 156.262 166.234 155.643 166.151C155.025 166.069 154.364 166.069 153.704 166.151C153.085 166.193 152.467 166.399 151.93 166.688C151.394 166.978 150.857 167.391 150.445 167.845C150.321 167.969 150.239 168.093 150.156 168.217L149.867 168.63C149.826 168.712 149.743 168.795 149.661 168.878C149.578 168.96 149.455 169.001 149.331 169.043C149.125 169.084 149.001 169.125 148.836 169.167C148.176 169.291 147.557 169.456 146.897 169.58C145.618 169.869 144.297 170.158 142.977 170.364L142.895 169.91C144.174 169.621 145.453 169.291 146.773 169.001C147.433 168.836 148.052 168.712 148.712 168.547C148.877 168.506 149.042 168.464 149.166 168.423C149.207 168.423 149.248 168.382 149.29 168.382C149.331 168.341 149.372 168.299 149.413 168.258L149.702 167.845C149.826 167.721 149.908 167.556 150.032 167.432C150.527 166.936 151.064 166.482 151.683 166.193C152.301 165.862 153.003 165.656 153.704 165.615C154.364 165.573 155.066 165.573 155.767 165.697C156.345 165.78 157.046 166.069 157.5 166.647Z" fill="#DC918B"/>
<path d="M157.209 162.682C156.508 162.641 155.848 162.682 155.229 162.889C154.94 163.013 154.61 163.178 154.28 163.302C153.95 163.426 153.661 163.55 153.331 163.674C152.712 163.922 152.093 164.211 151.515 164.541C150.938 164.872 150.401 165.243 150.113 165.78L150.03 165.863L149.948 165.904C147.72 166.73 145.368 167.102 143.016 167.391L142.934 166.854C145.244 166.565 147.555 166.193 149.741 165.367L149.617 165.491C149.989 164.789 150.608 164.335 151.227 164.004C151.845 163.632 152.506 163.426 153.166 163.178C153.496 163.054 153.826 162.972 154.156 162.848C154.321 162.806 154.486 162.765 154.651 162.682C154.775 162.641 154.981 162.559 155.146 162.517C155.848 162.393 156.59 162.476 157.209 162.682Z" fill="#DC918B"/>
<path d="M142.852 165.615C142.975 166.4 143.058 167.143 143.099 167.887C143.14 168.63 143.182 169.415 143.182 170.2C143.14 171.728 142.893 173.339 142.191 174.702C142.356 173.959 142.439 173.215 142.521 172.43C142.604 171.687 142.645 170.943 142.645 170.159L142.687 167.887C142.728 167.143 142.728 166.4 142.852 165.615Z" fill="#DC918B"/>
<path d="M53.7737 174.331C54.8052 168.053 60.2926 163.468 66.6464 163.468C70.1121 163.468 74.403 160.907 78.6939 161.485C84.8001 162.394 96.6826 165.864 101.056 167.764C108.276 183.707 105.512 216.874 110.009 239.591C99.7357 240.623 71.8037 243.019 55.2178 239.467C60.1275 201.467 49.8954 197.957 53.7737 174.331Z" fill="#EF3F54"/>
<path d="M67.8008 161.113L68.7497 148.02L88.43 151.819C88.43 151.819 87.0272 158.924 86.986 164.045C86.986 164.045 87.0272 165.285 86.9447 166.937C85.6657 167.515 84.2629 167.887 82.8601 167.804C79.5182 167.721 72.463 163.839 67.8008 161.113Z" fill="#DC918B"/>
<path d="M82.7786 167.804C84.1814 167.846 85.5842 167.474 86.8632 166.937C86.6981 169.663 86.1205 173.546 84.2226 174.991C71.515 173.876 67.6367 162.931 67.6367 162.931L67.7605 161.113C72.464 163.839 79.5192 167.722 82.7786 167.804Z" fill="#FAC2A8"/>
<path d="M107.37 95.0697C107.947 95.0697 108.442 94.574 108.442 93.9958C108.442 93.4175 107.947 92.9219 107.37 92.9219C106.792 92.9219 106.297 93.4175 106.297 93.9958C106.297 94.574 106.751 95.0697 107.37 95.0697Z" fill="white"/>
<path d="M114.715 110.351C114.715 110.351 118.098 98.0015 125.896 103.247C133.694 108.493 124.741 129.145 113.188 126.129C113.147 126.129 111.249 121.586 114.715 110.351Z" fill="#F7AB8D"/>
<path d="M49.8123 56.5333C46.5528 71.1961 52.9479 136.993 55.9598 141.289C58.9717 145.584 80.3436 160.619 90.3281 159.339C100.313 158.058 117.765 148.269 120.571 142.652C123.376 137.034 123.995 56.7398 123.995 56.7398C87.6051 34.1466 49.8123 56.5333 49.8123 56.5333Z" fill="#FAC2A8"/>
<g opacity="0.3">
<path opacity="0.5" d="M81.7073 104.899C81.4598 106.468 78.7367 107.336 75.6423 106.799C72.5479 106.262 70.2787 104.568 70.5263 102.999C70.7738 101.429 73.4969 100.562 76.5913 101.099C79.6857 101.636 81.9549 103.329 81.7073 104.899Z" fill="#EF3F54"/>
<path opacity="0.5" d="M120.162 106.056C120.368 107.419 118.346 108.906 115.664 109.319C112.983 109.732 110.631 108.988 110.425 107.584C110.218 106.221 112.24 104.734 114.922 104.321C117.604 103.908 119.955 104.693 120.162 106.056Z" fill="#EF3F54"/>
</g>
<path d="M119.211 87.0971C117.065 84.8254 114.59 83.1319 109.845 83.2558C107.411 83.6276 104.853 83.8341 106.916 81.0667C110.464 76.8951 120.49 81.108 121.934 87.8819C122.883 90.8144 120.49 88.8731 119.211 87.0971Z" fill="#2B2E3A"/>
<path d="M72.1747 84.4541C74.5264 82.3476 77.1257 80.9433 81.8704 81.4389C84.2634 82.0172 86.8214 82.4302 85.006 79.539C81.8704 75.0368 71.4733 78.3825 69.4103 85.0324C68.1726 87.841 70.7306 86.1063 72.1747 84.4541Z" fill="#2B2E3A"/>
<path opacity="0.56" d="M106.544 85.8165C106.544 85.8165 97.1369 98.7859 106.461 115.431C106.461 115.431 96.1467 120.553 88.4727 113.531C88.4727 113.531 94.1663 98.1251 91.0307 81.6035C91.0307 81.6448 98.416 86.3122 106.544 85.8165Z" fill="url(#paint0_linear)"/>
<path d="M106.461 115.431C106.461 115.431 94.9915 130.425 88.4727 113.531C88.4727 113.531 97.3845 116.918 106.461 115.431Z" fill="#DC918B"/>
<path d="M110.668 125.137C110.668 125.137 92.1434 133.48 69.7812 117C69.7812 117 75.2274 141.452 90.2042 143.269C105.8 143.558 99.6524 133.398 110.668 125.137Z" fill="#2B2E3A"/>
<path d="M77.293 134.35C88.8454 134.887 94.6628 138.81 97.5097 142.197C95.7768 142.941 93.4663 143.354 90.1656 143.313C84.637 142.61 80.4286 138.81 77.293 134.35Z" fill="#F97A7A"/>
<path d="M110.668 125.137C107.326 127.615 106.46 129.309 104.892 131.745C97.837 133.15 85.9958 131.911 72.8344 125.219C70.2763 119.602 69.7812 117 69.7812 117C92.1434 133.48 110.668 125.137 110.668 125.137Z" fill="white"/>
<path d="M110.672 125.137C109.021 125.839 107.247 126.335 105.473 126.707C103.699 127.079 101.884 127.285 100.068 127.368C99.1607 127.409 98.253 127.409 97.3453 127.409C96.4377 127.368 95.53 127.326 94.6223 127.244C93.7146 127.161 92.8069 127.079 91.8992 126.913C90.9915 126.789 90.1251 126.583 89.2174 126.418C88.351 126.211 87.4433 126.005 86.5769 125.757C85.7104 125.509 84.844 125.22 83.9776 124.931C83.1111 124.642 82.2447 124.311 81.4196 123.981C80.5944 123.609 79.728 123.279 78.944 122.866C78.1189 122.494 77.2937 122.081 76.5098 121.627C75.6846 121.213 74.942 120.718 74.1581 120.263C73.3741 119.809 72.6315 119.272 71.8476 118.818L69.6196 117.248L70.156 116.918C70.486 118.322 70.8986 119.727 71.3525 121.131C71.8063 122.494 72.3014 123.898 72.879 125.22C73.993 127.905 75.272 130.548 76.8399 132.985C78.4077 135.422 80.2643 137.694 82.4923 139.511C84.7202 141.328 87.402 142.609 90.2489 142.981H90.2076C90.8265 142.981 91.4041 143.022 92.023 142.981C92.6419 142.981 93.2195 142.898 93.8384 142.857C94.416 142.774 95.0349 142.691 95.6125 142.568C95.9013 142.526 96.1901 142.444 96.4789 142.32C96.7677 142.237 97.0565 142.113 97.3041 142.031C97.8817 141.824 98.3768 141.535 98.8719 141.205C99.367 140.874 99.8209 140.461 100.192 140.007C101.017 139.139 101.595 138.065 102.173 136.992C103.245 134.802 104.194 132.489 105.556 130.466C105.886 129.97 106.257 129.474 106.629 128.979C107 128.483 107.412 128.029 107.866 127.616C108.32 127.203 108.733 126.748 109.228 126.376C109.682 125.881 110.177 125.509 110.672 125.137ZM110.672 125.137C110.218 125.509 109.723 125.922 109.269 126.335C108.815 126.748 108.403 127.203 107.949 127.616C107.536 128.07 107.124 128.524 106.752 129.02C106.381 129.516 106.051 130.011 105.721 130.507C105.061 131.539 104.524 132.613 103.988 133.729C103.493 134.844 102.998 135.959 102.461 137.074C101.925 138.189 101.306 139.305 100.481 140.213C100.068 140.709 99.5733 141.122 99.0782 141.494C98.5418 141.865 98.0055 142.154 97.4279 142.402C97.139 142.526 96.8502 142.65 96.5614 142.733C96.2726 142.815 95.9838 142.939 95.6537 142.981C95.0349 143.146 94.416 143.228 93.8384 143.311C93.2195 143.394 92.6006 143.435 91.9817 143.476C91.3629 143.518 90.744 143.518 90.1251 143.518H90.0838C87.1132 143.187 84.3076 141.824 81.9972 139.965C79.6867 138.107 77.7888 135.752 76.1797 133.274C74.5706 130.796 73.2504 128.153 72.1364 125.385C71.6 124.022 71.0637 122.618 70.6098 121.213C70.156 119.809 69.7434 118.405 69.4133 116.959L69.207 116.092L69.9497 116.587L72.1364 118.157C72.879 118.653 73.6217 119.148 74.4056 119.603C75.1895 120.057 75.9322 120.553 76.7573 120.966C77.5413 121.42 78.3252 121.833 79.1503 122.205C79.9342 122.618 80.8007 122.948 81.6258 123.32C82.451 123.692 83.2762 123.981 84.1426 124.311C85.009 124.6 85.8342 124.89 86.7006 125.137C87.5671 125.426 88.4335 125.633 89.2999 125.839C90.1664 126.046 91.074 126.211 91.9405 126.376C92.8482 126.542 93.7146 126.666 94.6223 126.748C95.53 126.831 96.4377 126.913 97.3041 126.955C98.2118 126.996 99.1195 126.996 100.027 126.955C101.843 126.913 103.617 126.707 105.432 126.418C107.206 126.211 108.98 125.798 110.672 125.137Z" fill="#DC918B"/>
<path d="M74.032 116.506C74.032 116.506 73.4544 116.341 72.588 116.258C72.3817 116.217 72.1341 116.217 71.8866 116.217C71.639 116.217 71.3915 116.258 71.1439 116.258C70.8964 116.299 70.6075 116.341 70.36 116.423C70.2362 116.464 70.1124 116.506 69.9887 116.547L69.6173 116.712C69.3698 116.795 69.1635 117.001 68.9159 117.125C68.7097 117.291 68.5034 117.456 68.2971 117.621C68.132 117.827 67.967 117.993 67.802 118.199C67.6782 118.406 67.5132 118.571 67.3894 118.777C67.2656 118.943 67.1418 119.108 67.0593 119.273C66.9768 119.438 66.8943 119.562 66.8118 119.686C66.688 119.893 66.6055 120.017 66.6055 120.017C66.6055 120.017 66.6467 119.851 66.688 119.604C66.7705 119.356 66.8118 118.984 67.0181 118.571C67.1006 118.364 67.2243 118.117 67.3481 117.91C67.5132 117.704 67.6369 117.456 67.8432 117.208C68.0495 117.001 68.2558 116.754 68.5034 116.588C68.7509 116.423 68.9985 116.217 69.3285 116.093L69.7824 115.928C69.9474 115.886 70.0712 115.845 70.2362 115.804C70.525 115.721 70.8551 115.721 71.1439 115.68C71.4327 115.68 71.7215 115.68 71.9691 115.762C72.2166 115.804 72.4642 115.845 72.7117 115.928C73.5782 116.093 74.032 116.506 74.032 116.506Z" fill="#DC918B"/>
<path d="M57.652 84.1225C57.652 84.1225 60.6226 78.9595 57.2807 68.014C53.9388 57.0685 55.6716 55.2511 55.6716 55.2511C55.6716 55.2511 56.4143 51.2859 53.7737 45.7512C51.2157 40.2578 51.0507 38.8948 47.2961 40.8774C39.0444 45.2143 32.2368 53.9294 31.7417 69.914C31.4941 77.1008 44.9031 106.963 45.687 110.516L51.1744 107.5C51.1744 107.5 55.259 113.035 56.373 118.9C56.373 118.9 56.2905 101.718 54.1863 91.0202C52.1234 80.2812 54.6401 82.8834 57.652 84.1225Z" fill="#2B2E3A"/>
<path d="M52.3292 108.534C52.3292 108.534 49.1936 99.3237 41.6845 103.454C34.1342 107.626 37.3111 131.871 54.7222 124.643C54.681 124.684 58.7243 120.306 52.3292 108.534Z" fill="#FAC2A8"/>
<path d="M52.3315 108.534C52.3315 108.534 49.1959 99.3237 41.6868 103.454C34.1365 107.626 38.1386 134.68 55.5084 127.493C55.5084 127.493 58.7266 120.306 52.3315 108.534Z" fill="#FAC2A8"/>
<path d="M43.2108 110.806C43.252 110.021 43.3346 109.236 43.6646 108.493C43.8297 108.121 44.036 107.79 44.3248 107.501C44.6136 107.212 44.9849 107.006 45.3562 106.923C45.7276 106.799 46.1814 106.799 46.5527 106.923C46.9653 107.047 47.2954 107.295 47.5842 107.584C48.1618 108.162 48.5744 108.823 48.9457 109.525C49.317 110.227 49.6059 110.971 49.8534 111.714C50.3485 113.201 50.7611 114.729 51.0499 116.258L51.0912 116.382L50.9674 116.423C50.1422 116.629 49.3583 117.084 48.7807 117.703C48.4919 118.034 48.3268 118.405 48.2856 118.86C48.2031 119.273 48.2856 119.727 48.3681 120.14C48.4094 120.347 48.4919 120.553 48.5744 120.76C48.6569 120.966 48.7394 121.173 48.8632 121.338C48.987 121.545 49.0695 121.71 49.1933 121.916C49.317 122.082 49.4408 122.288 49.5646 122.453C50.101 123.155 50.7198 123.816 51.3387 124.436C50.6786 123.858 50.0597 123.238 49.4821 122.536C48.9457 121.834 48.4094 121.09 48.1618 120.223C48.038 119.81 47.9555 119.314 48.038 118.86C48.0793 118.405 48.2856 117.951 48.5744 117.621C48.8632 117.249 49.2345 116.96 49.6059 116.753C50.0184 116.505 50.431 116.34 50.8436 116.216L50.7611 116.382C50.4723 114.853 50.0597 113.366 49.5646 111.879C49.317 111.136 49.0282 110.434 48.6982 109.732C48.3681 109.03 47.9555 108.369 47.4192 107.832C47.1303 107.584 46.8415 107.336 46.5115 107.212C46.1814 107.088 45.8101 107.088 45.4387 107.171C45.0674 107.253 44.7373 107.46 44.4485 107.708C44.1597 107.956 43.9534 108.286 43.7884 108.616C43.4583 109.319 43.3346 110.103 43.2933 110.847C43.252 111.632 43.252 112.416 43.3346 113.16C43.2108 112.375 43.1695 111.59 43.2108 110.806Z" fill="#C28482"/>
<path d="M53.6078 58.8048C53.6078 58.8048 70.1524 65.7438 88.8425 63.0178C88.8425 63.0178 83.2726 58.3504 82.6125 54.6744C82.6125 54.6744 90.8642 60.4982 100.147 61.7787C109.431 63.0591 121.973 63.1004 123.128 69.8742C123.128 69.8742 125.934 66.1156 122.138 55.8309C118.342 45.5462 88.6362 8.86845 47.3365 43.605C47.3365 43.605 44.7784 63.8852 53.6078 58.8048Z" fill="#2B2E3A"/>
<path d="M124.534 59.5059C124.534 59.5059 127.628 55.4581 129.856 66.4449C132.084 77.4317 126.596 105.436 123.007 108.079C123.007 98.5793 122.759 65.7427 120.119 61.6124C117.478 57.4407 124.534 59.5059 124.534 59.5059Z" fill="#2B2E3A"/>
<path d="M138.849 51.5345C131.298 55.5823 124.119 42.6542 124.119 42.6542L130.803 45.3389C130.803 45.3389 132.33 39.7629 114.094 29.6434C95.8986 19.4827 70.8135 28.7761 64.4596 31.4195C58.1058 34.063 56.2079 27.0413 56.2079 27.0413C48.6576 32.0391 45.7695 46.2476 45.7695 46.2476C68.0079 39.6803 99.0343 50.2954 119.086 60.9518C139.138 71.6081 143.8 47.6932 143.8 47.6932C141.902 49.5106 138.849 51.5345 138.849 51.5345Z" fill="#2B2E3A"/>
<path d="M111.373 100.439C112.817 100.439 113.972 99.2821 113.972 97.8365C113.972 96.3909 112.817 95.2344 111.373 95.2344C109.929 95.2344 108.773 96.3909 108.773 97.8365C108.773 99.2821 109.929 100.439 111.373 100.439Z" fill="#2B2E3A"/>
<path d="M110.503 97.8363C110.998 97.8363 111.37 97.4646 111.37 96.9689C111.37 96.4733 110.998 96.1016 110.503 96.1016C110.008 96.1016 109.637 96.4733 109.637 96.9689C109.637 97.4646 110.008 97.8363 110.503 97.8363Z" fill="white"/>
<path d="M81.3766 98.7453C82.8207 98.7453 83.9759 97.5888 83.9759 96.1432C83.9759 94.6975 82.8207 93.541 81.3766 93.541C79.9326 93.541 78.7773 94.6975 78.7773 96.1432C78.7773 97.5475 79.9326 98.7453 81.3766 98.7453Z" fill="#2B2E3A"/>
<path d="M80.511 96.143C81.0061 96.143 81.3774 95.7712 81.3774 95.2756C81.3774 94.7799 81.0061 94.4082 80.511 94.4082C80.0159 94.4082 79.6445 94.7799 79.6445 95.2756C79.6445 95.7712 80.0159 96.143 80.511 96.143Z" fill="white"/>
<path d="M86.4116 167.516C90.0011 170.325 94.3745 175.571 94.3745 175.571C94.3745 175.571 93.2192 169.292 92.4766 165.699C91.5689 163.551 87.2368 159.297 87.2368 159.297C87.2368 159.297 86.3703 165.988 86.4116 167.516Z" fill="#BD1A3B"/>
<path d="M52.7429 168.507C55.9611 165.533 63.1401 164.376 63.1401 164.376C64.0478 163.757 73.2484 172.72 67.4722 180.154C64.3778 184.161 56.0024 197.791 50.4737 204.358C46.3891 198.865 40.5717 193.454 37.0234 188.539C43.2122 181.063 47.7507 173.133 52.7429 168.507Z" fill="#EF3F54"/>
<path d="M76.4661 189.531C76.3011 189.531 76.1361 189.573 75.971 189.82L74.1144 192.34L73.413 189.862C73.3305 189.614 73.1655 189.531 73.0417 189.531C72.8354 189.531 72.7116 189.614 72.5878 189.82L70.9375 193.125H71.8452L72.9592 190.853L73.6606 193.125H74.4445L76.1361 190.853V193.125H76.92V189.944C76.8375 189.655 76.6724 189.531 76.4661 189.531Z" fill="white"/>
<path d="M69.8247 190.109L69.082 193.125H69.9485L70.6499 190.109H69.8247Z" fill="white"/>
<path d="M68.4223 190.977C68.4635 190.564 68.2572 190.109 67.3908 190.109H65.7817L65.0391 193.125H65.8642L66.153 192.009H66.5656L67.3083 193.125H68.216L67.3908 191.927C68.0922 191.762 68.3397 191.39 68.4223 190.977ZM66.8544 191.472H66.2768L66.4831 190.564H67.102C67.4321 190.564 67.5971 190.729 67.5558 191.018C67.5558 191.307 67.267 191.472 66.8544 191.472Z" fill="white"/>
<path d="M80.3039 193.125H81.0878L80.3451 190.358C80.2626 190.028 80.0563 189.945 79.85 189.986C79.7263 189.986 79.6025 190.069 79.4374 190.234L77.457 193.125H78.2822L78.6948 192.506H80.1801L80.3039 193.125ZM79.0249 192.01L79.7675 190.895L80.0563 192.01H79.0249Z" fill="white"/>
<path d="M83.6043 192.588C82.9442 192.588 82.5316 192.216 82.6141 191.72C82.6966 191.06 83.2743 190.688 84.0994 190.688C84.347 190.688 84.6771 190.688 84.9659 190.771L85.1309 190.151C84.8833 190.11 84.512 190.068 84.2232 190.068C82.7792 190.068 81.8715 190.729 81.789 191.72C81.7064 192.588 82.2841 193.207 83.6456 193.207C83.8931 193.207 84.1407 193.166 84.4708 193.125L84.6358 192.464C84.2645 192.547 84.0169 192.588 83.6043 192.588Z" fill="white"/>
<path d="M87.4806 164.789L83.5198 174.331L71.3898 164.748L68.543 167.763L84.345 180.567L88.5946 169.374L87.4806 164.789Z" fill="#BD1A3B"/>
<path d="M67.4327 158.924C67.4327 158.924 72.2187 165.45 78.2424 170.158C77.4173 171.935 70.1145 176.643 70.1145 176.643L61.9453 163.509L67.4327 158.924Z" fill="#BD1A3B"/>
<path d="M63.8021 188.994C62.7707 189.82 61.863 190.729 60.9553 191.638C60.0476 192.546 59.2224 193.538 58.3973 194.529C57.6134 195.52 56.8294 196.553 56.0868 197.585C55.7155 198.081 55.3441 198.618 54.9316 199.155C54.5602 199.692 54.1889 200.229 53.8176 200.724L53.7763 200.766C53.5288 201.096 53.24 201.385 52.9511 201.674C52.6623 201.964 52.3323 202.253 51.9609 202.5C52.0847 202.087 52.291 201.716 52.456 201.344C52.6623 200.972 52.8686 200.642 53.1162 200.27L53.0749 200.311C53.3637 199.733 53.6525 199.114 53.9413 198.535L54.4364 197.668C54.6015 197.379 54.7665 197.09 54.9728 196.842C55.7155 195.727 56.5406 194.694 57.4483 193.744C58.356 192.794 59.3462 191.885 60.3777 191.059C61.4917 190.275 62.6056 189.531 63.8021 188.994Z" fill="#BD1A3B"/>
<path d="M48.9461 228.439C48.9461 228.439 53.8559 228.316 56.0426 226.498C58.2706 224.722 60.3335 224.103 62.1901 226.498C64.0468 228.894 64.9544 229.183 65.2433 231.042C65.5321 232.983 67.0586 235.585 65.2845 235.131C63.4691 234.676 62.8915 231.248 62.8915 231.248L60.7461 229.1C60.7461 229.1 62.3964 232.983 61.695 234.676C60.9936 236.37 56.4964 238.311 55.1349 237.898C53.8146 237.444 53.7321 235.668 53.7321 235.668C53.7321 235.668 48.9049 238.931 43.4587 234.759L27.5742 205.764L40.9007 207.127L48.9461 228.439Z" fill="#FAC2A8"/>
<path d="M56.8701 231.578C57.1589 232.115 57.4065 232.652 57.654 233.189C57.9016 233.726 58.1079 234.304 58.2729 234.882C58.3141 235.172 58.4379 235.502 58.2729 235.874C58.1491 236.163 57.9428 236.411 57.7365 236.658C57.3239 237.113 56.8701 237.526 56.375 237.856C56.7876 237.402 57.1589 236.948 57.4477 236.452C57.6128 236.204 57.7365 235.956 57.819 235.709C57.8603 235.502 57.8603 235.213 57.819 234.924C57.7365 234.345 57.6128 233.767 57.4065 233.23C57.2827 232.693 57.0764 232.115 56.8701 231.578Z" fill="#DC918B"/>
<path d="M59.4678 230.67C59.7566 231.207 60.0041 231.744 60.2517 232.281C60.4992 232.818 60.7055 233.396 60.8705 233.974C60.9118 234.263 61.0356 234.594 60.8705 234.966C60.7468 235.255 60.5405 235.502 60.3342 235.75C59.9216 236.205 59.4678 236.618 58.9727 236.948C59.3852 236.494 59.7566 236.039 60.0454 235.544C60.2104 235.296 60.3342 235.048 60.4167 234.8C60.458 234.594 60.458 234.305 60.4167 234.016C60.3342 233.437 60.2104 232.859 60.0041 232.322C59.8803 231.785 59.6741 231.207 59.4678 230.67Z" fill="#DC918B"/>
<path d="M53.8169 233.271C54.0232 233.561 54.2295 233.85 54.5183 234.098C54.7658 234.345 55.0959 234.552 55.3435 234.511V234.965C55.2197 234.965 55.0546 234.965 54.8896 234.965C54.7246 234.965 54.6008 235.006 54.4358 235.048C54.147 235.13 53.8582 235.337 53.7344 235.626C53.7756 235.461 53.8169 235.295 53.9407 235.171C54.0644 235.048 54.1882 234.924 54.312 234.841C54.477 234.758 54.6008 234.676 54.7658 234.593C54.9309 234.552 55.0959 234.469 55.3022 234.469V234.924C55.0546 234.924 54.8484 234.8 54.6833 234.635C54.5183 234.511 54.3945 234.345 54.312 234.18C54.1057 233.932 53.9407 233.602 53.8169 233.271Z" fill="#DC918B"/>
<path d="M104.562 181.27C105.016 182.756 105.305 184.285 105.553 185.854C105.8 187.382 106.007 188.952 106.13 190.48C106.295 192.05 106.378 193.578 106.378 195.148C106.419 196.717 106.337 198.287 106.213 199.815L105.842 195.189C105.718 193.661 105.553 192.091 105.429 190.563L104.975 185.937C104.81 184.367 104.645 182.839 104.562 181.27Z" fill="#BD1A3B"/>
</g>
<defs>
<linearGradient id="paint0_linear" x1="97.4037" y1="97.3363" x2="98.2649" y2="119.266" gradientUnits="userSpaceOnUse">
<stop stop-color="#FAC2A8"/>
<stop offset="1" stop-color="#DC918B"/>
</linearGradient>
</defs>
</svg>
