<svg width="316" height="505" viewBox="0 0 316 505" fill="none" xmlns="http://www.w3.org/2000/svg">
<path opacity="0.15" d="M170.23 483.699C170.23 483.699 150.611 486.611 157.414 499.869C158.713 502.424 169.95 508.146 185.085 501.197C200.219 494.275 239.789 489.881 260.631 488.731C281.473 487.582 288.199 477.747 269.803 477.747C251.407 477.747 232.272 479.535 212.781 480.02C193.314 480.531 170.23 483.699 170.23 483.699Z" fill="#001177"/>
<path d="M188.248 451.232V468.808L173.088 467.326L174.387 450.338L188.248 451.232Z" fill="#FAC2A8"/>
<path d="M238.134 452.254V469.83L221.623 468.884V450.338L238.134 452.254Z" fill="#FAC2A8"/>
<path d="M239.739 461.885C241.319 461.578 247.969 466.943 257.702 469.829C257.702 469.829 269.244 470.825 275.486 476.164C277.856 478.208 276.556 482.091 273.423 482.27L220.833 480.814C220.833 480.814 216.043 473.38 221.292 463.468C226.158 467.045 231.764 467.07 237.599 465.946C237.599 465.946 238.134 462.191 239.739 461.885Z" fill="#2B2E3A"/>
<path d="M188.517 464.004C187.625 465.205 186.555 465.767 185.306 465.588C184.466 465.486 189.485 460.274 179.421 459.585C172.159 459.074 173.331 464.234 173.051 463.774C172.822 463.365 172.21 462.522 172.21 462.522C163.547 476.624 155.954 478.693 156.668 485.207C157.381 491.721 160.591 498.261 172.49 496.191C184.389 494.122 188.823 488.298 189.358 484.16C189.944 480.047 188.517 464.004 188.517 464.004Z" fill="#2B2E3A"/>
<path d="M245.549 303.936L245.6 324.066C245.6 324.066 224.096 333.927 208.502 335.766C196.706 394.265 199.508 398.225 198.438 403.87C197.903 406.68 194.769 442.138 195.126 443.824C195.457 445.51 195.788 448.396 195.279 450.363C194.871 451.819 195.89 459.56 195.89 459.56C195.89 459.56 191.177 460.913 185.087 461.603C179.023 462.267 171.201 460.096 168.857 460.096C168.857 460.096 169.468 455.958 168.831 453.403C168.271 451.232 170.182 448.549 169.519 446.199C168.857 443.824 167.863 420.96 167.914 407.651C167.914 406.297 168.398 386.55 170.08 381.773C169.417 338.831 169.239 327.438 169.29 325.292C169.545 315.355 169.799 306.389 169.799 303.681C169.799 300.973 175.991 301.893 175.991 301.893L245.549 303.936Z" fill="#57617F"/>
<path d="M245.592 324.068C245.592 324.068 243.325 376.385 243.325 378.76C243.325 381.136 241.618 446.328 242.306 448.014C242.968 449.7 244.013 458.028 244.013 458.028C244.013 458.028 237.057 460.787 232.445 461.145C228.241 461.477 226.203 461.681 214.737 458.973C215.705 452.051 215.603 444.361 215.603 442.011C215.603 439.661 214.355 424.41 214.355 420.681C214.355 416.951 211.246 394.931 213.616 385.632C214.329 382.822 212.316 335.18 212.316 335.18C212.316 335.18 226.024 331.757 245.592 324.068Z" fill="#343948"/>
<path d="M210.536 306.569C210.511 313.236 210.358 319.903 210.078 326.571L209.594 326.06L215.199 326.034L214.69 326.52C214.995 321.692 215.199 316.889 215.607 312.061L215.632 311.754L215.913 311.729L220.015 311.397L219.811 311.652L219.48 306.058L220.244 311.601L220.269 311.831L220.04 311.857L215.938 312.393L216.244 312.086C216.142 316.915 215.887 321.743 215.683 326.545L215.658 327.031H215.174L209.568 327.005H209.059L209.084 326.494C209.441 319.852 209.925 313.21 210.536 306.569Z" fill="#343948"/>
<path d="M62.6223 462.548C56.0232 462.369 23.8683 469.394 30.7987 488.196C36.5061 498.414 89.4011 500.151 105.886 495.553C125.48 490.086 97.5289 463.698 80.1775 463.698C62.8261 463.698 63.8453 462.599 62.6223 462.548Z" fill="#E1E4F4"/>
<path d="M52.823 213.582L49.4087 240.047L81.4362 241.274C81.4362 241.274 83.1433 251.134 83.8567 248.452C83.8567 248.452 39.8285 267.637 37.5863 260.867C35.6754 255.145 34.1976 212.612 50.2495 198.255C51.9312 196.748 53.4854 200.733 53.4854 200.733C53.4854 200.733 56.9251 202.393 54.4027 209.776L53.1542 213.276" fill="#BD6C53"/>
<path d="M55.9082 411.228L69.5142 449.776L64.6221 462.804L71.2467 468.348L83.859 455.422L83.0437 448.933L74.2278 411.228H55.9082Z" fill="#A1554A"/>
<path d="M48.1054 472.079C49.1501 470.368 60.1571 461.324 60.4884 461.12C62.221 460.073 64.9982 457.901 66.8327 458.898C67.8264 459.434 68.8201 466.408 70.0941 466.893C77.8907 460.149 82.426 453.048 83.063 445.486C83.063 445.486 87.3435 448.833 89.229 453.942C89.6876 455.168 89.2035 457.441 88.006 458.591C75.4193 470.597 78.1965 476.166 66.1958 477.495C53.9147 478.798 45.0734 477.06 48.1054 472.079Z" fill="#31374C"/>
<path d="M77.099 419.018L77.5067 464.873L61.748 478.348L79.2138 483.419L91.8261 470.493L91.0107 464.004L95.4187 419.018H77.099Z" fill="#CC7A5B"/>
<path d="M91.0153 464.004C91.0153 464.004 94.0728 472.843 92.544 478.054C92.1618 479.332 90.3528 480.481 88.7731 481.018C75.7532 485.463 80.6197 488.043 68.5935 489.371C56.287 490.725 51.1656 489.448 54.1977 484.466C55.2423 482.755 66.2494 473.712 66.5806 473.507C68.3132 472.46 71.0905 470.289 72.925 471.285C73.9187 471.821 74.9124 478.795 76.1863 479.281C76.1863 479.306 92.9517 475.04 91.0153 464.004Z" fill="#31374C"/>
<path d="M90.6114 186.888C90.6114 186.888 82.6363 181.651 69.9731 186.888L68.7246 193.198L92.0382 192.023L90.6114 186.888Z" fill="#BD1A3B"/>
<path d="M81.8166 26.8693C81.8166 26.8693 74.1728 16.1401 49.8146 25.8985C25.4564 35.6569 19.6217 78.4457 17.5579 92.087C15.4941 105.728 -4.96583 128.847 2.06646 149.513C13.7105 183.693 65.994 184.357 75.88 178.584C85.766 172.811 62.2485 139.5 62.2485 139.5C62.2485 139.5 51.7001 103.327 55.8023 68.1508C59.9044 32.9746 81.8166 26.8693 81.8166 26.8693Z" fill="#2B2E3A"/>
<path d="M118.276 152.196L119.295 124.734L56.6926 106.878L40.0801 156.896C40.0801 156.896 78.936 193.937 99.6762 181.215C120.442 168.443 118.276 152.196 118.276 152.196Z" fill="#2B2E3A"/>
<path d="M66.7616 165.454L70.7363 188.241C70.7363 188.241 65.0799 191.587 63.6531 192.302C53.4104 197.463 52.2129 202.853 52.2129 202.853L78.1763 216.443L97.7444 204.488C97.7444 204.488 102.203 199.123 96.2156 196.058C94.5595 195.215 89.5655 187.244 89.5655 187.244L86.508 163.743L66.7616 165.454Z" fill="#A1554A"/>
<path d="M50.0731 42.708C50.0731 42.708 35.0913 56.1705 32.4924 79.749C29.8935 103.353 12.0834 156.973 51.1687 174.497C67.6792 181.906 92.8019 171.687 109.312 151.838C130.282 126.625 141.213 89.4818 139.353 81.9714C136.04 68.6367 82.6866 17.5711 50.0731 42.708Z" fill="#CC7A5B"/>
<path d="M38.0156 83.4022C38.0156 83.4022 45.7868 77.8844 53.3287 81.9972C54.0421 82.4059 54.8065 81.5119 54.2714 80.8732C51.2394 77.118 45.4046 73.0818 38.0156 83.4022Z" fill="#2B2E3A"/>
<path opacity="0.2" d="M79.9056 119.063C79.447 121.184 82.4536 123.61 86.5812 124.505C90.7343 125.399 94.4543 124.377 94.9129 122.257C95.3716 120.136 92.3905 117.684 88.2373 116.815C84.0842 115.921 80.3642 116.943 79.9056 119.063Z" fill="#B55050"/>
<path opacity="0.2" d="M31.6224 111.118C31.1638 113.238 34.1704 115.665 38.298 116.559C42.4511 117.453 46.1711 116.431 46.6297 114.311C47.0883 112.191 44.1073 109.738 39.9541 108.87C35.801 108.001 32.081 108.998 31.6224 111.118Z" fill="#B55050"/>
<path d="M99.3753 95.5612C99.3753 95.5612 95.0438 87.0545 86.4572 87.2078C85.6164 87.2334 85.3616 86.0838 86.126 85.7773C90.5594 83.8358 97.5917 82.9673 99.3753 95.5612Z" fill="#2B2E3A"/>
<path d="M38.4238 132.909C38.4238 132.909 53.9662 146.856 80.9998 137.634C80.9998 137.634 68.1072 159.91 52.8961 157.075C37.4811 152.502 46.6282 144.43 38.4238 132.909Z" fill="#7B4358"/>
<path d="M68.257 152.323C56.7659 149.232 49.8864 151.276 46.0391 153.728C47.4914 155.005 49.6317 156.129 52.8675 157.074C58.4985 158.122 63.7981 155.746 68.257 152.323Z" fill="#E78680"/>
<path d="M38.4238 132.909C40.9208 136.383 41.8126 139.55 42.2712 142.411C48.7175 145.988 59.164 149.309 74.1458 146.805C78.4009 142.105 80.9998 137.609 80.9998 137.609C53.9662 146.856 38.4238 132.909 38.4238 132.909Z" fill="white"/>
<path d="M39.4684 134.488C39.7996 135.025 40.1053 135.587 40.4111 136.149C40.6914 136.711 40.9462 137.298 41.1755 137.886C41.4048 138.474 41.6086 139.087 41.787 139.674C42.5004 142.101 42.7042 144.656 43.0864 147.133C43.2903 148.36 43.5451 149.611 44.0801 150.71C44.3349 151.272 44.6662 151.783 45.0229 152.294C45.4051 152.779 45.8382 153.213 46.2968 153.596C46.5262 153.801 46.7809 153.98 47.0357 154.159C47.2905 154.337 47.5453 154.516 47.8256 154.669C48.3606 155.002 48.9212 155.257 49.4818 155.512C50.0423 155.768 50.6283 155.998 51.2143 156.202C51.8004 156.432 52.4119 156.585 52.9979 156.79H52.9724C55.877 157.326 58.9091 156.892 61.6609 155.819C64.4126 154.746 66.9351 153.06 69.2282 151.17C71.5213 149.254 73.5852 147.082 75.4961 144.783C76.4643 143.634 77.3816 142.459 78.2479 141.232C79.1142 140.006 79.955 138.78 80.7194 137.503L81.127 138.014L78.4517 138.857C77.5599 139.087 76.6427 139.368 75.7509 139.572C74.8337 139.776 73.9419 140.006 72.9991 140.16C72.0819 140.338 71.1646 140.492 70.2219 140.619C69.3046 140.773 68.3619 140.849 67.4446 140.926C66.5019 141.003 65.5847 141.054 64.6419 141.079C63.6992 141.105 62.7819 141.105 61.8392 141.054C60.8965 141.054 59.9792 140.951 59.0365 140.875C58.1192 140.773 57.1765 140.67 56.2592 140.517C55.342 140.389 54.4247 140.185 53.5075 140.006C52.5902 139.802 51.6984 139.572 50.7812 139.317C49.8894 139.036 48.9977 138.755 48.1314 138.422C46.3733 137.758 44.6916 136.992 43.061 136.098C41.4303 135.204 39.8506 134.182 38.4492 132.956C38.7804 133.441 39.1626 133.926 39.4684 134.488ZM43.1119 135.919C44.7681 136.762 46.4752 137.503 48.2078 138.116C49.0741 138.422 49.9658 138.703 50.8576 138.933C51.7494 139.163 52.6412 139.393 53.5584 139.572C54.4757 139.751 55.3675 139.93 56.2847 140.057C57.202 140.185 58.1192 140.287 59.0365 140.364C59.9537 140.415 60.871 140.492 61.8137 140.492C62.731 140.517 63.6737 140.492 64.591 140.466C65.5082 140.415 66.4255 140.364 67.3682 140.287C68.2854 140.185 69.2027 140.108 70.12 139.955C71.0372 139.827 71.9545 139.674 72.8463 139.495C73.7635 139.342 74.6553 139.087 75.5471 138.908C76.4388 138.703 77.3306 138.422 78.2224 138.193L80.8722 137.35L81.7385 137.069L81.2799 137.835C80.4901 139.163 79.6492 140.415 78.7829 141.641C77.8912 142.867 76.9739 144.068 76.0057 145.243C74.0692 147.568 71.9545 149.765 69.6104 151.706C67.2663 153.648 64.6929 155.334 61.8392 156.432C58.9855 157.531 55.8261 157.99 52.8195 157.377H52.794C52.1825 157.173 51.5711 156.994 50.985 156.764C50.399 156.56 49.7875 156.304 49.2269 156.023C48.6409 155.742 48.0804 155.461 47.5453 155.129C47.265 154.976 47.0102 154.797 46.7555 154.593C46.5007 154.414 46.2459 154.21 45.9911 154.005C45.507 153.597 45.0484 153.111 44.6662 152.6C44.284 152.064 43.9527 151.527 43.6979 150.914C43.1629 149.739 42.9081 148.462 42.7297 147.21C42.5514 145.958 42.4495 144.707 42.2966 143.455C42.1437 142.203 41.9144 140.977 41.6086 139.751C41.4558 139.138 41.2519 138.55 41.0481 137.963C40.8442 137.375 40.5895 136.788 40.3347 136.226C40.0544 135.664 39.7741 135.102 39.4684 134.565C39.1626 134.003 38.8059 133.492 38.4747 132.956C39.8506 134.08 41.4558 135.05 43.1119 135.919Z" fill="#A1554A"/>
<path d="M76.9375 135.82C76.9375 135.82 77.5745 135.846 78.4408 135.999C78.6701 136.05 78.8994 136.101 79.1287 136.178C79.3835 136.229 79.6128 136.357 79.8676 136.433C80.0969 136.561 80.3517 136.663 80.581 136.842C80.6829 136.919 80.8103 136.995 80.9377 137.072L81.2435 137.353C81.4728 137.532 81.6257 137.762 81.804 137.966C81.9569 138.196 82.1098 138.426 82.2372 138.656C82.3391 138.911 82.441 139.141 82.5684 139.371C82.6448 139.601 82.7213 139.831 82.7977 140.061C82.8742 140.265 82.9251 140.47 82.9761 140.648C83.027 140.827 83.0525 140.98 83.078 141.108C83.1544 141.364 83.1799 141.517 83.1799 141.517C83.1799 141.517 83.2054 141.364 83.2054 141.083C83.2054 140.802 83.2818 140.418 83.2054 139.959C83.1799 139.729 83.1544 139.473 83.1035 139.192C83.027 138.937 82.9506 138.656 82.8487 138.375C82.7213 138.094 82.5684 137.813 82.4155 137.557C82.2117 137.302 82.0333 137.021 81.7786 136.817L81.3454 136.484C81.218 136.382 81.0651 136.306 80.9377 136.229C80.6829 136.05 80.3517 135.948 80.0969 135.846C79.8166 135.769 79.5364 135.667 79.2561 135.641C78.9758 135.59 78.7211 135.59 78.4917 135.59C77.5235 135.59 76.9375 135.82 76.9375 135.82Z" fill="#A1554A"/>
<path d="M44.1738 123.51C44.1738 123.51 49.0404 133.524 60.4041 126.959C60.4041 126.984 52.2508 128.415 44.1738 123.51Z" fill="#A1554A"/>
<path opacity="0.56" d="M55.5651 89.8406C55.5651 89.8406 57.2722 103.099 44.1504 123.51C44.1504 123.51 51.8961 128.389 60.4317 126.933C60.4317 126.933 61.5528 108.974 68.4067 100.749C68.4322 100.774 62.4191 93.0849 55.5651 89.8406Z" fill="url(#paint0_linear)"/>
<path d="M84.333 443.032C82.9061 436.901 72.3832 393.397 71.7462 381.697C71.0073 368.056 72.1793 327.03 72.1793 327.03L43.7699 314.589C41.7571 337.785 46.3943 378.376 47.4899 388.646C48.4836 397.868 66.8797 445.229 66.8797 445.229C66.8797 445.229 75.619 445.944 84.3584 443.594" fill="#31374C"/>
<path d="M43.8047 314.588C44.2124 309.811 44.5691 305.775 44.8493 302.939C45.3844 297.013 50.0981 282.937 50.0981 282.937L65.8698 276.474L85.922 276.985L100.292 276.27L108.93 290.039C108.93 290.039 112.573 305.852 112.599 311.702C112.675 335.817 100.649 379.014 100.7 389.079L93.1836 457.056C93.1836 457.056 84.5971 459.866 75.7812 457.618C75.7812 457.618 75.7812 457.618 75.4755 448.983L74.2525 386.959L72.2396 327.054L43.8047 314.588Z" fill="#57617F"/>
<path d="M49.4299 298.085L49.6847 293.334C49.7101 292.772 50.1942 292.337 50.7548 292.363L51.8249 292.414C52.3855 292.44 52.8186 292.925 52.7931 293.487L52.5383 298.238C52.5129 298.8 52.0288 299.235 51.4682 299.209L50.3981 299.158C49.8121 299.133 49.3789 298.647 49.4299 298.085Z" fill="#31374C"/>
<path d="M102.531 298.291L102.149 293.539C102.098 292.977 102.531 292.492 103.091 292.441L104.161 292.364C104.722 292.313 105.206 292.748 105.257 293.31L105.639 298.061C105.69 298.623 105.257 299.108 104.697 299.159L103.626 299.236C103.066 299.262 102.582 298.853 102.531 298.291Z" fill="#31374C"/>
<path d="M85.6875 299.21L85.8404 294.459C85.8658 293.897 86.3245 293.463 86.885 293.463L87.9552 293.488C88.5157 293.514 88.9488 293.974 88.9488 294.536L88.796 299.287C88.7705 299.849 88.3119 300.283 87.7513 300.258L86.6812 300.232C86.1206 300.232 85.6875 299.772 85.6875 299.21Z" fill="#31374C"/>
<path d="M47.4707 289.938C54.4521 267.816 52.3118 250.292 49.4327 240.048C44.6171 222.881 53.1017 208.55 53.1017 208.55L50.248 196.876C50.248 196.876 56.8726 193.964 59.9556 192.84C63.0386 191.741 67.0134 190.719 67.0134 190.719C67.0134 190.719 70.7079 210.134 72.9755 210.108C74.3005 210.108 89.2058 190.132 89.2058 190.132C89.2058 190.132 94.4291 190.975 96.2381 191.613C96.2381 191.613 108.978 196.365 111.449 197.923C110.659 197.54 112.596 237.876 112.596 237.876C99.8052 271.622 111.118 278.826 110.073 290.321C109.666 294.409 46.6554 292.518 47.4707 289.938Z" fill="#EF3F54"/>
<path d="M90.1219 219.763C89.969 219.763 89.8416 219.814 89.7142 219.993L88.1345 222.139L87.523 220.044C87.472 219.839 87.3191 219.763 87.1917 219.763C86.9879 219.763 86.9115 219.839 86.8096 220.018L85.4082 222.83H86.1981L87.1408 220.887L87.7268 222.83H88.3893L89.8161 220.913V222.83H90.4786V220.12C90.4531 219.89 90.3002 219.788 90.1219 219.763Z" fill="white"/>
<path d="M84.4905 220.271L83.8535 222.852H84.5669L85.1785 220.271H84.4905Z" fill="white"/>
<path d="M83.2716 221.013C83.3226 220.68 83.1188 220.272 82.4053 220.272H81.0294L80.418 222.853H81.1314L81.3607 221.882H81.7174L82.3544 222.853H83.1188L82.4053 221.831C83.0168 221.677 83.2207 221.345 83.2716 221.013ZM81.9467 221.447H81.4371L81.6155 220.68H82.1505C82.4308 220.68 82.5837 220.808 82.5582 221.064C82.5327 221.294 82.3034 221.447 81.9467 221.447Z" fill="white"/>
<path d="M93.4146 222.828H94.1025L93.4656 220.452C93.3891 220.17 93.2108 220.119 93.0324 220.119C92.9305 220.119 92.8031 220.17 92.7012 220.324L91.0195 222.803H91.7075L92.0387 222.266H93.2872L93.4146 222.828ZM92.319 221.883L92.9305 220.937L93.1598 221.883H92.319Z" fill="white"/>
<path d="M96.2434 222.371C95.6829 222.371 95.3516 222.038 95.4026 221.629C95.4536 221.067 95.9631 220.735 96.6766 220.735C96.8804 220.735 97.1607 220.76 97.39 220.812L97.5174 220.3C97.3136 220.249 96.9823 220.224 96.753 220.224C95.53 220.224 94.7656 220.786 94.6637 221.629C94.5873 222.37 95.0969 222.907 96.218 222.907C96.4473 222.907 96.6511 222.882 96.9059 222.831L97.0333 222.268C96.804 222.319 96.5747 222.371 96.2434 222.371Z" fill="white"/>
<path d="M81.9929 109.306C81.8145 111.349 83.3178 113.188 85.3816 113.367C87.4455 113.546 89.229 112.039 89.4328 109.97C89.6112 107.926 88.1079 106.112 86.0696 105.908C83.9803 105.729 82.1712 107.236 81.9929 109.306Z" fill="#2B2E3A"/>
<path d="M85.0523 110.709C85.0014 111.425 85.511 112.064 86.2244 112.115C86.9378 112.166 87.5748 111.655 87.6258 110.939C87.7022 110.224 87.1671 109.585 86.4537 109.534C85.7403 109.457 85.1033 109.994 85.0523 110.709Z" fill="white"/>
<path d="M40.4715 101.667C40.395 103.685 41.9493 105.371 43.9366 105.448C45.9495 105.524 47.6311 103.966 47.7331 101.973C47.8095 99.9554 46.2553 98.2694 44.2679 98.1927C42.2295 98.0906 40.5479 99.6488 40.4715 101.667Z" fill="#2B2E3A"/>
<path d="M43.7235 102.944C43.698 103.71 44.284 104.375 45.0484 104.4C45.8128 104.426 46.4753 103.838 46.5007 103.071C46.5262 102.305 45.9402 101.64 45.1758 101.615C44.4114 101.589 43.7744 102.177 43.7235 102.944Z" fill="white"/>
<path d="M69.9931 199.735C65.84 203.72 60.7441 208.574 60.7441 208.574C60.7441 208.574 61.534 198.024 62.4003 192.889C62.9863 191.484 69.9676 186.86 69.9676 186.86C69.9676 186.86 70.0441 197.564 69.9931 199.735Z" fill="#BD1A3B"/>
<path d="M68.7173 193.196L73.3291 206.811L87.3172 193.119L90.6041 197.436L72.3609 215.701L67.4434 199.735L68.7173 193.196Z" fill="#BD1A3B"/>
<path d="M90.6093 186.887C90.6093 186.887 86.3543 194.116 79.3984 200.886C80.3412 203.415 88.7748 210.133 88.7748 210.133L98.2276 191.383L90.6093 186.887Z" fill="#BD1A3B"/>
<path d="M137.39 29.1682C187.151 62.3263 151.709 117.402 155.659 145.273C159.99 176.004 161.621 187.167 134.383 195.419C97.897 206.48 63.0668 171.048 88.6735 154.009C109.082 140.419 110.56 122.69 110.56 122.69C110.56 122.69 104.853 108.972 103.834 93.032C102.814 77.0916 99.7315 45.8239 46.123 47.1012C46.123 47.1012 55.0408 22.2709 79.7812 16.9064C97.3619 13.0745 124.446 20.5338 137.39 29.1682Z" fill="#2B2E3A"/>
<path d="M47.4629 243.392C47.4629 243.392 58.8012 241.323 83.2613 239.867L84.8155 249.6L52.1001 260.048L47.4629 243.392Z" fill="#BD6C53"/>
<path d="M58.0984 235.732L88.9793 244.8L101.541 207.274C105.592 200.581 120.013 200.147 118.331 211.003C114.994 232.308 101.693 262.682 96.088 264.879C89.4634 267.485 53.4612 244.391 53.4612 244.391C51.856 246.691 58.0984 235.732 58.0984 235.732Z" fill="#CC7A5B"/>
<path d="M119.568 211.025C119.568 200.168 111.415 197.92 111.415 197.92C108.51 197.333 99.9747 196.694 97.9619 208.215C96.8918 214.397 92.3819 224.334 90.9551 234.884C98.1912 237.771 108.128 244.081 115.594 243.238C117.326 231.308 119.568 219.532 119.568 211.025Z" fill="#EF3F54"/>
<path d="M96.3127 215.701C96.3637 217.362 96.1344 218.996 95.8541 220.631C95.5229 222.241 95.1407 223.85 94.6566 225.408C94.198 226.992 93.51 228.499 92.7457 229.93C91.9048 231.335 91.4717 232.893 90.2996 234.196C90.2742 232.459 90.8602 230.926 91.2679 229.342C91.701 227.784 92.1851 226.251 92.7711 224.744L96.3127 215.701Z" fill="#BD1A3B"/>
<path d="M78.0974 249.036C80.9511 249.982 86.1743 244.157 86.4036 244.208C87.0916 244.362 87.6012 244.464 88.7223 244.31C88.7223 245.256 88.6713 246.61 89.9962 247.172C91.3212 247.734 92.0346 247.734 92.4677 247.299C92.9009 246.891 93.0537 245.69 93.0537 245.69C93.0537 245.69 94.2513 246.38 95.4998 245.715C96.7482 245.051 96.9776 243.927 96.2896 242.011C97.3852 242.676 98.0477 243.646 99.2452 243.212C100.443 242.778 100.468 241.628 100.239 240.913C100.01 240.172 98.226 237.541 98.226 237.541C98.226 237.541 99.5509 238.358 100.57 238.052C101.589 237.745 102.073 237.515 101.819 236.468C101.564 235.446 100.494 234.527 99.7803 233.045C99.0668 231.589 98.5827 231.103 98.0222 230.95C97.4616 230.797 91.3211 229.034 90.3784 229.034C89.4357 229.034 87.6267 228.881 87.168 229.647C86.7094 230.414 86.8623 230.797 85.996 231.103C85.1297 231.41 84.1105 231.461 83.7028 232.917C83.2697 234.373 83.0659 234.322 82.3524 234.782C81.639 235.242 81.5116 235.344 81.4097 236.008C81.3078 236.672 76.7215 241.935 76.7215 241.935L64.6953 242.624L68.3388 248.219L78.0974 249.036Z" fill="#BD6C53"/>
<path d="M86.4023 244.235C87.0903 244.389 87.5999 244.491 88.721 244.337C88.721 245.283 88.67 246.637 89.9949 247.199C91.3199 247.761 92.0333 247.761 92.4664 247.326C92.8996 246.918 93.0524 245.717 93.0524 245.717C93.0524 245.717 94.25 246.407 95.4985 245.742C96.747 245.078 96.9763 243.954 96.2883 242.038C97.3839 242.703 98.0464 243.673 99.2439 243.239C100.441 242.805 100.467 241.655 100.238 240.94C100.008 240.199 98.2247 237.568 98.2247 237.568C98.2247 237.568 99.5497 238.385 100.569 238.079" stroke="#A1554A" stroke-width="0.1536" stroke-miterlimit="10"/>
<path d="M92.6976 245.614C92.4683 244.771 92.5192 243.928 92.188 243.162C91.9077 242.395 91.4236 241.705 90.8121 241.194C90.2006 240.658 89.4362 240.3 88.6718 239.994C87.9329 239.662 87.0412 239.432 86.4297 238.793C87.1686 239.202 88.0094 239.304 88.8247 239.636C89.6146 239.917 90.4299 240.326 91.0924 240.888C91.7803 241.45 92.2899 242.191 92.5957 243.034C92.9014 243.877 93.0033 244.745 93.0543 245.563L92.6976 245.614Z" fill="#A1554A"/>
<path d="M95.5216 241.682C95.3433 241.248 95.1649 240.788 95.0375 240.302C94.8846 239.817 94.9101 239.306 94.6808 239.076C94.1967 238.412 93.3304 237.927 92.566 237.467C91.7507 237.007 90.9099 236.598 90.069 236.215C89.2537 235.755 88.26 235.628 87.623 234.81C88.5658 234.989 89.3811 235.449 90.2729 235.806C91.1392 236.19 92.0055 236.573 92.8463 237.033C93.6616 237.492 94.5279 237.927 95.1904 238.77C95.3687 238.949 95.4707 239.332 95.4961 239.536C95.5216 239.766 95.5726 239.97 95.6235 240.2C95.7255 240.635 95.8783 241.069 96.0312 241.503L95.5216 241.682Z" fill="#A1554A"/>
<path d="M97.6361 237.44C97.3558 237.108 97.2539 236.623 97.05 236.393C96.7952 236.112 96.515 235.831 96.1838 235.601C95.5468 235.09 94.8588 234.656 94.1709 234.221C92.795 233.302 91.2662 232.689 89.9668 231.59C91.623 231.999 92.9988 232.97 94.4511 233.787C95.1646 234.221 95.8525 234.681 96.5405 235.192C96.8717 235.448 97.2029 235.729 97.4832 236.086C97.7635 236.546 97.9928 236.802 98.0947 237.21L97.6361 237.44Z" fill="#A1554A"/>
<path d="M50.2256 196.875C41.0785 201.549 39.1676 208.6 35.9062 235.934C39.295 233.66 45.2317 231.591 51.0919 232.332L64.9272 220.913L56.6209 198.714L50.2256 196.875Z" fill="#EF3F54"/>
<path d="M49.431 240.047C48.1316 237.621 47.0869 234.964 46.7557 232.179C46.3735 229.395 46.348 226.559 46.8321 223.8C47.6984 218.283 49.7877 212.969 53.1 208.55C50.9088 213.582 49.3036 218.768 48.5902 224.056C48.208 226.713 48.1571 229.369 48.2844 232.026C48.3354 234.708 48.8959 237.314 49.431 240.047Z" fill="#BD1A3B"/>
<path d="M66.8625 239.128L88.7238 244.339L82.5578 254.532L65.4357 250.93L62.582 241.58L66.8625 239.128Z" fill="#CC7A5B"/>
<path d="M61.8175 236.827C61.8175 236.827 61.3079 236.52 60.5945 236.035C60.5945 236.035 59.0402 231.59 58.1739 230.772C57.1802 229.853 54.5049 231.028 54.5049 231.028C53.6641 229.546 50.5047 229.495 49.7658 230.108C49.0524 230.721 42.122 239.764 43.1921 243.928L53.4348 244.414L61.8175 236.827Z" fill="#CC7A5B"/>
<path d="M262.287 124.045C262.287 124.045 269.675 107.849 279.689 116.662C289.702 125.475 272.733 151.889 256.859 145.299C256.859 145.273 255.076 138.657 262.287 124.045Z" fill="#F7AB8D"/>
<path d="M229.719 228.475L249.618 251.696L264.32 241.35L239.248 202.674L229.719 228.475Z" fill="#FAC2A8"/>
<path d="M234.713 195.931C234.713 195.931 247.784 202.675 256.982 227.505C252.293 230.06 244.038 234.658 243.401 246.358L229.719 231.26L234.713 195.931Z" fill="#EF3F54"/>
<path d="M164.449 205.712C152.244 219.737 130.841 243.545 129.873 251.005C129.669 252.589 144.6 256.804 144.6 256.804L173.137 231.258L164.449 205.712Z" fill="#FAC2A8"/>
<path d="M169.746 306.208L170.103 293.716L245.547 291.06V306.515C207.634 315.021 169.746 306.208 169.746 306.208Z" fill="#2B2E3A"/>
<path d="M220.808 297.497H212.527C210.769 297.497 209.316 298.928 209.316 300.716V305.953C209.316 307.715 210.743 309.172 212.527 309.172H220.808" stroke="#57617F" stroke-width="1.2832" stroke-miterlimit="10" stroke-linejoin="round"/>
<path d="M221.44 303.325H215.07" stroke="#57617F" stroke-width="1.2832" stroke-miterlimit="10" stroke-linejoin="round"/>
<path d="M167.25 206.122C168.727 197.13 176.524 190.591 185.62 190.642C190.538 190.667 196.678 186.989 202.793 187.806C211.482 189.083 228.502 193.222 234.719 195.955C245.038 218.742 241.038 266.946 247.407 299.44C232.757 300.922 192.907 304.319 169.262 299.287C176.346 244.849 161.721 239.893 167.25 206.122Z" fill="#EF3F54"/>
<path d="M214.559 191.406C214.609 184.126 216.648 173.959 216.648 173.959L188.595 168.518L187.066 189.823C187.066 189.823 192.595 205.431 210.711 207.015C215.017 203.745 214.559 191.406 214.559 191.406Z" fill="#F7AB8D"/>
<path d="M280.606 44.0857C292.581 47.4322 290.059 62.0953 289.753 68.6349C288.81 88.3561 272.988 118.474 270.669 126.955C270.669 126.93 261.063 38.5934 280.606 44.0857Z" fill="#2B2E3A"/>
<path d="M283.592 50.4466C283.592 50.4466 266.215 160.216 261.094 167.292C255.973 174.394 229.372 182.032 214.875 181.674C200.377 181.342 175.662 156.307 172.273 149.793C170.439 146.293 170.006 118.781 171.178 91.1151C172.197 67.3833 159.61 41.2247 163.152 32.2837C163.152 32.2837 236.405 11.975 283.592 50.4466Z" fill="#FAC2A8"/>
<path d="M179.356 100.235C179.356 100.235 179.535 106.212 180.834 112.369C184.019 127.441 209.906 116.788 239.437 129.101C247.208 132.346 249.526 135.334 257.782 138.528C268.891 142.845 271.617 119.445 272.738 115.281C268.05 141.568 268.305 161.876 260.941 170.996C255.54 177.689 228.633 186.732 209.142 182.032C192.937 178.123 171.305 160.854 167.967 154.468C166.362 151.377 166.693 129.382 167.458 105.14L166.744 89.3014L179.356 100.235Z" fill="#2B2E3A"/>
<g opacity="0.2">
<g opacity="0.2">
<path opacity="0.2" d="M215.169 109.483C214.736 111.655 210.787 112.702 206.353 111.808C201.92 110.914 198.71 108.436 199.143 106.264C199.601 104.093 203.525 103.046 207.958 103.94C212.392 104.834 215.602 107.312 215.169 109.483Z" fill="#F0808E"/>
<path opacity="0.2" d="M264.315 116.714C264.341 118.655 261.156 120.213 257.232 120.239C253.308 120.265 250.098 118.706 250.098 116.765C250.072 114.849 253.257 113.265 257.181 113.24C261.105 113.24 264.29 114.772 264.315 116.714Z" fill="#F0808E"/>
</g>
</g>
<path d="M273.116 82.4311C270.517 78.8548 267.332 76.0703 260.529 75.1762C257.013 75.1507 253.293 74.8952 256.784 71.5743C262.695 66.5929 276.148 74.4609 276.811 84.066C277.575 88.2811 274.568 85.0879 273.116 82.4311Z" fill="#2B2E3A"/>
<path d="M205.598 71.4711C208.911 68.5333 212.605 66.4897 219.434 67.1028C222.873 67.8436 226.568 68.38 223.867 64.3949C219.179 58.264 204.35 63.041 201.624 72.2885C199.993 76.2225 203.611 73.7702 205.598 71.4711Z" fill="#2B2E3A"/>
<path opacity="0.6" d="M251.735 90.8359C241.084 89.8907 232.319 82.6358 232.319 82.6358C233.313 103.839 223.02 121.976 223.02 121.976C231.708 132.194 246.078 127.775 246.078 127.775C237.11 105.218 251.735 90.8359 251.735 90.8359Z" fill="url(#paint1_linear)"/>
<path d="M179.36 100.236C179.36 100.236 178.265 83.9893 188.711 70.7568C196.355 61.075 190.648 43.934 186.596 37.5987C186.596 37.5987 166.085 31.1101 164.837 31.8509C157.27 36.3725 147.358 52.0319 158.212 98.1416L179.36 100.236Z" fill="#2B2E3A"/>
<path d="M170.852 106.288C170.852 106.288 168.279 93.0046 156.686 97.1175C145.093 101.23 144.634 135.053 170.878 128.845C170.903 128.871 177.553 123.761 170.852 106.288Z" fill="#FAC2A8"/>
<path d="M155.754 105.6C157.13 104.834 158.659 104.297 160.213 104.348C161.767 104.348 163.168 105.115 164.086 106.264C165.028 107.414 165.64 108.819 166.048 110.275C166.481 111.731 166.71 113.213 166.914 114.72L167.449 114.235C165.946 114.056 164.391 114.235 163.067 115.027C161.742 115.793 160.952 117.249 160.824 118.68C160.697 119.395 160.824 120.136 161.079 120.825C161.359 121.515 161.843 122.103 162.404 122.537C163.551 123.431 164.952 123.916 166.353 124.121C165.003 123.738 163.678 123.15 162.71 122.23C162.226 121.771 161.818 121.234 161.614 120.647C161.436 120.033 161.359 119.395 161.512 118.782C161.742 117.53 162.404 116.355 163.5 115.742C164.595 115.103 166.022 114.975 167.296 115.129L167.908 115.205L167.857 114.643C167.678 113.085 167.372 111.552 166.914 110.045C166.43 108.563 165.793 107.031 164.697 105.805C163.602 104.578 161.894 103.761 160.238 103.889C158.531 103.991 157.028 104.681 155.754 105.6Z" fill="#DC918B"/>
<path d="M252.958 105.296C252.779 107.34 254.308 109.154 256.346 109.333C258.41 109.511 260.194 107.979 260.372 105.935C260.55 103.891 259.047 102.078 256.983 101.899C254.945 101.72 253.136 103.227 252.958 105.296Z" fill="#2B2E3A"/>
<path d="M254.087 104.197C254.037 104.912 254.546 105.551 255.26 105.602C255.973 105.653 256.61 105.142 256.661 104.427C256.712 103.711 256.202 103.072 255.489 103.021C254.775 102.944 254.164 103.481 254.087 104.197Z" fill="white"/>
<path d="M207.741 97.095C207.664 99.3174 209.371 101.182 211.588 101.259C213.805 101.336 215.665 99.624 215.741 97.4015C215.843 95.1791 214.111 93.3142 211.894 93.2376C209.703 93.161 207.843 94.8981 207.741 97.095Z" fill="#2B2E3A"/>
<path d="M208.96 95.6647C208.934 96.4314 209.52 97.0959 210.285 97.1214C211.049 97.147 211.712 96.5592 211.737 95.7669C211.762 95.0002 211.176 94.3357 210.412 94.3102C209.648 94.2846 209.011 94.898 208.96 95.6647Z" fill="white"/>
<path d="M246.112 127.774C246.112 127.774 228.378 144.302 223.053 121.976C223.053 121.976 234.009 127.902 246.112 127.774Z" fill="#DC918B"/>
<path d="M213.822 196.365C218.943 200.35 225.185 207.886 225.185 207.886C225.185 207.886 223.529 198.92 222.459 193.785C221.185 190.745 215.019 184.614 215.019 184.614C215.019 184.614 213.745 194.219 213.822 196.365Z" fill="#BD1A3B"/>
<path d="M284.626 201.522C284.626 201.522 271.224 236.162 266.357 244.771C263.784 249.318 257.185 253.916 254.56 254.912C253.465 255.321 247.146 251.004 247.018 245.614C246.993 244.49 247.069 243.213 247.324 241.757C247.885 238.206 270.077 202.135 270.077 202.135C271.912 193.118 286.664 192.173 284.626 201.522Z" fill="#FAC2A8"/>
<path d="M165.82 197.795C170.432 193.529 180.624 191.894 180.624 191.894C181.898 191 195.045 203.823 186.815 214.45C182.382 220.147 170.432 239.664 162.584 249.013C156.775 241.197 148.469 233.456 143.398 226.406C152.189 215.753 158.635 204.411 165.82 197.795Z" fill="#EF3F54"/>
<path d="M224.625 224.948C224.37 224.948 224.167 225.024 223.937 225.331L221.287 228.933L220.268 225.407C220.166 225.05 219.937 224.922 219.708 224.922C219.376 224.922 219.224 225.05 219.045 225.356L216.701 230.057H218.001L219.58 226.812L220.574 230.057H221.67L224.065 226.838L224.039 230.057H225.16V225.535C225.186 225.126 224.906 224.948 224.625 224.948Z" fill="white"/>
<path d="M215.176 225.766L214.131 230.083H215.303L216.348 225.766H215.176Z" fill="white"/>
<path d="M213.14 226.993C213.216 226.431 212.885 225.767 211.687 225.767H209.369L208.324 230.058H209.496L209.878 228.449H210.49L211.535 230.058H212.834L211.662 228.347C212.732 228.091 213.089 227.58 213.14 226.993ZM210.923 227.734H210.082L210.388 226.431H211.28C211.764 226.431 211.993 226.661 211.942 227.07C211.917 227.478 211.509 227.734 210.923 227.734Z" fill="white"/>
<path d="M230.112 230.085H231.233L230.163 226.125C230.01 225.666 229.73 225.563 229.449 225.589C229.271 225.615 229.067 225.691 228.889 225.947L226.061 230.111H227.233L227.819 229.242H229.933L230.112 230.085ZM228.277 228.476L229.322 226.892L229.73 228.476H228.277Z" fill="white"/>
<path d="M234.848 229.291C233.88 229.265 233.345 228.729 233.421 228.039C233.523 227.119 234.364 226.532 235.562 226.557C235.918 226.557 236.352 226.583 236.785 226.685L236.988 225.817C236.657 225.74 236.071 225.663 235.714 225.663C233.676 225.663 232.377 226.609 232.224 228.014C232.071 229.265 232.963 230.159 234.848 230.159C235.23 230.159 235.562 230.134 236.02 230.057L236.25 229.112C235.791 229.24 235.434 229.291 234.848 229.291Z" fill="white"/>
<path d="M289.518 35.963C281.67 26.2557 267.096 6.9177 246.636 4.74633C236.444 3.82669 229.183 3.90332 220.494 7.30088C221.59 5.76815 228.851 2.08959 228.648 0.83786C228.418 -0.694872 171.931 6.73888 166.3 31.4159C162.962 34.277 160.975 36.5505 160.745 37.7001C159.624 43.1157 189.868 72.2376 189.359 58.4686C188.441 46.7687 187.651 45.2871 192.442 42.7325C201.079 38.1088 214.787 39.335 244.751 52.2355C258.815 58.2898 304.729 65.5447 306.181 47.5606C306.207 47.5862 297.365 45.6703 289.518 35.963Z" fill="#2B2E3A"/>
<path d="M215.387 192.506L209.68 206.122L192.405 192.43L188.354 196.747L210.877 215.012L216.941 199.046L215.387 192.506Z" fill="#BD1A3B"/>
<path d="M186.744 184.128C186.744 184.128 193.598 193.427 202.184 200.196C201.038 202.725 190.617 209.444 190.617 209.444L178.947 190.693L186.744 184.128Z" fill="#BD1A3B"/>
<path d="M181.568 227.07C180.116 228.245 178.791 229.548 177.517 230.876C176.269 232.23 175.02 233.558 173.899 235.014C171.682 237.901 169.517 240.813 167.402 243.853L167.351 243.93C166.587 244.824 165.771 245.692 164.701 246.382C165.058 245.182 165.669 244.134 166.332 243.163L166.281 243.24C167.096 241.529 167.937 239.843 168.982 238.259C170.001 236.675 171.224 235.193 172.523 233.814C173.848 232.46 175.199 231.132 176.727 230.008C178.231 228.832 179.836 227.785 181.568 227.07Z" fill="#BD1A3B"/>
<path d="M160.395 283.396C160.395 283.396 167.377 283.191 170.511 280.637C173.67 278.082 176.626 277.239 179.301 280.637C181.976 284.034 183.25 284.469 183.658 287.125C184.066 289.884 186.282 293.639 183.683 293.001C181.11 292.362 180.244 287.457 180.244 287.457L177.161 284.366C177.161 284.366 179.505 289.91 178.537 292.362C177.568 294.815 171.097 297.574 169.186 296.935C167.275 296.296 167.173 293.742 167.173 293.742C167.173 293.742 160.268 298.417 152.522 292.464L129.871 251.004L148.904 252.945L160.395 283.396Z" fill="#FAC2A8"/>
<path d="M171.668 287.893C172.458 289.4 173.248 290.933 173.681 292.645C173.783 293.079 173.885 293.539 173.681 294.075C173.477 294.51 173.197 294.867 172.917 295.199C172.331 295.863 171.694 296.425 170.98 296.911C171.541 296.272 172.076 295.608 172.509 294.918C172.713 294.561 172.917 294.203 173.019 293.845C173.095 293.564 173.07 293.156 173.019 292.747C172.84 291.112 172.254 289.477 171.668 287.893Z" fill="#F7AB8D"/>
<path d="M175.379 286.591C176.169 288.098 176.959 289.631 177.392 291.343C177.494 291.777 177.596 292.237 177.392 292.773C177.188 293.207 176.908 293.565 176.628 293.897C176.042 294.561 175.405 295.123 174.691 295.609C175.252 294.97 175.787 294.306 176.22 293.616C176.424 293.258 176.628 292.901 176.73 292.543C176.806 292.262 176.781 291.853 176.73 291.445C176.551 289.81 175.965 288.175 175.379 286.591Z" fill="#F7AB8D"/>
<path d="M167.323 290.318C167.603 290.753 167.934 291.162 168.316 291.494C168.673 291.826 169.157 292.107 169.463 292.056L169.488 292.772C168.673 292.721 167.603 292.874 167.195 293.769C167.272 293.283 167.628 292.874 168.036 292.593C168.469 292.312 168.928 292.158 169.463 292.056L169.488 292.772C168.75 292.67 168.367 292.158 168.062 291.75C167.73 291.264 167.501 290.804 167.323 290.318Z" fill="#F7AB8D"/>
<path d="M239.908 216.01C240.571 218.334 241.004 220.736 241.437 223.111C241.794 225.513 242.15 227.888 242.354 230.315C242.533 232.717 242.762 235.143 242.787 237.57C242.838 239.997 242.787 242.424 242.558 244.825L241.972 237.621L241.259 230.443L240.494 223.265C240.316 220.838 240.061 218.437 239.908 216.01Z" fill="#BD1A3B"/>
<path d="M249.209 142.794C249.209 142.794 225.87 151.071 200.314 128.718C200.314 128.718 204.468 159.015 222.456 162.771C241.438 164.738 235.017 151.735 249.209 142.794Z" fill="#2B2E3A"/>
<path d="M207.705 150.612C221.719 152.426 228.343 157.765 231.477 162.21C229.312 162.951 226.458 163.206 222.458 162.797C215.808 161.418 211.068 156.386 207.705 150.612Z" fill="#E78680"/>
<path d="M249.207 142.797C244.901 145.505 242.965 148.085 241.92 149.643C233.206 150.665 217.995 148.289 202.657 138.812C200.109 131.736 200.312 128.747 200.312 128.747C225.868 151.099 249.207 142.797 249.207 142.797Z" fill="white"/>
<path d="M249.209 142.794C247.12 143.51 244.929 143.893 242.738 144.148C240.546 144.404 238.33 144.48 236.113 144.404C235.017 144.353 233.896 144.302 232.801 144.174C231.705 144.046 230.609 143.918 229.514 143.714C228.418 143.535 227.323 143.305 226.252 143.05C225.182 142.794 224.112 142.488 223.042 142.181C221.997 141.824 220.927 141.517 219.883 141.108C218.838 140.725 217.819 140.291 216.8 139.857C215.78 139.397 214.787 138.937 213.793 138.426C212.799 137.915 211.831 137.404 210.863 136.817C209.895 136.255 208.952 135.667 208.035 135.054C207.092 134.467 206.2 133.802 205.283 133.164C204.366 132.525 203.525 131.81 202.633 131.146L200.06 129.025L200.722 128.668C200.977 130.405 201.359 132.168 201.767 133.905C202.174 135.642 202.659 137.353 203.194 139.039C204.264 142.437 205.563 145.758 207.219 148.9C208.876 152.042 210.888 155.005 213.436 157.432C215.959 159.884 219.093 161.698 222.532 162.439H222.507C223.246 162.49 223.985 162.592 224.724 162.618C225.463 162.669 226.202 162.669 226.94 162.643C227.679 162.618 228.418 162.567 229.132 162.465C229.488 162.413 229.845 162.362 230.202 162.26C230.558 162.184 230.915 162.081 231.246 161.979C231.934 161.775 232.597 161.468 233.234 161.111C233.845 160.727 234.457 160.319 234.992 159.808C236.062 158.812 236.903 157.585 237.693 156.308C239.221 153.754 240.597 151.046 242.483 148.695C242.941 148.108 243.451 147.546 243.961 146.984C244.47 146.447 245.031 145.911 245.591 145.426C246.177 144.94 246.738 144.455 247.349 144.046C247.935 143.586 248.598 143.203 249.209 142.794ZM249.209 142.794C248.598 143.229 247.961 143.637 247.375 144.097C246.763 144.532 246.228 145.042 245.668 145.528C245.133 146.039 244.598 146.55 244.088 147.112C243.604 147.674 243.12 148.236 242.661 148.823C241.769 150.024 240.979 151.276 240.241 152.578C239.502 153.881 238.839 155.21 238.075 156.512C237.311 157.815 236.47 159.093 235.349 160.14C234.814 160.676 234.177 161.136 233.514 161.545C232.852 161.928 232.138 162.26 231.425 162.49C231.068 162.618 230.686 162.72 230.329 162.797C229.947 162.899 229.59 162.975 229.208 163.027C228.469 163.154 227.705 163.205 226.94 163.256C226.176 163.282 225.437 163.282 224.673 163.256C223.908 163.256 223.169 163.154 222.405 163.103H222.38C218.787 162.388 215.526 160.472 212.901 157.969C210.251 155.465 208.188 152.425 206.481 149.257C204.773 146.064 203.448 142.692 202.353 139.269C201.818 137.558 201.334 135.821 200.926 134.058C200.518 132.295 200.162 130.558 199.881 128.744L199.729 127.697L200.544 128.387L203.066 130.507C203.933 131.171 204.799 131.861 205.691 132.525C206.582 133.164 207.474 133.828 208.391 134.416C209.309 135.029 210.226 135.616 211.194 136.153C212.137 136.74 213.105 137.226 214.073 137.762C215.042 138.273 216.035 138.758 217.029 139.218C218.023 139.678 219.042 140.112 220.061 140.495C221.08 140.904 222.125 141.262 223.169 141.619C224.214 141.951 225.259 142.258 226.329 142.513C227.399 142.794 228.469 143.024 229.539 143.229C230.609 143.433 231.705 143.586 232.801 143.74C233.896 143.867 234.992 143.97 236.087 144.046C238.279 144.174 240.495 144.123 242.687 143.944C244.903 143.765 247.095 143.433 249.209 142.794Z" fill="#57617F"/>
<path d="M205.589 128.565C205.589 128.565 204.902 128.31 203.857 128.105C203.602 128.054 203.322 128.003 203.016 127.978C202.71 127.926 202.405 127.952 202.099 127.926C201.793 127.952 201.462 127.952 201.131 128.029C200.978 128.054 200.799 128.08 200.646 128.131L200.188 128.31C199.857 128.386 199.602 128.591 199.296 128.744C199.016 128.948 198.761 129.127 198.506 129.306C198.277 129.536 198.048 129.74 197.818 129.945C197.614 130.174 197.436 130.379 197.258 130.583C197.079 130.788 196.926 130.966 196.799 131.145C196.672 131.324 196.57 131.477 196.468 131.605C196.264 131.86 196.162 132.014 196.162 132.014C196.162 132.014 196.213 131.835 196.315 131.528C196.442 131.222 196.519 130.762 196.825 130.302C196.952 130.072 197.105 129.791 197.283 129.51C197.487 129.255 197.716 128.999 197.946 128.718C198.226 128.488 198.506 128.233 198.812 128.003C199.143 127.824 199.474 127.594 199.857 127.467L200.417 127.288C200.596 127.237 200.799 127.211 200.978 127.186C201.36 127.109 201.742 127.16 202.099 127.135C202.456 127.186 202.812 127.211 203.118 127.313C203.449 127.39 203.729 127.492 203.984 127.594C205.054 128.054 205.589 128.565 205.589 128.565Z" fill="#2B2E3A"/>
<path d="M272.506 201.498C271.538 199.582 270.417 197.334 270.799 195.163C271.182 192.991 274.494 186.911 275.717 186.017C276.94 185.123 278.596 184.561 279.207 183.029C279.819 181.496 280.431 178.354 282.316 179.248C286.112 181.061 284.278 185.532 281.985 188.495C281.883 189.67 281.832 190.769 281.704 191.918C282.8 191.969 283.284 192.225 284.533 192.174C285.781 192.123 288.049 191.637 289.348 191.51C290.648 191.382 296.432 191.28 297.96 190.999C299.489 190.718 300.432 190.948 301.808 190.028C303.184 189.108 307.617 185.149 311.999 187.806C313.019 188.419 312.56 189.083 312.662 189.773C313.63 190.411 315.388 190.948 315.617 192.327C315.847 193.707 313.35 194.703 312.458 195.316C312.687 195.98 313.834 196.338 313.477 197.308C313.12 198.279 308.076 200.502 307.082 201.549C306.088 202.571 301.859 208.37 300.126 208.727C298.393 209.085 291.641 209.953 289.883 210.439C288.125 210.899 286.571 211.767 284.15 211.946C281.73 212.15 278.367 211.486 276.277 209.417C274.188 207.348 273.016 204.436 272.506 201.498Z" fill="#FAC2A8"/>
<path d="M281.631 192.122C281.936 193.425 282.115 194.779 281.911 196.159C281.809 196.848 281.554 197.538 281.121 198.075C280.713 198.637 280.102 199.045 279.49 199.301C280.535 198.407 281.223 197.334 281.529 196.082C281.809 194.805 281.631 193.476 281.631 192.122Z" fill="#DC918B"/>
<path d="M306.864 201.753C306.686 201.14 306.558 200.68 306.202 200.399C305.845 200.118 305.335 199.965 304.8 199.914C303.73 199.863 302.609 200.195 301.692 200.706C300.774 201.293 299.934 202.111 299.246 202.979C298.558 203.848 297.972 204.819 297.768 205.968C297.59 204.793 298.15 203.618 298.813 202.673C299.526 201.728 300.367 200.91 301.36 200.246C302.38 199.556 303.603 199.326 304.8 199.326C305.412 199.352 306.074 199.48 306.584 199.965C307.144 200.425 307.195 201.242 306.864 201.753Z" fill="#DC918B"/>
<path d="M298.626 203.592C296.511 203.643 294.371 203.694 292.256 203.771" stroke="#DC918B" stroke-width="0.2277" stroke-miterlimit="10"/>
<path d="M312.439 195.339C310.833 194.496 309.024 194.522 307.266 194.598C305.559 194.726 303.929 195.671 302.757 196.923C302.451 197.255 302.247 197.562 301.967 197.97C301.839 198.175 301.559 198.43 301.253 198.507C300.998 198.583 300.795 198.609 300.565 198.66L297.915 199.248L292.59 200.346L292.488 199.784L297.763 198.532L300.412 197.945L301.049 197.791C301.202 197.74 301.279 197.689 301.406 197.51C301.635 197.178 301.941 196.744 302.247 196.412C303.546 195.058 305.304 194.062 307.215 193.909C308.999 193.806 311.139 193.883 312.439 195.339Z" fill="#DC918B"/>
<path d="M312.095 189.952C311.178 189.875 310.21 189.901 309.369 190.182C308.553 190.54 307.662 190.948 306.795 191.28C305.929 191.612 305.088 191.97 304.298 192.43C303.534 192.89 302.77 193.426 302.336 194.141L302.26 194.244L302.184 194.269C299.126 195.393 295.916 195.93 292.731 196.313L292.654 195.776C295.839 195.393 298.999 194.857 301.98 193.758L301.827 193.886C302.336 192.966 303.152 192.353 303.993 191.893C304.833 191.434 305.725 191.076 306.591 190.744C307.483 190.412 308.35 190.182 309.267 189.85C310.21 189.594 311.203 189.671 312.095 189.952Z" fill="#DC918B"/>
<path d="M292.464 193.961C292.719 196.056 292.846 198.125 292.821 200.246C292.744 202.34 292.464 204.512 291.547 206.402C292.005 204.358 292.235 202.315 292.235 200.22C292.337 198.151 292.235 196.056 292.464 193.961Z" fill="#DC918B"/>
<defs>
<linearGradient id="paint0_linear" x1="59.2487" y1="98.0783" x2="52.7976" y2="122.83" gradientUnits="userSpaceOnUse">
<stop stop-color="#CC7A5B"/>
<stop offset="1" stop-color="#A1554A"/>
</linearGradient>
<linearGradient id="paint1_linear" x1="231.512" y1="127.627" x2="245.482" y2="87.1626" gradientUnits="userSpaceOnUse">
<stop stop-color="#DC918B"/>
<stop offset="0.1085" stop-color="#E29A91"/>
<stop offset="0.4229" stop-color="#EFB09E"/>
<stop offset="0.7253" stop-color="#F7BEA5"/>
<stop offset="1" stop-color="#FAC2A8"/>
</linearGradient>
</defs>
</svg>
