<svg width="359" height="442" viewBox="0 0 359 442" fill="none" xmlns="http://www.w3.org/2000/svg">
<mask id="mask0" mask-type="alpha" maskUnits="userSpaceOnUse" x="0" y="0" width="359" height="442">
<rect y="0.0820312" width="359" height="441.438" fill="#C4C4C4"/>
</mask>
<g mask="url(#mask0)">
<path opacity="0.15" d="M215.427 424.014C215.427 424.014 198.932 426.462 204.651 437.609C205.744 439.757 215.191 444.568 227.915 438.726C240.64 432.906 273.908 429.211 291.431 428.245C308.954 427.279 314.609 419.01 299.143 419.01C283.676 419.01 267.588 420.513 251.201 420.921C234.835 421.351 215.427 424.014 215.427 424.014Z" fill="#001177"/>
<path d="M230.575 396.719V411.495L217.829 410.249L218.922 395.967L230.575 396.719Z" fill="#FAC2A8"/>
<path d="M272.516 397.578V412.354L258.635 411.559V395.967L272.516 397.578Z" fill="#FAC2A8"/>
<path d="M273.867 405.675C275.195 405.417 280.786 409.927 288.969 412.354C288.969 412.354 298.673 413.192 303.921 417.681C305.913 419.399 304.821 422.663 302.186 422.814L257.972 421.589C257.972 421.589 253.944 415.339 258.357 407.006C262.449 410.013 267.162 410.035 272.067 409.09C272.067 409.09 272.517 405.932 273.867 405.675Z" fill="#2B2E3A"/>
<path d="M230.802 407.456C230.053 408.466 229.153 408.938 228.103 408.788C227.396 408.702 231.616 404.321 223.155 403.741C217.05 403.311 218.035 407.65 217.799 407.263C217.607 406.92 217.092 406.211 217.092 406.211C209.809 418.066 203.425 419.806 204.025 425.283C204.625 430.759 207.324 436.258 217.328 434.518C227.332 432.778 231.059 427.881 231.509 424.402C232.002 420.944 230.802 407.456 230.802 407.456Z" fill="#2B2E3A"/>
<path d="M278.753 272.88L278.796 289.804C278.796 289.804 260.716 298.094 247.606 299.641C237.688 348.824 240.044 352.153 239.144 356.899C238.695 359.262 236.06 389.073 236.36 390.49C236.638 391.908 236.917 394.334 236.488 395.988C236.145 397.212 237.002 403.72 237.002 403.72C237.002 403.72 233.039 404.858 227.919 405.438C222.821 405.997 216.245 404.171 214.274 404.171C214.274 404.171 214.788 400.692 214.252 398.544C213.781 396.718 215.388 394.463 214.831 392.487C214.274 390.49 213.438 371.268 213.481 360.078C213.481 358.94 213.888 342.338 215.302 338.321C214.745 302.218 214.595 292.639 214.638 290.835C214.852 282.48 215.066 274.942 215.066 272.665C215.066 270.388 220.272 271.162 220.272 271.162L278.753 272.88Z" fill="#57617F"/>
<path d="M278.785 289.805C278.785 289.805 276.879 333.79 276.879 335.788C276.879 337.785 275.443 392.595 276.022 394.013C276.579 395.43 277.457 402.432 277.457 402.432C277.457 402.432 271.609 404.752 267.732 405.052C264.197 405.332 262.483 405.503 252.843 403.227C253.658 397.406 253.572 390.942 253.572 388.966C253.572 386.99 252.522 374.168 252.522 371.032C252.522 367.896 249.909 349.383 251.901 341.565C252.501 339.203 250.808 299.147 250.808 299.147C250.808 299.147 262.333 296.269 278.785 289.805Z" fill="#343948"/>
<path d="M249.315 275.094C249.294 280.699 249.165 286.305 248.929 291.91L248.522 291.481L253.235 291.459L252.807 291.867C253.064 287.808 253.235 283.77 253.578 279.711L253.599 279.454L253.835 279.432L257.284 279.153L257.112 279.368L256.834 274.664L257.477 279.325L257.498 279.518L257.305 279.539L253.856 279.99L254.113 279.733C254.028 283.792 253.814 287.851 253.642 291.889L253.621 292.297H253.214L248.501 292.276H248.073L248.094 291.846C248.394 286.262 248.801 280.678 249.315 275.094Z" fill="#343948"/>
<path d="M124.955 406.233C119.407 406.083 92.3723 411.989 98.1991 427.797C102.998 436.388 147.469 437.848 161.329 433.982C177.802 429.386 154.302 407.2 139.714 407.2C125.126 407.2 125.983 406.276 124.955 406.233Z" fill="#E1E4F4"/>
<path d="M116.714 196.915L113.844 219.165L140.771 220.196C140.771 220.196 142.206 228.487 142.806 226.232C142.806 226.232 105.789 242.361 103.904 236.67C102.298 231.859 101.055 196.099 114.551 184.028C115.965 182.761 117.271 186.112 117.271 186.112C117.271 186.112 120.163 187.508 118.042 193.715L116.993 196.657" fill="#BD6C53"/>
<path d="M119.311 363.086L130.75 395.495L126.637 406.449L132.207 411.109L142.81 400.242L142.125 394.787L134.713 363.086H119.311Z" fill="#A1554A"/>
<path d="M112.75 414.245C113.629 412.806 122.883 405.203 123.161 405.031C124.618 404.15 126.953 402.325 128.495 403.162C129.331 403.613 130.166 409.477 131.237 409.885C137.792 404.215 141.605 398.244 142.141 391.887C142.141 391.887 145.74 394.7 147.325 398.996C147.711 400.027 147.304 401.938 146.297 402.905C135.714 412.999 138.049 417.681 127.96 418.798C117.634 419.893 110.201 418.433 112.75 414.245Z" fill="#31374C"/>
<path d="M137.128 369.635L137.471 408.187L124.222 419.516L138.906 423.779L149.51 412.912L148.824 407.456L152.53 369.635H137.128Z" fill="#CC7A5B"/>
<path d="M148.828 407.457C148.828 407.457 151.398 414.888 150.113 419.27C149.792 420.343 148.271 421.31 146.943 421.761C135.996 425.498 140.088 427.667 129.977 428.784C119.63 429.922 115.324 428.849 117.873 424.66C118.752 423.221 128.006 415.618 128.284 415.447C129.741 414.566 132.076 412.74 133.618 413.578C134.454 414.029 135.289 419.892 136.36 420.301C136.36 420.322 150.456 416.735 148.828 407.457Z" fill="#31374C"/>
<path d="M148.486 174.472C148.486 174.472 141.781 170.07 131.135 174.472L130.085 179.777L149.686 178.789L148.486 174.472Z" fill="#BD1A3B"/>
<path d="M141.093 39.9362C141.093 39.9362 134.666 30.9157 114.187 39.12C93.708 47.3244 88.8024 83.299 87.0673 94.7679C85.3321 106.237 68.1305 125.674 74.0429 143.049C83.8326 171.786 127.79 172.344 136.102 167.49C144.413 162.636 124.641 134.63 124.641 134.63C124.641 134.63 115.772 104.218 119.221 74.6436C122.67 45.0693 141.093 39.9362 141.093 39.9362Z" fill="#2B2E3A"/>
<path d="M171.745 145.304L172.602 122.216L119.969 107.203L106.002 149.256C106.002 149.256 138.67 180.398 156.107 169.702C173.566 158.964 171.745 145.304 171.745 145.304Z" fill="#2B2E3A"/>
<path d="M128.436 156.451L131.778 175.609C131.778 175.609 127.023 178.422 125.823 179.023C117.211 183.362 116.205 187.894 116.205 187.894L138.033 199.32L154.485 189.268C154.485 189.268 158.234 184.758 153.2 182.181C151.807 181.472 147.609 174.771 147.609 174.771L145.038 155.012L128.436 156.451Z" fill="#A1554A"/>
<path d="M114.402 53.2521C114.402 53.2521 101.806 64.5707 99.6205 84.3943C97.4355 104.239 82.4617 149.32 115.323 164.054C129.204 170.282 150.326 161.691 164.207 145.004C181.837 123.805 191.027 92.5772 189.463 86.2629C186.678 75.0517 141.821 32.1184 114.402 53.2521Z" fill="#CC7A5B"/>
<path d="M104.266 87.4665C104.266 87.4665 110.8 82.8274 117.141 86.2853C117.74 86.6289 118.383 85.8772 117.933 85.3403C115.384 82.1831 110.478 78.7896 104.266 87.4665Z" fill="#2B2E3A"/>
<path opacity="0.2" d="M139.485 117.448C139.1 119.23 141.627 121.271 145.098 122.022C148.59 122.774 151.717 121.915 152.103 120.132C152.488 118.35 149.982 116.288 146.49 115.558C142.998 114.806 139.871 115.665 139.485 117.448Z" fill="#B55050"/>
<path opacity="0.2" d="M98.8914 110.767C98.5058 112.549 101.034 114.59 104.504 115.342C107.996 116.093 111.123 115.234 111.509 113.452C111.894 111.669 109.388 109.607 105.896 108.877C102.405 108.147 99.277 108.984 98.8914 110.767Z" fill="#B55050"/>
<path d="M155.854 97.6881C155.854 97.6881 152.212 90.5361 144.993 90.665C144.286 90.6865 144.072 89.72 144.714 89.4622C148.442 87.83 154.354 87.0997 155.854 97.6881Z" fill="#2B2E3A"/>
<path d="M104.61 129.088C104.61 129.088 117.677 140.815 140.406 133.061C140.406 133.061 129.566 151.789 116.778 149.405C103.817 145.561 111.508 138.774 104.61 129.088Z" fill="#7B4358"/>
<path d="M129.693 145.411C120.032 142.813 114.248 144.531 111.013 146.593C112.234 147.666 114.034 148.611 116.754 149.406C121.488 150.287 125.944 148.289 129.693 145.411Z" fill="#E78680"/>
<path d="M104.61 129.088C106.709 132.009 107.459 134.672 107.845 137.077C113.264 140.084 122.047 142.876 134.643 140.772C138.221 136.82 140.406 133.04 140.406 133.04C117.677 140.815 104.61 129.088 104.61 129.088Z" fill="white"/>
<path d="M105.488 130.416C105.766 130.867 106.023 131.339 106.281 131.812C106.516 132.284 106.73 132.778 106.923 133.272C107.116 133.766 107.287 134.282 107.437 134.776C108.037 136.816 108.209 138.964 108.53 141.047C108.701 142.078 108.915 143.13 109.365 144.054C109.579 144.526 109.858 144.956 110.158 145.385C110.479 145.793 110.843 146.159 111.229 146.481C111.422 146.652 111.636 146.803 111.85 146.953C112.064 147.104 112.279 147.254 112.514 147.383C112.964 147.662 113.435 147.877 113.907 148.091C114.378 148.306 114.871 148.5 115.363 148.671C115.856 148.865 116.37 148.994 116.863 149.165H116.841C119.284 149.616 121.833 149.251 124.146 148.349C126.46 147.447 128.581 146.03 130.509 144.44C132.436 142.83 134.172 141.004 135.778 139.071C136.592 138.105 137.363 137.117 138.092 136.086C138.82 135.055 139.527 134.024 140.17 132.95L140.512 133.379L138.263 134.088C137.513 134.282 136.742 134.518 135.992 134.69C135.221 134.861 134.472 135.055 133.679 135.184C132.908 135.334 132.137 135.463 131.344 135.57C130.573 135.699 129.78 135.763 129.009 135.828C128.216 135.892 127.445 135.935 126.653 135.957C125.86 135.978 125.089 135.978 124.296 135.935C123.504 135.935 122.732 135.849 121.94 135.785C121.169 135.699 120.376 135.613 119.605 135.484C118.834 135.377 118.063 135.205 117.291 135.055C116.52 134.883 115.77 134.69 114.999 134.475C114.249 134.239 113.5 134.002 112.771 133.723C111.293 133.165 109.879 132.52 108.508 131.769C107.137 131.017 105.809 130.158 104.631 129.127C104.91 129.535 105.231 129.943 105.488 130.416ZM108.551 131.618C109.944 132.327 111.379 132.95 112.836 133.465C113.564 133.723 114.314 133.959 115.063 134.153C115.813 134.346 116.563 134.539 117.334 134.69C118.105 134.84 118.855 134.99 119.626 135.098C120.397 135.205 121.169 135.291 121.94 135.355C122.711 135.398 123.482 135.463 124.275 135.463C125.046 135.484 125.839 135.463 126.61 135.441C127.381 135.398 128.152 135.355 128.945 135.291C129.716 135.205 130.487 135.141 131.258 135.012C132.029 134.904 132.801 134.776 133.55 134.625C134.322 134.496 135.071 134.282 135.821 134.131C136.571 133.959 137.321 133.723 138.07 133.53L140.298 132.821L141.027 132.585L140.641 133.229C139.977 134.346 139.27 135.398 138.542 136.429C137.792 137.46 137.021 138.47 136.207 139.458C134.579 141.412 132.801 143.259 130.83 144.891C128.859 146.524 126.695 147.941 124.296 148.865C121.897 149.788 119.241 150.175 116.713 149.659H116.692C116.177 149.488 115.663 149.337 115.171 149.144C114.678 148.972 114.164 148.757 113.692 148.521C113.2 148.285 112.728 148.049 112.279 147.769C112.043 147.64 111.829 147.49 111.615 147.318C111.4 147.168 111.186 146.996 110.972 146.824C110.565 146.481 110.179 146.073 109.858 145.643C109.537 145.192 109.258 144.741 109.044 144.226C108.594 143.238 108.38 142.164 108.23 141.111C108.08 140.059 107.994 139.007 107.866 137.954C107.737 136.902 107.544 135.871 107.287 134.84C107.159 134.324 106.987 133.83 106.816 133.337C106.645 132.843 106.431 132.349 106.216 131.876C105.981 131.404 105.745 130.931 105.488 130.48C105.231 130.008 104.931 129.578 104.653 129.127C105.809 130.072 107.159 130.888 108.551 131.618Z" fill="#A1554A"/>
<path d="M136.991 131.535C136.991 131.535 137.527 131.557 138.255 131.685C138.448 131.728 138.64 131.771 138.833 131.836C139.047 131.879 139.24 131.986 139.454 132.051C139.647 132.158 139.861 132.244 140.054 132.394C140.14 132.459 140.247 132.523 140.354 132.587L140.611 132.824C140.804 132.974 140.933 133.167 141.082 133.339C141.211 133.532 141.34 133.726 141.447 133.919C141.532 134.134 141.618 134.327 141.725 134.52C141.789 134.714 141.854 134.907 141.918 135.1C141.982 135.272 142.025 135.444 142.068 135.594C142.111 135.745 142.132 135.874 142.154 135.981C142.218 136.196 142.239 136.325 142.239 136.325C142.239 136.325 142.261 136.196 142.261 135.959C142.261 135.723 142.325 135.401 142.261 135.014C142.239 134.821 142.218 134.606 142.175 134.37C142.111 134.155 142.046 133.919 141.961 133.683C141.854 133.447 141.725 133.21 141.597 132.996C141.425 132.781 141.275 132.545 141.061 132.373L140.697 132.094C140.59 132.008 140.461 131.943 140.354 131.879C140.14 131.728 139.861 131.642 139.647 131.557C139.412 131.492 139.176 131.406 138.94 131.385C138.705 131.342 138.49 131.342 138.298 131.342C137.484 131.342 136.991 131.535 136.991 131.535Z" fill="#A1554A"/>
<path d="M109.447 121.186C109.447 121.186 113.538 129.605 123.092 124.085C123.092 124.106 116.238 125.309 109.447 121.186Z" fill="#A1554A"/>
<path opacity="0.56" d="M119.023 92.8789C119.023 92.8789 120.458 104.026 109.426 121.186C109.426 121.186 115.938 125.288 123.114 124.064C123.114 124.064 124.057 108.965 129.819 102.05C129.841 102.071 124.785 95.6065 119.023 92.8789Z" fill="url(#paint0_linear)"/>
<path d="M143.209 389.824C142.009 384.67 133.162 348.094 132.627 338.257C132.005 326.788 132.991 292.295 132.991 292.295L109.106 281.836C107.413 301.337 111.312 335.465 112.233 344.099C113.069 351.852 128.535 391.671 128.535 391.671C128.535 391.671 135.883 392.273 143.23 390.297" fill="#31374C"/>
<path d="M109.135 281.835C109.477 277.819 109.777 274.426 110.013 272.042C110.463 267.059 114.426 255.225 114.426 255.225L127.686 249.791L144.545 250.221L156.627 249.619L163.889 261.195C163.889 261.195 166.952 274.49 166.973 279.408C167.038 299.683 156.926 336.001 156.969 344.463L150.65 401.615C150.65 401.615 143.431 403.977 136.019 402.087C136.019 402.087 136.019 402.087 135.762 394.828L134.734 342.681L133.041 292.316L109.135 281.835Z" fill="#57617F"/>
<path d="M113.864 267.96L114.078 263.965C114.099 263.493 114.506 263.128 114.978 263.149L115.877 263.192C116.349 263.214 116.713 263.622 116.691 264.094L116.477 268.089C116.456 268.562 116.049 268.927 115.577 268.905L114.678 268.862C114.185 268.841 113.821 268.433 113.864 267.96Z" fill="#31374C"/>
<path d="M158.51 268.133L158.188 264.138C158.146 263.665 158.51 263.257 158.981 263.214L159.881 263.15C160.352 263.107 160.759 263.472 160.802 263.945L161.123 267.939C161.166 268.412 160.802 268.82 160.331 268.863L159.431 268.927C158.96 268.949 158.553 268.605 158.51 268.133Z" fill="#31374C"/>
<path d="M144.347 268.907L144.475 264.912C144.497 264.439 144.882 264.074 145.354 264.074L146.253 264.096C146.724 264.117 147.089 264.504 147.089 264.976L146.96 268.971C146.939 269.444 146.553 269.809 146.082 269.787L145.182 269.766C144.711 269.766 144.347 269.379 144.347 268.907Z" fill="#31374C"/>
<path d="M112.216 261.111C118.085 242.512 116.286 227.778 113.865 219.166C109.817 204.733 116.95 192.684 116.95 192.684L114.551 182.869C114.551 182.869 120.12 180.421 122.712 179.476C125.304 178.552 128.646 177.693 128.646 177.693C128.646 177.693 131.752 194.016 133.659 193.995C134.773 193.995 147.305 177.199 147.305 177.199C147.305 177.199 151.696 177.908 153.217 178.445C153.217 178.445 163.928 182.44 166.006 183.75C165.342 183.428 166.97 217.34 166.97 217.34C156.216 245.712 165.727 251.769 164.849 261.434C164.506 264.87 111.53 263.281 112.216 261.111Z" fill="#EF3F54"/>
<path d="M148.076 202.111C147.948 202.111 147.841 202.154 147.734 202.305L146.406 204.11L145.891 202.348C145.849 202.176 145.72 202.111 145.613 202.111C145.442 202.111 145.377 202.176 145.292 202.326L144.113 204.69H144.777L145.57 203.057L146.063 204.69H146.62L147.819 203.078V204.69H148.376V202.412C148.355 202.219 148.226 202.133 148.076 202.111Z" fill="white"/>
<path d="M143.342 202.539L142.806 204.709H143.406L143.92 202.539H143.342Z" fill="white"/>
<path d="M142.317 203.162C142.359 202.883 142.188 202.539 141.588 202.539H140.432L139.917 204.709H140.517L140.71 203.893H141.01L141.545 204.709H142.188L141.588 203.85C142.102 203.721 142.274 203.442 142.317 203.162ZM141.203 203.527H140.774L140.924 202.883H141.374C141.61 202.883 141.738 202.99 141.717 203.205C141.695 203.399 141.503 203.527 141.203 203.527Z" fill="white"/>
<path d="M150.843 204.69H151.421L150.885 202.691C150.821 202.455 150.671 202.412 150.521 202.412C150.436 202.412 150.328 202.455 150.243 202.584L148.829 204.668H149.407L149.686 204.217H150.735L150.843 204.69ZM149.921 203.895L150.435 203.1L150.628 203.895H149.921Z" fill="white"/>
<path d="M153.222 204.303C152.751 204.303 152.472 204.024 152.515 203.68C152.558 203.207 152.986 202.928 153.586 202.928C153.758 202.928 153.993 202.949 154.186 202.992L154.293 202.563C154.122 202.52 153.843 202.498 153.65 202.498C152.622 202.498 151.98 202.971 151.894 203.68C151.83 204.303 152.258 204.754 153.201 204.754C153.393 204.754 153.565 204.733 153.779 204.69L153.886 204.217C153.693 204.26 153.5 204.303 153.222 204.303Z" fill="white"/>
<path d="M141.242 109.244C141.092 110.962 142.356 112.508 144.091 112.658C145.826 112.809 147.326 111.542 147.497 109.802C147.647 108.084 146.383 106.559 144.669 106.387C142.913 106.237 141.392 107.504 141.242 109.244Z" fill="#2B2E3A"/>
<path d="M143.815 110.424C143.772 111.026 144.201 111.563 144.801 111.606C145.4 111.649 145.936 111.219 145.979 110.618C146.043 110.016 145.593 109.479 144.993 109.436C144.394 109.371 143.858 109.823 143.815 110.424Z" fill="white"/>
<path d="M106.332 102.821C106.268 104.518 107.575 105.936 109.246 106C110.938 106.064 112.352 104.754 112.437 103.079C112.502 101.382 111.195 99.9649 109.524 99.9005C107.81 99.8146 106.396 101.125 106.332 102.821Z" fill="#2B2E3A"/>
<path d="M109.067 103.895C109.045 104.54 109.538 105.099 110.18 105.12C110.823 105.142 111.38 104.647 111.402 104.003C111.423 103.358 110.93 102.8 110.288 102.778C109.645 102.757 109.109 103.251 109.067 103.895Z" fill="white"/>
<path d="M131.151 185.272C127.659 188.622 123.375 192.703 123.375 192.703C123.375 192.703 124.039 183.833 124.767 179.516C125.26 178.335 131.13 174.447 131.13 174.447C131.13 174.447 131.194 183.446 131.151 185.272Z" fill="#BD1A3B"/>
<path d="M130.082 179.775L133.959 191.223L145.72 179.711L148.483 183.341L133.145 198.697L129.011 185.274L130.082 179.775Z" fill="#BD1A3B"/>
<path d="M148.486 174.471C148.486 174.471 144.908 180.549 139.06 186.24C139.853 188.367 146.943 194.015 146.943 194.015L154.891 178.251L148.486 174.471Z" fill="#BD1A3B"/>
<path d="M187.815 41.8677C229.651 69.7453 199.854 116.051 203.174 139.482C206.816 165.32 208.187 174.705 185.287 181.643C154.611 190.942 125.327 161.153 146.856 146.828C164.015 135.402 165.258 120.496 165.258 120.496C165.258 120.496 160.459 108.963 159.602 95.5612C158.745 82.1593 156.153 55.871 111.082 56.9448C111.082 56.9448 118.58 36.0688 139.38 31.5586C154.161 28.3369 176.932 34.6083 187.815 41.8677Z" fill="#2B2E3A"/>
<path d="M112.209 221.978C112.209 221.978 121.742 220.238 142.307 219.014L143.613 227.197L116.108 235.981L112.209 221.978Z" fill="#BD6C53"/>
<path d="M121.151 215.536L147.114 223.16L157.675 191.61C161.081 185.983 173.205 185.618 171.792 194.746C168.985 212.658 157.803 238.195 153.09 240.042C147.521 242.232 117.252 222.817 117.252 222.817C115.902 224.75 121.151 215.536 121.151 215.536Z" fill="#CC7A5B"/>
<path d="M172.833 194.764C172.833 185.636 165.978 183.746 165.978 183.746C163.536 183.252 156.359 182.716 154.667 192.402C153.767 197.599 149.976 205.954 148.776 214.824C154.86 217.251 163.214 222.556 169.491 221.847C170.947 211.817 172.833 201.916 172.833 194.764Z" fill="#EF3F54"/>
<path d="M153.282 198.695C153.325 200.091 153.132 201.466 152.896 202.84C152.618 204.194 152.296 205.547 151.889 206.857C151.504 208.188 150.925 209.455 150.283 210.658C149.576 211.839 149.212 213.15 148.226 214.245C148.205 212.784 148.698 211.496 149.04 210.164C149.405 208.854 149.812 207.565 150.304 206.298L153.282 198.695Z" fill="#BD1A3B"/>
<path d="M137.966 226.722C140.365 227.517 144.757 222.62 144.95 222.663C145.528 222.791 145.956 222.877 146.899 222.749C146.899 223.543 146.856 224.682 147.97 225.154C149.084 225.627 149.684 225.627 150.048 225.261C150.412 224.918 150.541 223.908 150.541 223.908C150.541 223.908 151.547 224.488 152.597 223.93C153.647 223.371 153.84 222.426 153.261 220.816C154.182 221.374 154.739 222.19 155.746 221.825C156.753 221.46 156.774 220.493 156.582 219.892C156.389 219.269 154.889 217.057 154.889 217.057C154.889 217.057 156.003 217.744 156.86 217.487C157.717 217.229 158.124 217.036 157.91 216.155C157.695 215.296 156.796 214.523 156.196 213.277C155.596 212.053 155.189 211.645 154.718 211.516C154.247 211.387 149.084 209.905 148.291 209.905C147.499 209.905 145.978 209.776 145.592 210.421C145.207 211.065 145.335 211.387 144.607 211.645C143.879 211.902 143.022 211.945 142.679 213.17C142.315 214.394 142.143 214.351 141.544 214.737C140.944 215.124 140.837 215.21 140.751 215.768C140.665 216.327 136.809 220.751 136.809 220.751L126.698 221.331L129.762 226.035L137.966 226.722Z" fill="#BD6C53"/>
<path d="M144.95 222.686C145.528 222.815 145.957 222.9 146.899 222.772C146.899 223.566 146.856 224.705 147.97 225.177C149.084 225.65 149.684 225.65 150.048 225.284C150.412 224.941 150.541 223.931 150.541 223.931C150.541 223.931 151.548 224.511 152.598 223.953C153.647 223.394 153.84 222.449 153.262 220.839C154.183 221.397 154.74 222.213 155.747 221.848C156.753 221.483 156.775 220.516 156.582 219.915C156.389 219.292 154.89 217.08 154.89 217.08C154.89 217.08 156.004 217.767 156.86 217.51" stroke="#A1554A" stroke-width="0.1536" stroke-miterlimit="10"/>
<path d="M150.241 223.844C150.048 223.135 150.091 222.426 149.812 221.782C149.577 221.138 149.17 220.558 148.656 220.128C148.142 219.677 147.499 219.377 146.856 219.119C146.235 218.84 145.485 218.646 144.971 218.109C145.592 218.453 146.299 218.539 146.985 218.818C147.649 219.054 148.334 219.398 148.891 219.871C149.47 220.343 149.898 220.966 150.155 221.675C150.412 222.383 150.498 223.114 150.541 223.801L150.241 223.844Z" fill="#A1554A"/>
<path d="M152.617 220.539C152.467 220.174 152.317 219.787 152.21 219.379C152.082 218.971 152.103 218.542 151.91 218.348C151.503 217.79 150.775 217.382 150.132 216.995C149.447 216.609 148.74 216.265 148.033 215.943C147.347 215.556 146.512 215.449 145.976 214.762C146.769 214.912 147.454 215.299 148.204 215.599C148.933 215.921 149.661 216.244 150.368 216.63C151.053 217.017 151.782 217.382 152.339 218.091C152.489 218.241 152.574 218.563 152.596 218.735C152.617 218.928 152.66 219.1 152.703 219.293C152.788 219.659 152.917 220.024 153.046 220.389L152.617 220.539Z" fill="#A1554A"/>
<path d="M154.394 216.973C154.158 216.694 154.073 216.286 153.901 216.092C153.687 215.856 153.451 215.62 153.173 215.427C152.637 214.997 152.059 214.632 151.481 214.267C150.324 213.494 149.039 212.978 147.946 212.055C149.338 212.398 150.495 213.214 151.716 213.902C152.316 214.267 152.894 214.653 153.473 215.083C153.751 215.298 154.03 215.534 154.265 215.835C154.501 216.221 154.694 216.436 154.78 216.78L154.394 216.973Z" fill="#A1554A"/>
<path d="M114.532 182.867C106.842 186.798 105.235 192.725 102.493 215.706C105.342 213.795 110.334 212.055 115.261 212.678L126.893 203.077L119.909 184.414L114.532 182.867Z" fill="#EF3F54"/>
<path d="M113.864 219.165C112.771 217.125 111.893 214.891 111.614 212.55C111.293 210.209 111.272 207.825 111.679 205.506C112.407 200.866 114.164 196.399 116.948 192.684C115.106 196.915 113.757 201.275 113.157 205.72C112.835 207.954 112.793 210.188 112.9 212.421C112.942 214.676 113.414 216.867 113.864 219.165Z" fill="#BD1A3B"/>
<path d="M128.519 218.393L146.899 222.774L141.715 231.343L127.319 228.315L124.92 220.454L128.519 218.393Z" fill="#CC7A5B"/>
<path d="M124.28 216.457C124.28 216.457 123.851 216.199 123.251 215.791C123.251 215.791 121.945 212.054 121.216 211.367C120.381 210.594 118.131 211.582 118.131 211.582C117.425 210.336 114.768 210.293 114.147 210.808C113.547 211.324 107.721 218.927 108.62 222.428L117.232 222.836L124.28 216.457Z" fill="#CC7A5B"/>
<path d="M292.822 121.635C292.822 121.635 299.034 108.019 307.453 115.428C315.872 122.838 301.605 145.046 288.259 139.505C288.259 139.483 286.76 133.921 292.822 121.635Z" fill="#F7AB8D"/>
<path d="M265.44 209.436L282.171 228.959L294.531 220.261L273.452 187.744L265.44 209.436Z" fill="#FAC2A8"/>
<path d="M269.639 182.074C269.639 182.074 280.628 187.744 288.362 208.62C284.42 210.768 277.479 214.634 276.944 224.471L265.44 211.777L269.639 182.074Z" fill="#EF3F54"/>
<path d="M210.567 190.299C200.306 202.09 182.311 222.107 181.497 228.378C181.326 229.71 193.879 233.254 193.879 233.254L217.871 211.776L210.567 190.299Z" fill="#FAC2A8"/>
<path d="M215.02 274.789L215.319 264.286L278.749 262.053V275.047C246.874 282.198 215.02 274.789 215.02 274.789Z" fill="#2B2E3A"/>
<path d="M257.951 267.467H250.989C249.51 267.467 248.289 268.67 248.289 270.173V274.576C248.289 276.058 249.489 277.282 250.989 277.282H257.951" stroke="#57617F" stroke-width="1.2832" stroke-miterlimit="10" stroke-linejoin="round"/>
<path d="M258.482 272.365H253.126" stroke="#57617F" stroke-width="1.2832" stroke-miterlimit="10" stroke-linejoin="round"/>
<path d="M212.92 190.642C214.162 183.082 220.717 177.583 228.365 177.626C232.499 177.648 237.662 174.555 242.803 175.242C250.108 176.316 264.417 179.795 269.644 182.094C278.32 201.251 274.957 241.779 280.312 269.098C267.995 270.344 234.491 273.201 214.612 268.97C220.567 223.201 208.271 219.035 212.92 190.642Z" fill="#EF3F54"/>
<path d="M252.697 178.271C252.74 172.15 254.453 163.602 254.453 163.602L230.868 159.027L229.583 176.939C229.583 176.939 234.231 190.062 249.462 191.394C253.082 188.645 252.697 178.271 252.697 178.271Z" fill="#F7AB8D"/>
<path d="M308.224 54.4099C318.292 57.2234 316.171 69.5514 315.914 75.0496C315.122 91.6302 301.819 116.952 299.869 124.082C299.869 124.061 291.794 49.7922 308.224 54.4099Z" fill="#2B2E3A"/>
<path d="M310.735 59.7582C310.735 59.7582 296.125 152.047 291.819 157.996C287.514 163.966 265.149 170.388 252.96 170.088C240.771 169.808 219.992 148.761 217.143 143.284C215.601 140.341 215.237 117.21 216.222 93.9502C217.079 73.9977 206.497 52.0049 209.474 44.4878C209.474 44.4878 271.062 27.4133 310.735 59.7582Z" fill="#FAC2A8"/>
<path d="M223.099 101.618C223.099 101.618 223.249 106.644 224.341 111.82C227.019 124.492 248.784 115.535 273.611 125.888C280.145 128.615 282.094 131.128 289.035 133.813C298.375 137.442 300.667 117.769 301.61 114.268C297.668 136.369 297.882 153.443 291.691 161.11C287.15 166.738 264.529 174.341 248.141 170.389C234.517 167.103 216.33 152.584 213.524 147.215C212.174 144.616 212.452 126.124 213.095 105.742L212.495 92.4258L223.099 101.618Z" fill="#2B2E3A"/>
<g opacity="0.2">
<g opacity="0.2">
<path opacity="0.2" d="M253.208 109.394C252.844 111.22 249.523 112.1 245.796 111.349C242.069 110.597 239.369 108.514 239.734 106.688C240.119 104.862 243.418 103.982 247.146 104.734C250.873 105.485 253.572 107.569 253.208 109.394Z" fill="#F0808E"/>
<path opacity="0.2" d="M294.529 115.474C294.55 117.106 291.873 118.416 288.574 118.438C285.275 118.459 282.576 117.149 282.576 115.517C282.554 113.906 285.232 112.574 288.531 112.553C291.83 112.553 294.507 113.841 294.529 115.474Z" fill="#F0808E"/>
</g>
</g>
<path d="M301.928 86.6486C299.743 83.6418 297.066 81.3007 291.346 80.549C288.39 80.5275 285.262 80.3128 288.197 77.5207C293.167 73.3326 304.477 79.9477 305.034 88.0231C305.677 91.5669 303.149 88.8822 301.928 86.6486Z" fill="#2B2E3A"/>
<path d="M245.161 77.4341C247.945 74.9642 251.052 73.246 256.793 73.7615C259.685 74.3843 262.791 74.8354 260.52 71.4849C256.578 66.3303 244.111 70.3466 241.819 78.1214C240.448 81.4289 243.49 79.3671 245.161 77.4341Z" fill="#2B2E3A"/>
<path opacity="0.6" d="M283.952 93.7165C274.998 92.9218 267.629 86.8223 267.629 86.8223C268.464 104.648 259.81 119.897 259.81 119.897C267.115 128.488 279.196 124.773 279.196 124.773C271.656 105.808 283.952 93.7165 283.952 93.7165Z" fill="url(#paint1_linear)"/>
<path d="M223.101 101.619C223.101 101.619 222.18 87.9591 230.963 76.8338C237.39 68.6939 232.591 54.2826 229.185 48.9562C229.185 48.9562 211.941 43.5009 210.891 44.1238C204.529 47.9253 196.196 61.0909 205.321 99.8576L223.101 101.619Z" fill="#2B2E3A"/>
<path d="M215.95 106.707C215.95 106.707 213.786 95.5384 204.039 98.9963C194.292 102.454 193.907 130.89 215.971 125.671C215.993 125.693 221.584 121.397 215.95 106.707Z" fill="#FAC2A8"/>
<path d="M203.256 106.128C204.413 105.483 205.698 105.032 207.005 105.075C208.311 105.075 209.489 105.72 210.261 106.686C211.053 107.653 211.567 108.834 211.91 110.058C212.274 111.282 212.467 112.528 212.638 113.795L213.088 113.387C211.824 113.237 210.518 113.387 209.404 114.053C208.29 114.697 207.626 115.921 207.519 117.124C207.412 117.726 207.519 118.348 207.733 118.928C207.969 119.508 208.376 120.002 208.847 120.367C209.811 121.119 210.989 121.527 212.167 121.699C211.032 121.377 209.918 120.883 209.104 120.11C208.697 119.723 208.354 119.272 208.183 118.778C208.033 118.262 207.969 117.726 208.097 117.21C208.29 116.158 208.847 115.17 209.768 114.654C210.689 114.117 211.889 114.01 212.96 114.139L213.474 114.203L213.431 113.731C213.281 112.421 213.024 111.132 212.638 109.865C212.231 108.619 211.696 107.33 210.775 106.3C209.854 105.269 208.418 104.581 207.026 104.689C205.591 104.775 204.327 105.355 203.256 106.128Z" fill="#DC918B"/>
<path d="M284.979 105.873C284.829 107.591 286.115 109.116 287.828 109.266C289.563 109.416 291.063 108.128 291.213 106.409C291.363 104.691 290.099 103.166 288.364 103.016C286.65 102.866 285.129 104.133 284.979 105.873Z" fill="#2B2E3A"/>
<path d="M285.928 104.948C285.885 105.549 286.314 106.086 286.914 106.129C287.513 106.172 288.049 105.743 288.092 105.141C288.135 104.539 287.706 104.002 287.106 103.959C286.506 103.895 285.992 104.346 285.928 104.948Z" fill="white"/>
<path d="M246.963 98.9776C246.899 100.846 248.334 102.414 250.198 102.478C252.062 102.543 253.625 101.104 253.69 99.2353C253.775 97.3668 252.319 95.7989 250.455 95.7345C248.613 95.67 247.049 97.1305 246.963 98.9776Z" fill="#2B2E3A"/>
<path d="M247.988 97.7762C247.967 98.4208 248.46 98.9795 249.102 99.001C249.745 99.0224 250.302 98.5282 250.323 97.8621C250.345 97.2175 249.852 96.6589 249.21 96.6374C248.567 96.6159 248.031 97.1316 247.988 97.7762Z" fill="white"/>
<path d="M279.223 124.772C279.223 124.772 264.313 138.668 259.836 119.896C259.836 119.896 269.048 124.879 279.223 124.772Z" fill="#DC918B"/>
<path d="M252.076 182.44C256.382 185.791 261.63 192.126 261.63 192.126C261.63 192.126 260.238 184.588 259.338 180.271C258.267 177.715 253.083 172.561 253.083 172.561C253.083 172.561 252.012 180.636 252.076 182.44Z" fill="#BD1A3B"/>
<path d="M311.605 186.776C311.605 186.776 300.337 215.899 296.245 223.137C294.082 226.96 288.534 230.826 286.327 231.664C285.406 232.007 280.093 228.378 279.986 223.846C279.965 222.901 280.029 221.827 280.243 220.603C280.715 217.617 299.373 187.291 299.373 187.291C300.915 179.71 313.319 178.915 311.605 186.776Z" fill="#FAC2A8"/>
<path d="M211.719 183.641C215.596 180.054 224.165 178.68 224.165 178.68C225.236 177.928 236.29 188.71 229.37 197.644C225.643 202.434 215.596 218.842 208.998 226.703C204.114 220.131 197.131 213.623 192.868 207.696C200.258 198.74 205.678 189.204 211.719 183.641Z" fill="#EF3F54"/>
<path d="M261.159 206.471C260.945 206.471 260.773 206.535 260.581 206.793L258.353 209.821L257.496 206.857C257.41 206.557 257.217 206.449 257.025 206.449C256.746 206.449 256.618 206.557 256.468 206.814L254.497 210.766H255.589L256.917 208.039L257.753 210.766H258.674L260.688 208.06L260.666 210.766H261.609V206.965C261.63 206.621 261.395 206.471 261.159 206.471Z" fill="white"/>
<path d="M253.215 207.158L252.336 210.788H253.322L254.2 207.158H253.215Z" fill="white"/>
<path d="M251.502 208.191C251.566 207.719 251.288 207.16 250.281 207.16H248.332L247.453 210.768H248.439L248.76 209.415H249.274L250.152 210.768H251.245L250.26 209.329C251.159 209.115 251.459 208.685 251.502 208.191ZM249.638 208.814H248.931L249.188 207.719H249.938C250.345 207.719 250.538 207.912 250.495 208.256C250.474 208.599 250.131 208.814 249.638 208.814Z" fill="white"/>
<path d="M265.771 210.789H266.714L265.814 207.46C265.685 207.073 265.45 206.987 265.214 207.009C265.064 207.03 264.893 207.095 264.743 207.31L262.365 210.81H263.35L263.843 210.08H265.621L265.771 210.789ZM264.229 209.436L265.107 208.104L265.45 209.436H264.229Z" fill="white"/>
<path d="M269.751 210.122C268.937 210.101 268.487 209.65 268.552 209.07C268.637 208.296 269.344 207.803 270.351 207.824C270.651 207.824 271.015 207.845 271.379 207.931L271.551 207.201C271.272 207.137 270.779 207.072 270.48 207.072C268.766 207.072 267.673 207.867 267.545 209.048C267.416 210.101 268.166 210.852 269.751 210.852C270.073 210.852 270.351 210.831 270.737 210.766L270.929 209.972C270.544 210.079 270.244 210.122 269.751 210.122Z" fill="white"/>
<path d="M315.716 47.5812C309.119 39.4198 296.865 23.1614 279.664 21.3358C271.095 20.5626 264.99 20.6271 257.685 23.4836C258.606 22.1949 264.711 19.1022 264.54 18.0498C264.347 16.7611 216.855 23.0111 212.121 43.7582C209.315 46.1637 207.644 48.0752 207.451 49.0417C206.509 53.5949 231.936 78.0791 231.508 66.5028C230.737 56.6661 230.072 55.4204 234.1 53.2727C241.362 49.3853 252.887 50.4162 278.079 61.2623C289.903 66.3524 328.505 72.452 329.726 57.3319C329.748 57.3534 322.314 55.7426 315.716 47.5812Z" fill="#2B2E3A"/>
<path d="M253.391 179.195L248.592 190.643L234.068 179.131L230.662 182.761L249.599 198.117L254.697 184.693L253.391 179.195Z" fill="#BD1A3B"/>
<path d="M229.311 172.15C229.311 172.15 235.074 179.968 242.293 185.66C241.329 187.786 232.567 193.434 232.567 193.434L222.756 177.67L229.311 172.15Z" fill="#BD1A3B"/>
<path d="M224.962 208.254C223.741 209.242 222.627 210.337 221.556 211.454C220.506 212.592 219.457 213.709 218.514 214.933C216.65 217.36 214.829 219.809 213.051 222.365L213.009 222.429C212.366 223.181 211.68 223.911 210.781 224.491C211.081 223.481 211.595 222.601 212.152 221.785L212.109 221.849C212.794 220.41 213.501 218.993 214.38 217.661C215.236 216.329 216.265 215.084 217.357 213.924C218.471 212.786 219.606 211.669 220.892 210.724C222.156 209.736 223.505 208.855 224.962 208.254Z" fill="#BD1A3B"/>
<path d="M207.159 255.61C207.159 255.61 213.028 255.438 215.663 253.291C218.319 251.143 220.804 250.434 223.054 253.291C225.303 256.147 226.374 256.512 226.717 258.746C227.06 261.066 228.923 264.223 226.738 263.686C224.575 263.149 223.846 259.025 223.846 259.025L221.254 256.426C221.254 256.426 223.225 261.087 222.411 263.149C221.597 265.211 216.156 267.53 214.549 266.993C212.943 266.456 212.857 264.309 212.857 264.309C212.857 264.309 207.052 268.239 200.539 263.235L181.496 228.377L197.498 230.009L207.159 255.61Z" fill="#FAC2A8"/>
<path d="M216.635 259.391C217.299 260.658 217.963 261.946 218.327 263.385C218.413 263.751 218.499 264.137 218.327 264.588C218.156 264.953 217.92 265.254 217.685 265.533C217.192 266.092 216.657 266.564 216.057 266.972C216.528 266.435 216.978 265.877 217.342 265.297C217.513 264.996 217.685 264.696 217.77 264.395C217.835 264.159 217.813 263.815 217.77 263.471C217.62 262.097 217.128 260.722 216.635 259.391Z" fill="#F7AB8D"/>
<path d="M219.757 258.297C220.421 259.564 221.085 260.853 221.45 262.292C221.535 262.657 221.621 263.043 221.45 263.494C221.278 263.86 221.043 264.16 220.807 264.439C220.314 264.998 219.779 265.47 219.179 265.878C219.65 265.341 220.1 264.783 220.464 264.203C220.636 263.902 220.807 263.602 220.893 263.301C220.957 263.065 220.935 262.721 220.893 262.378C220.743 261.003 220.25 259.628 219.757 258.297Z" fill="#F7AB8D"/>
<path d="M212.983 261.43C213.219 261.795 213.498 262.139 213.819 262.418C214.119 262.697 214.526 262.934 214.783 262.891L214.804 263.492C214.119 263.449 213.219 263.578 212.876 264.33C212.941 263.922 213.241 263.578 213.583 263.342C213.947 263.106 214.333 262.977 214.783 262.891L214.804 263.492C214.183 263.406 213.862 262.977 213.605 262.633C213.326 262.225 213.133 261.838 212.983 261.43Z" fill="#F7AB8D"/>
<path d="M274.008 198.955C274.565 200.91 274.929 202.928 275.293 204.926C275.593 206.945 275.893 208.942 276.064 210.982C276.214 213.001 276.407 215.042 276.429 217.082C276.471 219.122 276.429 221.163 276.236 223.182L275.743 217.125L275.143 211.09L274.501 205.055C274.351 203.014 274.136 200.995 274.008 198.955Z" fill="#BD1A3B"/>
<path d="M281.83 137.4C281.83 137.4 262.208 144.359 240.722 125.566C240.722 125.566 244.214 151.039 259.338 154.196C275.297 155.85 269.898 144.918 281.83 137.4Z" fill="#2B2E3A"/>
<path d="M246.935 143.973C258.717 145.498 264.286 149.986 266.921 153.723C265.1 154.346 262.701 154.561 259.338 154.217C253.747 153.058 249.762 148.827 246.935 143.973Z" fill="#E78680"/>
<path d="M281.827 137.402C278.207 139.679 276.579 141.848 275.701 143.158C268.374 144.017 255.586 142.02 242.69 134.052C240.548 128.103 240.719 125.59 240.719 125.59C262.205 144.383 281.827 137.402 281.827 137.402Z" fill="white"/>
<path d="M281.831 137.4C280.074 138.002 278.232 138.324 276.39 138.538C274.547 138.753 272.684 138.818 270.82 138.753C269.899 138.71 268.956 138.667 268.035 138.56C267.114 138.453 266.193 138.345 265.272 138.173C264.351 138.023 263.429 137.83 262.53 137.615C261.63 137.4 260.73 137.142 259.831 136.885C258.952 136.584 258.053 136.326 257.174 135.983C256.296 135.661 255.439 135.295 254.582 134.93C253.725 134.544 252.89 134.157 252.054 133.728C251.219 133.298 250.405 132.868 249.591 132.374C248.777 131.902 247.984 131.408 247.213 130.893C246.421 130.399 245.671 129.84 244.9 129.303C244.128 128.766 243.422 128.165 242.672 127.606L240.508 125.824L241.065 125.523C241.279 126.984 241.601 128.466 241.943 129.926C242.286 131.387 242.693 132.825 243.143 134.243C244.043 137.099 245.135 139.892 246.528 142.533C247.92 145.175 249.612 147.666 251.755 149.707C253.875 151.769 256.51 153.293 259.402 153.916H259.381C260.002 153.959 260.623 154.045 261.244 154.067C261.866 154.11 262.487 154.11 263.108 154.088C263.729 154.067 264.351 154.024 264.95 153.938C265.25 153.895 265.55 153.852 265.85 153.766C266.15 153.702 266.45 153.616 266.728 153.53C267.307 153.358 267.864 153.1 268.399 152.799C268.913 152.477 269.427 152.134 269.877 151.704C270.777 150.866 271.484 149.836 272.148 148.762C273.433 146.614 274.59 144.337 276.175 142.361C276.561 141.867 276.989 141.395 277.418 140.922C277.846 140.471 278.317 140.02 278.789 139.612C279.281 139.204 279.753 138.796 280.267 138.453C280.76 138.066 281.317 137.744 281.831 137.4ZM281.831 137.4C281.317 137.765 280.781 138.109 280.288 138.496C279.774 138.861 279.324 139.29 278.853 139.698C278.403 140.128 277.953 140.557 277.525 141.03C277.118 141.502 276.711 141.975 276.325 142.469C275.576 143.478 274.911 144.531 274.29 145.626C273.669 146.721 273.112 147.838 272.469 148.934C271.827 150.029 271.12 151.103 270.177 151.983C269.727 152.434 269.192 152.821 268.635 153.165C268.078 153.487 267.478 153.766 266.878 153.959C266.578 154.067 266.257 154.153 265.957 154.217C265.636 154.303 265.336 154.367 265.015 154.41C264.393 154.518 263.751 154.561 263.108 154.604C262.465 154.625 261.844 154.625 261.202 154.604C260.559 154.604 259.938 154.518 259.295 154.475H259.274C256.253 153.873 253.511 152.263 251.305 150.158C249.077 148.053 247.342 145.497 245.906 142.834C244.471 140.149 243.357 137.314 242.436 134.436C241.986 132.997 241.579 131.537 241.236 130.055C240.894 128.573 240.594 127.112 240.358 125.588L240.23 124.707L240.915 125.287L243.036 127.07C243.764 127.628 244.493 128.208 245.242 128.766C245.992 129.303 246.742 129.862 247.513 130.356C248.284 130.871 249.055 131.365 249.869 131.816C250.662 132.31 251.476 132.718 252.29 133.169C253.104 133.599 253.94 134.007 254.775 134.393C255.61 134.78 256.467 135.145 257.324 135.467C258.181 135.811 259.059 136.112 259.938 136.412C260.816 136.691 261.694 136.949 262.594 137.164C263.494 137.4 264.393 137.593 265.293 137.765C266.193 137.937 267.114 138.066 268.035 138.195C268.956 138.302 269.877 138.388 270.798 138.453C272.641 138.56 274.504 138.517 276.347 138.367C278.21 138.216 280.053 137.937 281.831 137.4Z" fill="#57617F"/>
<path d="M245.155 125.437C245.155 125.437 244.577 125.222 243.699 125.051C243.485 125.008 243.249 124.965 242.992 124.943C242.735 124.9 242.478 124.922 242.221 124.9C241.964 124.922 241.685 124.922 241.407 124.986C241.278 125.008 241.128 125.029 241 125.072L240.614 125.222C240.336 125.287 240.121 125.459 239.864 125.587C239.629 125.759 239.414 125.91 239.2 126.06C239.007 126.253 238.815 126.425 238.622 126.597C238.451 126.79 238.301 126.962 238.151 127.134C238.001 127.306 237.872 127.456 237.765 127.606C237.658 127.757 237.572 127.886 237.487 127.993C237.315 128.208 237.229 128.337 237.229 128.337C237.229 128.337 237.272 128.186 237.358 127.928C237.465 127.671 237.529 127.284 237.786 126.898C237.894 126.704 238.022 126.468 238.172 126.232C238.343 126.017 238.536 125.802 238.729 125.566C238.965 125.373 239.2 125.158 239.457 124.965C239.736 124.814 240.014 124.621 240.336 124.514L240.807 124.363C240.957 124.32 241.128 124.299 241.278 124.277C241.599 124.213 241.921 124.256 242.221 124.234C242.521 124.277 242.821 124.299 243.078 124.385C243.356 124.449 243.592 124.535 243.806 124.621C244.706 125.008 245.155 125.437 245.155 125.437Z" fill="#2B2E3A"/>
<path d="M301.417 186.755C300.603 185.144 299.66 183.254 299.981 181.429C300.303 179.603 303.087 174.491 304.116 173.74C305.144 172.988 306.536 172.516 307.05 171.227C307.565 169.938 308.079 167.297 309.664 168.048C312.856 169.573 311.313 173.332 309.385 175.823C309.3 176.811 309.257 177.735 309.15 178.701C310.071 178.744 310.478 178.959 311.528 178.916C312.577 178.873 314.484 178.465 315.576 178.357C316.669 178.25 321.532 178.164 322.817 177.928C324.102 177.692 324.895 177.885 326.052 177.112C327.208 176.339 330.936 173.01 334.62 175.243C335.477 175.759 335.092 176.317 335.177 176.897C335.991 177.434 337.469 177.885 337.662 179.045C337.855 180.204 335.756 181.042 335.006 181.558C335.199 182.116 336.163 182.417 335.863 183.233C335.563 184.049 331.321 185.917 330.486 186.798C329.65 187.657 326.094 192.532 324.638 192.833C323.181 193.134 317.504 193.864 316.026 194.272C314.548 194.659 313.241 195.389 311.206 195.539C309.171 195.711 306.344 195.153 304.587 193.413C302.83 191.673 301.845 189.225 301.417 186.755Z" fill="#FAC2A8"/>
<path d="M309.088 178.873C309.345 179.968 309.495 181.107 309.323 182.266C309.238 182.846 309.024 183.426 308.659 183.877C308.317 184.35 307.803 184.693 307.288 184.908C308.167 184.156 308.745 183.254 309.002 182.202C309.238 181.128 309.088 180.011 309.088 178.873Z" fill="#DC918B"/>
<path d="M330.3 186.97C330.15 186.455 330.043 186.068 329.743 185.832C329.443 185.595 329.015 185.467 328.565 185.424C327.665 185.381 326.723 185.66 325.951 186.089C325.18 186.583 324.473 187.271 323.895 188.001C323.317 188.731 322.824 189.547 322.652 190.514C322.502 189.526 322.974 188.538 323.531 187.743C324.131 186.949 324.837 186.261 325.673 185.703C326.53 185.123 327.558 184.93 328.565 184.93C329.079 184.951 329.636 185.059 330.064 185.467C330.536 185.853 330.578 186.54 330.3 186.97Z" fill="#DC918B"/>
<path d="M323.376 188.516C321.598 188.559 319.798 188.602 318.02 188.666" stroke="#DC918B" stroke-width="0.2277" stroke-miterlimit="10"/>
<path d="M334.989 181.576C333.64 180.868 332.119 180.889 330.641 180.953C329.205 181.061 327.835 181.855 326.849 182.908C326.592 183.187 326.421 183.445 326.185 183.788C326.078 183.96 325.842 184.175 325.585 184.239C325.371 184.304 325.2 184.325 325.007 184.368L322.779 184.862L318.302 185.786L318.216 185.313L322.65 184.261L324.878 183.767L325.414 183.638C325.542 183.595 325.607 183.552 325.714 183.402C325.907 183.123 326.164 182.758 326.421 182.478C327.513 181.34 328.991 180.502 330.598 180.374C332.097 180.288 333.897 180.352 334.989 181.576Z" fill="#DC918B"/>
<path d="M334.699 177.049C333.927 176.984 333.113 177.006 332.406 177.242C331.721 177.543 330.971 177.886 330.243 178.166C329.514 178.445 328.808 178.745 328.143 179.132C327.501 179.519 326.858 179.97 326.494 180.571L326.43 180.657L326.365 180.678C323.795 181.623 321.096 182.074 318.418 182.397L318.354 181.946C321.031 181.623 323.688 181.172 326.194 180.249L326.066 180.356C326.494 179.583 327.179 179.068 327.886 178.681C328.593 178.294 329.343 177.994 330.071 177.715C330.821 177.435 331.55 177.242 332.321 176.963C333.113 176.748 333.949 176.813 334.699 177.049Z" fill="#DC918B"/>
<path d="M318.194 180.418C318.408 182.179 318.515 183.919 318.493 185.701C318.429 187.463 318.194 189.288 317.422 190.877C317.808 189.159 318.001 187.441 318.001 185.68C318.086 183.94 318.001 182.179 318.194 180.418Z" fill="#DC918B"/>
</g>
<defs>
<linearGradient id="paint0_linear" x1="122.12" y1="99.8047" x2="116.696" y2="120.614" gradientUnits="userSpaceOnUse">
<stop stop-color="#CC7A5B"/>
<stop offset="1" stop-color="#A1554A"/>
</linearGradient>
<linearGradient id="paint1_linear" x1="266.95" y1="124.649" x2="278.695" y2="90.6282" gradientUnits="userSpaceOnUse">
<stop stop-color="#DC918B"/>
<stop offset="0.1085" stop-color="#E29A91"/>
<stop offset="0.4229" stop-color="#EFB09E"/>
<stop offset="0.7253" stop-color="#F7BEA5"/>
<stop offset="1" stop-color="#FAC2A8"/>
</linearGradient>
</defs>
</svg>
