<svg width="363" height="385" viewBox="0 0 363 385" fill="none" xmlns="http://www.w3.org/2000/svg">
<mask id="mask0" mask-type="alpha" maskUnits="userSpaceOnUse" x="0" y="0" width="363" height="385">
<rect width="362.769" height="385" transform="matrix(-1 0 0 1 362.769 0)" fill="#C4C4C4"/>
</mask>
<g mask="url(#mask0)">
<path opacity="0.15" d="M50.0701 340.115C39.813 339.122 1.75481 335.905 3.30687 325.308C4.11664 319.611 21.6725 318.511 36.4508 318.378C49.947 318.246 268.297 311.017 342.458 316.978C377.886 319.826 340.097 333.433 326.398 336.413C288.879 344.56 270.812 346.925 206.03 343.812C161.493 341.626 63.5663 341.44 50.0701 340.115Z" fill="#001177"/>
<path d="M221.956 225.585C213.588 248.634 209.135 251.548 202.117 254.794C199.822 255.854 197.393 256.847 195.099 257.973C196.448 248.303 197.191 238.5 199.282 229.559C203.196 212.868 202.656 209.357 205.896 204.456C209.809 198.429 233.428 200.482 244.899 202.072C245.574 202.138 246.249 202.204 246.991 202.27C236.667 207.172 225.87 214.722 221.956 225.585Z" fill="#F7F7FA"/>
<path d="M188.688 281.816C192.197 274.464 193.884 266.318 195.098 257.972C197.393 256.846 199.822 255.919 202.116 254.793C209.134 251.548 213.588 248.633 221.956 225.584C225.937 214.721 236.666 207.171 246.991 202.27C259.07 202.998 283.566 207.767 286.602 213.198C297.197 232.273 265.346 293.672 245.709 303.806C226.072 314.006 181.062 297.779 188.688 281.816Z" fill="#E1E4F4"/>
<path d="M344.567 281.22C348.481 271.947 361.303 245.984 340.114 236.181C315.955 224.987 302.527 205.184 291.595 205.912C284.712 206.376 284.037 208.297 281.203 213.86C278.301 222.802 276.817 234.724 285.454 242.275C300.637 255.455 283.497 282.412 295.441 303.74C304.619 320.166 320.882 328.975 334.378 330.101C336.2 329.173 337.954 327.981 339.709 326.458C351.653 315.529 340.653 290.493 344.567 281.22Z" fill="#E1E4F4"/>
<path d="M299.019 305.066C287.075 283.738 297.197 264.663 292.271 236.712C290.314 225.519 290.449 217.968 281.204 213.994C279.719 216.975 278.572 220.551 277.56 225.055C274.726 237.971 257.518 291.686 260.217 305.662C262.917 319.637 272.431 327.784 291.933 330.102C309.613 332.222 323.514 335.6 334.379 330.168C320.95 329.042 308.264 321.492 299.019 305.066Z" fill="#E1E4F4"/>
<path d="M77.4125 323.875C87.0623 327.253 136.998 332.155 145.838 310.894C155.96 286.586 158.322 290.957 156.972 280.294C156.095 273.604 154.138 273.008 148.335 270.557C139.09 268.173 117.564 268.703 99.1413 278.505C81.2589 287.977 75.523 270.756 41.985 280.095C13.7105 287.977 5.14047 323.942 25.1823 323.942C34.8995 323.875 67.7627 320.498 77.4125 323.875Z" fill="#E1E4F4"/>
<path d="M85.9817 238.765C85.9817 238.765 80.1783 250.091 73.0253 260.291C67.6269 267.908 60.4739 269.829 60.4739 269.829C60.4739 269.829 51.364 284.996 53.6583 287.248C55.9527 289.5 62.4308 293.143 56.6949 294.534C53.2534 295.395 49.3395 294.666 46.7753 294.004C45.2232 293.607 44.1435 292.083 44.2785 290.494C44.8858 283.539 50.4867 262.808 52.0388 260.026C54.873 254.86 51.5664 245.123 57.1673 233.466C66.5472 213.993 85.9817 238.765 85.9817 238.765Z" fill="#BFB59B"/>
<path d="M59.1923 231.942C46.1685 213.662 42.9294 197.302 50.2173 185.843C55.8857 176.968 63.3086 174.319 69.8543 171.934C75.0503 170.08 79.5715 168.424 82.6756 163.854C83.8228 162.065 86.1846 161.602 87.9391 162.728C89.7611 163.854 90.2335 166.172 89.0863 167.894C84.6326 174.584 78.4243 176.769 72.5535 178.955C66.6152 181.074 61.0143 183.061 56.763 189.751C51.2296 198.56 54.3337 211.939 65.468 227.637C66.6827 229.293 66.2103 231.611 64.5233 232.869C63.0387 233.797 61.1492 233.73 59.8671 232.671C59.6647 232.406 59.3947 232.207 59.1923 231.942Z" fill="#D8CEB8"/>
<path d="M132.747 226.843C132.747 229.492 138.347 243.732 138.955 250.886C139.09 252.74 138.955 260.754 139.495 264C140.035 267.245 143.678 266.649 147.255 266.649C150.831 266.649 150.089 267.047 146.648 261.814C143.206 256.582 148.132 246.514 147.12 239.891C145.973 232.539 146.85 220.418 146.85 220.418C146.85 220.418 132.747 220.418 132.747 226.843Z" fill="#BFB59B"/>
<path d="M130.857 196.903C111.625 228.497 93.7427 215.449 66.4804 224.39C55.8185 228.364 69.3821 242.34 82.271 254.461C91.4483 263.137 108.588 253.401 125.054 250.751C146.648 247.307 144.218 229.623 147.525 217.171C149.819 208.825 142.599 203.527 142.599 203.527C142.599 203.527 138.483 189.286 130.857 196.903Z" fill="#D8CEB8"/>
<path d="M117.765 195.115C118.845 210.018 133.286 212.204 133.286 212.204C133.286 212.204 139.022 216.045 145.905 212.535C152.855 208.958 153.665 203.991 153.665 203.991C157.039 199.553 157.646 190.214 154.677 184.717C151.708 179.219 147.862 177.1 147.862 177.1C138.954 174.252 116.82 180.279 117.765 195.115Z" fill="#BFB59B"/>
<path d="M155.015 201.872C157.174 197.037 157.377 189.486 154.745 184.784C151.776 179.286 147.929 177.167 147.929 177.167C143.88 175.842 137.132 176.372 130.992 178.756C130.317 180.743 129.777 183.856 132.679 185.91C137.132 189.023 142.666 194.056 145.433 198.759C147.592 202.203 150.696 203.462 155.015 201.872Z" fill="#BFB59B"/>
<path d="M133.354 212.204C133.354 212.204 139.089 216.045 145.973 212.535C152.923 208.958 153.733 203.991 153.733 203.991C154.205 203.328 154.678 202.6 155.015 201.805C150.696 203.395 147.525 202.136 145.5 198.626C142.733 193.923 137.133 188.956 132.746 185.776C129.98 183.723 130.384 180.61 131.059 178.623C123.704 181.471 117.428 186.902 117.968 195.049C118.845 210.018 133.354 212.204 133.354 212.204Z" fill="#D8CEB8"/>
<path d="M126.065 209.355C127.213 210.018 128.427 210.548 129.642 210.945C130.857 211.342 132.139 211.607 133.353 211.74H133.421L133.556 211.806C134.636 212.336 135.783 212.8 136.997 213.065C138.212 213.396 139.427 213.528 140.641 213.462C141.856 213.462 143.071 213.197 144.285 212.866C145.5 212.535 146.715 212.204 147.727 211.409C147.322 211.939 146.782 212.27 146.242 212.601C145.702 212.932 145.095 213.197 144.488 213.462C143.273 213.926 141.991 214.323 140.641 214.389C139.292 214.522 137.942 214.323 136.66 214.058C135.378 213.727 134.163 213.263 132.948 212.601L133.151 212.667C132.476 212.601 131.801 212.468 131.126 212.27C130.452 212.071 129.844 211.806 129.237 211.541C128.157 211.011 127.01 210.217 126.065 209.355Z" fill="#BFB59B"/>
<path d="M140.507 177.895C140.507 177.895 140.304 176.504 141.654 172.53C142.936 168.556 152.856 164.648 152.856 164.648C155.42 172.795 153.328 182.465 153.328 182.465L140.507 177.895Z" fill="#BFB59B"/>
<path d="M125.997 182.863C125.997 182.863 125.255 181.604 121.746 179.286C118.237 176.968 107.913 179.882 107.913 179.882C111.084 187.83 118.844 194.189 118.844 194.189L125.997 182.863Z" fill="#D8CEB8"/>
<path d="M147.322 170.213C146.58 170.941 145.973 171.802 145.635 172.796C145.23 173.789 145.028 174.849 145.095 175.843C145.23 176.836 145.5 177.896 146.108 178.757C146.377 178.227 146.377 177.763 146.58 177.3C146.782 176.836 146.782 176.372 146.985 175.975C147.187 175.114 147.525 174.319 147.795 173.524C148.064 172.73 148.469 171.935 148.874 171.14C149.279 170.345 149.684 169.55 150.224 168.623C149.077 168.888 148.199 169.484 147.322 170.213Z" fill="#816446"/>
<path d="M115.875 182.4C116.685 182.797 117.428 183.195 118.17 183.658C118.912 184.122 119.587 184.586 120.329 185.116C120.734 185.381 121.072 185.645 121.476 185.91C121.881 186.175 122.219 186.44 122.691 186.771C122.624 185.778 122.286 184.784 121.611 183.923C121.004 183.062 120.127 182.334 119.25 181.804C118.305 181.208 117.293 180.877 116.213 180.81C115.201 180.678 114.121 180.81 113.176 181.274C114.188 181.671 115.066 182.003 115.875 182.4Z" fill="#BFB59B"/>
<path d="M147.119 204.323C146.647 204.522 146.174 204.787 145.634 204.787C145.162 204.853 144.555 204.853 144.15 204.654C143.88 204.522 143.543 204.588 143.408 204.853C143.273 205.052 143.003 205.317 142.868 205.515C142.598 205.78 142.395 205.979 142.125 206.111C141.586 206.443 140.978 206.774 140.371 206.84C139.764 206.906 139.089 206.906 138.481 206.708C138.212 206.575 137.874 206.509 137.604 206.31C137.334 206.111 137.064 205.913 136.997 205.582C136.929 205.979 137.064 206.31 137.402 206.575C137.604 206.84 137.942 207.039 138.279 207.237C138.954 207.569 139.764 207.767 140.506 207.701C141.316 207.569 141.99 207.304 142.733 206.973C143.34 206.575 144.015 206.045 144.42 205.317L143.745 205.582C144.487 205.78 145.162 205.847 145.769 205.714C146.444 205.582 147.052 205.317 147.591 204.919C148.131 204.588 148.536 204.058 148.739 203.462C148.941 202.866 149.143 202.204 149.076 201.674C148.739 202.866 148.064 203.86 147.119 204.323Z" fill="#82786C"/>
<path d="M143.967 202.289L142.122 202.93L143.045 205.49L144.89 204.849L143.967 202.289Z" fill="#82786C"/>
<path d="M159.873 188.36C158.658 189.221 157.511 190.281 156.499 191.274C155.352 192.268 154.272 193.394 153.395 194.52C152.383 195.712 151.505 196.904 150.831 198.229C151.91 197.103 152.922 196.043 153.935 194.983C155.014 193.924 156.094 192.864 157.106 191.871C159.333 189.817 161.493 187.83 163.584 185.645C162.302 186.506 161.088 187.433 159.873 188.36Z" fill="#31374C"/>
<path d="M162.641 195.249C161.358 195.712 160.076 196.176 158.862 196.772C157.647 197.368 156.365 197.964 155.218 198.693C154.071 199.422 152.856 200.15 151.911 201.144C153.126 200.481 154.34 199.951 155.555 199.355L159.199 197.633C161.628 196.507 164.058 195.381 166.487 194.057C165.272 194.454 163.855 194.918 162.641 195.249Z" fill="#31374C"/>
<path d="M126.2 204.985C127.482 204.853 128.832 204.72 130.114 204.588C131.396 204.456 132.745 204.389 134.028 204.588C132.813 204.058 131.463 203.859 130.114 203.859C128.764 203.793 127.414 203.926 126.132 204.058C124.85 204.191 123.501 204.389 122.218 204.72C120.936 204.985 119.654 205.383 118.372 205.78C121.139 205.581 123.703 205.184 126.2 204.985Z" fill="#31374C"/>
<path d="M128.629 210.481C129.641 210.15 130.788 209.819 131.8 209.422C132.812 209.024 133.892 208.627 134.972 208.362C134.365 208.229 133.825 208.428 133.285 208.428C132.678 208.494 132.138 208.627 131.598 208.759C130.518 209.024 129.438 209.289 128.359 209.62C127.347 209.952 126.199 210.283 125.187 210.746C124.175 211.21 123.095 211.607 122.083 212.204C124.377 211.806 126.537 211.144 128.629 210.481Z" fill="#31374C"/>
<path d="M145.5 199.421L144.015 202.401C143.678 203.13 142.8 203.395 142.058 203.064L138.954 201.673C138.482 201.408 138.482 200.812 138.887 200.547C140.709 199.421 142.733 198.759 144.892 198.56C145.5 198.427 145.837 199.023 145.5 199.421Z" fill="#BD7A66"/>
<path d="M145.702 195.116C145.635 194.321 146.31 193.592 147.12 193.592C147.929 193.526 148.672 194.189 148.672 194.983C148.672 195.778 148.064 196.507 147.254 196.507C146.445 196.573 145.77 195.911 145.702 195.116Z" fill="#31374C"/>
<path d="M131.936 199.421C131.869 198.626 132.544 197.897 133.353 197.897C134.163 197.831 134.905 198.493 134.905 199.288C134.973 200.083 134.298 200.811 133.488 200.811C132.746 200.878 132.004 200.282 131.936 199.421Z" fill="#31374C"/>
<path d="M94.6191 234.856C94.6191 234.856 101.502 249.825 94.6191 260.29C87.7361 270.689 74.2399 281.882 74.2399 281.882C74.2399 281.882 70.5285 294.798 72.8228 297.05C75.1172 299.302 81.5953 302.945 75.8594 304.335C72.2155 305.197 68.0992 304.402 65.6024 303.739C64.1853 303.342 63.173 302.084 63.1056 300.693C62.8356 295.659 62.2958 283.869 63.2405 280.889C69.5162 260.621 51.094 252.011 59.2592 232.008C67.3569 211.939 94.6191 234.856 94.6191 234.856Z" fill="#D8CEB8"/>
<path d="M144.218 208.76C143.408 208.76 142.463 207.899 141.923 207.303L144.353 205.25L146.242 205.78C146.107 206.707 145.635 208.164 144.623 208.628C144.488 208.76 144.353 208.76 144.218 208.76Z" fill="#DC918B"/>
<path d="M144.487 205.913L145.634 206.244C145.432 207.039 145.027 207.9 144.42 208.231C144.352 208.231 144.285 208.297 144.217 208.297C143.812 208.297 143.205 207.9 142.733 207.436L144.487 205.913ZM144.217 204.654L141.181 207.237C141.181 207.237 142.733 209.357 144.217 209.357C144.42 209.357 144.69 209.291 144.892 209.224C146.647 208.43 146.917 205.515 146.917 205.515L144.217 204.654Z" fill="#82786C"/>
<path d="M208.729 279.367C198.742 276.717 188.957 271.816 178.767 269.763C165.946 267.113 152.18 266.517 139.629 270.822C128.224 274.73 148.199 311.755 172.019 319.902C181.467 323.147 205.827 287.513 205.827 287.513L258.53 298.508C258.53 298.508 263.321 288.176 214.937 280.691C212.845 280.426 210.821 279.963 208.729 279.367Z" fill="#31374C"/>
<path d="M190.172 294.268L155.419 302.613C155.419 302.613 156.431 271.484 162.707 268.172C181.737 268.172 208.796 275.458 208.796 275.458L212.103 270.026L254.481 277.18L230.255 306.919L190.172 294.268Z" fill="#31374C"/>
<path d="M257.113 324.008C239.028 332.949 207.312 319.239 207.312 319.239C207.312 319.239 168.983 287.447 179.645 276.717C179.645 276.717 208.729 279.366 222.698 282.016L227.016 271.484L259.205 282.413L270.676 291.818C270.744 291.752 266.898 319.173 257.113 324.008Z" fill="#57617F"/>
<path d="M157.916 311.489C157.916 311.489 140.776 306.853 140.708 306.853C137.199 306.588 131.059 309.237 129.372 309.568C124.85 310.363 114.863 309.105 110.747 311.158C104.269 314.271 112.501 321.292 115.201 323.014C122.219 327.451 139.291 327.451 147.187 325.464C153.53 323.875 158.658 319.106 157.983 312.35C157.983 312.151 157.916 311.953 157.916 311.82" fill="#31374C"/>
<path d="M139.763 308.045C139.763 308.045 137.199 308.509 137.806 313.079C138.413 317.649 142.26 316.39 142.26 316.39L145.836 310.893L139.763 308.045Z" fill="#F9C1A7"/>
<path d="M173.032 302.549C173.032 302.549 185.651 302.681 195.234 306.854C204.816 311.027 202.994 313.345 202.994 313.345L169.928 312.086L173.032 302.549Z" fill="#31374C"/>
<path d="M171.951 311.357C171.951 311.357 185.042 301.488 200.698 312.946L171.951 311.357Z" fill="#F9C1A7"/>
<path d="M147.457 288.375C144.353 300.363 139.157 307.848 139.157 307.848C143.543 326.857 169.861 312.087 172.965 306.854L163.855 289.965L147.457 288.375Z" fill="#57617F"/>
<path d="M197.325 310.628C201.643 310.893 208.189 314.271 208.796 323.478L172.357 335.532C172.357 335.532 131.531 340.5 129.304 321.69C127.077 302.813 175.933 310.695 175.933 310.695C175.933 310.695 191.994 310.297 197.325 310.628Z" fill="#31374C"/>
<path d="M197.325 316.258C200.429 316.258 205.625 316.854 207.312 319.238C212.44 326.524 203.195 333.545 196.852 334.472C189.294 335.598 179.914 334.406 172.357 335.532C172.357 335.532 131.531 340.499 129.304 321.689C127.077 302.812 175.933 316.324 175.933 316.324C175.933 316.324 197.257 316.258 197.325 316.258Z" fill="#2B2E3A"/>
<path d="M248.678 297.911C246.586 295.526 243.887 293.871 241.053 292.546C237.341 290.758 233.562 289.234 229.716 287.91C221.686 285.062 213.385 283.472 205.085 281.617C195.57 279.498 188.485 277.908 178.835 276.65C176.001 276.252 173.167 275.921 170.333 275.656C159.536 274.53 150.156 278.041 147.457 288.439L173.032 306.852C178.16 308.773 201.509 316.655 211.563 320.894C211.496 320.828 255.021 305.13 248.678 297.911Z" fill="#57617F"/>
<path d="M256.371 192.534L251.243 191.342L231.606 197.833L232.146 201.343L229.582 205.052L238.489 210.55L254.01 197.833L255.967 195.117L256.371 192.534Z" fill="#F9C1A7"/>
<path d="M239.636 197.833C243.347 196.442 248.745 194.322 251.242 191.342L247.261 163.523L228.029 174.849L231.605 197.766C231.605 197.833 235.789 199.29 239.636 197.833Z" fill="#DC918B"/>
<path d="M222.091 240.024C218.11 249.297 213.791 257.576 208.392 263.14L196.043 248.767L211.699 225.982L222.091 240.024Z" fill="#F7AB8D"/>
<path d="M229.58 197.9C229.58 197.9 218.581 204.324 216.286 206.775C210.888 223.797 217.771 236.116 216.286 259.563C215.949 265.259 210.416 278.506 210.416 278.506C210.416 278.506 244.696 282.679 267.909 307.45C270.136 293.078 280.056 281.288 281.54 231.811C282.418 203.264 263.793 194.522 263.793 194.522L253.738 190.812L235.383 208.166L229.58 197.9Z" fill="#EF3F54"/>
<path d="M249.472 225.818C249.297 225.818 249.181 225.875 249.006 226.103L247.202 228.609L246.446 226.217C246.388 225.989 246.213 225.875 246.039 225.875C245.806 225.875 245.689 225.989 245.573 226.16L244.002 229.406H244.933L245.98 227.185L246.679 229.406H247.435L249.065 227.185V229.406H249.821L249.763 226.331C249.879 225.989 249.646 225.875 249.472 225.818Z" fill="white"/>
<path d="M242.897 226.502L242.199 229.463H243.013L243.712 226.502H242.897Z" fill="white"/>
<path d="M241.442 227.357C241.501 226.958 241.268 226.503 240.395 226.56H238.766L238.067 229.521H238.882L239.115 228.439H239.522L240.279 229.521H241.151L240.337 228.382C241.21 228.154 241.442 227.756 241.442 227.357ZM239.929 227.926H239.348L239.58 227.015H240.22C240.57 227.015 240.744 227.186 240.686 227.414C240.628 227.699 240.337 227.869 239.929 227.926Z" fill="white"/>
<path d="M253.313 229.293H254.128L253.313 226.616C253.197 226.331 253.022 226.217 252.79 226.274C252.673 226.274 252.557 226.331 252.382 226.502L250.462 229.349H251.277L251.684 228.723H253.139L253.313 229.293ZM252.033 228.21L252.731 227.128L253.022 228.21H252.033Z" fill="white"/>
<path d="M257.095 226.843C257.328 226.843 257.677 226.843 257.968 226.9L258.084 226.331C257.852 226.274 257.444 226.217 257.212 226.274C255.815 226.274 254.884 226.957 254.826 227.925C254.768 228.78 255.349 229.349 256.688 229.349C257.328 229.349 257.793 229.121 257.793 229.121L257.677 228.609C257.386 228.723 257.095 228.723 256.688 228.723C256.048 228.723 255.64 228.381 255.699 227.868C255.699 227.242 256.28 226.843 257.095 226.843Z" fill="white"/>
<path d="M216.286 206.707C216.286 206.707 209.066 213.662 207.312 232.604C211.428 233.201 217.569 241.612 220.335 246.911L230.525 233.399L216.286 206.707Z" fill="#EF3F54"/>
<path d="M182.345 214.855C186.866 227.903 188.823 251.151 191.657 256.45C193.682 260.291 199.147 264.199 201.374 265.06C202.319 265.457 207.718 262.013 207.92 257.576C207.987 256.648 207.38 252.741 207.583 251.548C208.932 245.19 200.902 227.969 196.583 216.047C195.234 208.563 180.86 207.105 182.345 214.855Z" fill="#F7AB8D"/>
<path d="M231.2 202.402C227.488 206.045 223.439 212.072 223.439 212.072C223.439 212.072 223.912 204.853 224.249 200.746C224.991 198.229 230.795 192.533 230.795 192.533L231.605 197.832L231.875 199.488L231.2 202.402Z" fill="#BD1A3B"/>
<path d="M231.875 199.488L234.912 205.118L247.329 196.508L250.973 199.488L233.63 212.536L228.569 202.866L231.875 199.488Z" fill="#BD1A3B"/>
<path d="M252.188 186.904C252.188 186.904 249.084 194.852 242.875 201.012C244.023 202.867 253.065 207.106 253.065 207.106L260.488 190.746L252.188 186.904Z" fill="#BD1A3B"/>
<path d="M279.179 234.658C279.179 234.658 277.964 253.932 271.014 266.913C271.014 266.913 255.831 254.66 258.732 252.408L260.217 233.532C260.217 233.532 273.106 225.451 279.179 234.658Z" fill="#F9C1A7"/>
<path d="M263.794 194.455C263.794 194.455 258.598 199.091 257.721 202.138C255.831 208.695 256.506 210.351 258.193 216.842C258.665 218.63 259.34 233.93 257.721 234.659C264.941 233.666 274.726 232.473 281.609 235.255C281.406 223.002 282.824 216.312 279.247 205.914C276.345 197.634 263.794 194.455 263.794 194.455Z" fill="#EF3F54"/>
<path d="M195.841 210.35C196.111 208.496 193.411 206.906 192.399 205.317C191.454 203.661 192.669 200.614 190.645 200.084C188.823 199.554 185.246 197.766 184.302 196.706C183.357 195.646 181.67 192.467 180.388 193.726C177.756 196.309 181.467 200.945 184.234 202.667C184.639 203.594 185.044 204.456 185.449 205.383C184.571 205.714 184.234 206.111 183.154 206.376C182.075 206.707 180.118 206.972 178.97 207.237C177.823 207.502 173.032 209.092 171.683 209.291C170.333 209.489 169.658 209.953 168.241 209.622C166.824 209.291 162.033 207.37 159.199 210.748C158.524 211.543 159.131 211.94 159.266 212.536C158.659 213.331 157.377 214.258 157.579 215.45C157.782 216.643 160.143 216.709 161.088 216.974C161.088 217.57 159.671 218.828 160.278 219.491C160.886 220.153 167.094 222.802 168.983 223.2C169.591 223.332 171.683 222.339 171.683 222.339C173.302 223.067 174.989 223.663 175.664 223.796C177.621 223.995 182.614 222.736 184.167 222.604C185.786 222.471 187.271 222.736 189.363 222.14C191.387 221.61 194.019 220.087 195.098 217.835C196.178 215.583 196.246 212.867 195.841 210.35Z" fill="#FAC2A8"/>
<path d="M185.515 205.383C186.055 206.443 186.392 207.569 187 208.43C187.27 208.893 187.675 209.224 188.012 209.556C188.417 209.887 188.822 210.218 189.362 210.549C188.754 210.682 188.079 210.549 187.54 210.218C187 209.887 186.527 209.357 186.257 208.827C185.65 207.767 185.515 206.575 185.515 205.383Z" fill="#DC918B"/>
<path d="M180.319 218.034C179.847 218.166 179.442 218.299 178.97 218.497C178.497 218.63 178.092 218.828 177.62 218.961L174.921 219.822L174.786 219.888L174.651 219.822C173.908 219.425 173.301 218.895 172.626 218.563C172.289 218.365 171.884 218.299 171.547 218.166C171.142 218.1 170.804 218.034 170.399 218.034C169.657 218.034 168.847 218.232 168.24 218.63C167.97 218.828 167.7 219.093 167.633 219.358C167.565 219.689 167.633 220.021 167.768 220.286L167.633 220.153L169.657 221.08C170.332 221.412 171.007 221.743 171.547 222.206C170.804 222.074 170.13 221.809 169.455 221.478L167.43 220.617L167.363 220.55L167.295 220.484C167.093 220.087 166.958 219.623 167.093 219.16C167.228 218.696 167.565 218.299 167.97 218.1C168.712 217.636 169.59 217.504 170.467 217.438C171.344 217.438 172.154 217.636 172.964 217.967C173.773 218.299 174.381 218.828 175.056 219.226H174.853C175.73 218.961 176.675 218.696 177.552 218.431C178.025 218.299 178.497 218.166 178.97 218.1C179.374 218.1 179.847 218.034 180.319 218.034Z" fill="#DC918B"/>
<path d="M160.683 217.702C161.02 217.105 161.695 216.774 162.37 216.642C163.044 216.509 163.719 216.576 164.394 216.708C165.676 216.907 166.958 217.437 168.038 218.165H167.701C168.106 217.967 168.51 217.768 168.915 217.702C169.118 217.635 169.32 217.635 169.59 217.569C169.793 217.569 169.995 217.503 170.265 217.569L170.062 217.635C170.737 217.172 171.48 216.841 172.154 216.576C172.897 216.311 173.639 216.046 174.381 215.847C175.124 215.648 175.866 215.45 176.608 215.251C177.35 215.052 178.093 214.92 178.902 214.854L178.97 215.317C177.485 215.582 176.001 215.979 174.584 216.443C173.841 216.642 173.167 216.907 172.424 217.172C171.749 217.437 171.007 217.768 170.467 218.165L170.332 218.231H170.197C170.062 218.231 169.793 218.231 169.658 218.231C169.455 218.231 169.253 218.298 169.118 218.298C168.713 218.364 168.375 218.496 168.106 218.695L167.903 218.828L167.701 218.695C166.756 217.967 165.541 217.503 164.327 217.304C163.719 217.172 163.112 217.172 162.505 217.172C161.83 217.172 161.222 217.304 160.683 217.702Z" fill="#DC918B"/>
<path d="M159.737 212.471C160.412 212.007 161.222 211.742 162.032 211.61C162.841 211.543 163.651 211.477 164.528 211.61C166.148 211.742 167.768 212.073 169.32 212.669H169.252C172.019 212.669 174.786 212.206 177.552 211.61L177.687 212.073C174.92 212.669 172.154 213.199 169.32 213.133H169.252H169.185C168.442 212.868 167.633 212.669 166.89 212.537C166.081 212.338 165.338 212.206 164.528 212.14C163.719 212.073 162.909 212.007 162.167 212.007C161.289 211.941 160.48 212.14 159.737 212.471Z" fill="#DC918B"/>
<path d="M176.271 210.152C176.743 210.55 177.215 211.08 177.62 211.543C178.025 212.073 178.362 212.537 178.7 213.133C179.307 214.259 179.78 215.517 179.847 216.776C179.442 216.246 179.172 215.716 178.835 215.186L177.89 213.596C177.553 213.067 177.283 212.537 177.013 211.941C176.675 211.345 176.405 210.815 176.271 210.152Z" fill="#DC918B"/>
<path d="M204.478 236.514C204.478 236.514 207.042 242.872 207.379 247.84L204.478 236.514Z" fill="#FAC2A8"/>
<path d="M204.478 236.514C205.085 237.375 205.49 238.236 205.895 239.163C206.3 240.09 206.569 241.018 206.839 241.945C207.109 242.872 207.312 243.866 207.379 244.859C207.514 245.853 207.514 246.846 207.379 247.84C207.042 246.912 206.839 245.919 206.569 244.992C206.3 244.064 206.03 243.137 205.76 242.21C205.287 240.355 204.747 238.501 204.478 236.514Z" fill="#DC918B"/>
<path d="M253.808 221.346C255.157 221.544 256.507 222.008 257.654 222.869C258.194 223.333 258.801 223.863 259.004 224.657C259.206 225.452 259.139 226.115 259.139 226.777C259.071 228.102 258.869 229.426 258.666 230.751C258.464 232.076 258.194 233.4 257.856 234.659L257.519 234.328C258.396 234.261 259.206 234.261 260.083 234.261C259.274 234.526 258.396 234.659 257.587 234.857L257.249 234.924V234.526C257.452 231.877 257.721 229.228 257.991 226.578C257.991 225.916 258.126 225.254 257.991 224.79C257.856 224.26 257.519 223.796 257.047 223.333C256.237 222.604 255.09 221.942 253.808 221.346Z" fill="#BD1A3B"/>
<path d="M216.623 220.021C216.623 221.677 216.623 223.333 216.556 224.989L216.421 229.957L216.219 234.924C216.151 236.58 216.084 238.236 215.949 239.892C215.611 238.236 215.476 236.58 215.341 234.924C215.206 233.268 215.206 231.612 215.274 229.89C215.341 228.234 215.476 226.579 215.679 224.923C215.881 223.267 216.151 221.611 216.623 220.021Z" fill="#BD1A3B"/>
<path d="M276.682 249.826C276.007 255.655 273.645 267.179 271.823 268.902C266.762 273.869 243.144 272.147 226.004 271.286C226.004 271.286 225.194 264.398 223.439 261.55C223.439 261.55 230.997 261.682 244.493 257.84C247.8 256.913 253.873 253.469 260.149 252.74L276.682 249.826Z" fill="#F9C1A7"/>
<path d="M226.409 270.957C223.305 276.123 212.711 270.957 212.508 271.155C212.508 271.155 208.527 272.679 207.38 272.877C206.637 274.202 205.49 275.527 204.006 277.249C202.116 279.435 200.024 278.176 200.901 276.719C201.306 275.99 202.049 274.467 202.049 274.467C202.049 274.467 198.742 277.514 196.988 275.726C195.773 274.533 197.932 273.209 198.472 269.831C197.257 270.758 196.38 272.215 194.288 272.215C192.736 272.215 191.522 270.625 192.196 269.963C194.086 268.175 196.448 264.4 196.448 264.4C196.448 264.4 194.491 265.79 192.061 265.658C190.779 265.592 189.767 263.936 190.847 263.141C192.196 262.148 193.883 261.816 194.896 260.094C195.908 258.438 196.515 257.842 197.19 257.776C197.865 257.71 202.049 256.518 203.128 256.12C204.208 255.723 206.3 254.994 207.11 255.723C207.919 256.451 210.079 257.71 213.993 258.703C214.735 258.902 230.526 261.022 230.526 261.022L230.593 270.294L226.409 270.957Z" fill="#F9C1A7"/>
<path d="M197.123 257.709C198.54 257.113 199.89 256.583 201.307 256.119C201.982 255.854 202.724 255.656 203.399 255.391C204.141 255.126 204.816 254.927 205.693 254.794C206.098 254.794 206.57 254.728 207.11 254.993C207.245 255.059 207.38 255.192 207.448 255.258C207.515 255.324 207.583 255.391 207.65 255.391C207.785 255.523 207.92 255.589 208.055 255.722C208.595 256.119 209.27 256.45 209.877 256.781C211.159 257.444 212.509 258.04 213.926 258.636C212.441 258.504 210.957 258.172 209.54 257.643C208.797 257.378 208.122 257.046 207.448 256.649C207.245 256.517 207.11 256.45 206.975 256.318C206.908 256.252 206.84 256.185 206.705 256.119C206.638 256.119 206.638 256.053 206.57 256.053C206.435 255.987 206.098 255.987 205.828 255.987C205.153 256.053 204.478 256.252 203.804 256.45C203.061 256.649 202.319 256.848 201.644 256.98C200.092 257.378 198.608 257.643 197.123 257.709Z" fill="#DC918B"/>
<path d="M201.981 274.465C202.184 274.002 202.184 273.472 202.251 272.942C202.251 272.412 202.386 271.882 202.521 271.352C202.859 270.293 203.601 269.365 204.546 268.703C205.49 268.041 206.503 267.643 207.582 267.378C208.122 267.246 208.595 267.18 209.134 267.047C209.607 266.915 210.147 266.849 210.552 266.451C210.349 266.981 209.809 267.312 209.404 267.577C208.932 267.842 208.46 268.041 207.987 268.239C207.043 268.637 206.165 269.101 205.355 269.63C204.546 270.16 203.938 270.889 203.466 271.684C203.264 272.081 202.994 272.545 202.859 273.008C202.589 273.538 202.386 274.068 201.981 274.465Z" fill="#DC918B"/>
<path d="M198.338 269.83C198.743 268.836 199.283 267.975 199.822 267.114C200.092 266.717 200.43 266.253 200.767 265.856C201.105 265.392 201.577 265.061 201.982 264.73C202.859 264.134 203.804 263.67 204.749 263.273C205.221 263.074 205.693 262.942 206.233 262.743L206.975 262.544C207.245 262.478 207.448 262.412 207.65 262.279C207.583 262.544 207.313 262.743 207.178 262.942C206.975 263.14 206.773 263.273 206.571 263.405C206.166 263.736 205.693 264.001 205.288 264.266C204.411 264.796 203.466 265.26 202.657 265.723C202.252 265.988 201.779 266.187 201.442 266.452C201.105 266.783 200.767 267.181 200.43 267.512C199.688 268.24 199.013 269.035 198.338 269.83Z" fill="#DC918B"/>
<path d="M196.38 264.397C196.582 264.066 196.785 263.735 196.987 263.404C197.055 263.338 197.055 263.271 197.122 263.205C197.122 263.139 197.19 263.006 197.19 262.94C197.257 262.742 197.392 262.543 197.527 262.41C197.999 261.748 198.674 261.218 199.349 260.821C200.024 260.423 200.766 260.092 201.508 259.894C202.251 259.695 202.993 259.496 203.87 259.496C203.263 260.026 202.588 260.423 201.981 260.821C201.306 261.218 200.699 261.549 200.024 261.881C199.349 262.212 198.742 262.543 198.134 262.94C197.999 263.006 197.864 263.139 197.73 263.271C197.662 263.338 197.595 263.404 197.527 263.47C197.46 263.536 197.392 263.603 197.325 263.669C196.987 263.868 196.65 264.132 196.38 264.397Z" fill="#DC918B"/>
<path d="M195.84 274.862L117.494 268.702L117.359 218.232C117.359 216.046 119.249 214.391 121.408 214.523L192.263 220.153C194.22 220.285 195.705 221.875 195.705 223.796L195.84 274.862Z" fill="#2A2D39"/>
<path d="M193.614 274.729L115.268 268.57L115.133 218.099C115.133 215.914 117.023 214.258 119.182 214.39L190.037 220.02C191.994 220.153 193.479 221.742 193.479 223.663L193.614 274.729Z" fill="#474E64"/>
<path d="M153.597 250.95C156.206 250.95 158.321 248.875 158.321 246.314C158.321 243.754 156.206 241.678 153.597 241.678C150.988 241.678 148.874 243.754 148.874 246.314C148.874 248.875 150.988 250.95 153.597 250.95Z" fill="#57617F"/>
<path d="M232.887 277.842L150.223 271.285L150.021 273.868C149.886 275.259 150.965 276.518 152.45 276.65L229.918 282.744C231.335 282.876 232.617 281.816 232.752 280.359L232.887 277.842Z" fill="#2A2D39"/>
<path d="M193.613 274.73L115.335 268.57L115.133 271.153C114.998 272.544 116.078 273.803 117.562 273.935L190.577 279.698C191.994 279.83 193.276 278.77 193.411 277.313L193.613 274.73Z" fill="#474E64"/>
<path d="M222.765 282.016C225.261 282.016 227.758 282.347 230.255 282.81C232.752 283.274 235.181 284.003 237.543 284.864C239.905 285.791 242.199 286.851 244.291 288.308C246.383 289.765 248.34 291.553 249.352 293.871C247.598 292.149 245.506 290.891 243.346 289.765C241.187 288.705 238.96 287.778 236.733 286.917C234.439 286.056 232.144 285.261 229.85 284.466C227.421 283.671 225.126 282.877 222.765 282.016Z" fill="#31374C"/>
<path d="M192.803 124.114C192.129 124.247 191.521 123.783 191.386 123.121C191.251 122.458 191.724 121.862 192.399 121.73C193.073 121.597 193.681 122.061 193.816 122.723C193.951 123.386 193.478 123.982 192.803 124.114Z" fill="white"/>
<path d="M187.473 142.527C187.473 142.527 181.198 129.479 173.437 136.764C165.677 144.05 179.78 165.311 192.332 159.681C192.332 159.681 193.547 154.25 187.473 142.527Z" fill="#F7AB8D"/>
<path d="M250.365 70.3323C256.91 85.9634 262.511 160.145 260.014 165.51C257.45 170.875 236.194 191.606 224.654 192.136C213.115 192.6 191.859 184.784 187.203 179.419C182.276 173.723 180.32 144.051 169.793 116.563C164.664 103.118 166.553 84.8375 166.553 84.8375C203.263 52.7803 250.365 70.3323 250.365 70.3323Z" fill="#FAC2A8"/>
<path d="M189.907 130.687C191.376 130.058 192.023 128.325 191.352 126.816C190.681 125.307 188.946 124.594 187.477 125.224C186.009 125.853 185.362 127.586 186.033 129.095C186.704 130.604 188.438 131.316 189.907 130.687Z" fill="#31374C"/>
<path d="M188.065 130.048C188.505 129.848 188.696 129.337 188.492 128.905C188.288 128.473 187.767 128.286 187.327 128.486C186.888 128.686 186.696 129.197 186.9 129.629C187.104 130.06 187.625 130.248 188.065 130.048Z" fill="white"/>
<path d="M225.906 123.39C227.443 122.732 228.133 120.948 227.447 119.405C226.761 117.863 224.959 117.147 223.422 117.806C221.885 118.464 221.195 120.248 221.881 121.79C222.567 123.333 224.369 124.049 225.906 123.39Z" fill="#31374C"/>
<path d="M223.952 122.71C224.425 122.495 224.644 121.97 224.44 121.539C224.237 121.107 223.688 120.932 223.214 121.147C222.741 121.363 222.522 121.887 222.726 122.318C222.929 122.75 223.478 122.925 223.952 122.71Z" fill="white"/>
<g opacity="0.3">
<path opacity="0.5" d="M224.723 130.076C225.331 131.798 228.57 132.195 231.944 131.003C235.318 129.811 237.612 127.493 237.005 125.771C236.397 124.049 233.158 123.651 229.784 124.843C226.343 126.036 224.116 128.354 224.723 130.076Z" fill="#EF3F54"/>
<path opacity="0.5" d="M180.457 138.752C180.457 140.342 183.021 141.534 186.192 141.534C189.297 141.468 191.861 140.209 191.793 138.62C191.793 137.03 189.229 135.838 186.057 135.838C182.953 135.904 180.457 137.229 180.457 138.752Z" fill="#EF3F54"/>
</g>
<path d="M179.106 115.769C180.928 113.12 183.155 111 188.013 110.272C190.578 110.205 193.209 109.94 190.645 107.556C186.259 103.979 176.744 109.94 176.474 117.027C176.002 120.14 178.094 117.756 179.106 115.769Z" fill="#2B2E3A"/>
<path d="M230.526 105.634C227.49 103.779 224.25 102.653 218.987 104.177C216.423 105.236 213.588 106.23 215.073 102.653C217.772 97.0897 230.121 98.7456 233.765 105.7C235.722 108.614 232.483 107.157 230.526 105.634Z" fill="#2B2E3A"/>
<path opacity="0.56" d="M192.602 116.564C192.602 116.564 205.76 129.149 198.472 149.416C198.472 149.416 211.159 153.125 218.447 143.853C218.447 143.853 208.999 127.824 209.337 108.947C209.337 108.947 201.846 115.504 192.602 116.564Z" fill="url(#paint0_linear)"/>
<path d="M198.472 149.349C198.472 149.349 214.397 163.788 218.446 143.785C218.446 143.785 208.999 149.283 198.472 149.349Z" fill="#DC918B"/>
<path d="M246.924 102.455C246.924 102.455 242.538 97.2885 244.157 84.5054C245.777 71.7222 243.482 70.0002 243.482 70.0002C243.482 70.0002 241.863 65.695 243.752 59.1378C245.642 52.5144 245.574 50.991 250.163 52.4482C260.353 55.6936 269.732 64.0391 273.444 81.6573C275.131 89.6054 265.819 125.239 265.616 129.346L258.801 127.028C258.801 127.028 255.292 133.916 255.157 140.672C255.157 140.672 251.918 121.596 252.187 109.343C252.39 97.0898 250.028 100.534 246.924 102.455Z" fill="#2B2E3A"/>
<path d="M257.653 128.485C257.653 128.485 259.408 117.622 268.72 120.802C278.033 123.981 279.18 151.468 258.126 146.832C258.193 146.832 252.727 142.791 257.653 128.485Z" fill="#FAC2A8"/>
<path d="M257.652 128.485C257.652 128.485 259.407 117.622 268.719 120.802C278.032 123.981 278.842 154.78 257.787 150.143C257.787 150.143 252.726 142.791 257.652 128.485Z" fill="#FAC2A8"/>
<path d="M269.934 132.658C269.799 130.804 269.462 128.949 268.517 127.426C268.045 126.697 267.37 126.101 266.628 125.968C265.818 125.836 265.076 126.101 264.536 126.697C263.389 127.956 262.849 129.744 262.376 131.466C261.904 133.188 261.634 135.043 261.432 136.831L260.757 136.301C261.769 136.036 262.714 135.97 263.794 136.235C264.266 136.367 264.806 136.698 265.143 137.162C265.278 137.427 265.413 137.626 265.481 137.891L265.548 138.288V138.685C265.548 139.679 265.413 140.54 265.143 141.467C264.873 142.328 264.603 143.256 264.063 143.984C264.468 143.123 264.671 142.262 264.806 141.401C264.941 140.54 264.941 139.613 264.873 138.752C264.873 138.354 264.671 137.957 264.468 137.626C264.266 137.361 263.929 137.162 263.524 137.03C262.781 136.831 261.837 136.963 261.027 137.162L260.352 137.361L260.42 136.632C260.554 134.778 260.824 132.923 261.229 131.068C261.432 130.141 261.769 129.28 262.107 128.353C262.511 127.492 262.984 126.565 263.726 125.836C264.131 125.505 264.603 125.174 265.143 124.975C265.683 124.843 266.223 124.843 266.763 124.909C267.303 125.041 267.775 125.306 268.18 125.637C268.585 125.968 268.855 126.432 269.057 126.83C269.529 127.691 269.732 128.618 269.799 129.545C270.002 130.737 270.002 131.731 269.934 132.658Z" fill="#DC918B"/>
<path d="M246.519 73.5786C246.519 73.5786 229.177 84.4409 207.515 85.0371C207.515 85.0371 212.914 78.8111 212.914 74.6383C212.914 74.6383 204.681 82.6526 194.491 85.8319C184.234 89.0111 170.063 91.528 170.063 99.2111C170.063 99.2111 166.149 95.5682 168.444 83.4474C170.671 71.3266 197.123 24.8967 250.635 55.4968C250.635 55.4968 257.519 77.5526 246.519 73.5786Z" fill="#2B2E3A"/>
<path d="M166.419 88.0164C166.419 88.0164 162.168 84.1086 161.763 96.7592C161.358 109.41 173.033 139.348 177.621 141.6C175.732 131.068 169.591 94.6398 171.818 89.4735C174.045 84.3735 166.419 88.0164 166.419 88.0164Z" fill="#2B2E3A"/>
<path d="M148.672 81.9231C157.984 84.9699 163.585 69.2062 163.585 69.2062L156.5 73.5114C156.5 73.5114 153.733 67.6166 172.29 52.8464C190.915 38.0763 221.079 43.5737 228.772 45.2958C236.464 47.0179 237.409 38.8711 237.409 38.8711C246.924 42.9114 252.93 58.1451 252.93 58.1451C226.477 55.1646 193.479 72.9153 172.897 88.5465C152.248 104.244 142.329 78.6114 142.329 78.6114C144.825 80.2673 148.672 81.9231 148.672 81.9231Z" fill="#2B2E3A"/>
<path d="M204.883 161.272L199.754 162.596C199.754 162.596 205.963 172.068 218.919 168.955C229.918 166.372 233.765 155.774 233.765 155.774L233.427 154.648L204.883 161.272Z" fill="#31374C"/>
<path d="M234.305 154.582L232.55 157.96C223.71 163.789 206.368 166.107 202.522 165.378C201.239 165.113 200.902 163.259 199.822 162.663C224.925 155.443 234.305 154.582 234.305 154.582Z" fill="white"/>
<path d="M237.206 152.131C237.071 152.329 236.801 152.594 236.666 152.793L236.059 153.522C235.654 153.985 235.182 154.449 234.777 154.913C234.709 154.979 234.574 155.045 234.507 155.045C231.605 155.509 228.704 156.105 225.802 156.701C222.9 157.297 220.066 157.959 217.164 158.622C214.33 159.35 211.428 160.013 208.594 160.807L200.024 163.059C199.889 163.059 199.822 163.059 199.687 163.059L196.178 161.867L196.515 160.874L200.024 162.066H199.687C202.521 161.205 205.355 160.344 208.189 159.549C211.024 158.754 213.925 158.026 216.827 157.363C219.729 156.701 222.63 156.039 225.532 155.509C228.434 154.913 231.403 154.449 234.304 154.052L233.967 154.184C234.372 153.72 234.844 153.323 235.182 152.793L235.789 152.065C235.991 151.8 236.194 151.601 236.464 151.336L237.206 152.131Z" fill="#DC918B"/>
<path d="M199.687 158.622C198.337 159.417 197.325 160.344 196.785 161.603C196.515 162.199 196.38 162.861 196.245 163.523C196.178 163.855 196.178 164.252 196.178 164.583C196.178 164.914 196.178 165.312 196.11 165.709C195.908 165.378 195.773 165.047 195.638 164.649C195.571 164.252 195.436 163.921 195.436 163.523C195.368 162.729 195.503 161.934 195.773 161.139C196.515 159.616 198.135 158.556 199.687 158.622Z" fill="#DC918B"/>
<path d="M238.624 156.171C238.084 154.847 237.679 153.655 236.937 152.595C236.599 152.065 236.194 151.668 235.722 151.27C235.25 150.939 234.575 150.74 233.9 150.542C234.575 150.277 235.384 150.21 236.127 150.475C236.869 150.74 237.476 151.336 237.881 151.932C238.286 152.595 238.556 153.257 238.624 153.986C238.759 154.714 238.759 155.443 238.624 156.171Z" fill="#DC918B"/>
<path d="M234.845 154.78C233.562 158.29 231.538 161.403 228.906 163.987C227.557 165.311 226.072 166.437 224.52 167.364C222.9 168.292 221.146 169.02 219.391 169.55C217.569 170.08 215.747 170.411 213.858 170.411C211.969 170.411 210.079 170.146 208.257 169.484C204.681 168.292 201.576 165.907 199.35 162.861L200.294 162.264C201.307 163.589 202.656 164.848 204.006 165.841C205.423 166.835 206.975 167.696 208.662 168.226C210.349 168.755 212.036 169.02 213.791 169.02C215.545 168.954 217.3 168.689 218.987 168.226C220.674 167.762 222.293 167.033 223.845 166.172C225.33 165.311 226.747 164.251 228.029 162.993C229.311 161.801 230.391 160.41 231.403 158.953C232.348 157.496 233.225 155.906 233.832 154.316L234.845 154.78Z" fill="#DC918B"/>
<path d="M60.9448 309.039C60.9448 309.039 68.3002 295.859 82.2688 302.813C96.3048 309.768 79.772 310.761 79.772 310.761L60.9448 309.039Z" fill="#E1E4F4"/>
<path d="M38.6094 288.374C38.6094 288.374 45.155 286.453 49.2714 289.765C53.3877 293.077 56.5593 291.355 59.7984 295.991C63.0375 300.628 47.8543 299.237 47.8543 299.237L38.6094 288.374Z" fill="#E1E4F4"/>
<path d="M291.73 233.4C291.73 233.4 281.676 271.551 269.867 281.354C258.058 291.156 252.254 311.556 272.229 323.81C297.264 314.736 291.73 233.4 291.73 233.4Z" fill="#E1E4F4"/>
</g>
<defs>
<linearGradient id="paint0_linear" x1="204.952" y1="128.092" x2="208.147" y2="152.592" gradientUnits="userSpaceOnUse">
<stop stop-color="#FAC2A8"/>
<stop offset="1" stop-color="#DC918B"/>
</linearGradient>
</defs>
</svg>
