<svg width="160" height="272" viewBox="0 0 160 272" fill="none" xmlns="http://www.w3.org/2000/svg">
<mask id="mask0" mask-type="alpha" maskUnits="userSpaceOnUse" x="0" y="0" width="160" height="272">
<rect width="160" height="272" transform="matrix(-1 0 0 1 160 0)" fill="#C4C4C4"/>
</mask>
<g mask="url(#mask0)">
<path d="M110.473 121.207C110.473 121.207 102.515 129.359 96.7895 128.971C90.9669 128.583 85.6295 122.663 83.4945 118.781L96.2072 121.013L110.473 121.207Z" fill="white"/>
<path d="M85.0435 121.886C86.111 122.371 87.2755 122.662 88.44 122.953C89.6045 123.244 90.7691 123.438 91.9336 123.535C89.7016 122.856 87.4696 122.08 85.4317 121.109L85.0435 121.886Z" fill="#BFC6F2"/>
<path d="M110.957 121.207C107.852 122.954 106.978 124.118 106.493 124.215C100.282 124.895 92.1306 123.633 83.7848 119.654C81.8439 116.064 81.5528 114.996 81.5528 114.996C97.8561 121.013 110.957 121.207 110.957 121.207Z" fill="white"/>
<path d="M81.0666 114.414C82.2312 117.519 83.8809 120.528 85.9188 123.148C87.9567 125.768 90.674 128.097 93.9735 128.971C95.6232 129.359 97.37 129.359 99.0197 129.165C100.669 128.971 102.319 128.194 103.678 127.224C105.036 126.253 106.298 125.089 107.56 124.118C108.821 123.148 110.18 122.275 111.732 121.595L113.285 120.819H111.538C109.015 120.916 106.395 120.625 103.872 120.334C101.349 120.043 98.8256 119.557 96.3025 119.072C93.7794 118.49 91.3533 117.811 88.8301 117.131C87.5686 116.743 86.4041 116.452 85.1425 116.064C84.5602 115.87 83.8809 115.676 83.2987 115.482C82.7164 115.287 82.1341 114.996 81.4548 114.899L81.2607 115.384C81.746 115.87 82.4253 115.967 83.0075 116.258C83.5898 116.452 84.2691 116.646 84.8513 116.937C86.1129 117.325 87.2774 117.714 88.539 118.102C91.0621 118.781 93.4882 119.46 96.0114 119.946C98.5345 120.528 101.058 120.916 103.678 121.304C106.298 121.595 108.821 121.789 111.441 121.789L111.247 121.013C109.695 121.789 108.336 122.663 106.977 123.73C105.619 124.798 104.454 125.865 103.096 126.836C101.737 127.709 100.281 128.388 98.7286 128.679C97.1759 128.874 95.5262 128.971 93.9735 128.582C90.8681 127.806 88.2479 125.574 86.21 123.051C84.172 120.528 82.6193 117.617 81.4548 114.511L81.0666 114.414Z" fill="#BD7A66"/>
<mask id="mask1" mask-type="alpha" maskUnits="userSpaceOnUse" x="18" y="21" width="135" height="344">
<rect x="18" y="21" width="135" height="344" fill="#C4C4C4"/>
</mask>
<g mask="url(#mask1)">
<path d="M46.7455 232.557C46.7455 232.557 45.0027 234.132 46.7455 239.523C48.4884 244.914 46.0816 245.743 46.0816 245.743L44.7537 245.411C44.7537 245.411 43.6748 243.255 43.0109 242.84C42.596 242.509 41.4341 242.757 41.683 243.67C42.098 245.079 43.1769 247.153 44.4218 248.397C45.0027 248.977 48.0734 248.894 48.0734 248.894C50.5632 249.972 53.8828 248.397 53.8828 248.397L55.1277 232.806L49.5673 222.107L43.0939 226.586L46.7455 232.557Z" fill="#E09E7D"/>
<path d="M50.1481 247.32C50.1481 247.901 49.8991 248.315 49.5671 248.647C49.2351 248.979 48.7372 249.145 48.1562 249.062C48.4052 248.564 48.6542 248.316 48.9862 247.984C49.3181 247.652 49.6501 247.403 50.1481 247.32Z" fill="#BD7A66"/>
<path d="M109.734 232.557C109.734 232.557 111.477 234.132 109.734 239.523C107.991 244.914 110.398 245.743 110.398 245.743L111.726 245.411C111.726 245.411 112.804 243.255 113.468 242.84C113.883 242.509 115.045 242.757 114.796 243.67C114.381 245.079 113.302 247.153 112.058 248.397C111.477 248.977 108.406 248.894 108.406 248.894C105.916 249.972 102.596 248.397 102.596 248.397L101.352 232.806L106.912 222.107L113.385 226.586L109.734 232.557Z" fill="#E09E7D"/>
<path d="M106.415 247.32C106.913 247.486 107.245 247.652 107.577 247.901C107.909 248.15 108.158 248.481 108.407 248.979C107.826 249.062 107.411 248.896 106.996 248.564C106.664 248.315 106.332 247.901 106.415 247.32Z" fill="#BD7A66"/>
<path d="M101.769 156.426C108.657 158.665 126.418 184.125 129.405 193.33C131.978 201.292 111.894 232.64 111.894 232.64L101.769 224.513L112.309 196.648L99.1133 181.803L101.769 156.426Z" fill="#E1E4F4"/>
<path d="M54.3795 157.34C47.4912 159.579 34.2955 185.702 30.3119 193.332C26.4943 200.713 44.8355 231.315 44.8355 231.315L53.9646 225.261L45.3334 199.303L57.0352 182.717L54.3795 157.34Z" fill="#E1E4F4"/>
<path d="M105.584 230.152C83.4256 231.396 68.2381 230.816 53.5486 230.152C51.9718 235.211 52.8847 248.563 52.8017 252.461C52.3867 266.559 54.2955 282.897 55.2914 298.82C55.7894 306.532 57.6982 341.198 57.6982 341.198C57.6982 341.198 64.7525 343.105 74.7115 341.529C75.3754 325.607 75.2925 296.912 75.0435 293.263C74.7115 288.287 76.7863 259.344 76.7863 259.344L80.355 259.261C80.355 259.261 82.0148 280.409 82.3468 293.844C81.3509 308.191 83.7576 340.866 83.7576 340.866C83.7576 340.866 95.2935 343.105 100.107 340.949C100.107 340.949 101.518 309.684 102.099 295.502C102.68 278.916 105.584 256.193 105.584 230.152Z" fill="#2B2E3A"/>
<path d="M77.4492 251.384C78.2791 251.301 79.1091 251.301 79.939 251.218L79.773 251.384C79.773 250.14 79.773 248.813 79.773 247.569C79.773 246.325 79.856 244.998 79.939 243.754C80.022 242.51 80.105 241.183 80.1879 239.939C80.2709 238.696 80.4369 237.369 80.5199 236.125L80.6029 235.71H80.9349C82.1797 235.71 83.4246 235.793 84.6695 235.876L84.4205 236.125C84.5035 234.964 84.5865 233.72 84.6695 232.559C84.7525 233.72 84.8355 234.964 84.9185 236.125V236.373H84.6695C83.4246 236.456 82.1797 236.456 80.9349 236.539L81.3498 236.208C81.3498 237.452 81.2668 238.778 81.1838 240.022C81.1009 241.266 81.0179 242.593 80.9349 243.837C80.8519 245.081 80.6859 246.408 80.6029 247.652C80.4369 248.896 80.3539 250.14 80.105 251.467V251.633H79.939C79.192 251.55 78.3621 251.467 77.4492 251.384Z" fill="#31374C"/>
<path d="M95.957 239.523C97.1189 241.265 98.3638 242.924 99.6917 244.416C100.356 245.163 101.103 245.909 101.766 246.656C102.513 247.402 103.26 248.065 104.007 248.895C102.098 248.065 100.356 246.656 98.9447 245.08C98.2808 244.251 97.6169 243.421 97.1189 242.509C96.538 241.514 96.123 240.519 95.957 239.523Z" fill="#31374C"/>
<path d="M62.4281 239.523C62.1792 240.436 61.6812 241.348 61.1833 242.177C60.6853 243.007 60.0214 243.753 59.3575 244.499C58.6935 245.163 57.9466 245.826 57.1167 246.407C56.2868 246.987 55.3738 247.402 54.4609 247.651C55.2079 246.987 55.9548 246.407 56.6187 245.743C57.2827 245.08 58.0296 244.499 58.6935 243.753C59.9384 242.426 61.1833 241.016 62.4281 239.523Z" fill="#31374C"/>
<path d="M104.84 167.706C104.591 164.803 101.77 156.344 101.77 156.344C101.77 156.344 97.1221 153.773 92.0596 152.032C88.159 150.705 77.951 149.793 72.8885 150.456C65.6682 151.534 58.7799 155.266 53.6344 157.588C52.9705 177.077 51.8086 231.729 51.8086 234.715C64.0914 235.959 81.1047 237.12 105.836 235.046C106.417 229.324 105.587 212.904 104.508 192.337C104.508 192.42 105.421 174.838 104.84 167.706Z" fill="#E1E4F4"/>
<path d="M78.5311 186.531C78.6141 188.605 78.6141 190.678 78.6971 192.751L78.7801 198.971C78.7801 203.118 78.7801 207.264 78.7801 211.411C78.6971 215.557 78.6971 219.704 78.5311 223.85L78.3651 230.07C78.2821 232.144 78.1992 234.217 78.1162 236.29C78.0332 234.217 78.0332 232.144 77.9502 230.07L77.8672 223.85C77.8672 219.704 77.8672 215.557 77.8672 211.411C77.9502 207.264 77.9502 203.118 78.1162 198.971L78.2821 192.751C78.3651 190.678 78.4481 188.605 78.5311 186.531Z" fill="#BFC6F2"/>
<path d="M88.4061 132.459L88.6551 148.548C89.402 150.206 89.734 151.865 90.4809 153.524C91.5598 156.012 90.066 155.846 87.9912 156.841C85.9164 157.753 80.1069 163.475 78.1981 162.978L67.4922 154.768L69.733 149.709L69.816 133.454L88.4061 132.459Z" fill="#E09E7D"/>
<path d="M69.7314 126.488L88.4046 131.547L88.6536 148.631C79.4415 155.017 69.6484 149.046 69.6484 149.046L69.7314 126.488Z" fill="#BD7A66"/>
<path d="M66.9102 156.592L79.11 182.384L90.8948 157.338L79.6909 165.134L66.9102 156.592Z" fill="#E1E4F4"/>
<path d="M71.4747 155.68L78.695 161.9L85.7493 157.172L88.2391 160.407L78.529 166.875L66.9102 156.592L71.4747 155.68Z" fill="#31374C"/>
<path d="M75.294 158.583C73.3022 160.656 71.8913 162.481 70.9784 163.642C70.5635 164.222 69.6505 164.139 69.3186 163.476C68.1567 160.822 65.9989 155.432 65.418 152.363C68.0737 149.709 69.6506 148.963 69.6506 148.963C69.6506 148.963 70.8124 153.773 75.294 158.583Z" fill="white"/>
<path d="M88.6541 148.549C88.6541 148.549 89.1521 153.525 82.7617 158.832L86.7453 163.891C87.1603 164.472 88.0732 164.389 88.4052 163.725L93.5507 152.447L88.6541 148.549Z" fill="white"/>
<path d="M35.043 105.424C35.043 105.424 39.6075 122.922 53.4671 126.405C67.3268 129.889 46.9938 108.409 46.9938 108.409L35.043 105.424Z" fill="#31374C"/>
<path d="M125.088 111.312C125.088 111.312 119.03 128.313 104.921 130.553C90.8126 132.792 113.054 113.22 113.054 113.22L125.088 111.312Z" fill="#31374C"/>
<path d="M99.4424 40.0728C111.808 44.634 120.937 62.3814 118.199 76.4797C117.618 79.5482 119.443 90.9928 119.111 94.31C117.867 108.325 113.053 125.078 112.555 128.478C111.808 132.956 91.6412 147.884 78.4455 147.054C61.8471 146.059 48.9834 129.224 47.0746 125.161C45.5807 122.092 42.2611 98.3737 41.7631 79.6311C41.4311 66.8597 44.9998 46.4585 55.9547 41.8973C70.3953 35.9262 82.2631 33.77 99.4424 40.0728Z" fill="#E09E7D"/>
<path opacity="0.2" d="M110.73 91.8221C110.979 93.5636 108.904 95.3881 106 95.9686C103.095 96.5492 100.605 95.554 100.356 93.8953C100.107 92.1538 102.182 90.3293 105.087 89.7488C107.908 89.1682 110.481 90.0805 110.73 91.8221Z" fill="#EF3F54"/>
<path opacity="0.2" d="M53.1368 89.2522C52.7218 90.9109 54.7136 92.9841 57.4524 93.7305C60.2741 94.5598 62.8468 93.8135 63.2618 92.1548C63.6768 90.4962 61.685 88.4229 58.9462 87.6765C56.1245 86.8472 53.5518 87.5936 53.1368 89.2522Z" fill="#EF3F54"/>
<path d="M56.7875 70.3442C60.5221 70.0124 65.0037 67.9392 70.8131 70.0954C72.3899 70.593 74.2987 70.0124 73.1369 67.5245C70.8961 63.5438 61.933 64.2902 56.7875 67.4416C54.8787 69.0173 54.7127 70.3442 56.7875 70.3442Z" fill="#31374C"/>
<path opacity="0.56" d="M89.1542 74.6558C89.1542 74.6558 86.1665 87.0955 89.9011 104.014C89.9011 104.014 80.855 110.98 73.4688 103.101C73.4688 103.101 78.6972 92.569 75.5435 74.1582C75.6265 74.1582 81.436 75.1534 89.1542 74.6558Z" fill="url(#paint0_linear)"/>
<path d="M89.9832 104.014C89.9832 104.014 80.6881 112.97 73.5508 103.102C73.5508 103.102 81.435 103.267 89.9832 104.014Z" fill="#BD7A66"/>
<path d="M46.9934 60.9717C46.9934 60.9717 50.977 87.8415 43.2588 91.7393C43.2588 91.7393 42.6779 102.272 36.9514 106.584C37.1174 106.418 32.1379 88.9197 31.557 82.5339C30.976 75.2359 25.7475 61.3035 37.6984 51.6834C41.8479 48.2832 45.5826 54.8348 46.9934 60.9717Z" fill="#31374C"/>
<path d="M45.8334 99.7839C45.8334 99.7839 44.0905 90.7444 37.6172 94.0617C31.1438 97.3789 31.6418 120.6 46.3313 115.292C46.3313 115.375 49.9829 111.56 45.8334 99.7839Z" fill="#E09E7D"/>
<path d="M37.2852 99.9486C37.7001 99.6169 38.1151 99.2851 38.613 99.0363C39.111 98.7876 39.6089 98.6217 40.1899 98.5388C40.4388 98.4558 40.7708 98.4558 41.0198 98.5388C41.1858 98.5388 41.2688 98.5388 41.4347 98.6217C41.6007 98.6217 41.6837 98.7046 41.8497 98.7046C42.0987 98.7876 42.3477 98.9534 42.5966 99.1193C42.8456 99.2851 43.0116 99.451 43.2606 99.6998L43.5095 100.032C43.5925 100.114 43.6755 100.28 43.7585 100.363C43.9245 100.612 44.0905 100.861 44.1735 101.11C44.2565 101.358 44.4225 101.607 44.5054 101.856C44.5884 102.105 44.6714 102.354 44.7544 102.602C44.8374 102.851 44.9204 103.1 45.0034 103.349C45.0864 103.598 45.1694 103.846 45.1694 104.095C45.2524 104.344 45.2524 104.593 45.3354 104.842L45.4184 105.671C45.4184 105.92 45.2524 106.086 45.0864 106.168H45.0034C44.8374 106.168 44.5884 106.168 44.3395 106.168C44.0905 106.168 43.9245 106.168 43.6755 106.251C43.4266 106.251 43.2606 106.334 43.0116 106.417L42.6796 106.5L42.4306 106.666C42.3477 106.666 42.2647 106.749 42.1817 106.832C42.0987 106.915 42.0157 106.915 41.9327 106.998C41.7667 107.081 41.6007 107.247 41.5177 107.412C41.4347 107.495 41.4347 107.578 41.3518 107.661L41.2688 107.827L41.1858 107.993L41.0198 108.242L40.9368 108.573V108.739V108.822V109.154C40.9368 109.237 40.9368 109.403 40.9368 109.486C40.9368 109.569 40.9368 109.652 40.9368 109.817L41.0198 110.149C41.0198 110.232 41.1028 110.315 41.1028 110.481C41.1028 110.564 41.1858 110.647 41.2688 110.73C41.3518 110.813 41.3518 110.896 41.4347 110.978C41.6837 111.31 42.0157 111.642 42.4306 111.891C42.8456 112.14 43.2606 112.305 43.6755 112.471C43.1776 112.471 42.7626 112.305 42.2647 112.14C42.0157 112.057 41.8497 111.891 41.6007 111.808C41.4347 111.642 41.1858 111.476 41.0198 111.31C40.9368 111.227 40.8538 111.144 40.7708 110.978C40.6878 110.896 40.6048 110.813 40.6048 110.647C40.5218 110.564 40.5218 110.398 40.4388 110.315L40.3559 109.983C40.2729 109.9 40.3559 109.735 40.2729 109.569C40.2729 109.403 40.2729 109.32 40.2729 109.154V108.822V108.739C40.2729 108.739 40.2729 108.739 40.2729 108.656V108.573V108.408L40.3559 107.993L40.5218 107.661L40.6048 107.495L40.6878 107.33C40.7708 107.247 40.8538 107.081 40.8538 106.998C41.0198 106.832 41.1858 106.583 41.4347 106.417C41.5177 106.334 41.6007 106.251 41.7667 106.168C41.8497 106.086 42.0157 106.003 42.0987 106.003L42.4306 105.837L42.7626 105.671C43.0116 105.588 43.2606 105.505 43.5095 105.505C43.7585 105.422 44.0075 105.422 44.2565 105.422C44.5054 105.422 44.7544 105.422 45.0034 105.422L44.5054 105.92L44.4225 105.173C44.4225 104.924 44.3395 104.676 44.2565 104.427C44.1735 104.178 44.1735 103.929 44.0905 103.681C44.0075 103.432 44.0075 103.183 43.9245 102.934C43.8415 102.685 43.7585 102.437 43.6755 102.188C43.5925 101.939 43.5095 101.69 43.4265 101.524C43.3436 101.276 43.1776 101.11 43.0946 100.861C42.9286 100.612 42.8456 100.446 42.6796 100.28C42.5136 100.114 42.3477 99.9486 42.1817 99.7827C42.0157 99.6169 41.7667 99.5339 41.6007 99.451C41.5177 99.3681 41.3518 99.3681 41.2688 99.2851C41.1858 99.2851 41.0198 99.2022 40.9368 99.2022C40.6878 99.2022 40.4388 99.1193 40.1899 99.1193C39.6919 99.1193 39.194 99.2851 38.696 99.451C38.1981 99.451 37.7831 99.6998 37.2852 99.9486Z" fill="#BD7A66"/>
<path d="M109.403 72.7482C105.668 72.1676 101.353 69.5968 95.4605 71.5042C93.8836 71.9188 92.0578 71.1725 93.3027 68.6016C95.7924 64.6209 104.673 66.0307 109.652 69.6797C111.395 71.5042 111.395 72.914 109.403 72.7482Z" fill="#31374C"/>
<path d="M37.6992 51.684C39.691 46.2935 33.3007 29.1267 65.7505 22.2434C93.7187 16.3552 105.835 33.4391 117.122 26.7217C117.454 27.3851 117.039 39.4931 117.288 40.1566C117.288 40.1566 125.92 52.0987 123.098 55.416C96.4574 63.875 61.5179 33.1903 46.9943 60.8894C46.9943 60.9724 37.6992 51.684 37.6992 51.684Z" fill="#31374C"/>
<path d="M118.7 68.7685C118.7 68.7685 113.804 90.0819 116.957 98.1263C116.957 98.1263 121.771 93.3992 124.842 97.7116C124.842 97.7116 138.286 55.3336 122.933 48.8649C122.933 48.8649 108.907 48.2015 106.749 51.6846C105.255 54.1726 114.136 66.3635 118.7 68.7685Z" fill="#31374C"/>
<path d="M114.796 101.278C114.796 101.278 117.369 92.4044 123.51 96.3022C129.652 100.2 127.079 123.338 112.97 116.703C112.887 116.703 109.568 112.64 114.796 101.278Z" fill="#E09E7D"/>
<path d="M123.263 102.189C122.931 101.774 122.516 101.442 122.018 101.194C121.603 100.862 121.105 100.696 120.524 100.53C120.275 100.447 119.943 100.447 119.694 100.447C119.528 100.447 119.445 100.447 119.279 100.447C119.113 100.447 119.03 100.53 118.865 100.53C118.616 100.613 118.284 100.696 118.035 100.862C117.786 101.028 117.537 101.194 117.371 101.36L117.039 101.608C116.956 101.691 116.873 101.857 116.79 101.94C116.624 102.189 116.458 102.355 116.292 102.603C116.126 102.852 115.96 103.101 115.877 103.35C115.711 103.599 115.628 103.847 115.545 104.096C115.462 104.345 115.379 104.594 115.213 104.843C115.13 105.091 115.047 105.34 114.964 105.589C114.881 105.838 114.798 106.087 114.715 106.335L114.549 107.082C114.466 107.331 114.632 107.579 114.881 107.579H114.964C115.13 107.579 115.379 107.579 115.628 107.662C115.877 107.662 116.043 107.745 116.292 107.828C116.541 107.911 116.707 107.994 116.873 107.994L117.205 108.16L117.454 108.326C117.537 108.409 117.62 108.409 117.703 108.492C117.786 108.575 117.869 108.575 117.952 108.657C118.118 108.823 118.201 108.989 118.367 109.155C118.45 109.238 118.45 109.321 118.533 109.404L118.616 109.57L118.699 109.736L118.782 110.067L118.865 110.399V110.565V110.648V110.98C118.865 111.145 118.865 111.228 118.865 111.311C118.865 111.394 118.864 111.477 118.782 111.643L118.699 111.975C118.699 112.058 118.616 112.141 118.533 112.224C118.533 112.306 118.45 112.389 118.367 112.472C118.284 112.555 118.284 112.638 118.201 112.721C117.952 113.053 117.537 113.302 117.122 113.55C116.707 113.716 116.292 113.882 115.794 113.965C116.292 113.965 116.707 113.882 117.205 113.716C117.454 113.633 117.62 113.55 117.869 113.468C118.118 113.385 118.284 113.219 118.45 113.053C118.533 112.97 118.616 112.887 118.699 112.804C118.782 112.721 118.865 112.638 118.947 112.472C119.03 112.389 119.113 112.224 119.113 112.141L119.279 111.809C119.362 111.726 119.362 111.56 119.362 111.394C119.362 111.228 119.445 111.145 119.445 110.98V110.648V110.565C119.445 110.565 119.445 110.565 119.445 110.482V110.399V110.233V109.819L119.362 109.404L119.279 109.238L119.196 109.072C119.113 108.989 119.113 108.823 119.03 108.74C118.864 108.492 118.699 108.326 118.533 108.16C118.45 108.077 118.367 107.994 118.201 107.911C118.118 107.828 118.035 107.745 117.869 107.662L117.537 107.496L117.205 107.331C116.956 107.248 116.707 107.165 116.458 107.082C116.209 106.999 115.96 106.999 115.711 106.916C115.462 106.916 115.213 106.833 114.964 106.833L115.379 107.331L115.545 106.584C115.628 106.335 115.711 106.087 115.711 105.838C115.794 105.589 115.877 105.34 115.96 105.091C116.043 104.843 116.126 104.594 116.209 104.345C116.292 104.096 116.375 103.847 116.541 103.682C116.624 103.433 116.79 103.267 116.873 103.018C117.039 102.852 117.122 102.603 117.288 102.438C117.454 102.272 117.62 102.023 117.786 101.857C117.952 101.691 118.118 101.525 118.367 101.442C118.533 101.277 118.782 101.194 119.03 101.111C119.113 101.028 119.279 101.028 119.362 101.028C119.445 101.028 119.611 101.028 119.694 100.945C119.943 100.945 120.192 100.945 120.441 100.945C120.939 101.028 121.437 101.194 121.852 101.36C122.35 101.608 122.848 101.857 123.263 102.189Z" fill="#BD7A66"/>
<path d="M95.6261 120.599L92.3064 122.673C85.4181 126.736 71.7244 125.658 65.832 119.355C86.082 119.355 95.6261 120.599 95.6261 120.599Z" fill="white"/>
<path d="M98.1144 119.023C97.7825 119.189 96.9526 119.853 95.6247 120.599C85.9976 119.355 75.7066 119.189 65.9136 119.438L63.5898 117.779" stroke="#BD7A66" stroke-width="1.0208" stroke-miterlimit="10" stroke-linejoin="round"/>
<path d="M66.7443 116.287C65.5824 116.619 64.6695 117.116 64.0056 117.863C63.6736 118.277 63.4246 118.692 63.1757 119.19C63.0927 119.438 63.0097 119.687 62.8437 119.936C62.7607 120.185 62.6777 120.516 62.5947 120.765C62.5117 120.434 62.5117 120.185 62.5117 119.853C62.5117 119.521 62.5117 119.272 62.5947 118.941C62.6777 118.36 63.0097 117.78 63.4246 117.199C63.8396 116.702 64.4205 116.37 65.0015 116.121C65.5824 116.121 66.1634 116.121 66.7443 116.287Z" fill="#BD7A66"/>
<path d="M98.4468 122.674C98.2809 121.595 98.2809 120.517 98.0319 119.605C97.8659 119.107 97.6999 118.693 97.4509 118.361C97.119 118.029 96.704 117.698 96.2891 117.449C96.87 117.366 97.4509 117.532 97.9489 117.864C98.4468 118.278 98.7788 118.776 98.9448 119.356C99.1108 119.937 99.1108 120.517 99.1108 121.098C98.9448 121.678 98.7788 122.176 98.4468 122.674Z" fill="#BD7A66"/>
<path fill-rule="evenodd" clip-rule="evenodd" d="M69.2348 121.668C71.4211 122.997 75.0027 124.408 80.5382 124.654L80.5392 124.654C85.7786 124.9 89.4847 123.795 91.871 122.643C93.0654 122.067 93.932 121.477 94.4965 121.035C94.7787 120.814 94.9855 120.63 95.1199 120.504C95.1871 120.44 95.2362 120.391 95.2676 120.359C95.2833 120.343 95.2945 120.331 95.3014 120.324L95.3085 120.316L95.3093 120.315C95.3092 120.315 95.309 120.315 95.6239 120.599C95.9387 120.882 95.9385 120.882 95.9383 120.882L95.9365 120.884L95.9327 120.888L95.92 120.902C95.9093 120.914 95.8941 120.93 95.8743 120.95C95.8349 120.99 95.7773 121.048 95.7012 121.119C95.5491 121.263 95.3227 121.464 95.0188 121.702C94.4111 122.177 93.4933 122.8 92.2395 123.405C89.7293 124.617 85.8833 125.752 80.5 125.5C74.8319 125.248 71.1104 123.799 68.7945 122.391C67.6378 121.688 66.8355 120.997 66.3188 120.477C66.0606 120.217 65.8738 119.999 65.7499 119.844C65.6879 119.767 65.6416 119.705 65.61 119.661C65.5942 119.639 65.582 119.621 65.5733 119.609L65.563 119.593L65.5597 119.589L65.5586 119.587C65.5584 119.586 65.5578 119.586 65.9128 119.355C66.2678 119.124 66.2677 119.124 66.2675 119.123C66.2675 119.123 66.2672 119.123 66.2675 119.123L66.2725 119.131C66.2774 119.138 66.2857 119.15 66.2975 119.166C66.3212 119.199 66.359 119.25 66.4119 119.316C66.5178 119.449 66.6844 119.643 66.9202 119.881C67.3917 120.355 68.1404 121.002 69.2348 121.668Z" fill="#BD7A66"/>
<path d="M66.6618 84.3587C66.4958 85.4368 65.4999 86.1832 64.421 86.1003C63.3421 85.9344 62.5952 84.9392 62.6782 83.8611C62.8441 82.783 63.84 82.0366 64.9189 82.1196C66.0808 82.2854 66.8278 83.2806 66.6618 84.3587Z" fill="#2B2E3A"/>
<path d="M66.083 83.6128C66 84.0274 65.6681 84.2762 65.2531 84.1933C64.8381 84.1104 64.5892 83.7786 64.6722 83.364C64.7551 82.9493 65.0871 82.7005 65.5021 82.7835C65.917 82.9493 66.166 83.2811 66.083 83.6128Z" fill="white"/>
<path d="M100.607 86.4329C100.441 87.5111 99.4452 88.2574 98.3663 88.1745C97.2874 88.0086 96.5405 87.0135 96.6235 85.9354C96.7895 84.8572 97.7854 84.1109 98.8643 84.1938C100.026 84.2767 100.773 85.2719 100.607 86.4329Z" fill="#2B2E3A"/>
<path d="M100.024 85.685C99.9414 86.0997 99.6095 86.3485 99.1945 86.2656C98.7795 86.1826 98.5306 85.8509 98.6136 85.4362C98.6966 85.0216 99.0285 84.7728 99.4435 84.8557C99.8584 84.9387 100.107 85.2704 100.024 85.685Z" fill="white"/>
<path d="M53.0517 194.16C53.0517 194.16 52.0558 178.32 52.2218 173.012C52.3048 169.197 53.6326 157.67 53.6326 157.67" fill="#BFC6F2"/>
<path d="M104.507 192.419C104.507 192.419 104.756 177.657 104.258 172.35C103.926 168.618 101.852 156.344 101.852 156.344" fill="#BFC6F2"/>
<path d="M137.042 41.1704C139.001 34.2036 134.938 26.9685 127.966 25.0102C120.994 23.052 113.754 27.1122 111.794 34.0789C109.835 41.0457 113.898 48.2808 120.87 50.2391C127.842 52.1973 135.082 48.1371 137.042 41.1704Z" fill="#31374C"/>
<path d="M140.989 60.421C145.633 56.2663 146.027 49.1362 141.869 44.4955C137.711 39.8549 130.576 39.461 125.932 43.6158C121.288 47.7706 120.894 54.9007 125.052 59.5413C129.21 64.1819 136.345 64.5758 140.989 60.421Z" fill="#31374C"/>
<path d="M136.405 65.2998C136.569 61.6393 133.732 58.5394 130.069 58.376C126.405 58.2126 123.303 61.0476 123.14 64.708C122.976 68.3685 125.813 71.4684 129.476 71.6318C133.14 71.7952 136.242 68.9602 136.405 65.2998Z" fill="#31374C"/>
<path d="M76.7887 160.158H81.2702L82.6811 162.397L81.3532 166.461L84.4239 218.874L77.5356 228.826L69.7344 218.874L76.4567 166.627L75.2948 162.646L76.7887 160.158Z" fill="#31374C"/>
<path d="M88.4048 87.1793L75.873 86.5988C75.79 86.5988 75.707 86.5159 75.707 86.35L75.956 81.6229C75.956 81.54 76.039 81.457 76.205 81.457L88.7368 82.0375C88.8197 82.0375 88.9027 82.1205 88.9027 82.2863L88.6538 87.0134C88.6538 87.0964 88.5708 87.1793 88.4048 87.1793Z" fill="#2B2E3A"/>
<path d="M116.541 78.4721L94.4653 77.6428C90.4817 77.477 88.2409 80.7113 88.0749 84.6091L87.7429 92.1558C87.5769 96.1366 91.8925 99.4538 95.8761 99.6197L115.628 100.366C119.612 100.532 122.931 97.3805 123.097 93.4828L123.429 85.936C123.512 83.8627 126.002 84.8579 125.172 80.6284C124.923 78.8868 118.367 78.5551 116.541 78.4721ZM120.276 91.6583C120.11 95.639 116.79 98.7074 112.806 98.5416L96.5401 97.8781C92.5564 97.7123 89.4857 94.395 89.6517 90.4143L89.8177 86.3506C89.9837 82.3699 91.0626 79.1356 95.0462 79.3015L113.553 80.0478C117.537 80.2137 120.608 83.531 120.442 87.5117L120.276 91.6583Z" fill="#2B2E3A"/>
<path opacity="0.14" d="M113.802 80.1313L94.6306 79.219C90.813 79.0531 89.9831 82.2875 89.8171 86.1023L89.6511 90.7465C89.4851 94.5613 92.4728 97.7957 96.2905 97.9615L113.055 98.625C116.872 98.7908 120.109 95.8053 120.275 91.9905L120.441 87.3463C120.607 83.5314 117.619 80.2971 113.802 80.1313Z" fill="#8698BF"/>
<path d="M122.681 82.203L121.021 82.0371C120.689 82.0371 120.523 81.7054 120.523 81.4566C120.523 81.1248 120.855 80.959 121.104 80.959L122.764 81.1248C123.096 81.1248 123.262 81.4566 123.262 81.7054C123.262 82.0371 123.013 82.203 122.681 82.203Z" fill="#8698BF"/>
<path d="M42.5952 76.7301C41.4333 80.7108 43.9231 79.9645 43.7571 81.9548L43.3421 89.1699C43.0932 92.9018 45.9979 96.219 49.7325 96.3849L68.4057 97.546C72.1403 97.7947 76.5389 94.9751 76.7878 91.2431L77.2028 84.0281C77.4518 80.2962 75.626 77.0619 71.8913 76.8131L50.9774 75.4862C49.2346 75.4862 43.0932 75.1544 42.5952 76.7301ZM46.4128 83.7793C46.6618 80.0474 49.8985 77.1448 53.6331 77.3936L71.1444 78.4717C74.879 78.7205 75.626 81.8719 75.377 85.6038L75.128 89.4187C74.879 93.1506 71.6424 96.0532 67.9077 95.8044L52.4712 94.8092C48.7366 94.5604 45.8319 91.3261 46.0809 87.5942L46.4128 83.7793Z" fill="#2B2E3A"/>
<path opacity="0.14" d="M53.384 77.3942L71.5592 78.3894C75.1279 78.6382 75.6258 81.7066 75.4598 85.3556L75.2109 89.751C74.9619 93.3171 71.8912 96.1367 68.2396 95.8879L52.3051 94.8928C48.7365 94.644 45.9148 91.5755 46.1637 87.9265L46.4127 83.5311C46.6617 79.9651 49.8154 77.1454 53.384 77.3942Z" fill="#8698BF"/>
<path d="M44.8378 78.4717H46.4146C46.6636 78.4717 46.9126 78.2229 46.9126 77.9741C46.9126 77.7254 46.6636 77.4766 46.4146 77.4766H44.8378C44.5888 77.4766 44.3398 77.7254 44.3398 77.9741C44.3398 78.2229 44.5888 78.4717 44.8378 78.4717Z" fill="#8698BF"/>
</g>
</g>
<defs>
<linearGradient id="paint0_linear" x1="81.7319" y1="74.168" x2="81.7399" y2="106.834" gradientUnits="userSpaceOnUse">
<stop stop-color="#E09E7D"/>
<stop offset="0.3202" stop-color="#DA9879"/>
<stop offset="0.7334" stop-color="#CB886F"/>
<stop offset="1" stop-color="#BD7A66"/>
</linearGradient>
</defs>
</svg>
