<svg width="643" height="464" viewBox="0 0 643 464" fill="none" xmlns="http://www.w3.org/2000/svg">
<path fill-rule="evenodd" clip-rule="evenodd" d="M578.072 72.9155C578.072 72.9155 578.951 68.7089 578.072 64.8848L522.438 66.032V67.0518H525.577C525.577 67.0518 526.205 69.6012 525.703 71.1309L522.814 71.2584L522.689 72.7881L578.072 72.9155Z" fill="#B6BCF4"/>
<path fill-rule="evenodd" clip-rule="evenodd" d="M525.703 67.1779H558.104L576.314 66.668C576.314 66.668 577.319 69.8548 576.314 71.8943L526.079 71.257C525.954 71.257 525.954 68.4526 525.703 67.1779Z" fill="#EDEFFF"/>
<path fill-rule="evenodd" clip-rule="evenodd" d="M566.895 66.2867C566.895 66.2867 566.769 59.6582 566.016 55.834L520.428 55.9615L520.303 57.4911H522.94C522.94 57.4911 523.442 62.9725 523.065 64.5021L520.679 64.6296L520.554 66.1593L566.895 66.2867Z" fill="#B6BCF4"/>
<path fill-rule="evenodd" clip-rule="evenodd" d="M522.94 57.6173H550.066L565.262 57.1074C565.262 57.1074 566.141 63.2261 565.262 65.2657L523.191 64.6283C523.191 64.6283 523.191 58.892 522.94 57.6173Z" fill="#EDEFFF"/>
<path opacity="0.3" fill-rule="evenodd" clip-rule="evenodd" d="M578.198 64.6291L567.021 64.884C567.146 62.3346 567.146 58.0005 566.644 55.9609H547.303L547.806 57.6181H546.048C546.048 57.6181 546.927 63.2269 546.927 65.0115H547.555V67.051H553.457C553.708 67.6884 554.336 70.2379 554.462 71.6401H555.215L555.09 72.5324H578.323C578.198 72.5324 579.202 67.6884 578.198 64.6291Z" fill="#B6BCF4"/>
<path fill-rule="evenodd" clip-rule="evenodd" d="M502.595 79.1602L513.521 100.576H518.293L522.061 79.1602C522.061 79.1602 502.595 79.1602 502.595 79.1602Z" fill="#B6BCF4"/>
<path fill-rule="evenodd" clip-rule="evenodd" d="M502.595 79.1602H512.391L518.293 100.576H513.521L502.595 79.1602Z" fill="#CFD4FB"/>
<path fill-rule="evenodd" clip-rule="evenodd" d="M594.524 79.1602L605.45 100.576H610.222L613.99 79.1602C613.99 79.1602 594.524 79.1602 594.524 79.1602Z" fill="#B6BCF4"/>
<path fill-rule="evenodd" clip-rule="evenodd" d="M594.524 79.1602H604.319L610.222 100.576H605.45L594.524 79.1602Z" fill="#CFD4FB"/>
<path fill-rule="evenodd" clip-rule="evenodd" d="M596.031 72.5312L624.664 74.0609V79.9247L596.031 79.1598V72.5312Z" fill="#B6BCF4"/>
<path fill-rule="evenodd" clip-rule="evenodd" d="M595.78 68.4521L595.277 69.8543H593.268L592.263 72.9137H561.746L549.815 42.7027C549.815 42.7027 551.322 39.006 554.713 38.4961H555.341L580.458 39.3884L595.78 68.4521Z" fill="#CFD4FB"/>
<path fill-rule="evenodd" clip-rule="evenodd" d="M595.78 68.4536L595.277 69.8558H567.272L563.504 73.1701L561.746 72.9151C562.625 70.7481 564.258 69.0909 567.272 68.1986L555.467 38.625L580.584 39.5173L595.78 68.4536Z" fill="#B6BCF4"/>
<path fill-rule="evenodd" clip-rule="evenodd" d="M563.881 72.9148L567.272 69.8555H593.268L592.263 72.9148H563.881Z" fill="#EDEFFF"/>
<path d="M503.348 37.3498C500.711 38.6245 498.576 40.7915 496.944 43.4685C496.692 43.8509 496.567 44.3608 496.316 44.7432C496.567 42.1937 496.19 38.752 492.674 36.7124C492.674 36.7124 489.534 43.8509 495.06 47.8025C494.432 49.9696 494.055 52.2641 493.929 54.4311C492.674 52.1366 490.539 49.3322 486.646 51.2443C486.646 51.2443 488.027 59.0201 493.804 57.4904C493.804 58.6377 493.929 59.7849 493.929 60.6772C494.306 66.0311 495.437 70.1102 495.437 70.2377L496.692 69.8553C496.692 69.7278 494.934 63.2267 495.185 56.0882C497.195 56.4707 502.469 56.8531 504.73 51.3717C504.73 51.3717 498.451 49.5871 495.311 54.0487C495.437 51.3718 495.939 48.6948 497.069 46.2728C498.827 47.1652 503.851 48.9498 506.99 44.3608C506.99 44.3608 502.344 41.0465 498.199 44.1058C498.199 44.1058 498.199 44.1058 498.199 43.9783C499.455 41.9388 500.962 40.2816 502.972 39.0069C504.855 39.8992 509.628 41.5564 512.767 37.0948C512.767 37.2223 507.618 33.6531 503.348 37.3498Z" fill="#B4EDBF"/>
<path d="M504.73 65.3929L500.711 60.0391H495.06H494.934H489.283L485.264 65.3929C484.511 66.4127 484.385 67.9424 485.013 69.0896L487.776 74.061H494.683H495.06H501.967L504.73 69.0896C505.483 67.8149 505.483 66.4127 504.73 65.3929Z" fill="#DBE0FC"/>
<path d="M596.031 72.5312H462.407V79.1598H596.031V72.5312Z" fill="#CFD4FB"/>
<path d="M99.9664 379.104C100.845 379.869 101.097 337.421 103.232 316.77C105.869 291.531 97.7059 270.37 88.4125 258.388C85.3984 254.436 77.2354 251.504 77.7377 259.408C78.24 267.056 83.1379 279.676 79.4959 286.942C76.733 292.296 71.9607 297.139 72.0863 303.768C72.4631 312.181 78.4912 319.83 81.882 327.096C84.017 331.812 89.4172 343.412 90.0451 348.511C91.301 359.856 90.9242 370.819 99.9664 379.104Z" fill="#B4EDBF"/>
<path d="M101.725 372.348C101.725 372.348 94.6918 331.174 97.957 316.77C99.4641 310.396 101.599 298.414 109.134 296.629C112.399 295.864 115.037 297.776 118.302 296.119C122.949 293.825 124.958 287.961 127.47 283.882C132.368 276.106 140.907 270.752 150.075 269.732C151.708 269.605 153.592 269.732 154.596 271.007C155.224 272.027 155.099 273.302 154.973 274.449C153.466 281.842 146.684 286.049 145.429 293.57C144.675 297.904 145.052 302.493 144.298 306.827C143.419 312.181 141.159 317.152 137.768 321.231C130.861 329.517 127.595 337.93 119.307 344.686C113.153 349.913 100.092 363.297 101.725 372.348Z" fill="#EDEFFF"/>
<path d="M104.99 375.917C103.357 365.209 101.222 356.031 108.255 340.479C110.767 334.871 117.925 330.282 123.325 327.222C129.479 323.781 137.517 327.35 144.173 327.605C155.35 328.115 166.025 323.016 176.825 327.605C187.374 332.194 161.504 336.91 158.866 338.185C152.964 341.372 148.568 346.598 141.787 347.873C134.879 349.02 121.19 352.079 117.8 358.581C108.632 376.427 105.241 378.339 104.99 375.917Z" fill="#B4EDBF"/>
<path d="M100.72 369.544C105.743 364.828 101.725 350.296 98.585 340.608C95.5709 331.175 87.9102 321.869 77.9889 320.722C73.3422 320.212 70.8305 321.997 66.3094 320.722C61.7883 319.447 58.0207 316.133 53.4996 315.241C45.5877 313.456 30.7686 317.663 42.5736 326.586C48.6018 331.175 47.0947 338.568 55.2578 340.225C69.3234 343.285 95.4453 356.669 100.72 369.544Z" fill="#EDEFFF"/>
<path d="M99.8408 371.201C99.8408 371.201 100.469 354.629 88.7893 345.324C76.9842 335.891 61.6627 333.851 50.7367 339.588C46.3412 341.882 43.076 346.726 38.5549 348.893C35.4152 350.423 27.001 352.335 28.1313 354.63C29.2615 356.924 38.6805 358.326 43.7039 356.159C48.9785 353.737 54.7555 350.168 60.658 351.443C67.4397 352.845 68.4443 357.561 77.1098 359.983C85.3984 362.405 93.3104 364.572 94.5662 372.858C98.2082 377.192 99.8408 371.201 99.8408 371.201Z" fill="#B4EDBF"/>
<path d="M100.846 443.095C127.202 443.095 148.568 438.529 148.568 432.897C148.568 427.265 127.202 422.699 100.846 422.699C74.489 422.699 53.1229 427.265 53.1229 432.897C53.1229 438.529 74.489 443.095 100.846 443.095Z" fill="#EBECF4"/>
<path d="M127.219 432.897H73.5934C70.8305 432.897 68.4443 430.985 67.942 428.181C63.6721 408.04 62.0395 387.517 63.0441 366.994H137.893C138.27 387.9 136.763 408.295 132.87 428.054C132.368 430.73 129.981 432.897 127.219 432.897Z" fill="#DBE0FC"/>
<path opacity="0.08" d="M269.382 463.363C258.205 460.814 185.365 442.33 182.225 438.124C180.09 435.319 230.576 426.524 276.791 417.855C312.081 411.227 344.733 403.961 350.259 403.961C361.687 403.961 433.774 417.218 497.069 434.299C527.335 442.458 449.723 455.715 438.546 462.088C408.657 465.913 375.125 444.37 360.18 449.469C339.082 450.616 276.917 465.785 269.382 463.363Z" fill="#001177"/>
<path d="M332.928 401.158L332.3 284.266L427.369 305.426L425.234 418.749C425.108 422.446 421.592 425.25 417.95 424.23L340.463 411.611C336.194 409.954 332.928 405.874 332.928 401.158Z" fill="#D0D5F4"/>
<path d="M261.596 445.262V344.559L427.495 305.17L418.076 423.974L422.848 425.249C424.355 425.759 426.113 425.376 427.369 424.484L428.374 423.847C429.63 422.827 430.509 421.297 430.509 419.768L432.644 295.609L254.688 339.715C252.93 340.225 251.046 340.097 249.288 339.332L239.241 335.381L241.376 433.025C241.376 433.152 261.596 447.684 261.596 445.262Z" fill="#D0D5F4"/>
<path d="M209.101 431.75L208.724 305.425C208.724 303.13 210.984 301.473 213.119 302.238L282.694 329.899C286.461 331.429 288.973 335.126 288.973 339.205V454.312C288.973 458.391 284.829 461.196 280.936 459.666L215.38 441.438C211.612 439.908 209.101 436.084 209.101 431.75Z" fill="#D0D5F4"/>
<path d="M171.55 313.967V319.576L251.8 340.481L432.644 295.738L329.789 276.362C327.905 275.98 325.896 275.98 324.012 276.49L176.825 307.593C173.811 308.103 171.55 310.907 171.55 313.967Z" fill="#E1E4F4"/>
<path d="M281.689 277.509C281.689 278.146 283.071 281.716 291.736 281.716C299.648 281.716 301.783 278.019 301.783 277.509C301.783 276.999 299.02 275.342 291.736 275.342C283.447 275.342 281.689 276.871 281.689 277.509Z" fill="#D0D5F4"/>
<path d="M299.02 299.306C297.639 302.62 286.21 302.493 284.703 299.306L281.187 269.223H302.16L299.02 299.306Z" fill="#ECEEFA"/>
<path d="M281.187 267.183C284.326 266.164 295.504 265.144 302.285 267.183L302.662 267.311L302.913 268.076L297.262 269.988L281.061 269.223L280.684 267.311L281.187 267.183Z" fill="#E1E4F4"/>
<path d="M302.034 270.498H281.438L282.443 262.467H300.653L302.034 270.498Z" fill="#ECEEFA"/>
<path d="M282.443 262.595C282.443 263.232 286.462 263.742 291.485 263.742C296.634 263.742 300.653 263.232 300.653 262.468C300.653 261.83 296.634 261.32 291.485 261.32C286.587 261.32 282.443 261.958 282.443 262.595Z" fill="#F7F7FA"/>
<path d="M300.527 290.64C298.267 293.827 286.462 293.827 283.196 290.767L281.689 277.383C283.699 280.57 299.899 280.825 301.909 277.383L300.527 290.64Z" fill="#D0D5F4"/>
<path d="M303.164 270.499C303.039 269.734 303.29 269.989 303.29 269.607C303.29 269.225 303.29 268.715 303.164 268.077C303.164 267.313 302.411 267.312 302.411 267.312C303.164 267.822 300.653 269.862 291.862 269.862C283.071 269.862 280.559 267.822 281.187 267.312C281.187 267.312 280.433 267.44 280.433 268.077C280.433 268.842 280.308 269.352 280.308 269.607C280.308 269.862 280.559 269.734 280.433 270.499C280.308 271.264 280.057 271.647 280.308 271.774C280.559 271.901 283.196 273.941 291.611 273.941C300.15 273.941 302.662 272.029 302.913 271.774C303.541 271.392 303.29 271.137 303.164 270.499Z" fill="#F7F7FA"/>
<path d="M244.265 250.23C244.39 250.23 244.39 250.23 244.516 250.23L264.233 210.458C265.489 207.654 268.628 206.379 271.517 207.017L283.95 210.076C284.201 209.949 284.578 209.566 284.829 209.439C291.611 205.359 300.904 208.419 305.048 215.43L280.936 231.236C277.545 225.755 277.419 217.214 281.438 212.498L271.014 210.076C269.256 209.566 267.372 210.586 266.619 212.116L247.153 251.759C247.781 252.524 248.158 253.289 248.158 254.309C248.158 255.584 247.404 256.731 246.651 257.496L253.432 289.364H250.418L243.888 258.133C242.255 257.751 240.748 256.221 240.748 254.436C240.497 251.887 242.13 250.23 244.265 250.23Z" fill="#BFC6F2"/>
<path d="M297.011 229.452C303.667 225.118 307.183 218.617 305.048 215.175C302.788 211.606 295.629 212.243 288.973 216.577C282.317 220.911 278.801 227.412 280.936 230.854C283.196 234.423 290.48 233.914 297.011 229.452Z" fill="#D0D5F4"/>
<path d="M284.578 220.147C284.703 223.334 287.341 225.883 290.606 225.883C293.997 225.883 296.634 223.206 296.634 219.764C296.634 217.343 295.252 215.303 293.118 214.283C291.862 214.921 290.355 215.558 288.973 216.45C287.215 217.725 285.834 219 284.578 220.147Z" fill="#F7F7FA"/>
<path d="M299.648 213.008V213.9C301.783 213.9 303.416 214.665 304.169 215.812C306.053 218.999 302.662 224.863 296.383 228.942C292.866 231.236 289.099 232.639 285.959 232.639C283.824 232.639 282.192 231.874 281.438 230.726C279.554 227.54 282.945 221.676 289.224 217.469C292.741 215.175 296.508 213.773 299.648 213.773V213.008ZM299.648 213.008C296.508 213.008 292.49 214.283 288.722 216.705C282.066 221.039 278.424 227.54 280.685 230.981C281.815 232.511 283.573 233.276 286.085 233.276C289.224 233.276 293.243 232.001 297.011 229.579C303.667 225.245 307.309 218.744 305.048 215.302C304.044 213.773 302.16 213.008 299.648 213.008Z" fill="#D0D5F4"/>
<path fill-rule="evenodd" clip-rule="evenodd" d="M273.526 299.689C270.135 303.13 239.744 303.513 232.083 299.689C232.083 291.785 241.376 285.539 252.93 285.539C264.233 285.539 273.526 291.913 273.526 299.689Z" fill="#BFC6F2"/>
<path d="M226.18 303.896C226.18 303.896 224.924 307.848 227.185 311.927L256.823 325.439L282.694 316.389L283.071 315.496L247.907 300.582L226.18 303.896Z" fill="#D0D5F4"/>
<path d="M226.18 303.896L256.321 317.408L281.689 309.505L249.79 298.287L226.18 303.896Z" fill="#ECEEFA"/>
<path d="M281.564 309.377L281.689 310.142L256.949 318.3C256.949 318.3 256.195 320.212 257.451 324.164L283.071 315.368L282.694 316.26L256.823 325.311C256.823 325.311 255.442 322.379 256.321 317.28L281.564 309.377Z" fill="#D0D5F4"/>
<path d="M280.936 310.27C280.936 310.27 279.931 312.692 281.061 315.368L257.074 323.272C257.074 323.272 256.321 320.722 256.949 318.045L280.936 310.27Z" fill="#F7F7FA"/>
<path fill-rule="evenodd" clip-rule="evenodd" d="M276.666 318.301L275.536 311.162L243.888 299.562H243.637V299.435L246.651 298.67L278.675 310.142L279.68 317.408L276.54 318.683L276.415 318.556L276.666 318.301Z" fill="#D0D5F4"/>
<path fill-rule="evenodd" clip-rule="evenodd" d="M275.661 311.162C275.661 311.162 278.047 310.652 278.801 310.143L279.805 317.409L276.666 318.556L276.54 318.428L276.917 318.301L275.661 311.162Z" fill="#D0D5F4"/>
<path d="M343.854 440.802C343.854 436.978 345.864 433.791 348.25 433.791C350.636 433.791 352.645 436.978 352.645 440.802C352.645 444.626 350.636 447.813 348.25 447.813C345.864 447.813 343.854 444.626 343.854 440.802Z" fill="#31374C"/>
<path d="M408.406 361.514C408.406 361.514 402.503 361.514 392.582 372.731L407.15 372.349L408.406 361.514Z" fill="#E1E4F4"/>
<path d="M397.228 356.797C394.465 354.12 351.138 344.432 343.352 344.56C335.566 344.687 337.324 358.837 349.003 362.279C367.088 367.76 404.261 363.936 397.228 356.797Z" fill="#ECEEFA"/>
<path d="M347.622 346.345C348.124 346.345 348.627 346.217 349.003 346.217C358.297 344.433 367.088 331.685 375.502 307.721L371.609 306.318C361.813 333.98 353.399 340.991 348.25 342.011C346.115 342.521 344.105 342.011 342.473 340.609C335.566 335 333.807 316.134 333.807 309.378L329.663 309.505C329.663 310.652 330.291 335.892 339.961 343.923C342.222 345.707 344.859 346.472 347.622 346.345Z" fill="#ECEEFA"/>
<path d="M322.63 316.261C322.002 311.926 334.812 298.797 349.883 296.63C365.078 294.463 376.632 304.023 377.26 308.357C377.888 312.691 367.213 310.269 352.017 312.436C337.073 314.731 323.258 320.595 322.63 316.261Z" fill="#BFC6F2"/>
<path d="M333.556 314.858C333.054 311.288 343.226 300.708 355.283 299.051C367.339 297.394 376.632 305.17 377.135 308.611C377.637 312.181 369.097 310.141 357.041 311.798C344.859 313.583 333.933 318.299 333.556 314.858Z" fill="#6677A3"/>
<path d="M371.86 416.454C372.111 413.522 373.869 411.227 375.753 411.355C377.637 411.482 378.893 414.159 378.642 417.091C378.39 420.023 376.632 422.317 374.748 422.19C372.99 422.062 371.609 419.513 371.86 416.454Z" fill="#57617F"/>
<path d="M413.806 422.572C406.898 420.915 373.869 417.473 374.874 411.482C376.004 405.618 409.912 409.952 409.912 409.952L413.806 422.572Z" fill="#6677A3"/>
<path d="M459.393 427.544C460.147 420.915 415.313 411.864 406.647 409.188L404.01 424.102C404.136 423.974 458.765 434.555 459.393 427.544Z" fill="#6677A3"/>
<path d="M401.247 406.893C401.247 402.814 414.057 402.814 414.057 406.893C413.931 410.972 401.247 412.63 401.247 406.893Z" fill="#8698BF"/>
<path d="M411.796 368.143H402.503V421.809H411.796V368.143Z" fill="#8698BF"/>
<path d="M401.247 406.895C402.629 409.189 412.675 409.571 414.057 406.895V416.2H401.247V406.895Z" fill="#8698BF"/>
<path d="M451.858 433.663C451.858 429.839 453.868 426.652 456.254 426.652C458.64 426.652 460.649 429.839 460.649 433.663C460.649 437.488 458.64 440.674 456.254 440.674C453.868 440.802 451.858 437.615 451.858 433.663Z" fill="#57617F"/>
<path d="M409.913 454.697C409.913 450.872 411.922 447.686 414.308 447.686C416.694 447.686 418.704 450.872 418.704 454.697C418.704 458.521 416.694 461.708 414.308 461.708C411.922 461.962 409.913 458.776 409.913 454.697Z" fill="#57617F"/>
<path d="M413.931 413.65C414.81 426.015 421.466 451.127 414.559 450.872C407.652 450.617 399.991 415.817 399.991 415.817L413.931 413.65Z" fill="#8698BF"/>
<path d="M345.612 434.556C344.105 429.712 403.256 408.807 403.256 408.807L411.043 420.407C411.168 420.407 347.622 441.057 345.612 434.556Z" fill="#8698BF"/>
<path d="M394.465 375.152H419.583L414.81 395.675C413.178 397.842 400.87 398.735 399.363 395.675L394.465 375.152Z" fill="#6677A3"/>
<path d="M471.198 215.684C465.045 211.222 421.592 207.653 416.945 212.115C412.299 216.576 435.532 245.385 448.593 246.787C468.687 248.954 486.897 227.029 471.198 215.684Z" fill="#6677A3"/>
<path d="M464.668 364.318C476.85 353.1 507.995 242.709 501.716 231.491C495.436 220.274 407.401 211.223 396.224 222.568C378.516 240.542 402.754 328.88 380.777 329.9C359.678 331.047 335.691 336.529 330.919 346.471C326.147 356.414 330.291 365.465 330.291 365.465C330.291 365.465 337.449 386.625 409.661 389.43C427.243 387.518 446.709 380.889 464.668 364.318Z" fill="#8698BF"/>
<path d="M409.159 388.792C403.131 387.008 400.368 378.722 401.122 370.946C401.749 365.21 406.396 360.621 412.173 359.601C431.639 356.032 444.323 349.913 460.9 344.687C472.705 341.117 465.296 215.302 498.702 228.049C500.209 228.814 501.967 230.216 502.344 231.109C508.623 242.326 483.506 344.432 473.333 357.434C460.649 373.878 428.122 389.047 409.159 388.792Z" fill="#6677A3"/>
<path d="M469.315 215.557C466.049 211.223 421.843 207.654 414.559 211.988C407.275 216.322 409.913 243.346 427.118 245.641C445.704 248.063 477.98 226.775 469.315 215.557Z" fill="#BFC6F2"/>
<path d="M433.899 398.608L435.281 397.206L430.885 392.745C429.63 391.47 427.997 390.705 426.113 390.705H412.801V392.745H426.113C427.369 392.745 428.499 393.255 429.378 394.147L433.899 398.608Z" fill="#6677A3"/>
<path d="M431.764 398.352C431.764 396.695 433.146 395.293 435.03 395.293C436.788 395.293 438.295 396.695 438.295 398.352C438.295 400.009 436.913 401.412 435.03 401.412C433.272 401.412 431.764 400.009 431.764 398.352Z" fill="#6677A3"/>
<path d="M435.03 242.071L432.267 236.59C432.267 236.59 423.853 239.012 420.462 240.159C416.945 241.306 414.182 241.051 412.047 241.434L408.657 243.728L414.182 251.377L431.513 245.64L434.025 243.983L435.03 242.071Z" fill="#F9C1A7"/>
<path d="M419.959 242.327C423.727 241.689 429.002 238.502 432.141 236.718L430.509 210.586L409.159 221.039L411.168 237.228L411.796 241.434C411.796 241.562 416.317 242.964 419.959 242.327Z" fill="#DC918B"/>
<path d="M400.996 278.655C395.345 285.156 388.186 291.403 382.284 295.354L374.497 279.803L391.828 262.084L400.996 278.655Z" fill="#FAC2A8"/>
<path d="M401.875 246.66C397.228 250.357 393.838 256.858 386.177 266.546C387.684 269.095 392.456 276.871 395.972 282.99L407.526 272.792L401.875 246.66Z" fill="#EF3F54"/>
<path d="M409.41 241.69C409.41 241.69 404.261 245.004 401.875 246.661C393.712 261.066 397.731 280.186 393.21 303.259C392.205 308.358 385.298 320.34 385.298 320.34C385.298 320.34 422.722 324.419 436.411 343.668C444.574 328.881 446.081 315.114 447.463 306.956C450.728 288.217 450.351 284.52 450.602 273.048C450.854 259.153 444.323 242.582 444.323 242.582L436.537 238.758L412.801 252.142L409.41 241.69Z" fill="#EF3F54"/>
<path d="M356.287 255.583C363.948 264.761 372.865 283.372 376.883 286.686C379.646 289.108 391.326 290.638 389.819 281.077C387.307 275.851 368.595 250.994 368.595 250.994C361.939 248.827 352.52 249.719 356.287 255.583Z" fill="#FAC2A8"/>
<path d="M411.545 246.788C407.778 249.72 403.508 254.819 403.508 254.819C403.508 254.819 404.638 248.19 405.517 244.494C406.396 242.199 411.168 236.973 411.168 236.973L411.922 241.434L411.42 242.327L411.545 246.788Z" fill="#BD1A3B"/>
<path d="M411.294 242.963L414.559 249.719L426.741 243.218L429.63 246.405L412.675 256.347L409.285 246.915L411.294 242.963Z" fill="#BD1A3B"/>
<path d="M433.271 234.934C433.271 234.934 426.992 241.307 420.587 246.279C421.341 248.063 428.374 254.182 428.374 254.182L438.797 239.65L433.271 234.934Z" fill="#BD1A3B"/>
<path d="M455.5 264.889C455.5 264.889 457.133 287.197 457.133 296.375C457.133 296.375 453.491 303.895 444.574 303.386L439.802 274.067C439.927 273.939 450.854 264.379 455.5 264.889Z" fill="#F9C1A7"/>
<path d="M444.323 242.453C444.323 242.453 439.174 247.17 437.793 249.719C434.904 255.328 435.155 256.985 435.281 263.231C435.406 264.888 437.793 276.361 439.048 284.137C445.077 281.077 452.863 278.91 458.765 278.783C457.258 265.781 457.133 265.398 455.249 254.945C453.616 246.787 444.323 242.453 444.323 242.453Z" fill="#EF3F54"/>
<path d="M437.793 249.721C436.662 252.398 435.532 255.202 435.532 258.006C435.532 259.409 435.658 260.938 435.658 262.341V262.85C435.658 262.978 435.658 262.978 435.658 263.105V263.36C435.783 263.743 435.783 264.125 435.909 264.508L436.411 266.547C437.165 269.351 437.793 272.283 438.421 275.088C438.672 276.49 438.923 278.02 439.174 279.422C439.3 280.187 439.3 280.824 439.3 281.589C439.3 282.354 439.3 283.119 438.923 283.883L438.797 283.756C439.551 283.373 440.43 283.119 441.183 282.736C440.43 283.246 439.676 283.501 438.923 284.011L438.546 284.138L438.672 283.756C438.923 283.119 438.797 282.354 438.797 281.716C438.672 280.951 438.672 280.314 438.546 279.549C438.295 278.147 438.044 276.745 437.667 275.343C436.913 272.538 436.286 269.734 435.406 266.802L434.904 264.635C434.779 264.253 434.779 263.87 434.653 263.488V263.36C434.653 263.233 434.653 263.105 434.653 263.105V262.595C434.653 261.193 434.527 259.664 434.653 258.134C434.779 256.732 435.03 255.202 435.658 253.8C436.286 252.27 436.913 250.995 437.793 249.721Z" fill="#BD1A3B"/>
<path d="M424.229 269.095C424.104 269.095 423.978 269.095 423.727 269.35L421.592 271.772L421.341 269.095C421.341 268.84 421.215 268.713 421.09 268.713C420.964 268.713 420.713 268.84 420.587 268.968L418.578 272.282L419.457 272.41L420.839 270.115L421.09 272.664L421.843 272.792L423.853 270.625L423.476 273.047L424.229 273.174L424.732 269.86C424.606 269.223 424.355 269.095 424.229 269.095Z" fill="white"/>
<path d="M417.824 268.969L416.694 272.156L417.448 272.283L418.703 269.096L417.824 268.969Z" fill="white"/>
<path d="M416.317 269.605C416.443 269.095 416.317 268.713 415.564 268.458L414.057 268.33L412.927 271.517L413.68 271.644L414.182 270.497L414.559 270.625L415.062 271.899L415.941 272.027L415.438 270.625C415.941 270.497 416.192 270.115 416.317 269.605ZM414.81 269.987L414.308 269.86L414.685 268.967L415.313 269.095C415.564 269.095 415.815 269.35 415.689 269.605C415.438 269.86 415.062 270.115 414.81 269.987Z" fill="white"/>
<path d="M427.243 273.43L427.997 273.558L427.746 270.498C427.746 270.116 427.62 269.988 427.243 269.988C427.118 269.988 426.992 269.988 426.741 270.116L424.48 273.048L425.234 273.175L425.736 272.538L427.118 272.665L427.243 273.43ZM426.239 272.028L427.118 270.881L427.243 272.028H426.239Z" fill="white"/>
<path d="M430.509 273.302C429.881 273.175 429.63 272.793 429.755 272.155C429.881 271.39 430.509 271.008 431.388 271.263C431.639 271.263 431.89 271.39 432.141 271.39L432.392 270.753C432.267 270.626 431.765 270.626 431.639 270.626C430.257 270.498 429.378 271.135 429.002 272.028C428.75 272.92 429.253 273.685 430.509 273.812C430.76 273.812 431.011 273.812 431.262 273.812L431.513 273.048C431.137 273.302 430.885 273.302 430.509 273.302Z" fill="white"/>
<path d="M395.345 284.138C395.093 281.844 394.842 279.294 394.842 277C394.842 274.705 394.842 272.156 394.968 269.861C395.093 267.567 395.47 265.017 395.847 262.723C396.349 260.428 396.977 258.006 397.982 255.967C397.228 258.261 396.977 260.556 396.6 262.978C396.349 265.272 396.098 267.694 395.847 269.989C395.721 272.283 395.596 274.705 395.345 277V284.138Z" fill="#BD1A3B"/>
<path d="M409.536 389.302C403.508 387.517 400.87 379.231 401.624 371.456C402.252 365.719 406.773 361.13 412.55 360.111C431.764 356.541 444.323 350.295 460.649 345.196C472.329 341.627 483.003 344.941 472.957 358.198C460.398 374.387 428.248 389.557 409.536 389.302Z" fill="#6677A3"/>
<path d="M403.884 328.115C397.228 328.498 372.237 336.019 364.45 339.843C356.79 343.794 363.571 364.19 378.39 366.612C378.39 366.612 427.369 351.57 430.257 346.344C429.881 338.568 410.54 327.733 403.884 328.115Z" fill="#343948"/>
<path d="M352.394 408.934L347.12 422.956L359.553 426.27L363.571 412.503L352.394 408.934Z" fill="#FAC2A8"/>
<path d="M323.761 370.691L312.709 380.507L322.379 390.705L334.184 380.252L323.761 370.691Z" fill="#FAC2A8"/>
<path d="M315.974 376.3C315.095 375.281 288.973 370.054 285.708 368.779C283.322 367.76 281.689 371.966 282.317 374.516C282.945 377.957 291.108 389.812 304.295 391.979L304.044 393.764C307.937 395.549 316.728 398.99 321.249 398.99C321.249 398.99 325.519 396.696 327.277 387.39C322.254 387.135 318.612 384.204 315.221 380.252C315.221 380.124 316.853 377.32 315.974 376.3Z" fill="#2B2E3A"/>
<path d="M359.929 424.358C359.05 425.25 358.046 425.505 357.041 425.123C356.413 424.868 361.311 421.426 353.148 419.132C347.245 417.602 347.371 422.063 347.245 421.554C347.12 421.171 346.743 420.406 346.743 420.406C337.449 430.732 330.668 431.241 330.291 436.978C329.789 442.587 331.421 448.45 341.594 448.705C351.641 448.96 356.413 444.754 357.543 441.439C358.548 438.125 359.929 424.358 359.929 424.358Z" fill="#2B2E3A"/>
<path d="M403.884 330.283C403.884 333.087 403.759 335.891 403.759 338.823C403.633 341.628 403.508 344.432 403.382 347.236V347.619H403.005L398.359 347.109H397.982V346.726C398.233 342.647 398.359 338.568 398.735 334.362L398.987 334.617L395.47 333.724H395.219V333.597C395.596 332.067 395.972 330.537 396.349 329.008C396.098 330.537 395.847 332.195 395.596 333.724L395.47 333.469L398.861 334.107H399.112V334.362C398.987 338.441 398.861 342.52 398.61 346.726L398.233 346.217L402.88 346.726L402.377 347.109C402.503 344.304 402.754 341.5 403.005 338.696C403.257 336.019 403.508 333.087 403.884 330.283Z" fill="#343948"/>
<path d="M441.435 332.45L443.695 325.567C443.695 325.567 412.299 311.545 388.312 313.967L374.121 327.606C404.387 336.147 441.435 332.45 441.435 332.45Z" fill="#343948"/>
<path d="M441.811 330.155C441.811 330.155 376.507 318.555 367.967 319.065C359.427 319.575 365.455 333.852 378.139 342.01C378.139 342.01 412.927 354.885 422.471 352.845C440.807 349.021 441.811 330.155 441.811 330.155Z" fill="#474E64"/>
<path d="M364.827 320.213C364.827 320.213 325.895 366.613 324.514 367.25C323.133 367.888 317.858 372.477 317.858 372.477C317.858 372.477 323.635 386.244 335.566 390.068C338.831 385.224 355.534 369.29 357.543 366.995C359.678 364.701 375.502 348.894 379.27 341.756C380.4 339.589 381.781 330.028 381.781 330.028L364.827 320.213Z" fill="#474E64"/>
<path d="M381.028 343.54C381.028 343.54 390.572 350.934 382.66 374.389C380.274 381.4 365.204 421.426 365.204 421.426C363.32 420.789 356.538 420.406 351.766 418.239C347.12 416.072 344.859 413.013 344.859 413.013C344.859 413.013 351.389 394.019 362.19 352.591C362.19 352.463 364.827 334.745 381.028 343.54Z" fill="#343948"/>
<path d="M444.574 287.324C440.681 286.559 433.271 287.834 427.495 284.52C427.495 284.52 424.104 293.443 426.992 296.502C436.537 301.091 451.607 309.377 456.505 302.111C460.398 290.383 448.467 287.961 444.574 287.324Z" fill="#FAC2A8"/>
<path d="M453.491 290.893C451.733 290.001 450.1 289.108 448.342 288.471C447.463 288.089 446.584 287.961 445.579 287.706C445.077 287.706 444.7 287.579 444.197 287.579C443.695 287.579 443.318 287.579 442.816 287.324C443.318 286.941 443.821 286.941 444.323 286.941C444.825 286.941 445.328 286.941 445.83 287.069C446.835 287.196 447.714 287.579 448.719 287.961C450.477 288.471 452.235 289.363 453.491 290.893Z" fill="#DC918B"/>
<path d="M368.595 252.652C369.348 250.995 370.102 249.21 369.725 247.426C369.348 245.641 366.334 240.797 365.329 240.16C364.325 239.523 362.943 239.14 362.315 237.865C361.688 236.591 361.185 234.041 359.678 234.934C356.664 236.591 358.422 240.16 360.306 242.454C360.432 243.474 360.557 244.366 360.683 245.259C359.804 245.386 359.427 245.641 358.422 245.641C357.418 245.641 355.534 245.386 354.529 245.259C353.524 245.259 348.752 245.386 347.496 245.259C346.24 245.131 345.487 245.386 344.357 244.621C343.226 243.984 339.459 240.925 336.068 243.219C335.314 243.729 335.691 244.239 335.566 244.876C334.812 245.386 333.431 246.024 333.305 247.043C333.179 248.063 335.189 248.828 335.942 249.338C335.817 249.848 334.938 250.23 335.189 250.995C335.566 251.76 339.71 253.417 340.589 254.182C341.468 254.947 345.11 259.536 346.492 259.791C347.873 260.046 353.399 260.428 354.906 260.683C356.413 260.938 357.669 261.575 359.553 261.703C361.562 261.703 364.199 261.065 365.832 259.281C367.464 257.369 368.218 255.074 368.595 252.652Z" fill="#FAC2A8"/>
<path d="M360.808 245.258C360.934 246.405 360.934 247.425 361.185 248.445C361.311 248.955 361.562 249.464 361.813 249.847C362.064 250.229 362.441 250.612 362.818 250.994C362.315 250.867 361.813 250.612 361.436 250.102C361.06 249.719 360.808 249.082 360.683 248.572C360.432 247.552 360.557 246.405 360.808 245.258Z" fill="#DC918B"/>
<path d="M340.715 254.31C340.338 253.927 340.338 253.162 340.715 252.78C341.091 252.27 341.719 252.27 342.222 252.143C343.226 252.143 344.231 252.27 345.11 252.78C345.989 253.29 346.617 253.927 347.245 254.692C347.873 255.457 348.375 256.477 348.124 257.369C347.873 256.477 347.371 255.712 346.743 255.074C346.115 254.437 345.487 253.8 344.733 253.417C343.98 253.035 343.101 252.78 342.222 252.907C341.845 252.907 341.468 253.162 341.217 253.29C340.966 253.417 340.84 253.8 340.715 254.31Z" fill="#DC918B"/>
<path d="M347.371 255.456C349.129 255.456 350.762 255.328 352.52 255.328" stroke="#DC918B" stroke-width="0.5045" stroke-miterlimit="10"/>
<path d="M335.942 249.338C336.319 248.701 337.073 248.319 337.826 248.064C338.58 247.809 339.333 247.809 340.087 247.809C341.719 247.809 343.101 248.573 344.357 249.593C344.608 249.848 344.985 250.231 345.11 250.486C345.236 250.613 345.236 250.613 345.361 250.613C345.487 250.613 345.738 250.613 345.864 250.74L347.999 251.123C349.38 251.378 350.887 251.633 352.269 251.888L352.143 252.525C350.636 252.27 349.254 252.143 347.747 251.888L345.613 251.505C345.487 251.505 345.236 251.505 344.985 251.378C344.733 251.378 344.482 251.123 344.357 250.995C344.105 250.613 343.98 250.486 343.729 250.231C342.724 249.211 341.468 248.573 340.087 248.573C339.333 248.573 338.705 248.573 337.952 248.701C337.198 248.828 336.57 248.956 335.942 249.338Z" fill="#DC918B"/>
<path d="M335.942 244.877C336.696 244.622 337.449 244.495 338.203 244.622L340.463 245.26C341.217 245.515 341.97 245.77 342.598 246.024C343.352 246.407 343.98 246.789 344.482 247.554L344.357 247.427C346.868 248.191 349.38 248.446 352.017 248.701V249.339C349.38 249.211 346.743 248.829 344.231 248.064H344.105L343.98 247.937C343.603 247.427 342.975 247.044 342.347 246.662C341.719 246.279 340.966 246.024 340.338 245.77C339.584 245.515 338.831 245.26 338.203 245.005C337.449 244.75 336.696 244.75 335.942 244.877Z" fill="#DC918B"/>
<path d="M352.143 247.299C352.269 248.191 352.394 248.956 352.52 249.848L352.645 252.398C352.771 254.055 353.022 255.712 353.399 257.369C352.52 255.839 352.143 254.055 352.017 252.398C351.892 251.505 351.892 250.613 352.017 249.848C352.017 248.956 352.017 248.191 352.143 247.299Z" fill="#DC918B"/>
<path d="M429.253 284.266C429.253 284.266 417.197 276.108 415.815 275.088C414.434 274.068 411.043 272.538 410.038 273.686C408.531 274.96 409.285 284.138 416.317 292.297C419.331 295.229 424.983 296.886 427.495 297.013C436.537 293.061 429.253 284.266 429.253 284.266Z" fill="#FAC2A8"/>
<path d="M414.057 288.217C414.057 288.217 412.299 292.296 412.047 293.061C411.545 294.718 410.666 297.65 409.661 299.179C408.531 300.582 411.42 302.876 413.052 299.307C413.931 297.65 414.685 294.845 414.685 294.845L416.694 291.786" fill="#FAC2A8"/>
<path d="M413.052 282.609C413.052 282.609 408.28 287.708 406.522 288.473C405.517 290.13 404.261 293.699 402.001 294.974C400.619 296.631 403.633 299.308 406.145 296.121C407.401 294.464 409.536 292.042 409.536 292.042L413.931 288.346" fill="#FAC2A8"/>
<path d="M411.043 279.422C411.043 279.422 407.526 282.226 405.768 283.756C404.764 284.521 402.629 289.62 400.242 291.532C398.484 292.679 401.373 297.013 403.884 293.699C405.266 292.042 406.522 289.237 406.522 289.237L412.927 283.756" fill="#FAC2A8"/>
<path d="M410.038 273.686C410.038 273.686 403.005 278.53 402 279.167C400.996 279.804 400.117 281.461 400.242 282.609C400.368 283.756 400.87 286.815 400.117 289.365C399.489 291.277 403.633 291.149 403.759 286.688C403.884 284.903 404.01 282.991 404.01 282.991L410.54 279.549" fill="#FAC2A8"/>
<path d="M402.126 295.102L403.256 293.572C403.633 293.062 404.01 292.552 404.261 292.042C404.638 291.532 404.889 291.023 405.266 290.513C405.643 290.003 405.894 289.493 406.145 288.983V288.855C406.647 288.091 407.275 287.708 407.903 287.198C408.531 286.688 409.159 286.179 409.787 285.669C410.415 285.159 411.043 284.776 411.671 284.394C412.047 284.139 412.299 283.884 412.675 283.757C413.052 283.629 413.554 283.502 413.806 283.757C413.052 283.629 412.55 284.266 411.922 284.776C411.294 285.286 410.666 285.796 410.038 286.179C409.41 286.688 408.782 287.071 408.28 287.581C407.778 288.091 407.15 288.728 406.773 289.238V289.11C406.522 289.748 406.27 290.385 406.019 290.895C405.768 291.532 405.266 292.042 404.889 292.425C404.387 292.935 404.01 293.317 403.508 293.699C403.256 294.464 402.628 294.847 402.126 295.102Z" fill="#DC918B"/>
<path d="M401.121 290.64C401.247 290.513 401.247 290.385 401.373 290.13L401.624 289.62C401.749 289.238 402.001 288.983 402.126 288.6C402.377 288.346 402.503 287.963 402.754 287.708C403.005 287.453 403.256 287.198 403.633 286.943C403.382 287.708 403.131 288.346 402.628 288.983C402.377 289.238 402.252 289.62 402.001 289.875C401.749 290.258 401.498 290.64 401.121 290.64Z" fill="#DC918B"/>
<path d="M409.41 280.697C409.661 280.187 410.038 279.804 410.54 279.422C410.792 279.295 411.043 279.167 411.294 279.04C411.545 278.912 411.922 278.785 412.173 278.912C411.922 279.04 411.796 279.295 411.545 279.422C411.294 279.55 411.168 279.805 410.917 279.932C410.415 280.314 410.038 280.569 409.41 280.697Z" fill="#DC918B"/>
<path d="M455.375 318.938L389.693 314.477L408.531 326.331L455.375 318.938Z" fill="#8698BF"/>
<path d="M413.429 319.192L408.782 319.83L384.67 317.918L387.056 317.025L413.429 319.192Z" fill="#F7F7FA"/>
<path d="M455.375 318.938L404.763 326.203L404.889 329.135C404.889 330.155 405.894 331.047 407.15 331.047L453.365 323.909C454.621 323.909 455.5 323.017 455.5 321.869L455.375 318.938Z" fill="#57617F"/>
<path d="M408.782 326.84L341.217 321.104L341.343 324.035C341.343 325.055 342.347 325.948 343.603 325.948L407.15 331.429C408.405 331.429 409.285 330.537 409.285 329.389L408.782 326.84Z" fill="#31374C"/>
<path d="M431.262 318.555L426.615 319.32L402.503 317.408L404.889 316.516L431.262 318.555Z" fill="#F7F7FA"/>
<path d="M423.099 320.34L418.327 320.978L411.671 320.595L415.564 319.703L423.099 320.34Z" fill="#F7F7FA"/>
<path d="M400.619 269.35C401.749 270.625 401.624 271.644 401.749 272.537L409.033 327.477L405.768 325.565L402.88 326.075L391.577 268.458L395.721 268.585C397.354 268.33 399.489 268.075 400.619 269.35Z" fill="#474E64"/>
<path d="M407.15 326.968L341.719 321.359L334.812 271.518C334.561 269.478 336.319 267.693 338.58 267.693L395.721 268.458C397.731 268.458 399.489 269.733 399.614 271.518L407.15 326.968Z" fill="#31374C"/>
<path d="M440.807 358.838C441.058 358.838 441.309 358.838 441.56 358.838C450.979 358.201 461.277 346.983 472.705 324.293L469.063 322.381C455.626 348.513 446.584 354.377 441.309 354.632C439.048 354.759 437.29 354.122 435.783 352.464C429.755 346.091 430.383 327.097 431.011 320.469L426.867 319.959C426.741 321.106 424.104 346.218 432.644 355.396C435.03 357.563 437.667 358.838 440.807 358.838Z" fill="#ECEEFA"/>
<path d="M421.969 325.567C421.843 321.105 436.034 309.505 451.23 309.123C466.552 308.613 477.101 319.448 477.227 324.037C477.352 328.499 466.928 324.802 451.733 325.184C436.286 325.694 422.094 330.028 421.969 325.567Z" fill="#BFC6F2"/>
<path d="M429.378 325.695C429.253 322.381 441.183 313.712 453.993 313.33C466.803 313.075 475.468 321.233 475.594 324.548C475.72 327.862 467.054 325.057 454.244 325.312C441.435 325.822 429.504 329.009 429.378 325.695Z" fill="#6677A3"/>
<path d="M383.665 183.562C383.665 183.562 379.897 169.795 371.483 175.786C362.943 181.522 372.739 204.467 385.423 201.153C385.423 201.153 387.558 196.054 383.665 183.562Z" fill="#F7AB8D"/>
<path d="M454.496 123.904C458.138 140.093 450.979 213.007 447.839 217.851C444.449 222.568 421.215 239.267 410.415 237.864C399.489 236.462 380.4 225.627 377.511 219.381C374.372 213.135 373.744 124.286 373.744 124.286C413.303 99.1742 454.496 123.904 454.496 123.904Z" fill="#FAC2A8"/>
<g opacity="0.3">
<path opacity="0.5" d="M419.708 177.57C419.959 179.227 422.973 180.374 426.239 179.609C429.629 178.972 432.016 177.187 431.764 175.403C431.513 173.746 428.499 172.598 425.234 173.363C421.969 173.873 419.457 175.785 419.708 177.57Z" fill="#EF3F54"/>
<path opacity="0.5" d="M377.763 178.718C377.511 180.247 379.646 181.905 382.66 182.414C385.674 182.924 388.186 182.032 388.312 180.502C388.563 178.973 386.428 177.316 383.414 176.806C380.651 176.423 378.014 177.316 377.763 178.718Z" fill="#EF3F54"/>
</g>
<path d="M378.767 157.812C381.028 155.39 383.791 153.351 388.94 153.478C391.703 153.861 394.34 154.116 392.205 151.056C388.312 146.467 377.386 151.056 375.879 158.577C374.748 161.891 377.386 159.852 378.767 157.812Z" fill="#2B2E3A"/>
<path d="M430.132 154.879C427.62 152.585 424.732 150.928 419.583 151.438C417.071 152.075 414.182 152.457 416.066 149.398C419.583 144.427 430.885 148.123 433.02 155.517C434.402 158.704 431.764 156.664 430.132 154.879Z" fill="#2B2E3A"/>
<path opacity="0.56" d="M392.582 156.41C392.582 156.41 402.88 170.814 392.707 189.17C392.707 189.17 403.884 194.779 412.424 187.131C412.424 187.131 406.271 170.049 409.536 151.693C409.536 151.693 401.498 156.92 392.582 156.41Z" fill="url(#paint0_linear)"/>
<path d="M392.707 189.17C392.707 189.17 405.14 205.742 412.424 187.131C412.424 187.131 402.629 190.828 392.707 189.17Z" fill="#DC918B"/>
<path d="M388.061 199.879C388.061 199.879 408.28 209.184 432.769 190.828C432.769 190.828 426.867 217.852 410.54 220.019C393.461 220.274 399.991 209.057 388.061 199.879Z" fill="#2B2E3A"/>
<path d="M424.48 210.076C411.922 210.714 405.517 215.048 402.503 218.872C404.387 219.637 406.898 220.147 410.54 220.019C416.569 219.254 421.09 215.048 424.48 210.076Z" fill="#F97A7A"/>
<path d="M388.061 199.879C391.703 202.683 392.707 204.468 394.34 207.145C402.001 208.674 414.936 207.272 429.378 200.006C432.267 193.76 432.769 190.828 432.769 190.828C408.28 209.184 388.061 199.879 388.061 199.879Z" fill="white"/>
<path d="M389.693 201.28C390.195 201.663 390.698 202.173 391.2 202.683C391.703 203.193 392.079 203.702 392.582 204.212C392.958 204.722 393.335 205.232 393.712 205.869C395.219 208.164 396.224 210.713 397.479 213.008C398.107 214.155 398.735 215.302 399.614 216.45C400.117 216.96 400.494 217.342 400.996 217.724C401.498 218.107 402.126 218.362 402.629 218.617C402.88 218.744 403.256 218.872 403.508 218.872C403.759 218.999 404.136 218.999 404.387 219.127C405.015 219.254 405.643 219.382 406.271 219.382C406.898 219.509 407.526 219.509 408.154 219.509C408.782 219.509 409.41 219.509 410.038 219.509C413.178 219.127 416.066 217.724 418.578 215.685C420.964 213.773 423.099 211.096 424.732 208.546C426.364 205.742 427.871 202.938 429.127 199.878C429.755 198.349 430.257 196.819 430.76 195.289C431.262 193.76 431.639 192.102 432.016 190.573L432.644 190.955L430.257 192.612C429.378 193.122 428.625 193.632 427.746 194.142C426.867 194.652 426.113 195.162 425.234 195.672C424.355 196.182 423.476 196.564 422.471 197.074C421.592 197.584 420.713 197.839 419.708 198.221C418.829 198.604 417.95 198.986 416.82 199.241C415.941 199.496 414.936 199.878 413.931 200.133C413.052 200.388 412.047 200.643 411.043 200.898C410.038 201.026 409.159 201.28 408.029 201.408C406.898 201.535 406.145 201.663 405.015 201.79C404.01 201.918 403.131 201.918 402.001 201.918C400.87 201.918 400.117 201.918 398.987 201.918C397.103 201.79 394.968 201.535 393.084 201.153C391.2 200.771 389.191 200.261 387.433 199.496C388.688 200.388 389.191 200.771 389.693 201.28ZM393.838 201.535C395.721 201.79 397.731 202.045 399.74 202.173C400.745 202.173 401.624 202.173 402.754 202.173C403.884 202.173 404.638 202.045 405.768 201.918C406.773 201.79 407.652 201.663 408.782 201.535C409.787 201.408 410.666 201.153 411.671 200.898C412.675 200.643 413.555 200.388 414.559 200.133C415.564 199.878 416.443 199.496 417.448 199.241C418.452 198.986 419.206 198.604 420.211 198.221C421.09 197.839 421.969 197.456 422.973 197.074C423.853 196.691 424.732 196.182 425.485 195.672C426.364 195.162 427.118 194.652 427.997 194.142C428.876 193.632 429.63 193.122 430.383 192.612L432.769 190.955L433.523 190.445L433.271 191.338C432.895 192.867 432.518 194.524 432.016 196.054C431.513 197.584 431.011 199.241 430.383 200.643C429.253 203.702 427.62 206.634 425.988 209.439C424.229 212.243 422.094 214.793 419.708 216.832C417.197 218.872 414.182 220.401 410.792 220.784C410.164 220.784 409.536 220.784 408.782 220.784C408.154 220.784 407.526 220.656 406.773 220.656C406.145 220.529 405.517 220.529 404.889 220.274C404.638 220.146 404.261 220.146 403.884 220.019C403.633 219.891 403.256 219.764 403.005 219.637C402.377 219.382 401.875 218.999 401.247 218.617C400.745 218.234 400.242 217.724 399.74 217.215C398.861 216.195 398.233 215.048 397.605 213.645C396.977 212.498 396.6 211.223 395.972 209.949C395.47 208.801 394.842 207.527 394.089 206.379C393.712 205.869 393.335 205.232 392.958 204.722C392.582 204.212 392.079 203.702 391.703 203.193C391.2 202.683 390.823 202.173 390.321 201.79C389.819 201.28 389.316 200.898 388.814 200.516C389.944 200.771 391.954 201.153 393.838 201.535Z" fill="#DC918B"/>
<path d="M428.122 190.445C428.122 190.445 428.75 190.318 429.63 190.19C429.881 190.19 430.132 190.19 430.383 190.19C430.634 190.19 430.885 190.19 431.137 190.19C431.388 190.19 431.764 190.318 432.016 190.318C432.141 190.318 432.267 190.445 432.392 190.445L432.769 190.573C433.02 190.7 433.272 190.827 433.523 191.082C433.774 191.21 434.025 191.465 434.151 191.592C434.276 191.847 434.527 191.975 434.653 192.23C434.779 192.485 434.904 192.612 435.03 192.867C435.155 192.994 435.281 193.249 435.406 193.377C435.532 193.504 435.532 193.632 435.658 193.887C435.783 194.142 435.909 194.269 435.909 194.269C435.909 194.269 435.909 194.142 435.783 193.759C435.658 193.504 435.658 193.122 435.406 192.612C435.281 192.357 435.155 192.102 435.03 191.847C434.904 191.592 434.779 191.337 434.527 191.082C434.276 190.827 434.151 190.573 433.774 190.445C433.523 190.318 433.272 190.063 432.895 189.935L432.392 189.808C432.267 189.808 432.141 189.68 431.89 189.68C431.639 189.553 431.262 189.553 430.885 189.553C430.634 189.553 430.257 189.553 430.006 189.68C429.755 189.68 429.504 189.808 429.253 189.808C428.625 189.935 428.122 190.445 428.122 190.445Z" fill="#DC918B"/>
<path d="M445.956 154.498C445.956 154.498 442.69 148.762 446.332 136.652C449.974 124.542 448.091 122.502 448.091 122.502C448.091 122.502 447.337 118.041 450.1 111.922C452.988 105.803 453.24 104.401 457.133 106.568C466.175 111.412 473.585 121.1 474.087 138.691C474.338 146.722 459.645 179.737 458.891 183.689L452.863 180.247C452.863 180.247 448.342 186.366 447.212 192.867C447.212 192.867 447.337 173.746 449.598 162.019C451.984 150.291 449.221 153.096 445.956 154.498Z" fill="#2B2E3A"/>
<path d="M451.733 181.522C451.733 181.522 455.249 171.324 463.287 175.913C471.575 180.502 468.059 207.399 448.97 199.368C449.221 199.368 444.825 194.524 451.733 181.522Z" fill="#FAC2A8"/>
<path d="M451.733 181.522C451.733 181.522 455.249 171.324 463.287 175.913C471.575 180.502 467.18 210.586 448.216 202.555C448.342 202.555 444.825 194.524 451.733 181.522Z" fill="#FAC2A8"/>
<path d="M461.654 184.072C461.654 183.179 461.528 182.415 461.152 181.522C461.026 181.14 460.775 180.757 460.398 180.502C460.147 180.248 459.645 179.993 459.268 179.865C458.891 179.738 458.389 179.738 458.012 179.865C457.51 179.993 457.258 180.248 456.882 180.63C456.254 181.267 455.877 182.032 455.375 182.67C454.998 183.434 454.621 184.199 454.37 185.092C453.868 186.749 453.365 188.533 453.114 190.19V190.318H453.24C454.119 190.573 454.998 191.083 455.626 191.72C455.877 192.102 456.128 192.485 456.128 192.995C456.254 193.505 456.128 193.887 456.003 194.397C456.003 194.652 455.877 194.907 455.751 195.034C455.626 195.289 455.626 195.544 455.5 195.672C455.375 195.927 455.249 196.054 455.123 196.309C454.998 196.437 454.872 196.692 454.747 196.946C454.119 197.711 453.491 198.476 452.863 199.113C453.616 198.476 454.244 197.839 454.872 197.074C455.5 196.309 456.003 195.544 456.254 194.524C456.379 194.015 456.505 193.505 456.379 192.995C456.379 192.485 456.128 191.975 455.751 191.593C455.5 191.21 454.998 190.828 454.621 190.7C454.119 190.445 453.742 190.19 453.24 190.063L453.365 190.19C453.616 188.533 454.119 186.749 454.621 185.219C454.872 184.454 455.249 183.689 455.5 182.924C455.877 182.16 456.254 181.395 456.882 180.885C457.133 180.63 457.51 180.375 457.886 180.248C458.263 180.12 458.64 180.12 459.017 180.248C459.393 180.375 459.77 180.502 460.021 180.885C460.272 181.14 460.524 181.522 460.775 181.905C461.403 182.415 461.528 183.307 461.654 184.072C461.654 184.964 461.654 185.856 461.528 186.621C461.654 185.856 461.78 184.964 461.654 184.072Z" fill="#C28482"/>
<path d="M450.351 126.454C450.351 126.454 432.392 134.102 411.922 131.17C411.922 131.17 417.95 125.944 418.704 121.865C418.704 121.865 409.661 128.238 399.489 129.641C389.316 131.043 375.628 131.043 374.372 138.691C374.372 138.691 371.232 134.485 375.376 123.139C379.521 111.794 411.922 71.1307 457.007 109.5C457.133 109.627 460.021 132.063 450.351 126.454Z" fill="#2B2E3A"/>
<path d="M372.99 127.346C372.99 127.346 369.599 122.884 367.213 134.994C364.827 147.104 370.855 178.207 374.623 181.139C374.623 170.559 374.874 134.229 377.763 129.64C380.777 124.924 372.99 127.346 372.99 127.346Z" fill="#2B2E3A"/>
<path d="M357.418 118.423C365.706 122.885 373.493 108.48 373.493 108.48L366.209 111.54C366.209 111.54 364.576 105.421 384.544 94.2034C404.387 82.9858 431.764 93.3111 438.797 96.1155C445.704 99.1748 447.839 91.2715 447.839 91.2715C456.128 96.7528 459.268 112.559 459.268 112.559C434.904 105.293 401.121 117.148 379.144 128.876C357.166 140.603 352.143 114.217 352.143 114.217C354.027 116.129 357.418 118.423 357.418 118.423Z" fill="#2B2E3A"/>
<path d="M387.307 172.598C385.8 172.598 384.419 171.323 384.419 169.666C384.419 168.009 385.674 166.734 387.307 166.734C388.94 166.734 390.196 168.009 390.196 169.666C390.196 171.323 388.94 172.598 387.307 172.598Z" fill="#2B2E3A"/>
<path d="M388.312 169.794C387.809 169.794 387.433 169.412 387.433 168.902C387.433 168.392 387.809 168.01 388.312 168.01C388.814 168.01 389.191 168.392 389.191 168.902C389.191 169.412 388.814 169.794 388.312 169.794Z" fill="white"/>
<path d="M420.085 170.686C418.578 170.686 417.197 169.411 417.197 167.754C417.197 166.224 418.452 164.822 420.085 164.822C421.718 164.822 422.973 166.097 422.973 167.754C422.973 169.411 421.718 170.686 420.085 170.686Z" fill="#2B2E3A"/>
<path d="M420.964 167.755C420.462 167.755 420.085 167.373 420.085 166.863C420.085 166.353 420.462 165.971 420.964 165.971C421.466 165.971 421.843 166.353 421.843 166.863C421.969 167.373 421.592 167.755 420.964 167.755Z" fill="white"/>
<path fill-rule="evenodd" clip-rule="evenodd" d="M341.091 184.325H282.192C270.512 184.325 260.968 174.637 260.968 162.783V158.194C260.968 147.868 269.256 139.455 279.429 139.455H323.007C333.054 139.455 341.091 147.613 341.091 157.811V184.325Z" fill="white"/>
<path d="M291.108 166.99C292.773 166.99 294.122 165.62 294.122 163.93C294.122 162.241 292.773 160.871 291.108 160.871C289.444 160.871 288.094 162.241 288.094 163.93C288.094 165.62 289.444 166.99 291.108 166.99Z" fill="#D0D5F4"/>
<path d="M301.155 166.99C302.82 166.99 304.169 165.62 304.169 163.93C304.169 162.241 302.82 160.871 301.155 160.871C299.49 160.871 298.141 162.241 298.141 163.93C298.141 165.62 299.49 166.99 301.155 166.99Z" fill="#D0D5F4"/>
<path d="M311.202 166.99C312.867 166.99 314.216 165.62 314.216 163.93C314.216 162.241 312.867 160.871 311.202 160.871C309.537 160.871 308.188 162.241 308.188 163.93C308.188 165.62 309.537 166.99 311.202 166.99Z" fill="#D0D5F4"/>
<defs>
<linearGradient id="paint0_linear" x1="402.585" y1="169.158" x2="401.617" y2="193.45" gradientUnits="userSpaceOnUse">
<stop stop-color="#FAC2A8"/>
<stop offset="1" stop-color="#DC918B"/>
</linearGradient>
</defs>
</svg>
