<svg width="20" height="21" viewBox="0 0 20 21" fill="none" xmlns="http://www.w3.org/2000/svg">
<path d="M9.20038 6.33828C9.40756 6.26059 9.65358 6.20232 9.94492 6.16995L9.6989 8.81144C9.4982 8.7467 9.31692 8.66901 9.14859 8.58484C8.98026 8.50068 8.83135 8.40356 8.70834 8.29997C8.58533 8.18991 8.48821 8.0669 8.42347 7.93094C8.35226 7.79498 8.31988 7.63313 8.31988 7.45185C8.31988 7.29647 8.35226 7.14756 8.41052 7.00513C8.46879 6.86269 8.56591 6.73968 8.69539 6.62315C8.82487 6.51308 8.99321 6.41597 9.20038 6.33828ZM11.7448 11.2846C11.6153 11.181 11.4664 11.0904 11.2916 11.0127C11.1168 10.935 10.929 10.8702 10.7218 10.8055L10.4499 13.6995C11.0067 13.6347 11.4275 13.4599 11.7189 13.188C12.0037 12.9161 12.1526 12.56 12.1526 12.1133C12.1526 11.932 12.1138 11.7766 12.049 11.6407C11.9778 11.5112 11.8742 11.3882 11.7448 11.2846ZM19.9994 10.0027C19.9994 15.5252 15.5192 20.0054 9.99671 20.0054C4.47419 20.0054 0.000488281 15.5252 0.000488281 10.0027C0.000488281 4.48017 4.47419 0 10.0032 0C15.5322 0 19.9994 4.4737 19.9994 10.0027ZM13.9978 11.8479C13.9978 11.4011 13.9072 11.0321 13.7194 10.7343C13.5316 10.4365 13.2921 10.1905 12.9943 9.98975C12.6965 9.78905 12.3598 9.62719 11.9908 9.50418C11.6217 9.38117 11.2462 9.26463 10.8643 9.16105L11.1427 6.20879C11.3498 6.25411 11.5376 6.30591 11.7059 6.37065C11.8742 6.43539 12.0296 6.50013 12.1656 6.56488C12.308 6.62962 12.431 6.68141 12.5346 6.72673C12.6447 6.77205 12.7353 6.79148 12.813 6.79148C12.9166 6.79148 13.0072 6.76558 13.0849 6.72026C13.1626 6.67494 13.2338 6.60372 13.305 6.50661L13.7777 5.85919C13.4799 5.60022 13.1238 5.37362 12.7224 5.16644C12.3145 4.95927 11.8354 4.81683 11.2786 4.73914L11.4146 3.33423H10.6959C10.5405 3.33423 10.4175 3.37955 10.3269 3.47019C10.2298 3.56083 10.178 3.66442 10.1715 3.78096L10.0809 4.68735C9.50467 4.68735 8.98673 4.77799 8.54001 4.95279C8.09329 5.1276 7.71778 5.35419 7.41349 5.62611C7.1092 5.89803 6.87613 6.20879 6.71427 6.55193C6.55242 6.89506 6.47473 7.25115 6.47473 7.6137C6.47473 8.09927 6.56537 8.50715 6.74017 8.83086C6.92145 9.15457 7.15452 9.42649 7.44586 9.63367C7.7372 9.84732 8.06739 10.0156 8.42995 10.1451C8.79898 10.2746 9.16801 10.3847 9.54352 10.4818L9.2457 13.6736C8.95436 13.6283 8.69539 13.5506 8.48174 13.4535C8.26809 13.3564 8.07386 13.2528 7.90553 13.1557C7.7372 13.0585 7.58829 12.9679 7.45234 12.8967C7.32285 12.8255 7.19984 12.7866 7.0833 12.7866C6.98619 12.7866 6.89555 12.8125 6.81139 12.8514C6.72075 12.8967 6.656 12.955 6.60421 13.0262L6.00211 13.8354C6.38409 14.1721 6.83728 14.457 7.38112 14.6836C7.91848 14.9102 8.50116 15.0656 9.11622 15.1432L8.97378 16.6712H9.69242C9.84781 16.6712 9.97082 16.6258 10.0615 16.5352C10.1586 16.4446 10.2104 16.341 10.2168 16.2309L10.3139 15.1821C10.9031 15.1432 11.4275 15.0332 11.8872 14.8454C12.3469 14.6577 12.7288 14.4181 13.0461 14.1203C13.3568 13.8225 13.5964 13.4794 13.7582 13.0909C13.9201 12.7025 13.9978 12.2881 13.9978 11.8479Z" fill="#F93E4B"/>
</svg>
