<svg width="20" height="20" viewBox="0 0 20 20" fill="none" xmlns="http://www.w3.org/2000/svg">
<path d="M19.5 3.00093C19.2 3.00093 19 3.20093 19 3.50093V4.10093C18.8 4.00093 18.7 4.00093 18.5 4.00093C18.1 4.00093 17.7 4.20093 17.4 4.40093C17.1 4.60093 17 5.10093 17 5.50093C17 5.90093 17.2 6.30093 17.4 6.60093C17.4 6.60093 17.6 6.80093 17.8 6.90093C17.7 7.00093 17.5 7.00093 17.3 7.00093H17C15.7 4.60093 13 3.00093 9.9 3.00093C9.6 3.00093 9.2 3.00093 8.9 3.10093C8.4 2.20093 7.4 1.40093 6.1 0.800927C5.6 0.600927 5.1 0.900927 5.2 1.40093C5.3 2.40093 5.3 3.60093 5.1 4.50093C3.9 5.40093 2.9 6.70093 2.4 8.10093C1.9 8.50093 1.4 8.70093 0.8 8.90093C0.3 9.00093 0 9.40093 0 9.90093V13.2009C0 13.7009 0.3 14.1009 0.8 14.2009C1.9 14.5009 4 15.3009 4.9 18.4009C5 18.8009 5.4 19.1009 5.9 19.1009H7.4C7.8 19.1009 8.2 18.8009 8.3 18.4009L8.5 17.9009C8.9 17.9009 9.4 18.0009 10 18.0009C10.6 18.0009 11.1 17.9009 11.6 17.8009L11.8 18.3009C11.9 18.7009 12.3 19.0009 12.7 19.0009H14.4C14.8 19.0009 15.1 18.8009 15.3 18.5009C16 17.1009 18 13.4009 18 11.0009C18 10.8009 18 10.7009 18 10.5009C18 9.60093 17.8 8.80093 17.5 8.00093C18 8.00093 18.4 7.80093 18.8 7.60093C19.6 7.10093 20 6.20093 20 5.30093V3.50093C20 3.20093 19.8 3.00093 19.5 3.00093ZM7 9.00093C6.4 9.00093 6 8.60093 6 8.00093C6 7.40093 6.4 7.00093 7 7.00093C7.6 7.00093 8 7.40093 8 8.00093C8 8.60093 7.6 9.00093 7 9.00093ZM19 5.30093C19 5.60093 18.9 5.90093 18.7 6.20093C18.4 6.10093 18.2 5.90093 18.1 5.80093C17.9 5.60093 17.9 5.30093 18.1 5.10093C18.2 5.00093 18.4 5.00093 18.5 5.00093C18.6 5.00093 18.8 5.00093 18.9 5.10093C18.9 5.20093 18.9 5.20093 19 5.30093Z" fill="#EF3F54"/>
</svg>
