<svg width="18" height="13" viewBox="0 0 18 13" fill="none" xmlns="http://www.w3.org/2000/svg">
<path d="M14.8337 7.00065C12.5003 7.00065 10.667 5.16732 10.667 2.83398C10.667 2.25065 10.8337 1.66732 11.0003 1.16732H2.33366C1.41699 1.16732 0.666992 1.91732 0.666992 2.83398V11.1673C0.666992 12.084 1.41699 12.834 2.33366 12.834H3.66699H15.667C16.5837 12.834 17.3337 12.084 17.3337 11.1673V6.16732C16.667 6.66732 15.7503 7.00065 14.8337 7.00065ZM3.16699 4.66732C3.16699 4.16732 3.50033 3.83398 4.00033 3.83398H6.50033C7.00033 3.83398 7.33366 4.16732 7.33366 4.66732V5.75065C7.33366 6.25065 7.00033 6.58398 6.50033 6.58398H4.00033C3.50033 6.58398 3.16699 6.25065 3.16699 5.75065V4.66732ZM4.00033 10.334C3.50033 10.334 3.16699 10.0007 3.16699 9.50065C3.16699 9.00065 3.50033 8.66732 4.00033 8.66732C4.50033 8.66732 4.83366 9.00065 4.83366 9.50065C4.83366 10.0007 4.50033 10.334 4.00033 10.334ZM7.33366 10.334C6.83366 10.334 6.50033 10.0007 6.50033 9.50065C6.50033 9.00065 6.83366 8.66732 7.33366 8.66732C7.83366 8.66732 8.16699 9.00065 8.16699 9.50065C8.16699 10.0007 7.83366 10.334 7.33366 10.334ZM10.667 10.334C10.167 10.334 9.83366 10.0007 9.83366 9.50065C9.83366 9.00065 10.167 8.66732 10.667 8.66732C11.167 8.66732 11.5003 9.00065 11.5003 9.50065C11.5003 10.0007 11.167 10.334 10.667 10.334ZM14.0003 10.334C13.5003 10.334 13.167 10.0007 13.167 9.50065C13.167 9.00065 13.5003 8.66732 14.0003 8.66732C14.5003 8.66732 14.8337 9.00065 14.8337 9.50065C14.8337 10.0007 14.5003 10.334 14.0003 10.334ZM17.3337 2.83398C17.3337 3.33398 17.0003 3.66732 16.5003 3.66732H15.667V4.50065C15.667 5.00065 15.3337 5.33398 14.8337 5.33398C14.3337 5.33398 14.0003 5.00065 14.0003 4.50065V3.66732H13.167C12.667 3.66732 12.3337 3.33398 12.3337 2.83398C12.3337 2.33398 12.667 2.00065 13.167 2.00065H14.0003V1.16732C14.0003 0.667318 14.3337 0.333984 14.8337 0.333984C15.3337 0.333984 15.667 0.667318 15.667 1.16732V2.00065H16.5003C17.0003 2.00065 17.3337 2.33398 17.3337 2.83398Z" fill="#EF3340"/>
</svg>
