<svg width="21" height="18" viewBox="0 0 21 18" fill="none" xmlns="http://www.w3.org/2000/svg">
<path d="M14.4002 17.6004L10.4002 13.6004C10.1002 13.3004 10.0002 12.9004 10.0002 12.5004C10.0002 12.1004 10.1002 11.7004 10.4002 11.4004C11.0002 10.8004 11.9002 10.8004 12.5002 11.4004L14.0002 12.9004L14.0002 2.50039C14.0002 1.70039 14.7002 1.00039 15.5002 1.00039C16.3002 1.00039 17.0002 1.70039 17.0002 2.50039L17.0002 12.9004L18.4002 11.5004C19.0002 10.9004 19.9002 10.9004 20.5002 11.5004C21.1002 12.1004 21.1002 13.0004 20.5002 13.6004L16.5002 17.6004C16.0002 18.1004 15.0002 18.1004 14.4002 17.6004ZM5.4002 0.40039L1.40019 4.40039C0.800194 5.00039 0.800194 5.90039 1.40019 6.50039C2.00019 7.10039 2.90019 7.10039 3.50019 6.50039L5.0002 5.10039L5.00019 15.5004C5.00019 16.3004 5.70019 17.0004 6.50019 17.0004C7.30019 17.0004 8.00019 16.3004 8.00019 15.5004L8.0002 5.10039L9.40019 6.50039C10.0002 7.10039 10.9002 7.10039 11.5002 6.50039C11.9002 6.30039 12.0002 5.90039 12.0002 5.50039C12.0002 5.10039 11.9002 4.70039 11.6002 4.40039L7.6002 0.40039C7.0002 -0.09961 6.0002 -0.09961 5.4002 0.40039Z" fill="#F93E4B"/>
</svg>
