<svg width="20" height="21" viewBox="0 0 20 21" fill="none" xmlns="http://www.w3.org/2000/svg">
<path d="M6.656 7.6655V6.97923C6.656 6.63609 6.9344 6.3577 7.27753 6.3577C7.62067 6.3577 7.89906 6.63609 7.89906 6.97923V7.6655C7.89906 8.00863 7.62067 8.28702 7.27753 8.28702C6.9344 8.28702 6.656 8.00863 6.656 7.6655ZM12.813 11.686C12.4699 11.686 12.1915 11.9644 12.1915 12.3075V12.9938C12.1915 13.3369 12.4699 13.6153 12.813 13.6153C13.1561 13.6153 13.4345 13.3369 13.4345 12.9938V12.3075C13.4345 11.9644 13.1561 11.686 12.813 11.686ZM19.9994 10.0027C19.9994 15.5252 15.5192 20.0054 9.99671 20.0054C4.47419 20.0054 0.000488281 15.5252 0.000488281 10.0027C0.000488281 4.48017 4.47419 0 10.0032 0C15.5322 0 19.9994 4.4737 19.9994 10.0027ZM5.26404 8.28702C5.37411 8.57189 5.52301 8.81791 5.71724 9.01861C5.91147 9.21931 6.14454 9.38117 6.40998 9.48476C6.66895 9.59482 6.96029 9.64661 7.27106 9.64661C7.55592 9.64661 7.83432 9.59482 8.09329 9.48476C8.35873 9.3747 8.5918 9.21931 8.78603 9.01861C8.98026 8.81791 9.14211 8.57189 9.26512 8.2935C9.38166 8.00863 9.43993 7.69139 9.43993 7.34826C9.43993 6.99218 9.38813 6.66847 9.27807 6.3836C9.17448 6.09226 9.0191 5.83976 8.82487 5.63906C8.63065 5.43836 8.39757 5.2765 8.12566 5.16644C7.59477 4.94632 6.92145 4.94632 6.40351 5.16644C6.13807 5.2765 5.90499 5.43836 5.71077 5.63906C5.51654 5.83976 5.36763 6.09226 5.25757 6.3836C5.15398 6.66847 5.09571 6.99218 5.09571 7.34826C5.10219 7.69139 5.16046 8.00863 5.26404 8.28702ZM14.3345 5.54195H12.8583C12.69 5.54195 12.554 5.58079 12.444 5.65201C12.3533 5.71028 12.2821 5.78149 12.2174 5.85919L5.67192 14.4311H7.18042C7.32285 14.4311 7.44586 14.3987 7.54297 14.3404C7.64009 14.2822 7.72425 14.211 7.789 14.1268L14.3345 5.54195ZM14.9754 12.6701C14.9754 12.314 14.9236 11.9903 14.8135 11.7054C14.71 11.4141 14.5546 11.1616 14.3603 10.9609C14.1661 10.7602 13.933 10.5983 13.6611 10.4883C13.1367 10.2681 12.4699 10.2681 11.939 10.4883C11.6735 10.5983 11.4405 10.7602 11.2462 10.9609C11.052 11.1681 10.8966 11.4206 10.793 11.7054C10.6895 11.9903 10.6312 12.314 10.6312 12.6701C10.6312 13.0197 10.683 13.3369 10.793 13.6088C10.8966 13.8872 11.052 14.1333 11.2462 14.3404C11.4405 14.5411 11.6671 14.6965 11.939 14.8131C12.2044 14.9231 12.4893 14.9749 12.8001 14.9749C13.0849 14.9749 13.3633 14.9166 13.6288 14.8066C13.8877 14.6965 14.1208 14.5411 14.3215 14.3404C14.5222 14.1397 14.6776 13.8937 14.7941 13.6153C14.9107 13.3369 14.9754 13.0197 14.9754 12.6701Z" fill="#F93E4B"/>
</svg>
